<svg xmlns="http://www.w3.org/2000/svg" width="588.707" height="653.292" viewBox="0 0 588.707 653.292">
  <g id="Group_21141" data-name="Group 21141" transform="translate(-73.546 -48.702)">
    <path id="Path_49199" data-name="Path 49199" d="M293,516.144c54.672,132.246,289.969,81.819,277.461-71.387-11.092-135.888,74-113.3,83.222-220.373C662.236,126.252,608.337,62.3,514.631,50.5,362.66,31.351,398.161,171.748,219.451,165.206c-188.38-6.9-157.834,255.917-23.733,270.737C260.576,443.111,273.575,470.808,293,516.144Z" transform="translate(7.687)" fill="#ecf1fd" fill-rule="evenodd" opacity="0.13"/>
    <g id="Group_21137" data-name="Group 21137" transform="translate(73.546 349.263)">
      <g id="Group_21136" data-name="Group 21136">
        <path id="Path_49200" data-name="Path 49200" d="M141.622,477.1S89.554,381.34,105.771,304.568s67.18-77.991,80.2-49.015-21.057,63.431-30.811,112.071C138.1,452.7,141.622,477.1,141.622,477.1Z" transform="translate(-56.466 -238.085)" fill="#00c0ab" fill-rule="evenodd"/>
        <path id="Path_49201" data-name="Path 49201" d="M155.852,431.607s-67.561-22.228-80.11-66.47c-12.49-44.038,31.884-70.06,42.53-29.849C125.824,363.8,142.354,412.346,155.852,431.607Z" transform="translate(-73.546 -192.734)" fill="#00907a" fill-rule="evenodd"/>
        <path id="Path_49202" data-name="Path 49202" d="M128.53,439.475s5.5-79.9,29.221-123.462c19.019-34.933,62.86,5.826,36.991,33.146C175.023,369.985,128.53,439.475,128.53,439.475Z" transform="translate(-41.267 -200.263)" fill="#00907a" fill-rule="evenodd"/>
      </g>
      <path id="Path_49203" data-name="Path 49203" d="M86.358,436.3a75.519,75.519,0,0,0,3.231,21.871c8.092,26.826,30.721,46.069,57.367,46.069,29.146,0,53.522-23.1,59.286-53.9a76.48,76.48,0,0,0,1.295-14.044,75.2,75.2,0,0,0-2.195-18.216,69.171,69.171,0,0,0-18.161-32.523H106.715a69.182,69.182,0,0,0-18.159,32.523,74.259,74.259,0,0,0-2.162,15.975C86.379,434.815,86.358,435.547,86.358,436.3Z" transform="translate(-66.024 -151.509)" fill="#915ef3" fill-rule="evenodd"/>
    </g>
    <g id="Group_21138" data-name="Group 21138" transform="translate(162.554 425.565)">
      <path id="Path_49204" data-name="Path 49204" d="M129.63,405.374H448.754c47.54,0,47.54,82.22,0,82.22H129.63v-6.681h74.052c44.885,0,46.767-68.856,0-68.859H129.63Z" transform="translate(-129.63 -216.18)" fill="#915ef3" fill-rule="evenodd"/>
      <path id="Path_49205" data-name="Path 49205" d="M129.63,405.374H276.372c47.542,0,47.542,82.22,0,82.22H129.63v-6.681h74.052c44.885,0,46.767-68.856,0-68.859H129.63Z" transform="translate(-129.63 -216.18)" fill="#5f24d6" fill-rule="evenodd"/>
      <path id="Path_49206" data-name="Path 49206" d="M133.075,409.583h137.17c42.9,0,42.9,68.859,0,68.859H133.075a39.2,39.2,0,0,0,16.194-31.674v-5.512A39.2,39.2,0,0,0,133.075,409.583Z" transform="translate(-127.608 -213.709)" fill="#ffead1" fill-rule="evenodd"/>
      <path id="Path_49207" data-name="Path 49207" d="M139.43,363.969H394.556c38.008,0,38.008,65.733,0,65.733H139.43v-5.342h59.2c35.883,0,37.388-55.048,0-55.05h-59.2Z" transform="translate(-123.877 -240.487)" fill="#f54254" fill-rule="evenodd"/>
      <path id="Path_49208" data-name="Path 49208" d="M139.429,363.969H257.018c38.008,0,38.008,65.733,0,65.733H139.429v-5.342H253.463c34.3,0,34.3-55.05,0-55.05H139.429Z" transform="translate(-123.877 -240.487)" fill="#e71f34" fill-rule="evenodd"/>
      <path id="Path_49209" data-name="Path 49209" d="M142.183,367.334H251.847c34.3,0,34.3,55.05,0,55.05H142.183C159.655,409.643,159.655,380.072,142.183,367.334Z" transform="translate(-122.261 -238.511)" fill="#ffead1" fill-rule="evenodd"/>
      <path id="Path_49210" data-name="Path 49210" d="M152.992,319.045h276.78c41.232,0,41.232,71.309,0,71.309H152.992v-5.8h64.226c38.929,0,40.562-59.719,0-59.722H152.992Z" transform="translate(-115.915 -266.86)" fill="#00c0ab" fill-rule="evenodd"/>
      <path id="Path_49211" data-name="Path 49211" d="M152.993,319.045H280.76c41.232,0,41.232,71.309,0,71.309H152.993v-5.8H276.7c37.21,0,37.21-59.722,0-59.722H152.993Z" transform="translate(-115.915 -266.86)" fill="#00a992" fill-rule="evenodd"/>
      <path id="Path_49212" data-name="Path 49212" d="M155.98,322.694H274.949c37.21,0,37.21,59.722,0,59.722H155.98C174.933,368.6,174.933,336.514,155.98,322.694Z" transform="translate(-114.161 -264.717)" fill="#ffead1" fill-rule="evenodd"/>
      <path id="Path_49213" data-name="Path 49213" d="M181.739,286.163H384.261c30.168,0,30.168,52.178,0,52.178H181.739V334.1h46.994c28.484,0,29.679-43.7,0-43.7H181.739Z" transform="translate(-99.039 -286.163)" fill="#f54254" fill-rule="evenodd"/>
      <path id="Path_49214" data-name="Path 49214" d="M181.739,286.163h93.347c30.168,0,30.168,52.178,0,52.178H181.739V334.1H272.26c27.226,0,27.226-43.7,0-43.7H181.739Z" transform="translate(-99.039 -286.163)" fill="#e71f34" fill-rule="evenodd"/>
      <path id="Path_49215" data-name="Path 49215" d="M183.925,288.834h87.051c27.226,0,27.226,43.7,0,43.7H183.925C197.794,322.419,197.794,298.945,183.925,288.834Z" transform="translate(-97.756 -284.595)" fill="#ffead1" fill-rule="evenodd"/>
      <path id="Path_49216" data-name="Path 49216" d="M133.075,409.583h137.17c42.9,0,42.9,68.859,0,68.859H133.075C154.927,462.506,154.927,425.517,133.075,409.583Z" transform="translate(-127.608 -213.709)" fill="#ffead1" fill-rule="evenodd"/>
      <path id="Path_49217" data-name="Path 49217" d="M174.726,385.08h29.357v50.327l-14.678-14.4-14.679,14.4Z" transform="translate(-103.156 -228.094)" fill="#ff6473" fill-rule="evenodd"/>
      <path id="Path_49218" data-name="Path 49218" d="M194.041,386.6c14.23,0,25.834-.527,25.834-1.174s-11.6-1.173-25.834-1.173-25.834.527-25.834,1.173S179.812,386.6,194.041,386.6Z" transform="translate(-106.983 -228.577)" fill="#dfc2a7" fill-rule="evenodd"/>
      <path id="Path_49219" data-name="Path 49219" d="M207.775,303.19h29.357v50.325l-14.678-14.4-14.679,14.4Z" transform="translate(-83.755 -276.168)" fill="#00c0ab" fill-rule="evenodd"/>
      <path id="Path_49220" data-name="Path 49220" d="M227.09,304.715c14.228,0,25.834-.527,25.834-1.176s-11.606-1.174-25.834-1.174-25.834.528-25.834,1.174S212.861,304.715,227.09,304.715Z" transform="translate(-87.582 -276.652)" fill="#dfc2a7" fill-rule="evenodd"/>
    </g>
    <g id="Group_21140" data-name="Group 21140" transform="translate(302.089 170.664)">
      <path id="Path_49221" data-name="Path 49221" d="M288.924,185.964c6.985,20.194,5.677,28.986,22.671,53.839,9.051,13.238,32.344-3.991,37.8-9.625,3.814-4,7.561-8.329,11.017-12.619a4.761,4.761,0,0,1,8.14,4.864c-10.019,21.709-41.881,50.827-67.354,32.449-14.456-10.43-29.918-48.44-34.363-59.254C259.924,178.82,282.117,170.495,288.924,185.964Z" transform="translate(-189.393 -94.883)" fill="#ff918f" fill-rule="evenodd"/>
      <path id="Path_49222" data-name="Path 49222" d="M306.39,131.986c-4.422-4.853-26.2-16.361-36.87,12.168-4.385,11.725-5.31,25.036-11.087,30.565-9.74,9.321-15.815,5.583-26.675,13.687-19.37,14.456-19.425,43.741,2.877,54.518C283.522,266.552,323.3,150.548,306.39,131.986Z" transform="translate(-217.55 -125.55)" fill="#35146d" fill-rule="evenodd"/>
      <path id="Path_49223" data-name="Path 49223" d="M273.792,140.833c-3.417,3.119-8.272,3.642-10.84,1.174s-1.884-7,1.533-10.117,8.269-3.642,10.838-1.174S277.206,137.716,273.792,140.833Z" transform="translate(-191.81 -123.431)" fill="#00c0ab" fill-rule="evenodd"/>
      <path id="Path_49224" data-name="Path 49224" d="M350.192,332.3c11.771,37.31,8.169,78.388,11.574,118.154.411,4.782-1.854,7.57-4.585,7.835-2.647.257-5.734-1.854-7.254-6.816-10.686-34.85-25.531-74.039-27.875-113.462C320.579,313.216,342.952,309.354,350.192,332.3Z" transform="translate(-156.244 -13.116)" fill="#ffa4a3" fill-rule="evenodd"/>
      <path id="Path_49225" data-name="Path 49225" d="M366.416,327.171c-12.939,36.923-40.443,67.646-61.552,101.519-2.536,4.074-6.02,4.95-8.365,3.525-2.273-1.381-3.48-4.921-1.722-9.8,12.335-34.3,23.939-74.568,45.691-107.531C354.15,294.147,374.374,304.465,366.416,327.171Z" transform="translate(-172.708 -20.984)" fill="#ffa4a3" fill-rule="evenodd"/>
      <path id="Path_49226" data-name="Path 49226" d="M312.763,217.149c-1.312,8.9-5.877,11.849-8.4,20.411-9.6,33.028-4.807,32.438-3.565,55.266s7.851,34.739-2.074,47.743c-5.937,7.78-20.74,15.978-44.276,9.21-29.937-8.615-26.555-51.543-13.569-71.2,20.441-30.949,2.811-63.352,14.114-90.733,3.963-9.6,15.415-16.223,25.69-17.762s20.875,6.547,25.805,15.685C315.926,203.245,313.681,210.917,312.763,217.149Z" transform="translate(-209.456 -99.518)" fill="#00907a" fill-rule="evenodd"/>
      <path id="Path_49227" data-name="Path 49227" d="M298.384,143.446c6.6,8.248,7.312,46.24-10.479,45.106-9.9-.632-19.272-8.956-21.1-23.076s4.666-26.683,14.493-28.057S295.646,140.027,298.384,143.446Z" transform="translate(-188.815 -118.746)" fill="#ffa4a3" fill-rule="evenodd"/>
      <path id="Path_49228" data-name="Path 49228" d="M421.179,309.349c-3.776-7.858-10.911-13.7-18.732-17.548-19.306-9.5-54.733-17.3-76.861-22.606-26.854-6.435-82.928-30.819-82.928-30.819s-2.644,3.066-3.568,4.26c-9.281,11.992-12.979,26.535-9.478,41.462,2.1,8.957,7.321,17.35,15.075,22.3,9.4,6,105.583,15.348,129.419,21.07L335.4,433.958c6.972,7.28,21.055,13.76,30.827,15.3,22.573-43.038,33.642-63.019,51.543-103.455C422.834,334.351,426.853,321.153,421.179,309.349Z" transform="translate(-211.233 -59.315)" fill="#35146d" fill-rule="evenodd"/>
      <path id="Path_49229" data-name="Path 49229" d="M309.6,157.156s-.844.233-2.328.5a38.544,38.544,0,0,0-1.581-7.688s-.359,2.988-.689,8.043c-.6.079-1.254.156-1.951.221a32.653,32.653,0,0,0-1.273-5.467s-.244,2.043-.517,5.605a50.041,50.041,0,0,1-12.033-.7,42.089,42.089,0,0,1-18.334-8.356C281.866,123,310.479,133.033,309.6,157.156Z" transform="translate(-186.236 -120.74)" fill="#35146d" fill-rule="evenodd"/>
      <path id="Path_49230" data-name="Path 49230" d="M302.35,252.752c.908,2.588,1.885,7.223,3.83,9.524,13.579,16.05,50.543,23.712,75.953,39.248,24.32,14.869,23.409,25.807,25.547,38.651,10.913,65.563,8.956,97.145,13.425,126.29a77.643,77.643,0,0,1-32.039,4.814L357.154,343.963c-21.57-4.553-101.2-27.5-112.057-34.428-7.754-4.953-12.976-13.346-15.075-22.3-4.174-17.8.965-35.5,12.476-48.854C242.5,238.376,273.066,246.626,302.35,252.752Z" transform="translate(-211.073 -59.315)" fill="#5f24d6" fill-rule="evenodd"/>
      <path id="Path_49231" data-name="Path 49231" d="M355.138,289.222c1.906-1.866,6.5-6.6,5.883-8.181-.773-1.992-5.4-1.838-10.414-1.966-.974-.025-19.094,2.56-19.264,2.763-26.742-6.042-43.185-6.75-73.315-17.561-6.62-2.374-7.021-8.2-4.328-14.663,7.161-17.188,15.542-36.523,23.566-56.313,4.431-10.928-13.931-25.077-21.963-9.559-16.521,31.917-22.425,57.594-24.11,70.982-1.289,10.249.3,18.98,11.306,22.738,26.459,9.037,68.567,13.269,89.321,11.422C338.047,288.535,350.867,293.668,355.138,289.222Z" transform="translate(-209.764 -95.416)" fill="#ffa4a3" fill-rule="evenodd"/>
      <path id="Path_49232" data-name="Path 49232" d="M275.189,160.15l-12.014,16.18A7.764,7.764,0,1,0,276.95,183.4l7.775-18.356a5.375,5.375,0,0,0-9.537-4.9Z" transform="translate(-191.436 -106.748)" fill="#ffa4a3" fill-rule="evenodd"/>
      <path id="Path_49233" data-name="Path 49233" d="M264.631,166.081s16.4-4.721,23.42-13.53A191.71,191.71,0,0,0,299.426,136.8C267.463,110.719,251.94,162.862,264.631,166.081Z" transform="translate(-192.51 -123.217)" fill="#35146d" fill-rule="evenodd"/>
      <path id="Path_49234" data-name="Path 49234" d="M274.27,155.739c-.389,3.871-3.131,6.926-6.128,6.821s-5.109-3.325-4.721-7.194,3.133-6.924,6.128-6.823S274.657,151.869,274.27,155.739Z" transform="translate(-190.649 -112.053)" fill="#ffa4a3" fill-rule="evenodd"/>
      <path id="Path_49235" data-name="Path 49235" d="M370.4,447.6a57.964,57.964,0,0,1-8.086-8.842c-1.327-1.936-3.7-28.624-4.226-35.1-5.659-.724-10.667-2.322-13.679-5.54-5.966,6.175-12.111,26.772-16.083,35.418l3.374,1.652,10.143-16.161c.679,2.574,2.054,16.289,3.776,21.854a2.761,2.761,0,0,0,1.59,1.89c.557.275,24.045,11.765,23.987,11.736-.019-.011.036.019.059.029C372.139,452.651,371.914,449.026,370.4,447.6Z" transform="translate(-152.521 34.46)" fill="#35146d" fill-rule="evenodd"/>
      <path id="Path_49236" data-name="Path 49236" d="M304.95,430.236a57.854,57.854,0,0,1-2.414-11.736c-.148-2.342,10.579-23.425,13.841-32.925-4.491-3.52-7.846-6.856-8.786-11.163-8.288,2.247-23.728,16.8-31.57,22.192l2.052,3.147,16.989-8.683c-.74,2.574-6.558,14.556-7.951,20.081a3.9,3.9,0,0,0,.151,2.687c.327.517,14.866,22.795,14.833,22.741a.589.589,0,0,0,.033.054C303.855,435.468,305.52,432.242,304.95,430.236Z" transform="translate(-183.225 20.544)" fill="#35146d" fill-rule="evenodd"/>
      <g id="Group_21139" data-name="Group 21139" transform="translate(78.343 117.263)">
        <rect id="Rectangle_586" data-name="Rectangle 586" width="135.702" height="5.18" transform="translate(0 64.173)" fill="#5f24d6"/>
        <path id="Path_49237" data-name="Path 49237" d="M296.076,268.79h89.389L409.6,199.438H319.581Z" transform="translate(-249.794 -199.438)" fill="#35146d" fill-rule="evenodd"/>
        <path id="Path_49238" data-name="Path 49238" d="M338.953,214.342c-5.15,0-10.519,4.174-11.992,9.324s1.506,9.326,6.658,9.326,10.517-4.176,11.99-9.326S344.1,214.342,338.953,214.342Z" transform="translate(-231.884 -190.688)" fill="#5f24d6" fill-rule="evenodd"/>
      </g>
    </g>
  </g>
</svg>
