<svg xmlns="http://www.w3.org/2000/svg" xmlns:xlink="http://www.w3.org/1999/xlink" width="22" height="18.74" viewBox="0 0 22 18.74">
  <defs>
    <linearGradient id="linear-gradient" x1="0.5" x2="0.5" y2="1" gradientUnits="objectBoundingBox">
      <stop offset="0" stop-color="#e75d7a"/>
      <stop offset="1" stop-color="#c12280"/>
    </linearGradient>
  </defs>
  <g id="Group_21513" data-name="Group 21513" transform="translate(-776.984 -123.184)">
    <path id="Path_49645" data-name="Path 49645" d="M780.928,123.265c.82,0,1.642-.032,2.46.008a3.532,3.532,0,0,1,2.448,1.13q3.9,4.127,7.774,8.276c.151.16.3.32.452.481a1.664,1.664,0,0,1,0,2.333l-3.813,4.076q-.892.954-1.783,1.908a1.427,1.427,0,0,1-1.748.35,1.678,1.678,0,0,1-.419-.328q-3.5-3.729-6.99-7.466c-.473-.505-.964-1-1.407-1.525a4.191,4.191,0,0,1-.89-2.156,3.842,3.842,0,0,1-.027-.534q0-2.5,0-4.991a1.575,1.575,0,0,1,.718-1.336,1.381,1.381,0,0,1,.832-.233c.8,0,1.595,0,2.392,0Zm-1.726,3.95a3.314,3.314,0,0,0,.04.34,1.482,1.482,0,0,0,1.022,1.174,1.343,1.343,0,0,0,1.449-.371,1.611,1.611,0,0,0,.44-1.428,1.5,1.5,0,0,0-1.766-1.265A1.578,1.578,0,0,0,779.2,127.215Z" transform="translate(0 -0.067)" fill="url(#linear-gradient)"/>
    <path id="Path_49646" data-name="Path 49646" d="M1091.948,141.214l1.249-1.334q2.109-2.252,4.217-4.506a1.638,1.638,0,0,0,.01-2.215c-.708-.774-1.432-1.533-2.15-2.3q-2.995-3.193-5.988-6.387a4.255,4.255,0,0,0-2.324-1.262.264.264,0,0,1,.06-.018c.756,0,1.514-.027,2.267.013a3.55,3.55,0,0,1,2.448,1.129q3.386,3.579,6.747,7.182c.483.514.958,1.037,1.451,1.541a1.683,1.683,0,0,1,.2,2.162c-.172.225-.375.426-.569.634q-2.595,2.777-5.191,5.552a1.485,1.485,0,0,1-1.455.475,1.343,1.343,0,0,1-.632-.369C1092.18,141.414,1092.069,141.319,1091.948,141.214Z" transform="translate(-301.456 0)" fill="url(#linear-gradient)"/>
  </g>
</svg>
