<svg xmlns="http://www.w3.org/2000/svg" xmlns:xlink="http://www.w3.org/1999/xlink" width="22" height="20.363" viewBox="0 0 22 20.363">
  <defs>
    <linearGradient id="linear-gradient" x1="0.5" x2="0.5" y2="1" gradientUnits="objectBoundingBox">
      <stop offset="0" stop-color="#e75d7a"/>
      <stop offset="1" stop-color="#c12280"/>
    </linearGradient>
  </defs>
  <g id="Group_21514" data-name="Group 21514" transform="translate(1110.96 -68.381)">
    <path id="Path_49651" data-name="Path 49651" d="M-1024.653,371.421c-1.433,0-2.794.048-4.15-.016a2.816,2.816,0,0,0-2.414,1c-.67.752-1.417,1.435-2.135,2.144a3.353,3.353,0,0,1-2.429.978c-2.29.009-4.58,0-6.871,0a1.888,1.888,0,0,1-.52-.064.991.991,0,0,1-.731-1.05.953.953,0,0,1,.952-.9c1.393-.018,2.787-.013,4.18,0a.6.6,0,0,1,.375.223,1.731,1.731,0,0,0,2.81.121q1.38-1.372,2.755-2.748c.182-.181.429-.368.168-.639s-.46-.041-.644.143c-.954.949-1.9,1.906-2.861,2.846a.991.991,0,0,1-1.752-.429,1.154,1.154,0,0,1,.237-.909c1.334-1.382,2.69-2.745,4.086-4.065a3.057,3.057,0,0,1,2.218-.743q3.1.032,6.2,0c.42,0,.55.1.539.534C-1024.673,369.01-1024.653,370.177-1024.653,371.421Z" transform="translate(-64.329 -286.789)" fill-rule="evenodd" fill="url(#linear-gradient)"/>
    <path id="Path_49652" data-name="Path 49652" d="M-1110.96,134.242v-4.084c.17-.008.325-.021.48-.021,2.114,0,4.229,0,6.343,0a3.159,3.159,0,0,1,2.3.91q1.921,1.883,3.806,3.8a1.04,1.04,0,0,1,.065,1.5,1.017,1.017,0,0,1-1.531-.069c-.9-.887-1.793-1.786-2.689-2.68-.1-.1-.182-.243-.326-.282a.439.439,0,0,0-.416.089.366.366,0,0,0,0,.423,2.934,2.934,0,0,0,.414.406c.221.235.453.461.679.691q.678.69,1.38,1.356c.264.25.529.5.8.744a1.644,1.644,0,0,0,2.34-.385.7.7,0,0,1,.634-.315c1.313.014,2.627,0,3.94.014a.965.965,0,0,1,.992.8.988.988,0,0,1-.632,1.114,1.77,1.77,0,0,1-.567.081c-2.4,0-4.8-.006-7.207-.029a2.87,2.87,0,0,1-2.031-.854c-.858-.841-1.716-1.682-2.553-2.543a2.113,2.113,0,0,0-1.628-.676C-1107.88,134.252-1109.4,134.242-1110.96,134.242Z" transform="translate(0 -59.245)" fill-rule="evenodd" fill="url(#linear-gradient)"/>
    <path id="Path_49653" data-name="Path 49653" d="M-764.456,72.319a3.916,3.916,0,0,1,3.975-3.938,3.974,3.974,0,0,1,3.951,3.943,3.965,3.965,0,0,1-4.031,3.955A3.89,3.89,0,0,1-764.456,72.319Zm4.254,2.776c.026-.122-.013-.272.024-.389a.647.647,0,0,1,.424-.372,1.118,1.118,0,0,0,.726-1.086,1.155,1.155,0,0,0-.689-1.112c-.149-.078-.307-.139-.462-.2a1.407,1.407,0,0,1-.38-.189.671.671,0,0,1-.193-.476c.021-.255.31-.292.508-.288.076,0,.819.1.822.092l.225-.744-1-.237c-.057-.015-.033-.209-.031-.252a.562.562,0,0,0-.029-.272c-.055-.105-.181-.112-.287-.112a.246.246,0,0,0-.219.163,1.118,1.118,0,0,0-.037.3.459.459,0,0,1-.243.313,1.215,1.215,0,0,0-.873,1.19,1.279,1.279,0,0,0,.925,1.162,5.354,5.354,0,0,1,.742.326.533.533,0,0,1,.222.419.581.581,0,0,1-.335.341,1,1,0,0,1-.512.032c-.291-.044-.576-.125-.893-.2l-.188.812,1.164.27a2.256,2.256,0,0,1,.049.352c.012.087,0,.193.06.263a.332.332,0,0,0,.429.009A.238.238,0,0,0-760.2,75.094Z" transform="translate(-332.43 0)" fill-rule="evenodd" fill="url(#linear-gradient)"/>
    <path id="Path_49654" data-name="Path 49654" d="M-1057.316,336.112h-.72v-1.858a.825.825,0,0,0,.232-.038.957.957,0,0,0,.188-.158c-.07-.066-.134-.176-.212-.188a2.013,2.013,0,0,0-.575-.005,2.264,2.264,0,0,0-.441.155l.4.337v1.749h-.871a3.131,3.131,0,0,0-.823-1.758,2.31,2.31,0,0,1,.42-3.079,2.358,2.358,0,0,1,3.116.128,2.3,2.3,0,0,1,.2,3.1A16.34,16.34,0,0,0-1057.316,336.112Z" transform="translate(-48.37 -251.706)" fill-rule="evenodd" fill="url(#linear-gradient)"/>
    <path id="Path_49655" data-name="Path 49655" d="M-1031.745,472.813c.1-.091.2-.256.311-.261.554-.027,1.112-.027,1.666,0,.108.005.208.167.312.256l-.083.118h-2.119Z" transform="translate(-75.997 -387.736)" fill-rule="evenodd" fill="url(#linear-gradient)"/>
    <path id="Path_49656" data-name="Path 49656" d="M-1020.643,492.86c.029.443-.276.5-.592.491-.355,0-.8.119-.9-.491Z" transform="translate(-85.221 -407.238)" fill-rule="evenodd" fill="url(#linear-gradient)"/>
    <path id="Path_49657" data-name="Path 49657" d="M-1081.08,311.847a.119.119,0,0,1-.015.065.229.229,0,0,1-.321.1,1.237,1.237,0,0,1-.262-.271c-.134-.15-.269-.3-.417-.435s-.185-.294,0-.419c.148-.1.223.016.31.126.1.13.224.249.337.37a2.852,2.852,0,0,1,.316.331A.288.288,0,0,1-1081.08,311.847Z" transform="translate(-27.573 -232.615)" fill-rule="evenodd" fill="url(#linear-gradient)"/>
    <path id="Path_49658" data-name="Path 49658" d="M-999.016,281.336a.118.118,0,0,1-.06.029.229.229,0,0,1-.277-.189,1.236,1.236,0,0,1,.046-.374c.033-.2.062-.4.076-.6s.112-.329.323-.268c.173.051.128.183.1.321-.036.162-.052.331-.075.495a2.844,2.844,0,0,1-.059.454A.286.286,0,0,1-999.016,281.336Z" transform="translate(-107.069 -202.949)" fill-rule="evenodd" fill="url(#linear-gradient)"/>
    <path id="Path_49659" data-name="Path 49659" d="M-936.707,321.141a.119.119,0,0,1-.067,0,.229.229,0,0,1-.146-.3,1.235,1.235,0,0,1,.226-.3c.127-.156.251-.314.363-.481s.261-.23.413-.072c.125.13.02.223-.075.327-.112.122-.21.261-.311.392a2.849,2.849,0,0,1-.276.365A.285.285,0,0,1-936.707,321.141Z" transform="translate(-166.955 -241.293)" fill-rule="evenodd" fill="url(#linear-gradient)"/>
  </g>
</svg>
