<svg xmlns="http://www.w3.org/2000/svg" xmlns:xlink="http://www.w3.org/1999/xlink" width="22.35" height="16.411" viewBox="0 0 22.35 16.411">
  <defs>
    <linearGradient id="linear-gradient" x1="0.5" x2="0.5" y2="1" gradientUnits="objectBoundingBox">
      <stop offset="0" stop-color="#e75d7a"/>
      <stop offset="1" stop-color="#c12280"/>
    </linearGradient>
  </defs>
  <g id="Group_21515" data-name="Group 21515" transform="translate(318.688 138.95)">
    <path id="Path_49660" data-name="Path 49660" d="M-318.688-132.751c.016-.055.032-.11.047-.165a.946.946,0,0,1,.674-.706.937.937,0,0,1,.946.237.363.363,0,0,0,.234.109,24.61,24.61,0,0,0,7.747-1.7,11.809,11.809,0,0,0,3.081-1.911.422.422,0,0,0,.155-.357,2.725,2.725,0,0,1,.033-.65,1.351,1.351,0,0,1,1.455-1.048A1.346,1.346,0,0,1-303.1-137.6q0,6.863,0,13.726a1.342,1.342,0,0,1-1.354,1.335,1.319,1.319,0,0,1-1.339-1.341,1.045,1.045,0,0,0-.473-.98,14.323,14.323,0,0,0-4.124-2.172.174.174,0,0,0-.049,0,3.352,3.352,0,0,1-3.954,1.979,3.364,3.364,0,0,1-2.657-2.929.493.493,0,0,0-.071.034.954.954,0,0,1-1.518-.47c-.013-.033-.03-.065-.045-.1Zm6.226,5.133-2.478-.4a1.37,1.37,0,0,0,1.11.979A1.357,1.357,0,0,0-312.462-127.618Z" fill-rule="evenodd" fill="url(#linear-gradient)"/>
    <path id="Path_49661" data-name="Path 49661" d="M-170.663-102.762c-.073.369-.132.741-.223,1.106a5.637,5.637,0,0,1-.794,1.757,1.037,1.037,0,0,1-1.486.369,1.043,1.043,0,0,1-.25-1.494,4.208,4.208,0,0,0,.166-4.367,3.887,3.887,0,0,1-.326-.635,1.006,1.006,0,0,1,.556-1.178,1.016,1.016,0,0,1,1.279.339,5.648,5.648,0,0,1,.9,2.014c.07.3.119.608.178.913Z" transform="translate(-125.675 -27.413)" fill-rule="evenodd" fill="url(#linear-gradient)"/>
    <path id="Path_49662" data-name="Path 49662" d="M-190.576-96.057a4.182,4.182,0,0,1-.7,2.421,1.024,1.024,0,0,1-1.445.327,1.026,1.026,0,0,1-.295-1.435A2.19,2.19,0,0,0-193-97.206a1.032,1.032,0,0,1,.308-1.45,1.027,1.027,0,0,1,1.441.353A4.043,4.043,0,0,1-190.576-96.057Z" transform="translate(-108.722 -34.766)" fill-rule="evenodd" fill="url(#linear-gradient)"/>
  </g>
</svg>
