<svg xmlns="http://www.w3.org/2000/svg" width="162.316" height="95.377" viewBox="0 0 162.316 95.377">
  <g id="Group_20938" data-name="Group 20938" transform="translate(0.443 0.164)">
    <g id="Group_17835" data-name="Group 17835" transform="translate(54.015 2.352)" opacity="0.4">
      <path id="Path_45446" data-name="Path 45446" d="M1009.624-154.837a60.129,60.129,0,0,1,29.32-31.951c3.762-1.841,7.832-3.3,12.02-3.235s8.523,1.9,10.754,5.445c1.8,2.854,3.061,9.032,1.035,14.8-3.522,10.031-15.93,15.31-26.48,14" transform="translate(-956.46 207.447)" fill="none" stroke="#659feb" stroke-linecap="round" stroke-linejoin="round" stroke-width="1.046" stroke-dasharray="8.972"/>
      <path id="Path_45447" data-name="Path 45447" d="M1022.118-132.831c7.119-11.776,17.008-22.615,30.013-27.11a18.3,18.3,0,0,1,7.748-1.216,8.82,8.82,0,0,1,6.639,3.768,9.7,9.7,0,0,1,.76,7.493,20.4,20.4,0,0,1-7.788,10.9,46.957,46.957,0,0,1-12.152,6.127" transform="translate(-965.906 185.668)" fill="#659feb" stroke="#659feb" stroke-linecap="round" stroke-linejoin="round" stroke-width="1.046" stroke-dasharray="8.972"/>
      <path id="Path_45448" data-name="Path 45448" d="M974.958,3.855c2.794,15.384,15.679,18.772,26.034,18.583a14.707,14.707,0,0,0,9.309-3.016c3.924-3.331,4.781-8.935,6.977-13.592,2.921-6.193,6.774-12.109,13.375-13.928" transform="translate(-930.248 69.892)" fill="none" stroke="#659feb" stroke-linecap="round" stroke-linejoin="round" stroke-width="1.046" stroke-dasharray="8.972"/>
      <path id="Path_45449" data-name="Path 45449" d="M865.831-208.39a.462.462,0,0,1-.6.44c-2.645-7.953-2.248-16.538-2.647-24.91s-1.85-17.218-7.346-23.545c-2.334-2.687-5.527-4.868-9.082-5.045s-7.345,2.167-7.944,5.676a16.97,16.97,0,0,0,.1,4.077,20.946,20.946,0,0,1-.76,7.306,4.461,4.461,0,0,1-1.106,2.117c-1.584,1.458-4.184.372-6.241,1.006a5.508,5.508,0,0,0-3.09,2.967,11.972,11.972,0,0,0-.666,8.206,20.675,20.675,0,0,0,3.84,7.415,33,33,0,0,0,20.469,12.262" transform="translate(-817.639 261.459)" fill="#659feb" stroke="#659feb" stroke-linecap="round" stroke-linejoin="round" stroke-width="1.046" stroke-dasharray="8.972"/>
      <path id="Path_45450" data-name="Path 45450" d="M826.45-195.472c-4.746-.406-9.365,2.973-11.04,7.432s-.658,9.66,2.01,13.606a23.587,23.587,0,0,0,11.266,8.426" transform="translate(-808.998 211.591)" fill="none" stroke="#659feb" stroke-linecap="round" stroke-linejoin="round" stroke-width="1.046" stroke-dasharray="8.972"/>
      <path id="Path_45451" data-name="Path 45451" d="M823.174-68.876c-4.557-1.172-12.147,1.352-16.851,1.5s-9.543,1.693-12.768,5.12c-1.444,1.534-2.543,3.87-1.5,5.7a4.469,4.469,0,0,0,1.684,1.563c3.608,2.1,8.162,1.243,12.241,2.135,1.7.373,3.535,1.273,3.993,2.955.578,2.118-1.319,4.375-.622,6.458a3.6,3.6,0,0,0,2.818,2.206,8.086,8.086,0,0,0,3.7-.376,16.762,16.762,0,0,0,7.477-4.318,11.12,11.12,0,0,0,3.215-7.875c-.073-2.21,7.537-13.772,6.588-15.771" transform="translate(-791.645 116.38)" fill="#659feb" stroke="#659feb" stroke-linecap="round" stroke-linejoin="round" stroke-width="1.046" stroke-dasharray="8.972"/>
      <path id="Path_45452" data-name="Path 45452" d="M854.768-17.957c.368,2.9-3.665,8.682-2.479,11.352,1.055,2.375,3.788,3.589,6.378,3.8,5.116.422,10.17-2.33,13.335-6.372s4.619-9.211,4.993-14.331" transform="translate(-837.332 81.541)" fill="none" stroke="#659feb" stroke-linecap="round" stroke-linejoin="round" stroke-width="1.046" stroke-dasharray="8.972"/>
      <path id="Path_45453" data-name="Path 45453" d="M956.22-61.223c1.338,3.357,8.011,25.476,9.842,28.591a22.666,22.666,0,0,0,4.2,5.514,23.319,23.319,0,0,0,6.595,3.834c3.33,1.416,7.275,2.592,10.434.826,2.725-1.524,3.983-4.9,3.865-8.015s-4.351-28.725-5.578-31.6" transform="translate(-916.081 110.7)" fill="#659feb" stroke="#659feb" stroke-linecap="round" stroke-linejoin="round" stroke-width="1.046" stroke-dasharray="8.972"/>
      <path id="Path_45454" data-name="Path 45454" d="M1027.552-159.607a40.262,40.262,0,0,0,4.114-9.477,13.554,13.554,0,0,0-1.067-10.046,3.949,3.949,0,0,0-1.388-1.5,1.816,1.816,0,0,0-1.954.044,2.807,2.807,0,0,0-.8,1.456L1025.2-175.1a1.784,1.784,0,0,1-.38.762,1.381,1.381,0,0,1-1.8-.168c-.5-.432-.83-1.038-1.334-1.468-1.315-1.122-3.489-.633-4.624.67s1.854,23.3,1.918,25.024" transform="translate(-961.895 200.545)" fill="#659feb" stroke="#659feb" stroke-linecap="round" stroke-linejoin="round" stroke-width="1.046" stroke-dasharray="8.972"/>
    </g>
    <g id="Group_17862" data-name="Group 17862" transform="translate(0 0)">
      <g id="Group_17836" data-name="Group 17836" transform="translate(49.6 14.096)">
        <path id="Path_45455" data-name="Path 45455" d="M775.334-200.9c8.7,6.914,23.625-3.986,23.625-3.986l3.065-2.644a16.641,16.641,0,0,0,4.941-2.942l-2.414,1.11,2.88-2.276c.077-.062-.261-.016-.348.029l-2.7,1.4,2.773-2.465a.07.07,0,0,0-.08-.113l-3.307,1.826s2.607-2.411,2.193-2.346a41.148,41.148,0,0,0-3.844,2.458s1.416-2.3.988-2.179a13.932,13.932,0,0,0-2.093,2.438c-.469.622-.337.834-1.017,1.231l-4.937,2.924c-4.143,2.541-11.494,4.477-17.019-.09a3.172,3.172,0,0,0-3.923,1.122C772.309-203.171,775.334-200.9,775.334-200.9Z" transform="translate(-773.543 213.307)" fill="#ffa47a" stroke="#ffa47a" stroke-linecap="round" stroke-linejoin="round" stroke-width="1.476"/>
        <path id="Path_45456" data-name="Path 45456" d="M788.08-183.912c-3.314.448-5.94-.556-10.034-2.443a3.172,3.172,0,0,0-3.923,1.122c-1.814,2.231,1.211,4.5,1.211,4.5,2.927,2.326,4.864,3.443,8.394,2.829Z" transform="translate(-773.543 193.136)" fill="#ff7f4d" stroke="#ff7f4d" stroke-miterlimit="10" stroke-width="0.595"/>
        <path id="Path_45457" data-name="Path 45457" d="M821.688-175.557l-1.753,5.213a13.79,13.79,0,0,1-2.2.312Z" transform="translate(-806.96 184.764)" fill="#cf5540"/>
        <path id="Path_45458" data-name="Path 45458" d="M881.342-198.795c.146.234.259.617.1.716s-.528-.124-.674-.358" transform="translate(-854.617 202.334)" fill="#cf5540"/>
        <path id="Path_45459" data-name="Path 45459" d="M891.8-208.07s-.39,1.112-.387,1.079l1.551-1.846Z" transform="translate(-862.669 209.927)" fill="#cf5540"/>
      </g>
      <g id="Group_17849" data-name="Group 17849">
        <g id="Group_17837" data-name="Group 17837" transform="translate(45.495)">
          <path id="Path_45460" data-name="Path 45460" d="M760.247-270.236c2.587.806,9.045,9.53,9.045,9.53a7.523,7.523,0,0,1,2.241,3.86,4.014,4.014,0,0,1-.7,2.514l-8.6,6.987s-6.924-2.454-5.254-7.8,3.084-4.2,2.261-7.262S760.247-270.236,760.247-270.236Z" transform="translate(-756.711 270.447)" fill="#00043b"/>
          <path id="Path_45461" data-name="Path 45461" d="M784.246-258.061a20.063,20.063,0,0,0-2.874-5.736c-3.217-4.3-3.007-3.889-7.146-7.305" transform="translate(-769.954 271.102)" fill="none" stroke="#00043b" stroke-miterlimit="10" stroke-width="0.426"/>
        </g>
        <g id="Group_17838" data-name="Group 17838" transform="translate(50.504 10.875)">
          <path id="Path_45462" data-name="Path 45462" d="M781.025-218.625a.118.118,0,0,1-.178,0,.928.928,0,0,0-1.354-.21c-.646.5.052,1.381.24,1.793a5.9,5.9,0,0,1-.158,3.938,15.379,15.379,0,0,1-2.326,3.013s2.552,2.854,4.422,1.606c0,0,.185-4.021.8-4.816.013-.017,1.6.936,3.4-1.762,1.7-2.542.017-4.13-.39-4.456C785.14-219.794,783.569-221.288,781.025-218.625Z" transform="translate(-777.25 221.729)" fill="#ffa47a"/>
          <path id="Path_45463" data-name="Path 45463" d="M787.81-178.891c-.062,0-2.62,1.255-2.62,1.255a2.065,2.065,0,0,0,2.485.373Z" transform="translate(-783.253 190.506)" fill="#cf5540"/>
          <path id="Path_45464" data-name="Path 45464" d="M805.78-199.062l-1.431-.8s-.026.887.428,1.046A1.293,1.293,0,0,0,805.78-199.062Z" transform="translate(-797.74 206.362)" fill="#fff"/>
          <path id="Path_45465" data-name="Path 45465" d="M788.339-212.912a.568.568,0,0,0-.747-.1.607.607,0,0,0,.047.783" transform="translate(-784.977 216.381)" fill="#cf5540"/>
          <path id="Path_45466" data-name="Path 45466" d="M808.463-201.651l-.48.679.395.175a.1.1,0,0,0,.147-.1Z" transform="translate(-800.487 207.715)" fill="#cf5540"/>
          <path id="Path_45467" data-name="Path 45467" d="M796.629-223.07s-4.139.876-5.786-.341,2.6-4.409,4.184-2.517S796.629-223.07,796.629-223.07Z" transform="translate(-787.246 226.514)" fill="#00043b"/>
          <path id="Path_45468" data-name="Path 45468" d="M793.746-196.757a3.4,3.4,0,0,1-1.445-1.475c-.289-.584-.288,2.249.986,2.916C793.288-195.316,793.516-196.084,793.746-196.757Z" transform="translate(-788.512 205.19)" fill="#cf5540"/>
          <path id="Path_45469" data-name="Path 45469" d="M807.567-208.941c-.181.021.243-.281.447-.232a.359.359,0,0,1,.294.409A1.12,1.12,0,0,0,807.567-208.941Z" transform="translate(-800.139 213.406)" fill="#00043b"/>
          <path id="Path_45470" data-name="Path 45470" d="M813.876-206.114a.373.373,0,0,0-.516-.006,1.106,1.106,0,0,1,.442.309" transform="translate(-804.553 211.17)" fill="#00043b"/>
          <path id="Path_45471" data-name="Path 45471" d="M807.477-204.048c-.064.132-.064.264,0,.295s.168-.051.231-.183.063-.264,0-.295S807.54-204.18,807.477-204.048Z" transform="translate(-800.068 209.671)" fill="#00043b"/>
          <path id="Path_45472" data-name="Path 45472" d="M811.21-202.214c-.061.126-.061.252,0,.282s.16-.049.221-.175.061-.252,0-.282S811.271-202.341,811.21-202.214Z" transform="translate(-802.893 208.278)" fill="#00043b"/>
          <path id="Path_45473" data-name="Path 45473" d="M797.047-204.888a.8.8,0,0,0,.523,1,.8.8,0,0,0,1-.523.8.8,0,0,0-.523-1A.8.8,0,0,0,797.047-204.888Z" transform="translate(-792.191 210.585)" fill="#e8632e" stroke="#e8632e" stroke-miterlimit="10" stroke-width="0.318" opacity="0.37"/>
          <path id="Path_45474" data-name="Path 45474" d="M789.81-217.833c.351.38.656.8,1.016,1.173a2.856,2.856,0,0,0,1.289.829,3.43,3.43,0,0,0,1.425-.015,5.286,5.286,0,0,0,2.862-1.21" transform="translate(-786.747 219.95)" fill="none" stroke="#00043b" stroke-miterlimit="10" stroke-width="0.349"/>
        </g>
        <g id="Group_17839" data-name="Group 17839" transform="translate(8.385 17.809)">
          <path id="Path_45475" data-name="Path 45475" d="M614.285-186.246c-.292-1.927-.464-6.689-.464-6.689l-8.25.446c1.05.508,4.737,2.8,4.737,2.8l.651,3.672S614.288-186.28,614.285-186.246Z" transform="translate(-605.324 194.19)" fill="#ffa47a"/>
          <path id="Path_45476" data-name="Path 45476" d="M609.519-193.585l-4.825-2.7a.261.261,0,0,1,.08-.487c2-.309,7.395-1.1,8.814-1.309a.258.258,0,0,1,.29.3c-.152.961-.357,3.628-.491,4.408-.021.124-1.6-1.846-2.156-1.527C610.756-194.623,609.561-193.6,609.519-193.585Z" transform="translate(-604.557 198.082)" fill="#659feb" stroke="#659feb" stroke-miterlimit="10" stroke-width="0.318"/>
          <path id="Path_45477" data-name="Path 45477" d="M620.719-186.086l.76-1.021a.547.547,0,0,0-.112-.766h0a.547.547,0,0,0-.766.112l-.853,1.146" transform="translate(-616.042 190.446)" fill="none" stroke="#f8f1ee" stroke-miterlimit="10" stroke-width="0.724"/>
          <path id="Path_45478" data-name="Path 45478" d="M634.957-181.861c.052,1.153.127,2.3.127,2.3l1.439-.068-.185-3.233s-1.179-1.333-1.366-1.319a10.14,10.14,0,0,0-.014,2.315" transform="translate(-627.507 187.568)" fill="#cf5540"/>
        </g>
        <g id="Group_17840" data-name="Group 17840" transform="translate(0 35.843)">
          <path id="Path_45479" data-name="Path 45479" d="M582.265-118.005c-1.28-1.273-2.545-5.152-2.545-5.152s-8.753,2.6-8.675,2.623,5.311,1.985,5.311,1.985l3.2,2.4S581.984-117.864,582.265-118.005Z" transform="translate(-570.833 123.398)" fill="#ffa47a" stroke="#ffa47a" stroke-miterlimit="10" stroke-width="1.303"/>
          <path id="Path_45480" data-name="Path 45480" d="M575.548-119.157l-5.2-1.938a.261.261,0,0,1,.01-.494c1.936-.59,7.163-2.145,8.539-2.549.167-.049.47.22.521.388a26.776,26.776,0,0,0,1.217,3.262c.059.111-3.115-.561-3.618-.166C576.586-120.314,575.7-119.074,575.548-119.157Z" transform="translate(-570.179 124.144)" fill="#659feb" stroke="#659feb" stroke-miterlimit="10" stroke-width="0.318"/>
          <path id="Path_45481" data-name="Path 45481" d="M587.3-111.012l.52-1.3a.547.547,0,0,0-.3-.712h0a.547.547,0,0,0-.712.3l-.534,1.325" transform="translate(-582.342 115.767)" fill="none" stroke="#f8f1ee" stroke-miterlimit="10" stroke-width="0.724"/>
          <path id="Path_45482" data-name="Path 45482" d="M596.3-104.137l-3.342-2.7-.763.765L595.6-103.6Z" transform="translate(-586.824 111.057)" fill="#cf5540"/>
        </g>
        <g id="Group_17846" data-name="Group 17846" transform="translate(8.775 25.225)">
          <g id="Group_17843" data-name="Group 17843" transform="translate(4.882)">
            <g id="Group_17841" data-name="Group 17841">
              <path id="Path_45483" data-name="Path 45483" d="M656.271-158.038c1.057.405,1.818,1.29,2.2,3.107s2.187-1.131,2.143.693c-.71.394-4.574,5.375-5.909,5.93-5.92,2.459-10.426,3.516-16.186,2.353-5.633-1.138-8.848-7.565-10.487-11.816-1.291-3.349-1.27-6.083-1.859-9.5.171-.4,3.5-.489,3.686-.334,2.271,7.045,5.417,10.968,9.694,11.779a18.174,18.174,0,0,0,9.748-.8S652.569-159.457,656.271-158.038Z" transform="translate(-626.172 167.677)" fill="#365185" stroke="#365185" stroke-miterlimit="10" stroke-width="0.302"/>
            </g>
            <g id="Group_17842" data-name="Group 17842" transform="translate(13.38 9.24)" opacity="0.43" style="mix-blend-mode: multiply;isolation: isolate">
              <path id="Path_45484" data-name="Path 45484" d="M681.031-127.182a18.173,18.173,0,0,0,9.748-.8s3.269-2.828,6.971-1.41c1.057.405,1.818,1.29,2.2,3.107s2.08-.94,2.037.884c-.71.394-4.468,5.184-5.8,5.739" transform="translate(-681.031 129.792)" fill="#365185"/>
            </g>
          </g>
          <g id="Group_17845" data-name="Group 17845" transform="translate(0 8.504)">
            <g id="Group_17844" data-name="Group 17844">
              <path id="Path_45485" data-name="Path 45485" d="M645.133-128.557c-1.852-1.714-5.376-4.434-5.674-4.245a10.875,10.875,0,0,0-7.707,5.6,7.1,7.1,0,0,1-1,1.454,17.518,17.518,0,0,1-7.189,5.04c-4.064,1.562-9.017.149-14.657-4.645-.622.659-2.808,1.687-2.745,2.114,2.3,2.594,3.723,4.776,6.584,6.943,3.632,2.75,9.749,6.521,15.137,4.523a26.571,26.571,0,0,0,12.067-8.93Z" transform="translate(-606.156 132.811)" fill="#4465a6" stroke="#4465a6" stroke-miterlimit="10" stroke-width="0.302"/>
            </g>
            <path id="Path_45486" data-name="Path 45486" d="M639.991-90.762s-16.214,15.828-32.894-3.5a28.631,28.631,0,0,0,11.809,10.385C619.3-84.148,627.548-77,639.991-90.762Z" transform="translate(-606.867 103.663)" fill="#4465a6" opacity="0.5" style="mix-blend-mode: multiply;isolation: isolate"/>
          </g>
        </g>
        <g id="Group_17847" data-name="Group 17847" transform="translate(42.007 20.633)">
          <path id="Path_45487" data-name="Path 45487" d="M755.448-184.3c.116.222.909,5.97-.207,7.905-.748,1.3-4.967,5.165-6.855,7.537a45.048,45.048,0,0,1-5.972-4.435c.6-2.24,2.615-10.925,6.736-13.209a23.283,23.283,0,0,1,2.566.717S753.957-181.99,755.448-184.3Z" transform="translate(-742.413 186.504)" fill="#ffa47a" stroke="#ffa47a" stroke-linecap="round" stroke-linejoin="round" stroke-width="1.476"/>
          <path id="Path_45488" data-name="Path 45488" d="M742.594-137.628l-.173.683,4.658,4.088Z" transform="translate(-742.419 149.549)" fill="#cf5540"/>
        </g>
        <g id="Group_17848" data-name="Group 17848" transform="translate(41.582 20.633)">
          <path id="Path_45489" data-name="Path 45489" d="M754.128-184.3c.116.222.909,5.97-.207,7.905-.748,1.3-4.967,5.165-6.855,7.537,0,0-1.175-.782-6.4-6.629.6-2.24,3.041-8.731,7.161-11.015a23.286,23.286,0,0,1,2.566.717S752.637-181.99,754.128-184.3Z" transform="translate(-740.668 186.504)" fill="#f8f1ee" stroke="#f8f1ee" stroke-miterlimit="10" stroke-width="1.476"/>
          <path id="Path_45490" data-name="Path 45490" d="M747.066-168.861s-1.175-.782-6.4-6.629c.6-2.24,3.041-8.731,7.161-11.015a23.286,23.286,0,0,1,2.566.717" transform="translate(-740.668 186.504)" fill="#f8f1ee" stroke="#f8f1ee" stroke-linecap="round" stroke-linejoin="round" stroke-width="1.476" style="mix-blend-mode: multiply;isolation: isolate"/>
        </g>
      </g>
      <g id="Group_17850" data-name="Group 17850" transform="translate(59.684 11.118)">
        <path id="Path_45491" data-name="Path 45491" d="M946.141-97.79l34,14.651a2.924,2.924,0,0,0,3.709-1.3l21.779-40.677c.863-1.588.824-3.4-.885-3.989,0,0-7.4-6.707-20.418-10.48-3.773-1.093-16.009-2.163-16.009-2.163Z" transform="translate(-914.129 162.178)" fill="none" stroke="#f8f1ee" stroke-linecap="round" stroke-linejoin="round" stroke-width="1.061"/>
        <path id="Path_45492" data-name="Path 45492" d="M848.423-160.506l-32.115-18.763a2.926,2.926,0,0,1-1.136-3.764l19.177-41c.776-1.633,2.619-1.768,4.317-1.145,5.352,1.962,10.108.956,20.832,9.266,3.108,2.408,11.181,11.675,11.181,11.675Z" transform="translate(-814.887 225.518)" fill="none" stroke="#f8f1ee" stroke-linecap="round" stroke-linejoin="round" stroke-width="1.061"/>
      </g>
      <g id="Group_17851" data-name="Group 17851" transform="translate(60.759 12.32)">
        <path id="Path_45493" data-name="Path 45493" d="M907.77-188.117s-7.114-6.451-19.639-10.081c-3.474-1.007-14.4-1.992-15.333-2.075-1-1.141-7.855-8.933-10.621-11.077-10.308-7.987-14.88-7.02-20.024-8.907-1.632-.6-3.4-.469-4.149,1.1L819.569-179.75a2.813,2.813,0,0,0,1.093,3.618l30.806,18,.041,0,32.6,14.223a2.813,2.813,0,0,0,3.568-1.247L908.62-184.28C909.45-185.807,909.413-187.55,907.77-188.117Z" transform="translate(-819.297 220.587)" fill="#2e4470" stroke="#2e4470" stroke-miterlimit="10" stroke-width="0.302"/>
        <path id="Path_45494" data-name="Path 45494" d="M943.581-100.271l3.506,1.829,21.744-42.811a5.623,5.623,0,0,1-3.548-1.6Z" transform="translate(-913.268 161.815)" fill="#1d2b47" stroke="#1d2b47" stroke-miterlimit="10" stroke-width="0.302"/>
        <path id="Path_45495" data-name="Path 45495" d="M914.283-180.086s-14.675-10.6-33.117-12.679c-12.534-13.608-29.655-19.2-29.655-19.2l-20.471,39.784c4.094,1.1,26.461,16.27,29.8,18.962l-.036.072c.04,0,.091.011.148.02a2.705,2.705,0,0,1,.273.248l.092-.179c3.233.686,18.078,5.218,32.861,12.947Z" transform="translate(-828.175 214.072)" fill="#cfb2a3"/>
      </g>
      <g id="Group_17860" data-name="Group 17860" transform="translate(65.422 15.57)">
        <g id="Group_17853" data-name="Group 17853" transform="translate(38.082 2.475)">
          <path id="Path_45496" data-name="Path 45496" d="M994.555-189.6s1.965-5.788,6.044-7.482a.373.373,0,0,1,.515.308l.119,1.3,1.54.208a.369.369,0,0,1,.2.635c-1.516,1.42-5.55,5.582-5.436,7.125Z" transform="translate(-994.555 197.114)" fill="#ff7f4d" stroke="#ff7f4d" stroke-miterlimit="10" stroke-width="0.595"/>
          <g id="Group_17852" data-name="Group 17852" transform="translate(0.691 1.265)" opacity="0.76">
            <path id="Path_45497" data-name="Path 45497" d="M997.39-180.974c.1-.243.17-.5.253-.749a11.9,11.9,0,0,1,2.558-3.9" transform="translate(-997.39 187.16)" fill="none" stroke="#f2fcf9" stroke-miterlimit="10" stroke-width="0.769"/>
            <path id="Path_45498" data-name="Path 45498" d="M1012.3-191.374l.654-.554" transform="translate(-1008.666 191.928)" fill="none" stroke="#f2fcf9" stroke-miterlimit="10" stroke-width="0.769"/>
          </g>
        </g>
        <path id="Path_45499" data-name="Path 45499" d="M857.8-206.934c2.809-.71,2.887-.153,5.693.569a26.27,26.27,0,0,1,7.3,2.937,38.345,38.345,0,0,1,7.008,5.107c3.085,3.008,5.861,5.78,8.741,8.985l-20.222,38.926s-19.149-22.98-27.906-18.707Z" transform="translate(-838.414 207.262)" fill="#f8f1ee" stroke="#f8f1ee" stroke-linecap="round" stroke-linejoin="round" stroke-width="0.598"/>
        <g id="Group_17854" data-name="Group 17854" transform="translate(0.159 31.372)">
          <path id="Path_45500" data-name="Path 45500" d="M989.912,37.407a63.518,63.518,0,0,0-28.409-9.9" transform="translate(-931.641 -1.622)" fill="none" stroke="#f8f1ee" stroke-linecap="round" stroke-linejoin="round" stroke-width="0.598"/>
          <path id="Path_45501" data-name="Path 45501" d="M954.541,28.2a111.864,111.864,0,0,1,31.7,11.671" transform="translate(-926.377 -2.14)" fill="none" stroke="#f8f1ee" stroke-linecap="round" stroke-linejoin="round" stroke-width="0.598"/>
          <path id="Path_45502" data-name="Path 45502" d="M843.438-50.81a17.457,17.457,0,0,1,5.383,1.99A69.709,69.709,0,0,1,867.9-34.264" transform="translate(-842.371 57.596)" fill="none" stroke="#f8f1ee" stroke-linecap="round" stroke-linejoin="round" stroke-width="0.598"/>
          <path id="Path_45503" data-name="Path 45503" d="M839.065-49.867c9.777,4.271,20.635,11.925,28.386,19.256" transform="translate(-839.065 56.883)" fill="none" stroke="#f8f1ee" stroke-linecap="round" stroke-linejoin="round" stroke-width="0.598"/>
          <path id="Path_45504" data-name="Path 45504" d="M1120.323-78.635l-15.265,28.8" transform="translate(-1040.184 78.635)" fill="none" stroke="#f8f1ee" stroke-linecap="round" stroke-linejoin="round" stroke-width="0.598"/>
        </g>
        <path id="Path_45505" data-name="Path 45505" d="M1004.553-120.825c-1.079-2.689-1.576-2.424-3.812-4.267a26.249,26.249,0,0,0-6.672-4.172,38.355,38.355,0,0,0-8.255-2.658c-4.248-.723-8.091-1.2-12.377-1.643L953-94.445s30.972,2.793,32.674,12.388Z" transform="translate(-925.056 151.54)" fill="#f8f1ee" stroke="#f8f1ee" stroke-linecap="round" stroke-linejoin="round" stroke-width="0.598"/>
        <g id="Group_17859" data-name="Group 17859" transform="translate(7.287 4.76)">
          <g id="Group_17855" data-name="Group 17855" transform="translate(0 12.911)">
            <path id="Path_45506" data-name="Path 45506" d="M908.942-133.412s-12.128,19.961-19,22.725c-9.474,3.812-21.65-2.165-21.65-2.165s18.572,11.971,20.619,18.281Z" transform="translate(-868.293 133.753)" fill="#e0cfc8" opacity="0.42"/>
            <path id="Path_45507" data-name="Path 45507" d="M983.884-134.81s-8.6,21.716-6.659,28.862c2.677,9.855,14.79,15.959,14.79,15.959S971.263-97.576,965-95.4Z" transform="translate(-941.411 134.81)" fill="#e0cfc8" opacity="0.42"/>
          </g>
          <g id="Group_17858" data-name="Group 17858" transform="translate(5.029)" opacity="0.46">
            <g id="Group_17856" data-name="Group 17856">
              <path id="Path_45508" data-name="Path 45508" d="M922.468-187.747l4.423,1.614" transform="translate(-914.284 187.747)" fill="none" stroke="#659feb" stroke-miterlimit="10" stroke-width="2.121"/>
              <path id="Path_45509" data-name="Path 45509" d="M950.315-175.215a49.485,49.485,0,0,1,16.041,12.706" transform="translate(-935.339 178.272)" fill="none" stroke="#659feb" stroke-miterlimit="10" stroke-width="2.121"/>
              <path id="Path_45510" data-name="Path 45510" d="M911.147-167.846a23.934,23.934,0,0,1,14.647,7.343" transform="translate(-905.724 172.7)" fill="none" stroke="#659feb" stroke-miterlimit="10" stroke-width="2.121"/>
              <path id="Path_45511" data-name="Path 45511" d="M981.834-125.941,987.3-121.5" transform="translate(-959.17 141.015)" fill="none" stroke="#659feb" stroke-miterlimit="10" stroke-width="2.121"/>
              <path id="Path_45512" data-name="Path 45512" d="M895.474-124.811a52.643,52.643,0,0,1,19.116,11.274c1.533,1.417,2.98,2.923,4.425,4.429" transform="translate(-893.873 140.161)" fill="none" stroke="#659feb" stroke-miterlimit="10" stroke-width="2.121"/>
              <path id="Path_45513" data-name="Path 45513" d="M888.911-106.948a39.608,39.608,0,0,1,7.429,3.767" transform="translate(-888.911 126.655)" fill="none" stroke="#659feb" stroke-miterlimit="10" stroke-width="2.121"/>
              <path id="Path_45514" data-name="Path 45514" d="M932.42-80.52l10.657,8.476" transform="translate(-921.809 106.672)" fill="none" stroke="#659feb" stroke-miterlimit="10" stroke-width="2.121"/>
              <path id="Path_45515" data-name="Path 45515" d="M901.7-54.964a12.317,12.317,0,0,1,4.706,2.893" transform="translate(-898.58 87.349)" fill="none" stroke="#659feb" stroke-miterlimit="10" stroke-width="2.121"/>
              <path id="Path_45516" data-name="Path 45516" d="M927.469-36.438l6.175,5.97" transform="translate(-918.065 73.342)" fill="none" stroke="#659feb" stroke-miterlimit="10" stroke-width="2.121"/>
            </g>
            <g id="Group_17857" data-name="Group 17857" transform="translate(28.178 18.587)">
              <path id="Path_45517" data-name="Path 45517" d="M1046.979-111.54a28.44,28.44,0,0,1,5.277,1.259" transform="translate(-1036.605 111.54)" fill="none" stroke="#659feb" stroke-miterlimit="10" stroke-width="2.121"/>
              <path id="Path_45518" data-name="Path 45518" d="M1081.785-102.18a37.468,37.468,0,0,1,14.658,7.318" transform="translate(-1062.922 104.463)" fill="none" stroke="#659feb" stroke-miterlimit="10" stroke-width="2.121"/>
              <path id="Path_45519" data-name="Path 45519" d="M1037.478-89.9a23.009,23.009,0,0,1,10.4,3.356" transform="translate(-1029.421 95.182)" fill="none" stroke="#659feb" stroke-miterlimit="10" stroke-width="2.121"/>
              <path id="Path_45520" data-name="Path 45520" d="M1095.2-70.252a77.617,77.617,0,0,1,9.979,5.391" transform="translate(-1073.064 80.322)" fill="none" stroke="#659feb" stroke-miterlimit="10" stroke-width="2.121"/>
              <path id="Path_45521" data-name="Path 45521" d="M1024.155-64.53l5.165,1.811" transform="translate(-1019.348 75.996)" fill="none" stroke="#659feb" stroke-miterlimit="10" stroke-width="2.121"/>
              <path id="Path_45522" data-name="Path 45522" d="M1053.2-53.3a6.682,6.682,0,0,0,2.186.938" transform="translate(-1041.312 67.503)" fill="none" stroke="#659feb" stroke-miterlimit="10" stroke-width="2.121"/>
              <path id="Path_45523" data-name="Path 45523" d="M1004.445-28.883a54.647,54.647,0,0,1,23.262,10.549" transform="translate(-1004.445 49.043)" fill="none" stroke="#659feb" stroke-miterlimit="10" stroke-width="2.121"/>
              <path id="Path_45524" data-name="Path 45524" d="M1030.861-1.56c1.742-.151,4.029,1.481,5.492,2.438" transform="translate(-1024.418 28.391)" fill="none" stroke="#659feb" stroke-miterlimit="10" stroke-width="2.121"/>
              <path id="Path_45525" data-name="Path 45525" d="M1063.224,13.25l6.922,3.837" transform="translate(-1048.888 17.186)" fill="none" stroke="#659feb" stroke-miterlimit="10" stroke-width="2.121"/>
            </g>
          </g>
        </g>
      </g>
      <g id="Group_17861" data-name="Group 17861" transform="translate(46.712 20.039)">
        <path id="Path_45526" data-name="Path 45526" d="M762.011-185.391c-.808,11.083,16.608,17.269,16.608,17.269l3.911,1.042a16.633,16.633,0,0,0,5.215,2.424l-2.278-1.368,3.5,1.1c.095.028-.133-.225-.22-.271l-2.677-1.436,3.6.9a.07.07,0,0,0,.049-.13l-3.372-1.7s3.461.795,3.174.489a33.609,33.609,0,0,0-3.7-1.649,9,9,0,0,0,1.016-1.8c-.163-.239-1.357.463-2.578.656-.769.121-6.564-2.344-6.564-2.344-4.434-1.99-10.175-6.972-9.517-14.109a3.172,3.172,0,0,0-3.138-2.608C762.182-189.17,762.011-185.391,762.011-185.391Z" transform="translate(-761.915 188.94)" fill="#ffa47a" stroke="#ffa47a" stroke-linecap="round" stroke-linejoin="round" stroke-width="1.476"/>
        <path id="Path_45527" data-name="Path 45527" d="M771.611-176.656c-2.237-2.485-2.888-5.221-3.637-9.666a3.172,3.172,0,0,0-3.138-2.608c-2.865-.241-3.036,3.538-3.036,3.538-.272,3.728-.1,5.958,2.394,8.529Z" transform="translate(-761.704 188.94)" fill="#ff7f4d" stroke="#ff7f4d" stroke-miterlimit="10" stroke-width="0.595"/>
        <path id="Path_45528" data-name="Path 45528" d="M781.886-138.411l-5.5,1.312a9.926,9.926,0,0,1-1.4-1.473Z" transform="translate(-771.752 150.857)" fill="#cf5540"/>
      </g>
    </g>
    <g id="Group_17865" data-name="Group 17865" transform="translate(2.994 13.207)">
      <g id="Group_17863" data-name="Group 17863" transform="translate(5.517 10.494)">
        <path id="Path_45529" data-name="Path 45529" d="M683.525-128.1c-2.228,6.232-6.523,10.162-12.694,9.73-4.954-.347-9.545-2.6-13.99-4.816a13.808,13.808,0,0,1-4.227-2.8c-1.685-1.854-2.226-4.446-2.7-6.906l-1.424-7.354a13.588,13.588,0,0,0-1.845-5.355c-1.1-1.556-3.106-2.638-4.919-2.058s-2.738,3.262-1.309,4.518c3.015-1.811,2.813-6.235,1.792-9.6a40.911,40.911,0,0,0-8.535-15.237c-2.675-3.011-6.123-5.755-10.147-5.936-5.206-.234-9.587,3.842-12.582,8.107-3.1,4.421-5.5,9.506-5.838,14.9-.168,2.711.359,5.758,2.526,7.4s6.156.536,6.249-2.179" transform="translate(-605.077 173.928)" fill="none" stroke="#ff7f4d" stroke-linecap="round" stroke-linejoin="round" stroke-width="2.121" stroke-dasharray="9.092"/>
        <path id="Path_45530" data-name="Path 45530" d="M1116.555-131.023a5.106,5.106,0,0,0,4.528-.543,10.5,10.5,0,0,0,3.213-3.423c1.192-1.866,2.132-4.089,1.665-6.254a8.6,8.6,0,0,0-1.534-3.1,12.365,12.365,0,0,0-3.005-3.113,8.517,8.517,0,0,0-8.21-.681,8.517,8.517,0,0,0-4.8,6.695" transform="translate(-985.65 154.991)" fill="none" stroke="#f8f1ee" stroke-linecap="round" stroke-linejoin="round" stroke-width="2.121" stroke-dasharray="7.332" style="mix-blend-mode: lighten;isolation: isolate"/>
      </g>
      <g id="Group_17864" data-name="Group 17864" transform="translate(52.292 0)">
        <path id="Path_45531" data-name="Path 45531" d="M1216.914-17.309a1.032,1.032,0,0,1-1.206.823,1.032,1.032,0,0,1-.823-1.206,1.032,1.032,0,0,1,1.206-.823A1.032,1.032,0,0,1,1216.914-17.309Z" transform="translate(-1112.916 66.928)" fill="#659feb"/>
        <path id="Path_45532" data-name="Path 45532" d="M1172.445-33.754a1.376,1.376,0,0,1-1.608,1.1,1.376,1.376,0,0,1-1.1-1.608,1.376,1.376,0,0,1,1.608-1.1A1.376,1.376,0,0,1,1172.445-33.754Z" transform="translate(-1078.777 79.67)" fill="none" stroke="#659feb" stroke-miterlimit="10" stroke-width="1.061"/>
        <path id="Path_45533" data-name="Path 45533" d="M979.091-215.424a1.29,1.29,0,0,1-1.508,1.028,1.29,1.29,0,0,1-1.028-1.507,1.29,1.29,0,0,1,1.508-1.028A1.29,1.29,0,0,1,979.091-215.424Z" transform="translate(-932.711 216.954)" fill="#ff7f4d"/>
        <path id="Path_45534" data-name="Path 45534" d="M944.381,48.775a1.376,1.376,0,1,1-1.1-1.608A1.376,1.376,0,0,1,944.381,48.775Z" transform="translate(-906.337 17.27)" fill="none" stroke="#ff7f4d" stroke-miterlimit="10" stroke-width="1.061"/>
        <path id="Path_45535" data-name="Path 45535" d="M800.1-82.139a1.635,1.635,0,0,1-1.909,1.3,1.634,1.634,0,0,1-1.3-1.909,1.634,1.634,0,0,1,1.909-1.3A1.634,1.634,0,0,1,800.1-82.139Z" transform="translate(-796.859 116.485)" fill="#659feb" stroke="#659feb" stroke-linecap="round" stroke-linejoin="round" stroke-width="1.061" stroke-dasharray="9.092"/>
      </g>
      <path id="Path_45536" data-name="Path 45536" d="M684.359,1.087A1.076,1.076,0,1,1,683.282.011,1.077,1.077,0,0,1,684.359,1.087Z" transform="translate(-657.877 52.906)" fill="#ff7f4d"/>
      <path id="Path_45537" data-name="Path 45537" d="M584.985-39.215a1.265,1.265,0,0,1-1.265,1.265,1.265,1.265,0,0,1-1.265-1.265,1.265,1.265,0,0,1,1.265-1.265A1.265,1.265,0,0,1,584.985-39.215Z" transform="translate(-582.455 83.521)" fill="none" stroke="#659feb" stroke-miterlimit="10" stroke-width="0.948"/>
    </g>
  </g>
</svg>
