<svg xmlns="http://www.w3.org/2000/svg" width="892.654" height="990.584" viewBox="0 0 892.654 990.584">
  <g id="Group_21141" data-name="Group 21141" transform="translate(-73.546 -48.702)">
    <path id="Path_49199" data-name="Path 49199" d="M399.537,757.483c82.9,200.524,439.678,124.062,420.713-108.244C803.431,443.192,932.458,477.448,946.439,315.087,959.414,166.29,877.687,69.327,735.6,51.426,505.168,22.392,559,235.275,288.02,225.356,2.38,214.9,48.7,613.4,252.034,635.873,350.378,646.743,370.089,688.74,399.537,757.483Z" transform="translate(18.417)" fill="#ecf1fd" fill-rule="evenodd" opacity="0.13"/>
    <g id="Group_21137" data-name="Group 21137" transform="translate(73.546 504.441)">
      <g id="Group_21136" data-name="Group 21136">
        <path id="Path_49200" data-name="Path 49200" d="M161.749,600.507S82.8,455.3,107.387,338.893,209.252,220.636,229,264.572,197.07,360.753,182.28,434.506C156.411,563.508,161.749,600.507,161.749,600.507Z" transform="translate(-32.626 -238.085)" fill="#00c0ab" fill-rule="evenodd"/>
        <path id="Path_49201" data-name="Path 49201" d="M198.347,491.636S95.9,457.931,76.877,390.847c-18.939-66.774,48.345-106.232,64.488-45.26C152.814,388.826,177.88,462.432,198.347,491.636Z" transform="translate(-73.546 -129.434)" fill="#00907a" fill-rule="evenodd"/>
        <path id="Path_49202" data-name="Path 49202" d="M128.53,510.188s8.343-121.145,44.307-187.2c28.839-52.968,95.314,8.834,56.089,50.259C199.027,404.82,128.53,510.188,128.53,510.188Z" transform="translate(3.786 -147.471)" fill="#00907a" fill-rule="evenodd"/>
      </g>
      <path id="Path_49203" data-name="Path 49203" d="M86.358,462.5a114.509,114.509,0,0,0,4.9,33.163c12.27,40.676,46.581,69.854,86.986,69.854,44.194,0,81.155-35.021,89.9-81.723A115.967,115.967,0,0,0,270.1,462.5a114.03,114.03,0,0,0-3.328-27.621,104.883,104.883,0,0,0-27.537-49.315H117.225a104.9,104.9,0,0,0-27.534,49.315A112.6,112.6,0,0,0,86.413,459.1C86.389,460.245,86.358,461.354,86.358,462.5Z" transform="translate(-55.526 -30.669)" fill="#915ef3" fill-rule="evenodd"/>
    </g>
    <g id="Group_21138" data-name="Group 21138" transform="translate(208.509 620.137)">
      <path id="Path_49204" data-name="Path 49204" d="M129.63,405.374H613.517c72.085,0,72.085,124.67,0,124.67H129.63V519.913H241.914c68.059,0,70.913-104.406,0-104.411H129.63Z" transform="translate(-129.63 -118.5)" fill="#915ef3" fill-rule="evenodd"/>
      <path id="Path_49205" data-name="Path 49205" d="M129.63,405.374h222.5c72.087,0,72.087,124.67,0,124.67H129.63V519.913H241.914c68.059,0,70.913-104.406,0-104.411H129.63Z" transform="translate(-129.63 -118.5)" fill="#5f24d6" fill-rule="evenodd"/>
      <path id="Path_49206" data-name="Path 49206" d="M133.075,409.583H341.066c65.051,0,65.051,104.411,0,104.411H133.075a59.443,59.443,0,0,0,24.555-48.028v-8.358A59.431,59.431,0,0,0,133.075,409.583Z" transform="translate(-124.785 -112.58)" fill="#ffead1" fill-rule="evenodd"/>
      <path id="Path_49207" data-name="Path 49207" d="M139.43,363.969H526.277c57.632,0,57.632,99.67,0,99.67H139.43v-8.1H229.2c54.41,0,56.691-83.47,0-83.472H139.43Z" transform="translate(-115.847 -176.734)" fill="#f54254" fill-rule="evenodd"/>
      <path id="Path_49208" data-name="Path 49208" d="M139.429,363.969h178.3c57.632,0,57.632,99.67,0,99.67h-178.3v-8.1h172.91c52.008,0,52.008-83.472,0-83.472H139.429Z" transform="translate(-115.848 -176.734)" fill="#e71f34" fill-rule="evenodd"/>
      <path id="Path_49209" data-name="Path 49209" d="M142.183,367.334H308.466c52.008,0,52.008,83.472,0,83.472H142.183C168.676,431.487,168.676,386.648,142.183,367.334Z" transform="translate(-111.975 -172.001)" fill="#ffead1" fill-rule="evenodd"/>
      <path id="Path_49210" data-name="Path 49210" d="M152.992,319.045H572.673c62.519,0,62.519,108.126,0,108.126H152.992v-8.788h97.386c59.028,0,61.5-90.552,0-90.557H152.992Z" transform="translate(-96.773 -239.916)" fill="#00c0ab" fill-rule="evenodd"/>
      <path id="Path_49211" data-name="Path 49211" d="M152.993,319.045H346.726c62.519,0,62.519,108.126,0,108.126H152.993v-8.788h187.58c56.421,0,56.421-90.557,0-90.557H152.993Z" transform="translate(-96.771 -239.916)" fill="#00a992" fill-rule="evenodd"/>
      <path id="Path_49212" data-name="Path 49212" d="M155.98,322.694H336.372c56.421,0,56.421,90.557,0,90.557H155.98C184.718,392.3,184.718,343.649,155.98,322.694Z" transform="translate(-92.57 -234.784)" fill="#ffead1" fill-rule="evenodd"/>
      <path id="Path_49213" data-name="Path 49213" d="M181.739,286.163H488.822c45.744,0,45.744,79.117,0,79.117H181.739v-6.43H253c43.191,0,45-66.257,0-66.259H181.739Z" transform="translate(-56.342 -286.163)" fill="#f54254" fill-rule="evenodd"/>
      <path id="Path_49214" data-name="Path 49214" d="M181.739,286.163H323.281c45.744,0,45.744,79.117,0,79.117H181.739v-6.43H319c41.282,0,41.282-66.259,0-66.259H181.739Z" transform="translate(-56.342 -286.163)" fill="#e71f34" fill-rule="evenodd"/>
      <path id="Path_49215" data-name="Path 49215" d="M183.925,288.834h132c41.282,0,41.282,66.259,0,66.259h-132C204.955,339.759,204.955,304.165,183.925,288.834Z" transform="translate(-53.267 -282.406)" fill="#ffead1" fill-rule="evenodd"/>
      <path id="Path_49216" data-name="Path 49216" d="M133.075,409.583H341.066c65.051,0,65.051,104.411,0,104.411H133.075C166.209,489.831,166.209,433.744,133.075,409.583Z" transform="translate(-124.785 -112.58)" fill="#ffead1" fill-rule="evenodd"/>
      <path id="Path_49217" data-name="Path 49217" d="M174.726,385.08h44.513v76.31l-22.256-21.834L174.726,461.39Z" transform="translate(-66.205 -147.042)" fill="#ff6473" fill-rule="evenodd"/>
      <path id="Path_49218" data-name="Path 49218" d="M207.379,387.816c21.576,0,39.172-.8,39.172-1.781s-17.6-1.778-39.172-1.778-39.172.8-39.172,1.778S185.8,387.816,207.379,387.816Z" transform="translate(-75.374 -148.2)" fill="#dfc2a7" fill-rule="evenodd"/>
      <path id="Path_49219" data-name="Path 49219" d="M207.775,303.19h44.513V379.5l-22.256-21.832L207.775,379.5Z" transform="translate(-19.724 -262.216)" fill="#00c0ab" fill-rule="evenodd"/>
      <path id="Path_49220" data-name="Path 49220" d="M240.428,305.929c21.574,0,39.172-.8,39.172-1.783s-17.6-1.781-39.172-1.781-39.172.8-39.172,1.781S218.852,305.929,240.428,305.929Z" transform="translate(-28.892 -263.376)" fill="#dfc2a7" fill-rule="evenodd"/>
    </g>
    <g id="Group_21140" data-name="Group 21140" transform="translate(420.084 233.632)">
      <path id="Path_49221" data-name="Path 49221" d="M301.011,190.184c10.591,30.62,8.608,43.951,34.376,81.636,13.724,20.072,49.043-6.052,57.309-14.6,5.783-6.062,11.464-12.629,16.706-19.134a7.22,7.22,0,0,1,12.343,7.376c-15.192,32.918-63.5,77.069-102.129,49.2-21.92-15.815-45.364-73.449-52.1-89.847C257.038,179.353,290.689,166.729,301.011,190.184Z" transform="translate(-150.092 -52.078)" fill="#ff918f" fill-rule="evenodd"/>
      <path id="Path_49222" data-name="Path 49222" d="M352.257,135.308c-6.7-7.359-39.728-24.808-55.906,18.45C289.7,171.537,288.3,191.72,279.539,200.1c-14.768,14.133-23.98,8.466-40.447,20.753-29.371,21.92-29.455,66.324,4.363,82.666C317.583,339.35,377.9,163.454,352.257,135.308Z" transform="translate(-217.55 -125.55)" fill="#35146d" fill-rule="evenodd"/>
      <path id="Path_49223" data-name="Path 49223" d="M280.191,146.86c-5.181,4.729-12.542,5.523-16.436,1.781S260.9,138.028,266.08,133.3s12.538-5.523,16.434-1.781S285.367,142.134,280.191,146.86Z" transform="translate(-155.883 -120.473)" fill="#00c0ab" fill-rule="evenodd"/>
      <path id="Path_49224" data-name="Path 49224" d="M364.756,340.16c17.849,56.573,12.386,118.859,17.55,179.157.623,7.251-2.811,11.479-6.952,11.881-4.014.39-8.694-2.811-11-10.336-16.2-52.843-38.712-112.265-42.267-172.041C319.854,311.225,353.778,305.368,364.756,340.16Z" transform="translate(-70.673 143.816)" fill="#ffa4a3" fill-rule="evenodd"/>
      <path id="Path_49225" data-name="Path 49225" d="M403.837,339.3c-19.62,55.986-61.323,102.572-93.331,153.933-3.845,6.177-9.128,7.506-12.684,5.345-3.446-2.094-5.277-7.462-2.611-14.867,18.7-52.008,36.3-113.067,69.281-163.048C385.238,289.231,415.9,304.875,403.837,339.3Z" transform="translate(-110.118 124.966)" fill="#ffa4a3" fill-rule="evenodd"/>
      <path id="Path_49226" data-name="Path 49226" d="M354.8,241.547c-1.99,13.5-8.911,17.966-12.735,30.949-14.554,50.081-7.289,49.185-5.4,83.8s11.9,52.675-3.145,72.393c-9,11.8-31.447,24.228-67.135,13.965C220.99,429.591,226.118,364.5,245.808,334.69c30.995-46.928,4.262-96.06,21.4-137.579,6.009-14.559,23.374-24.6,38.953-26.933s31.652,9.927,39.129,23.783C359.6,220.464,356.194,232.1,354.8,241.547Z" transform="translate(-198.159 -63.184)" fill="#00907a" fill-rule="evenodd"/>
      <path id="Path_49227" data-name="Path 49227" d="M314.846,146.7c10.011,12.506,11.086,70.114-15.89,68.393-15.006-.958-29.221-13.58-31.991-34.99s7.075-40.459,21.976-42.543S310.695,141.518,314.846,146.7Z" transform="translate(-148.706 -109.25)" fill="#ffa4a3" fill-rule="evenodd"/>
      <path id="Path_49228" data-name="Path 49228" d="M520.756,345.992c-5.725-11.914-16.544-20.772-28.4-26.608-29.274-14.4-82.991-26.237-116.544-34.277-40.719-9.758-125.744-46.731-125.744-46.731s-4.009,4.649-5.41,6.459c-14.073,18.183-19.68,40.236-14.371,62.868,3.184,13.582,11.1,26.307,22.859,33.818,14.249,9.1,160.1,23.273,196.238,31.948l-58.7,161.467c10.571,11.038,31.926,20.864,46.743,23.193,34.227-65.258,51.012-95.555,78.154-156.869C523.266,383.9,529.359,363.891,520.756,345.992Z" transform="translate(-202.416 33.133)" fill="#35146d" fill-rule="evenodd"/>
      <path id="Path_49229" data-name="Path 49229" d="M329.581,169.244s-1.28.354-3.53.763a58.447,58.447,0,0,0-2.4-11.657s-.544,4.531-1.044,12.2c-.912.12-1.9.236-2.958.335a49.511,49.511,0,0,0-1.93-8.29s-.371,3.1-.785,8.5a75.876,75.876,0,0,1-18.246-1.054,63.818,63.818,0,0,1-27.8-12.67C287.531,117.455,330.917,132.666,329.581,169.244Z" transform="translate(-142.527 -114.025)" fill="#35146d" fill-rule="evenodd"/>
      <path id="Path_49230" data-name="Path 49230" d="M340.435,260.174c1.376,3.925,2.859,10.952,5.807,14.441,20.59,24.336,76.638,35.955,115.167,59.511,36.876,22.546,35.495,39.131,38.736,58.606,16.547,99.412,13.58,147.3,20.356,191.492-14.992,5.985-33.481,8.283-48.581,7.3L423.535,398.477c-32.706-6.9-153.454-41.692-169.912-52.2-11.758-7.511-19.675-20.236-22.859-33.82-6.329-26.988,1.463-53.827,18.917-74.077C249.681,238.376,296.032,250.885,340.435,260.174Z" transform="translate(-202.033 33.133)" fill="#5f24d6" fill-rule="evenodd"/>
      <path id="Path_49231" data-name="Path 49231" d="M419.325,347.224c2.89-2.83,9.857-10,8.921-12.405-1.172-3.02-8.187-2.787-15.791-2.982-1.478-.038-28.952,3.882-29.209,4.19-40.549-9.161-65.482-10.235-111.168-26.627-10.037-3.6-10.646-12.429-6.562-22.233,10.858-26.062,23.566-55.379,35.733-85.388,6.719-16.571-21.124-38.024-33.3-14.494-25.051,48.4-34,87.33-36.559,107.63-1.954,15.541.455,28.779,17.143,34.477,40.12,13.7,103.968,20.12,135.437,17.319C393.411,346.182,412.85,353.965,419.325,347.224Z" transform="translate(-198.897 -53.357)" fill="#ffa4a3" fill-rule="evenodd"/>
      <path id="Path_49232" data-name="Path 49232" d="M281.98,161.478l-18.217,24.534a11.773,11.773,0,1,0,20.888,10.728l11.789-27.833a8.151,8.151,0,0,0-14.46-7.429Z" transform="translate(-154.986 -80.506)" fill="#ffa4a3" fill-rule="evenodd"/>
      <path id="Path_49233" data-name="Path 49233" d="M266.916,184.955s24.866-7.159,35.512-20.515a290.684,290.684,0,0,0,17.247-23.877C271.21,101.011,247.672,180.075,266.916,184.955Z" transform="translate(-157.559 -119.962)" fill="#35146d" fill-rule="evenodd"/>
      <path id="Path_49234" data-name="Path 49234" d="M279.9,159.455c-.59,5.869-4.748,10.5-9.291,10.343s-7.746-5.041-7.159-10.908,4.75-10.5,9.291-10.345S280.482,153.588,279.9,159.455Z" transform="translate(-153.101 -93.215)" fill="#ffa4a3" fill-rule="evenodd"/>
      <path id="Path_49235" data-name="Path 49235" d="M392.121,473.143c-4.281-4.038-8.93-8.548-12.261-13.406-2.012-2.936-5.609-43.4-6.408-53.221-8.581-1.1-16.174-3.521-20.741-8.4-9.046,9.364-18.364,40.594-24.387,53.7l5.116,2.505,15.38-24.5c1.03,3.9,3.114,24.7,5.725,33.137a4.187,4.187,0,0,0,2.411,2.866c.845.416,36.46,17.839,36.371,17.8-.029-.017.055.029.089.043C394.761,480.808,394.419,475.311,392.121,473.143Z" transform="translate(-61.754 257.796)" fill="#35146d" fill-rule="evenodd"/>
      <path id="Path_49236" data-name="Path 49236" d="M319.886,459.058c-1.61-5.662-3.29-11.917-3.66-17.8-.224-3.552,16.041-35.519,20.987-49.924-6.81-5.338-11.9-10.4-13.322-16.927-12.566,3.407-35.979,25.475-47.869,33.649l3.112,4.772,25.761-13.166c-1.121,3.9-9.943,22.072-12.056,30.449a5.91,5.91,0,0,0,.229,4.074c.5.785,22.541,34.564,22.491,34.482a.888.888,0,0,0,.051.082C318.225,466.992,320.75,462.1,319.886,459.058Z" transform="translate(-135.315 224.458)" fill="#35146d" fill-rule="evenodd"/>
      <g id="Group_21139" data-name="Group 21139" transform="translate(118.791 177.806)">
        <rect id="Rectangle_586" data-name="Rectangle 586" width="205.765" height="7.854" transform="translate(0 97.305)" fill="#5f24d6"/>
        <path id="Path_49237" data-name="Path 49237" d="M296.076,304.6H431.617l36.6-105.158h-136.5Z" transform="translate(-225.899 -199.438)" fill="#35146d" fill-rule="evenodd"/>
        <path id="Path_49238" data-name="Path 49238" d="M345.339,214.342c-7.809,0-15.95,6.329-18.183,14.138s2.284,14.14,10.1,14.14,15.948-6.331,18.181-14.14S353.145,214.342,345.339,214.342Z" transform="translate(-182.991 -178.475)" fill="#5f24d6" fill-rule="evenodd"/>
      </g>
    </g>
  </g>
</svg>
