<svg xmlns="http://www.w3.org/2000/svg" width="436" height="327.189" viewBox="0 0 436 327.189">
  <g id="Group_21153" data-name="Group 21153" transform="translate(0 0)">
    <path id="Path_49239" data-name="Path 49239" d="M530.78,200.97C471.736,40.635,390.8,72.9,378.658,311.029c-3.2,62.657,64.271,115.11,146.823,117.036S676.138,380.716,677.6,318.006,553.1,261.588,530.78,200.97Z" transform="translate(-264.593 -101.799)" fill="#f2f2f2"/>
    <rect id="Rectangle_591" data-name="Rectangle 591" width="215.181" height="88.328" transform="translate(139.069 112.478)" fill="#3f3d56"/>
    <circle id="Ellipse_392" data-name="Ellipse 392" cx="10.299" cy="10.299" r="10.299" transform="translate(375.135 237.595)" fill="#dc3487" opacity="0.4"/>
    <path id="Path_49240" data-name="Path 49240" d="M891.023,714.138l-.94-.018a217.9,217.9,0,0,1,3.336-31.144c4.063-22.026,10.82-36.491,20.082-42.995l.54.769C892.4,655.941,891.033,713.557,891.023,714.138Z" transform="translate(-535.794 -387.128)" fill="#3f3d56"/>
    <path id="Path_49241" data-name="Path 49241" d="M916.023,760.821l-.94-.018c.02-1.041.608-25.565,10.262-32.344l.54.769C916.62,735.734,916.027,760.571,916.023,760.821Z" transform="translate(-549.048 -434.037)" fill="#3f3d56"/>
    <circle id="Ellipse_393" data-name="Ellipse 393" cx="4.698" cy="4.698" r="4.698" transform="translate(378.893 244.31)" fill="#dc3487"/>
    <circle id="Ellipse_394" data-name="Ellipse 394" cx="4.698" cy="4.698" r="4.698" transform="translate(376.567 284.716)" fill="#dc3487"/>
    <path id="Path_49242" data-name="Path 49242" d="M905.385,636.8a20.869,20.869,0,0,1-1.418,10.684,19.019,19.019,0,0,1-3.2-20.424A20.873,20.873,0,0,1,905.385,636.8Z" transform="translate(-540.601 -380.28)" fill="#dc3487"/>
    <path id="Path_49243" data-name="Path 49243" d="M932.935,669.288a20.973,20.973,0,0,1-10.761.486,19.136,19.136,0,0,1,19.554-6.707A20.972,20.972,0,0,1,932.935,669.288Z" transform="translate(-552.808 -399.11)" fill="#3f3d56"/>
    <path id="Path_49244" data-name="Path 49244" d="M936.961,747.725a14.626,14.626,0,0,1-7.547.326,13.331,13.331,0,0,1,13.706-4.7,14.627,14.627,0,0,1-6.158,4.376Z" transform="translate(-556.646 -441.721)" fill="#3f3d56"/>
    <rect id="Rectangle_592" data-name="Rectangle 592" width="374.922" height="0.94" transform="translate(0 326.249)" fill="#3f3d56"/>
    <path id="Path_49245" data-name="Path 49245" d="M705.379,409.322H431V302.2H705.379Zm-273.44-.94h272.5V303.141H431.94Z" transform="translate(-292.401 -208.047)" fill="#3f3d56"/>
    <path id="Path_49246" data-name="Path 49246" d="M716.966,338.233c0,35.385-21.033,47.74-46.983,47.74-.6,0-1.2-.009-1.8-.022-1.2-.026-2.4-.082-3.572-.164C641.192,384.13,623,371.14,623,338.233c0-34.049,43.51-77.019,46.788-80.206a0,0,0,0,1,0,0h0c.125-.125.19-.186.19-.186S716.966,302.852,716.966,338.233Z" transform="translate(-394.194 -184.526)" fill="#dc3487"/>
    <path id="Path_49247" data-name="Path 49247" d="M698.046,380.558,715.23,356.55,698,383.2l-.043,2.755c-1.2-.026-2.4-.082-3.572-.164l1.851-35.4-.013-.277.03-.048.177-3.347-17.271-26.711,17.323,24.2.043.709,1.4-26.745-14.785-27.6,14.966,22.91,1.457-55.454,0-.19v.186l-.242,43.727,14.72-17.336-14.78,21.1-.389,23.948,13.747-22.983-13.8,26.508L698.6,346.3l19.948-31.991-20.026,36.635Z" transform="translate(-423.969 -184.526)" fill="#3f3d56"/>
    <path id="Path_49248" data-name="Path 49248" d="M537.108,240.417a6.108,6.108,0,1,1,6.108-6.108A6.108,6.108,0,0,1,537.108,240.417Zm0-11.276a5.168,5.168,0,1,0,5.168,5.168,5.168,5.168,0,0,0-5.168-5.168Z" transform="translate(-345.418 -168.814)" fill="#3f3d56"/>
    <circle id="Ellipse_395" data-name="Ellipse 395" cx="3.759" cy="3.759" r="3.759" transform="translate(305.388 222.887)" fill="#3f3d56"/>
    <circle id="Ellipse_396" data-name="Ellipse 396" cx="3.759" cy="3.759" r="3.759" transform="translate(41.815 112.478)" fill="#3f3d56"/>
    <path id="Path_49249" data-name="Path 49249" d="M643.216,606.417H631V594.2h12.216Zm-11.276-.94h10.336V595.141H631.94Z" transform="translate(-398.435 -362.857)" fill="#3f3d56"/>
    <circle id="Ellipse_397" data-name="Ellipse 397" cx="23.491" cy="23.491" r="23.491" transform="translate(389.017 71.133)" fill="#dc3487"/>
    <path id="Path_49250" data-name="Path 49250" d="M857.973,200.052l-10.1-10.1,2.834-2.834,7.28,7.28,15.366-15.366,2.834,2.834Z" transform="translate(-449.516 -94.915)" fill="#fff"/>
    <path id="Path_49251" data-name="Path 49251" d="M227.526,633.2a38.526,38.526,0,1,0,38.526,38.526A38.526,38.526,0,0,0,227.526,633.2Zm2.349,41.815a7.517,7.517,0,1,1,7.517-7.517A7.517,7.517,0,0,1,229.875,675.016Z" transform="translate(-164.099 -383.534)" fill="#f2f2f2"/>
    <path id="Path_49252" data-name="Path 49252" d="M339.329,574.995c-.85.925-16.484,15.8-16.484,15.8s1.554,10.382,18.282,11.671l27.88,2.147s5.27,19.339,11.535,25.519,3.39,6.525,5.741,9.537-.949,3.82,2.62,4.112,10.944-4.023,11.024-7.361a7.787,7.787,0,0,0-2.927-6.1c-.925-.85-3.272-8.975-4.679-10.694s-6.733-22.389-6.733-22.389-5.317-10-12.687-10.8-15.57-4.383-15.57-4.383" transform="translate(-235.06 -352.674)" fill="#2f2e41"/>
    <path id="Path_49253" data-name="Path 49253" d="M339.329,574.995c-.85.925-16.484,15.8-16.484,15.8s1.554,10.382,18.282,11.671l27.88,2.147s5.27,19.339,11.535,25.519,3.39,6.525,5.741,9.537-.949,3.82,2.62,4.112,10.944-4.023,11.024-7.361a7.787,7.787,0,0,0-2.927-6.1c-.925-.85-3.272-8.975-4.679-10.694s-6.733-22.389-6.733-22.389-5.317-10-12.687-10.8-15.57-4.383-15.57-4.383" transform="translate(-235.06 -352.674)" opacity="0.1"/>
    <path id="Path_49254" data-name="Path 49254" d="M415.492,433.941s5.867-15.942,9.883-10.863-6.462,13.421-6.462,13.421Z" transform="translate(-284.179 -271.602)" fill="#a0616a"/>
    <path id="Path_49255" data-name="Path 49255" d="M349.708,454.983l3.341-1.413s6.065,6.364,8.473,7.548,8.988,4.049,9.863,4.52,10.778-17.05,8.41-19.566c0,0,4.433,1.6,6.451.992,0,0-5.038,24.425-5.8,27.735s-2.556,3.7-5.893,3.822-23.6-5.824-23.6-5.824Z" transform="translate(-249.302 -284.323)" fill="#575a89"/>
    <path id="Path_49256" data-name="Path 49256" d="M459.414,711.306s1.032,3.312.572,3.843-1.807,9.589,3.727,9,8.2-2.376,9.6-2.276,22.2-7.156,21.163-10.468-11.429.315-11.429.315-11.811-2.247-14.584-4.837S459.414,711.306,459.414,711.306Z" transform="translate(-307.465 -422.291)" fill="#2f2e41"/>
    <path id="Path_49257" data-name="Path 49257" d="M459.414,711.306s1.032,3.312.572,3.843-1.807,9.589,3.727,9,8.2-2.376,9.6-2.276,22.2-7.156,21.163-10.468-11.429.315-11.429.315-11.811-2.247-14.584-4.837S459.414,711.306,459.414,711.306Z" transform="translate(-307.465 -422.291)" opacity="0.1"/>
    <path id="Path_49258" data-name="Path 49258" d="M436.849,719.883s3.338,14.544,5.787,14.4,19.736-8.561,21.863-10.228c2.731-2.14,2.623-5.92-.512-5.126s-12,.082-13.509-1.519L446.6,713.29Z" transform="translate(-295.502 -425.994)" fill="#2f2e41"/>
    <path id="Path_49259" data-name="Path 49259" d="M331.579,555.332c-.915.861-28.737,24.464-28.737,24.464s2.277,15.259,18.867,17.759,26.167-.622,26.167-.622,3.85,19.671,9.65,26.29,2.907,6.754,5.033,9.929-1.224,3.741,2.315,4.292,11.208-3.217,11.53-6.54a7.787,7.787,0,0,0-2.476-6.3c-.861-.915-2.611-9.189-3.889-11.006s-5.088-22.819-5.088-22.819-4.576-10.36-11.868-11.691-15.21-5.5-15.21-5.5" transform="translate(-224.455 -342.25)" fill="#2f2e41"/>
    <circle id="Ellipse_398" data-name="Ellipse 398" cx="13.192" cy="13.192" r="13.192" transform="translate(68.321 135.565)" fill="#a0616a"/>
    <path id="Path_49260" data-name="Path 49260" d="M293.306,432.819s1.979,8.059-1.035,12.19,20.155,2.164,20.155,2.164-6.271-13.077-3.957-16.118S293.306,432.819,293.306,432.819Z" transform="translate(-218.707 -275.827)" fill="#a0616a"/>
    <path id="Path_49261" data-name="Path 49261" d="M313.8,460.21c2.8,2.973,1.845,19.832,1.845,19.832L313.854,495.1s2.14,2.731,1.44,3.821-1.843,2.166.364,2.677,7.293,1.331,5.665,3.726a23.092,23.092,0,0,1-1.705,1.942c-.519.549-1.136,1.186-1.835,1.9-1.636,1.653-3.718,3.685-6.027,5.829q-.981.917-2.011,1.85c-8.809,7.969-19.763,16.4-22.03,12.356-3.795-6.781-6.432-7.749-6.258-13.521s-4.711-20.585-4.711-20.585-5.68-25.281,2.325-32.816l1.252-2a5.229,5.229,0,0,1,5.658-2.316c3.907.934,9.9,2.223,12.492,2.015,4.009-.323,3.131-1.972,3.131-1.972S311,457.237,313.8,460.21Z" transform="translate(-209.583 -290.546)" fill="#575a89"/>
    <path id="Path_49262" data-name="Path 49262" d="M381.211,577.7s16.321,4.048,13.927,9.753-16.523-4.721-16.523-4.721Z" transform="translate(-264.628 -354.107)" fill="#a0616a"/>
    <path id="Path_49263" data-name="Path 49263" d="M280.928,403.234c.325-.394,0-.969-.279-1.393-1.515-2.275-1.8-5.512-.137-7.678a7.309,7.309,0,0,1,2.41-1.928,11.67,11.67,0,0,1,4.205-1.291,6.51,6.51,0,0,0,2.285-.45c.46-.233,2.631-.994,3.1-1.215,1.024-.487,2.45-.277,3.106-1.2.628-.885.042-2.1-.568-3-1.39-2.045-4.9-3.739-7.318-4.276a8.622,8.622,0,0,0-5.44.965,33.212,33.212,0,0,0-5.541,3.467,20.73,20.73,0,0,0-6.139,6.3c-1.426,2.588-1.77,5.959-.159,8.436.336.516.746.982,1.06,1.511.766,1.291.9,2.853,1.446,4.253a7.872,7.872,0,0,0,4.549,4.482c1.65.61,3.679.779,4.654,2.243l.455-3.053a1.76,1.76,0,0,0-.823-2.055l-2.337-1.968a2.67,2.67,0,0,1-1.01-1.3C277.937,401.972,280.386,403.89,280.928,403.234Z" transform="translate(-206.715 -249.65)" fill="#2f2e41"/>
    <path id="Path_49264" data-name="Path 49264" d="M309.982,511.762l10.588,6.93c-2.1,2.123-4.936,4.871-8.038,7.679-2.939-1.582-5.936-3.295-8.617-5.016-9.809-6.3-18.22-22.1-21.988-29.773s-.7-13.576-.7-13.576a28.644,28.644,0,0,1,7.844-2.207C293.981,475.059,309.982,511.762,309.982,511.762Z" transform="translate(-212.371 -300.078)" opacity="0.1"/>
    <path id="Path_49265" data-name="Path 49265" d="M314.132,515.856l11.023,7.215c-.519.549-1.136,1.186-1.835,1.9-1.636,1.653-3.718,3.685-6.027,5.829-3.131-1.672-6.363-3.505-9.229-5.345-9.809-6.3-18.22-22.1-21.988-29.773s6.37-4.918,6.37-4.918-5.261-2.381-.35-3.122S314.132,515.856,314.132,515.856Z" transform="translate(-215.122 -306.352)" opacity="0.1"/>
    <path id="Path_49266" data-name="Path 49266" d="M282.257,475.2s-3.067,5.907.7,13.576,12.179,23.477,21.988,29.773,23.843,12.5,23.843,12.5,1.331-7.293,3.578-8.114l-21.354-13.978s-16-36.7-20.912-35.963A28.644,28.644,0,0,0,282.257,475.2Z" transform="translate(-212.917 -298.59)" fill="#575a89"/>
    <path id="Path_49267" data-name="Path 49267" d="M227.224,700.649a43.224,43.224,0,1,1,43.224-43.224A43.224,43.224,0,0,1,227.224,700.649Zm0-85.509a42.284,42.284,0,1,0,42.284,42.285A42.284,42.284,0,0,0,227.224,615.141Z" transform="translate(-161.448 -373.46)" fill="#3f3d56"/>
    <path id="Path_49268" data-name="Path 49268" d="M266.987,705.175a7.987,7.987,0,1,1,7.987-7.987A7.987,7.987,0,0,1,266.987,705.175Zm0-15.034a7.047,7.047,0,1,0,7.047,7.047A7.047,7.047,0,0,0,266.987,690.141Z" transform="translate(-201.211 -413.223)" fill="#3f3d56"/>
    <path id="Path_49269" data-name="Path 49269" d="M109.371,457.734h-.94V409.342H84v-.94h25.371Z" transform="translate(-44.534 -216.524)" fill="#3f3d56"/>
    <rect id="Rectangle_593" data-name="Rectangle 593" width="20.924" height="0.94" transform="translate(99.821 256.715)" fill="#3f3d56"/>
    <rect id="Rectangle_594" data-name="Rectangle 594" width="47.922" height="0.94" transform="translate(63.427 224.297)" fill="#3f3d56"/>
    <path id="Path_49270" data-name="Path 49270" d="M281.185,602.3,256.09,547.377l.855-.391,24.707,54.076,22.6-10.145.385.857Z" transform="translate(-135.772 -289.997)" fill="#3f3d56"/>
    <ellipse id="Ellipse_399" data-name="Ellipse 399" cx="13.155" cy="1.879" rx="13.155" ry="1.879" transform="translate(28.659 190.469)" fill="#3f3d56"/>
  </g>
</svg>
