<svg xmlns="http://www.w3.org/2000/svg" width="152" height="141" viewBox="0 0 152 141">
  <g id="Group_21158" data-name="Group 21158" transform="translate(-995 -765)">
    <rect id="Rectangle_598" data-name="Rectangle 598" width="152" height="141" rx="20" transform="translate(995 765)" fill="#ebebeb"/>
    <g id="Group_21157" data-name="Group 21157" transform="translate(-1 23)">
      <g id="Icon_ionic-md-photos" data-name="Icon ionic-md-photos" transform="translate(1053.625 777.625)" opacity="0.24">
        <path id="Path_49273" data-name="Path 49273" d="M28.125,29.623V10.877a3.01,3.01,0,0,0-3-3H6.377a3.01,3.01,0,0,0-3,3V29.63a3.01,3.01,0,0,0,3,3H25.13A3.019,3.019,0,0,0,28.125,29.623ZM11.06,21.375l3.185,4.5,4.69-6.75,6.188,9H6.377Z"/>
        <path id="Path_49274" data-name="Path 49274" d="M29.623,3.375H10.877a3.01,3.01,0,0,0-3,3V6.75H26.248a3.01,3.01,0,0,1,3,3V28.125h.373a3.01,3.01,0,0,0,3-3V6.377A3.01,3.01,0,0,0,29.623,3.375Z"/>
      </g>
      <text id="Upload_Photo" data-name="Upload Photo" transform="translate(1025 839.757)" font-size="14" font-family="Poppins-Regular, Poppins" opacity="0.35"><tspan x="0" y="0">Upload Photo</tspan></text>
    </g>
  </g>
</svg>
