<svg xmlns="http://www.w3.org/2000/svg" width="181.078" height="60" viewBox="0 0 181.078 60">
  <g id="Group_20878" data-name="Group 20878" transform="translate(-1056.922 -5261)">
    <g id="Group_20877" data-name="Group 20877">
      <text id="Get_it_From_" data-name="Get it From " transform="translate(1119 5278)" fill="#fff" font-size="16" font-family="Poppins-Regular, Poppins"><tspan x="0" y="0">Get it From </tspan></text>
      <text id="Appstore" transform="translate(1119 5312)" fill="#fff" font-size="25" font-family="Poppins-Bold, Poppins" font-weight="700"><tspan x="0" y="0">Appstore</tspan></text>
    </g>
    <path id="Icon_awesome-apple" data-name="Icon awesome-apple" d="M28.971,23.829A8.511,8.511,0,0,1,33.529,16.1a9.8,9.8,0,0,0-7.722-4.066c-3.236-.255-6.774,1.887-8.068,1.887-1.367,0-4.5-1.8-6.965-1.8C5.687,12.205.281,16.18.281,24.266a22.722,22.722,0,0,0,1.313,7.4c1.167,3.346,5.379,11.551,9.773,11.414,2.3-.055,3.92-1.632,6.91-1.632,2.9,0,4.4,1.632,6.965,1.632,4.431-.064,8.241-7.521,9.354-10.876-5.944-2.8-5.625-8.2-5.625-8.378ZM23.811,8.859A8.586,8.586,0,0,0,26,2.25a9.667,9.667,0,0,0-6.19,3.182,8.721,8.721,0,0,0-2.334,6.555c2.379.182,4.549-1.039,6.336-3.127Z" transform="translate(1056.641 5268.75)" fill="#fff"/>
  </g>
</svg>
