<svg xmlns="http://www.w3.org/2000/svg" width="44.375" height="44.375" viewBox="0 0 44.375 44.375">
  <path id="Icon_ionic-ios-arrow-dropleft-circle" data-name="Icon ionic-ios-arrow-dropleft-circle" d="M25.562,3.375A22.188,22.188,0,1,1,3.375,25.563,22.184,22.184,0,0,1,25.562,3.375Zm-4.63,30.838a2.067,2.067,0,0,0,0,2.912,2.034,2.034,0,0,0,1.451.6,2.069,2.069,0,0,0,1.461-.608L33.872,27.056a2.056,2.056,0,0,0-.064-2.837L23.632,14.01a2.059,2.059,0,0,0-2.912,2.912l8.736,8.64Z" transform="translate(-3.375 -3.375)" fill="#fff"/>
</svg>
