<svg xmlns="http://www.w3.org/2000/svg" width="27.544" height="22.371" viewBox="0 0 27.544 22.371">
  <path id="Icon_awesome-twitter" data-name="Icon awesome-twitter" d="M24.713,8.956c.017.245.017.489.017.734,0,7.463-5.68,16.061-16.061,16.061A15.953,15.953,0,0,1,0,23.217a11.678,11.678,0,0,0,1.363.07,11.306,11.306,0,0,0,7.008-2.412A5.655,5.655,0,0,1,3.093,16.96a7.119,7.119,0,0,0,1.066.087,5.971,5.971,0,0,0,1.486-.192,5.646,5.646,0,0,1-4.527-5.54v-.07a5.685,5.685,0,0,0,2.552.717,5.654,5.654,0,0,1-1.748-7.55,16.046,16.046,0,0,0,11.64,5.907,6.373,6.373,0,0,1-.14-1.293,5.651,5.651,0,0,1,9.77-3.862A11.114,11.114,0,0,0,26.775,3.8a5.63,5.63,0,0,1-2.482,3.111,11.317,11.317,0,0,0,3.251-.874,12.135,12.135,0,0,1-2.831,2.919Z" transform="translate(0 -3.381)" fill="#fff"/>
</svg>
