<svg xmlns="http://www.w3.org/2000/svg" width="24.096" height="24.106" viewBox="0 0 24.096 24.106">
  <path id="Icon_ionic-logo-pinterest" data-name="Icon ionic-logo-pinterest" d="M14.3,2.25A12.052,12.052,0,0,0,9.464,25.34a10.672,10.672,0,0,1,.21-2.765c.231-.979,1.549-6.569,1.549-6.569a4.6,4.6,0,0,1-.387-1.9c0-1.786,1.033-3.12,2.324-3.12a1.612,1.612,0,0,1,1.625,1.808,26.069,26.069,0,0,1-1.065,4.277,1.863,1.863,0,0,0,1.9,2.319c2.281,0,3.82-2.932,3.82-6.407,0-2.641-1.781-4.616-5.014-4.616A5.71,5.71,0,0,0,8.5,14.134a3.474,3.474,0,0,0,.8,2.362.589.589,0,0,1,.172.672c-.059.221-.188.753-.247.968a.414.414,0,0,1-.6.3c-1.684-.689-2.469-2.528-2.469-4.605,0-3.421,2.889-7.526,8.613-7.526,4.6,0,7.628,3.33,7.628,6.9,0,4.729-2.631,8.258-6.5,8.258a3.458,3.458,0,0,1-2.943-1.5s-.7,2.776-.85,3.314a10.016,10.016,0,0,1-1.21,2.582A12.053,12.053,0,1,0,14.3,2.25Z" transform="translate(-2.25 -2.25)" fill="#fff"/>
</svg>
