<svg xmlns="http://www.w3.org/2000/svg" width="15.539" height="15.538" viewBox="0 0 15.539 15.538">
  <path id="Icon_ionic-ios-call" data-name="Icon ionic-ios-call" d="M19.58,16.669a13.052,13.052,0,0,0-2.726-1.824c-.817-.392-1.116-.384-1.695.032-.481.348-.793.672-1.347.55a8.036,8.036,0,0,1-2.706-2,7.978,7.978,0,0,1-2-2.706c-.117-.558.206-.866.55-1.347.417-.578.429-.878.032-1.695A12.794,12.794,0,0,0,7.861,4.95c-.595-.595-.728-.465-1.056-.348a6.008,6.008,0,0,0-.967.514A2.917,2.917,0,0,0,4.678,6.342c-.231.5-.5,1.424.862,3.843a21.443,21.443,0,0,0,3.77,5.028h0l0,0,0,0h0a21.527,21.527,0,0,0,5.028,3.77c2.419,1.359,3.345,1.092,3.843.862a2.867,2.867,0,0,0,1.226-1.161,6.008,6.008,0,0,0,.514-.967C20.046,17.4,20.179,17.264,19.58,16.669Z" transform="translate(-4.49 -4.502)" fill="#fff"/>
</svg>
