<svg xmlns="http://www.w3.org/2000/svg" width="16.099" height="20.929" viewBox="0 0 16.099 20.929">
  <path id="Icon_ionic-ios-lock" data-name="Icon ionic-ios-lock" d="M20.836,10.619H19.629V8.27A4.83,4.83,0,1,0,9.97,8.2v2.415H8.762A2.018,2.018,0,0,0,6.75,12.632v9.659A2.018,2.018,0,0,0,8.762,24.3H20.836a2.018,2.018,0,0,0,2.012-2.012V12.632A2.018,2.018,0,0,0,20.836,10.619ZM15.5,16.9v3.461a.721.721,0,0,1-.669.724.705.705,0,0,1-.74-.7V16.9a1.61,1.61,0,1,1,1.409,0Zm2.717-6.278H11.378V8.2a3.421,3.421,0,0,1,6.842,0Z" transform="translate(-6.75 -3.374)" fill="#fff"/>
</svg>
