<svg xmlns="http://www.w3.org/2000/svg" width="33.053" height="20.658" viewBox="0 0 33.053 20.658">
  <path id="Icon_awesome-google-plus-g" data-name="Icon awesome-google-plus-g" d="M20.98,13.349a8.762,8.762,0,0,1,.169,1.719c0,5.9-3.96,10.089-9.92,10.089a10.329,10.329,0,1,1,0-20.658,9.866,9.866,0,0,1,6.919,2.706L15.344,9.9A5.8,5.8,0,0,0,11.229,8.3a6.526,6.526,0,0,0,0,13.049A5.594,5.594,0,0,0,17.091,16.9H11.229V13.349H20.98Zm9.974.346v-3H27.942v3h-3v3.013h3v3h3.013v-3h3V13.7h-3Z" transform="translate(-0.9 -4.5)" fill="#fff"/>
</svg>
