<svg xmlns="http://www.w3.org/2000/svg" width="21.29" height="14.193" viewBox="0 0 21.29 14.193">
  <path id="Icon_awesome-eye" data-name="Icon awesome-eye" d="M21.161,11.057A11.855,11.855,0,0,0,10.645,4.5,11.857,11.857,0,0,0,.129,11.057a1.2,1.2,0,0,0,0,1.079,11.855,11.855,0,0,0,10.516,6.557,11.857,11.857,0,0,0,10.516-6.557A1.2,1.2,0,0,0,21.161,11.057ZM10.645,16.919A5.322,5.322,0,1,1,15.967,11.6,5.322,5.322,0,0,1,10.645,16.919Zm0-8.871a3.523,3.523,0,0,0-.935.14,1.769,1.769,0,0,1-2.473,2.473,3.54,3.54,0,1,0,3.408-2.613Z" transform="translate(0 -4.5)" fill="#fff"/>
</svg>
