<svg xmlns="http://www.w3.org/2000/svg" xmlns:xlink="http://www.w3.org/1999/xlink" width="27" height="27" viewBox="0 0 27 27">
  <defs>
    <linearGradient id="linear-gradient" x1="0.5" x2="0.5" y2="1" gradientUnits="objectBoundingBox">
      <stop offset="0" stop-color="#e75d7a"/>
      <stop offset="1" stop-color="#c12280"/>
    </linearGradient>
  </defs>
  <path id="Icon_ionic-ios-checkbox" data-name="Icon ionic-ios-checkbox" d="M29.25,4.5H6.75A2.248,2.248,0,0,0,4.5,6.75v22.5A2.248,2.248,0,0,0,6.75,31.5h22.5a2.248,2.248,0,0,0,2.25-2.25V6.75A2.248,2.248,0,0,0,29.25,4.5Zm-3.691,9.457-9.4,9.443h-.007a1.27,1.27,0,0,1-.816.387,1.231,1.231,0,0,1-.823-.4l-3.937-3.937a.28.28,0,0,1,0-.4L11.827,17.8a.272.272,0,0,1,.394,0l3.122,3.122,8.578-8.641a.278.278,0,0,1,.2-.084h0a.255.255,0,0,1,.2.084l1.23,1.273A.277.277,0,0,1,25.559,13.957Z" transform="translate(-4.5 -4.5)" fill="url(#linear-gradient)"/>
</svg>
