<svg xmlns="http://www.w3.org/2000/svg" width="44.375" height="44.375" viewBox="0 0 44.375 44.375">
  <path id="Icon_ionic-ios-arrow-dropleft-circle" data-name="Icon ionic-ios-arrow-dropleft-circle" d="M25.563,3.375A22.187,22.187,0,1,0,47.75,25.563,22.184,22.184,0,0,0,25.563,3.375Zm4.63,30.838a2.067,2.067,0,0,1,0,2.912,2.034,2.034,0,0,1-1.451.6,2.069,2.069,0,0,1-1.461-.608L17.253,27.056a2.056,2.056,0,0,1,.064-2.837L27.493,14.01a2.059,2.059,0,1,1,2.912,2.912l-8.736,8.64Z" transform="translate(-3.375 -3.375)" fill="#fff"/>
</svg>
