<svg xmlns="http://www.w3.org/2000/svg" width="25.251" height="23.594" viewBox="0 0 25.251 23.594">
  <path id="Icon_simple-hipchat" data-name="Icon simple-hipchat" d="M20.765,20.4s.108-.077.281-.208a10.288,10.288,0,0,0,4.205-8.121c0-6.013-5.653-10.892-12.622-10.892S0,6.059,0,12.072s5.651,10.9,12.624,10.9a14.479,14.479,0,0,0,2.656-.24l.276-.047a13.141,13.141,0,0,0,6.616,2.094.678.678,0,0,0,.581-1.162A12.779,12.779,0,0,1,20.765,20.4ZM19.227,15.64a8.161,8.161,0,0,1-6.58,3.04H12.6a8.172,8.172,0,0,1-6.58-3.04,1.2,1.2,0,0,1-.287-.6.516.516,0,0,1,.47-.553.056.056,0,0,1,.022,0,.662.662,0,0,1,.345.117,9.613,9.613,0,0,0,6.054,2.163,9.264,9.264,0,0,0,6.06-2.166.485.485,0,0,1,.329-.128.507.507,0,0,1,.508.5,1.39,1.39,0,0,1-.282.677h-.012Z" transform="translate(0 -1.18)" fill="#fff"/>
</svg>
