<svg xmlns="http://www.w3.org/2000/svg" width="27" height="24" viewBox="0 0 27 24">
  <path id="Icon_awesome-shopping-cart" data-name="Icon awesome-shopping-cart" d="M24.756,14.124l2.216-9.75A1.125,1.125,0,0,0,25.875,3H7.463L7.033.9a1.125,1.125,0,0,0-1.1-.9H1.125A1.125,1.125,0,0,0,0,1.125v.75A1.125,1.125,0,0,0,1.125,3H4.4L7.694,19.1a2.625,2.625,0,1,0,3.143.4h9.827a2.624,2.624,0,1,0,2.981-.488l.259-1.138a1.125,1.125,0,0,0-1.1-1.374H10.224L9.917,15H23.659A1.125,1.125,0,0,0,24.756,14.124Z" fill="#fff"/>
</svg>
