<svg xmlns="http://www.w3.org/2000/svg" xmlns:xlink="http://www.w3.org/1999/xlink" width="217.179" height="204.938" viewBox="0 0 217.179 204.938">
  <defs>
    <clipPath id="clip-path">
      <path id="Path_45773" data-name="Path 45773" d="M208.19,385.026a6.342,6.342,0,0,0-5.22.175c-1.57.9-1.57,2.365-.006,3.268a4.926,4.926,0,0,0,1.391.521l.14.028c.058.013.118.024.177.035a14.457,14.457,0,0,1,3.121.958c.332.187.337.442.065.6l-7.469,4.34a4.78,4.78,0,0,1-4.337,0l-6.358-3.67a3.218,3.218,0,0,0-3.277.175,5.8,5.8,0,0,0-1.293,1.522c-.016.032-.038.066-.055.1l-.05.082a2.62,2.62,0,0,1-.895.8,6.187,6.187,0,0,1-5.615,0c-1.408-.825-1.541-2.139-.349-3.037a4.222,4.222,0,0,1,1.4-.659c.166-.045.266-.068.368-.09l.358-.087a13.726,13.726,0,0,0,2.486-.842c1.012-.458,1.1-1.327.188-1.855l-6.218-3.59a1.327,1.327,0,0,1-.014-2.512l7.233-4.2a1.083,1.083,0,0,1,.949-.016q.233.119.453.246a7.443,7.443,0,0,1,2.335,2.013l.149.207a1.756,1.756,0,0,0,.125.176,2.92,2.92,0,0,0,.8.66,4.046,4.046,0,0,0,.376.191,6.342,6.342,0,0,0,5.22-.175c1.571-.9,1.568-2.364,0-3.267a4.829,4.829,0,0,0-1.391-.52l-.138-.029c-.06-.012-.118-.024-.177-.035a13.566,13.566,0,0,1-4.2-1.5.3.3,0,0,1,0-.562l7.674-4.46a4.292,4.292,0,0,1,3.893,0l6.5,3.751a3.173,3.173,0,0,0,3.36-.244,5.634,5.634,0,0,0,.931-1.195c.02-.033.042-.066.059-.1l.048-.083a2.6,2.6,0,0,1,.9-.8,6.191,6.191,0,0,1,5.615,0c1.4.827,1.541,2.139.343,3.038a4.19,4.19,0,0,1-1.4.658c-.166.045-.268.07-.37.089l-.358.087a14.423,14.423,0,0,0-1.955.617c-1.107.441-1.258,1.352-.3,1.9l6.386,3.688a1.191,1.191,0,0,1,.012,2.254l-7.363,4.279a1.078,1.078,0,0,1-.974,0,7.005,7.005,0,0,1-1.822-1.7l-.151-.208a1.536,1.536,0,0,0-.123-.175,2.922,2.922,0,0,0-.8-.659A3.922,3.922,0,0,0,208.19,385.026Z" transform="translate(-175.84 -369.547)" fill="none"/>
    </clipPath>
  </defs>
  <g id="Group_17987" data-name="Group 17987" transform="translate(-28.741 -38.49)">
    <g id="Group_17878" data-name="Group 17878" transform="translate(43.177 108.873)">
      <path id="Path_45538" data-name="Path 45538" d="M62.379,257.879l-1.264-.746c-.331-.191-.289-.525.093-.746l10.983-6.4a1.437,1.437,0,0,1,1.292-.053l1.264.745c.331.191.289.526-.093.746l-10.983,6.4A1.435,1.435,0,0,1,62.379,257.879Z" transform="translate(-59.003 -212.894)" fill="#e3ecff"/>
      <g id="Group_17877" data-name="Group 17877" transform="translate(0)">
        <g id="Group_17876" data-name="Group 17876">
          <g id="Group_17875" data-name="Group 17875" style="isolation: isolate">
            <g id="Group_17867" data-name="Group 17867" transform="translate(13.531)">
              <path id="Path_45539" data-name="Path 45539" d="M86.117,177.957l-1.3-.751a.992.992,0,0,0-1,.1l1.3.751A.992.992,0,0,1,86.117,177.957Z" transform="translate(-83.822 -177.111)" fill="#ff5740"/>
            </g>
            <g id="Group_17868" data-name="Group 17868" transform="translate(0.033 21.131)">
              <path id="Path_45540" data-name="Path 45540" d="M57.646,219.628l1.3.751a.982.982,0,0,1-.41-.9l-1.3-.751A.983.983,0,0,0,57.646,219.628Z" transform="translate(-57.236 -218.728)" fill="#ed341a"/>
            </g>
            <g id="Group_17869" data-name="Group 17869" transform="translate(0 9.662)">
              <path id="Path_45541" data-name="Path 45541" d="M58.468,196.891l-1.3-.751.032,11.469,1.3.751Z" transform="translate(-57.172 -196.14)" fill="#ed341a"/>
            </g>
            <g id="Group_17870" data-name="Group 17870" transform="translate(1.4 0.193)">
              <path id="Path_45542" data-name="Path 45542" d="M73.356,178.243l-1.3-.751-12.132,7.044,1.3.751Z" transform="translate(-59.929 -177.491)" fill="#ff5740"/>
            </g>
            <g id="Group_17871" data-name="Group 17871" transform="translate(0 7.237)">
              <path id="Path_45543" data-name="Path 45543" d="M59.868,192.116l-1.3-.751a3.086,3.086,0,0,0-1.4,2.424l1.3.751A3.084,3.084,0,0,1,59.868,192.116Z" transform="translate(-57.172 -191.365)" fill="#ed341a"/>
            </g>
            <g id="Group_17873" data-name="Group 17873" transform="translate(1.296 0.751)">
              <g id="Group_17872" data-name="Group 17872">
                <path id="Path_45544" data-name="Path 45544" d="M61.124,185.828a3.084,3.084,0,0,0-1.4,2.424l.032,11.469c0,.89.634,1.25,1.408.8L73.3,193.48a3.084,3.084,0,0,0,1.4-2.424l-.032-11.469c0-.893-.632-1.251-1.409-.8Z" transform="translate(-59.725 -178.591)" fill="#de2910"/>
              </g>
            </g>
            <g id="Group_17874" data-name="Group 17874" transform="translate(2.444 4.091)">
              <path id="Path_45545" data-name="Path 45545" d="M62.346,193.484l11.514-6.647a.864.864,0,0,0,.361-.69v-.663c0-.266-.161-.388-.361-.273l-11.514,6.647a.865.865,0,0,0-.36.689v.663C61.986,193.477,62.147,193.6,62.346,193.484Z" transform="translate(-61.986 -185.168)" fill="#f2f2f2"/>
              <path id="Path_45546" data-name="Path 45546" d="M62.346,198.446,73.86,191.8a.864.864,0,0,0,.361-.69v-.663c0-.266-.161-.387-.361-.273L62.346,196.82a.865.865,0,0,0-.36.69v.663C61.986,198.439,62.147,198.561,62.346,198.446Z" transform="translate(-61.986 -187.611)" fill="#f2f2f2"/>
              <path id="Path_45547" data-name="Path 45547" d="M62.346,203.407,73.86,196.76a.863.863,0,0,0,.361-.689v-.663c0-.266-.161-.388-.361-.273l-11.514,6.647a.864.864,0,0,0-.36.689v.663C61.986,203.4,62.147,203.522,62.346,203.407Z" transform="translate(-61.986 -190.053)" fill="#f2f2f2"/>
              <path id="Path_45548" data-name="Path 45548" d="M62.346,208.369l11.514-6.647a.863.863,0,0,0,.361-.69v-.663c0-.266-.161-.388-.361-.273l-11.514,6.647a.865.865,0,0,0-.36.69v.663C61.986,208.362,62.147,208.484,62.346,208.369Z" transform="translate(-61.986 -192.496)" fill="#f2f2f2"/>
            </g>
          </g>
        </g>
      </g>
    </g>
    <g id="Group_17885" data-name="Group 17885" transform="translate(60.134 58.877)">
      <path id="Path_45549" data-name="Path 45549" d="M96.345,231.091l-1.238-.715c-.566-.327-.495-.9.159-1.275l21.989-12.773a2.454,2.454,0,0,1,2.208-.091l1.238.715c.566.326.5.9-.158,1.275L98.554,231A2.453,2.453,0,0,1,96.345,231.091Z" transform="translate(-92.615 -146.266)" fill="#e3ecff"/>
      <g id="Group_17884" data-name="Group 17884">
        <g id="Group_17881" data-name="Group 17881">
          <g id="Group_17880" data-name="Group 17880" style="isolation: isolate">
            <path id="Path_45550" data-name="Path 45550" d="M118.7,78.776a1.4,1.4,0,0,0-1.408.139L92.541,93.2a4.346,4.346,0,0,0-1.972,3.415l.046,16.156a1.384,1.384,0,0,0,.578,1.267l1.825,1.059a1.384,1.384,0,0,1-.578-1.267l-.046-16.156a4.346,4.346,0,0,1,1.972-3.415l24.751-14.29a1.4,1.4,0,0,1,1.408-.139Z" transform="translate(-90.569 -78.642)" fill="#eff0f2"/>
            <g id="Group_17879" data-name="Group 17879" transform="translate(1.825 1.059)">
              <path id="Path_45551" data-name="Path 45551" d="M96.136,95.29A4.345,4.345,0,0,0,94.164,98.7l.046,16.155c0,1.253.894,1.761,1.985,1.131l15.364-8.871,8.78,5.02-.02-10.078.627-.362a4.346,4.346,0,0,0,1.972-3.415l-.046-16.156c0-1.257-.891-1.762-1.985-1.131Z" transform="translate(-94.164 -80.727)" fill="#ced3de"/>
            </g>
          </g>
        </g>
        <g id="Group_17883" data-name="Group 17883" transform="translate(9.435 18.33)">
          <g id="Group_17882" data-name="Group 17882">
            <path id="Path_45552" data-name="Path 45552" d="M128.927,116.958c0,.754.533,1.058,1.19.678a2.621,2.621,0,0,0,1.19-2.052c0-.753-.533-1.058-1.19-.678A2.622,2.622,0,0,0,128.927,116.958Z" transform="translate(-118.886 -114.743)" fill="#4d4d80"/>
            <path id="Path_45553" data-name="Path 45553" d="M122.335,120.765c0,.753.533,1.057,1.19.678a2.621,2.621,0,0,0,1.19-2.052c0-.754-.533-1.058-1.19-.678A2.622,2.622,0,0,0,122.335,120.765Z" transform="translate(-115.641 -116.617)" fill="#4d4d80"/>
            <path id="Path_45554" data-name="Path 45554" d="M115.743,124.57c0,.754.533,1.058,1.19.678a2.621,2.621,0,0,0,1.19-2.052c0-.754-.533-1.058-1.19-.678A2.621,2.621,0,0,0,115.743,124.57Z" transform="translate(-112.396 -118.49)" fill="#4d4d80"/>
            <path id="Path_45555" data-name="Path 45555" d="M109.151,128.376c0,.754.533,1.058,1.19.678A2.621,2.621,0,0,0,111.53,127c0-.754-.533-1.058-1.19-.678A2.621,2.621,0,0,0,109.151,128.376Z" transform="translate(-109.151 -120.364)" fill="#4d4d80"/>
          </g>
        </g>
      </g>
    </g>
    <g id="Group_17896" data-name="Group 17896" transform="translate(28.741 156.745)">
      <path id="Path_45556" data-name="Path 45556" d="M47.6,314.489l-18.364-10.6c-.73-.421-.638-1.157.2-1.643L53.765,288.2a3.166,3.166,0,0,1,2.847-.118l18.364,10.6c.73.421.638,1.157-.2,1.644L50.445,314.371A3.165,3.165,0,0,1,47.6,314.489Z" transform="translate(-28.741 -279.468)" fill="#e3ecff"/>
      <g id="Group_17895" data-name="Group 17895" transform="translate(3.552)">
        <g id="Group_17894" data-name="Group 17894" style="isolation: isolate">
          <g id="Group_17886" data-name="Group 17886" transform="translate(15.146 3.779)">
            <path id="Path_45557" data-name="Path 45557" d="M66.165,279.164l-.032,11.493-.565-.326.033-11.493Z" transform="translate(-65.568 -278.838)" fill="#30306b"/>
          </g>
          <g id="Group_17887" data-name="Group 17887" transform="translate(15.711 3.063)">
            <path id="Path_45558" data-name="Path 45558" d="M80.591,279.2l-.033,11.493c-3.838-2.216-6.465-2.235-13.879-.733l.032-11.493C74.127,276.967,76.753,276.986,80.591,279.2Z" transform="translate(-66.68 -277.427)" fill="#4d4d80"/>
          </g>
          <g id="Group_17888" data-name="Group 17888" transform="translate(29.589 4.838)">
            <path id="Path_45559" data-name="Path 45559" d="M95.356,281.678l-.033,11.493-1.309-.756.033-11.493Z" transform="translate(-94.014 -280.923)" fill="#4d4d80"/>
          </g>
          <g id="Group_17889" data-name="Group 17889" transform="translate(37.633 9.08)">
            <path id="Path_45560" data-name="Path 45560" d="M110.58,289.278l-.032,11.493-.691.4.033-11.493Z" transform="translate(-109.856 -289.278)" fill="#30306b"/>
          </g>
          <g id="Group_17890" data-name="Group 17890" transform="translate(7.548 9.482)">
            <path id="Path_45561" data-name="Path 45561" d="M80.721,290.069l-.033,11.493L50.6,308.144l.033-11.493Z" transform="translate(-50.603 -290.069)" fill="#30306b"/>
          </g>
          <g id="Group_17891" data-name="Group 17891" transform="translate(0 12.544)">
            <path id="Path_45562" data-name="Path 45562" d="M52.038,305.492l-.033,11.493-16.268-9.392L35.77,296.1Z" transform="translate(-35.737 -296.1)" fill="#595994"/>
          </g>
          <g id="Group_17892" data-name="Group 17892" transform="translate(16.268 17.679)">
            <path id="Path_45563" data-name="Path 45563" d="M75.886,306.214l-.033,11.493-8.075,4.257.033-11.493Z" transform="translate(-67.777 -306.214)" fill="#4d4d80"/>
          </g>
          <g id="Group_17893" data-name="Group 17893" transform="translate(0.032)">
            <path id="Path_45564" data-name="Path 45564" d="M59.572,288.743l.573.331-8.076,4.257L35.8,283.939l.594-.345L66.7,276.988l-1.309-.755c-3.838-2.216-6.465-2.235-13.879-.733l-.565-.326,7.45-3.779,15.728,9.08-.691.4L43.35,287.458l1.08.623C48.153,290.232,53.726,290.633,59.572,288.743Z" transform="translate(-35.801 -271.395)" fill="#6b6cb3"/>
          </g>
        </g>
      </g>
    </g>
    <g id="Group_17919" data-name="Group 17919" transform="translate(99.702 38.49)">
      <path id="Path_45565" data-name="Path 45565" d="M239.367,340.692l-68.329-39.349c-1.079-.622-.944-1.711.3-2.43l2.237-1.291a4.679,4.679,0,0,1,4.209-.175l68.33,39.349c1.078.623.944,1.711-.3,2.431l-2.237,1.291A4.678,4.678,0,0,1,239.367,340.692Z" transform="translate(-169.39 -165.757)" fill="#e3ecff"/>
      <g id="Group_17918" data-name="Group 17918" transform="translate(0 0)">
        <g id="Group_17917" data-name="Group 17917">
          <g id="Group_17916" data-name="Group 17916" style="isolation: isolate">
            <g id="Group_17897" data-name="Group 17897" transform="translate(72.627 150.193)">
              <path id="Path_45566" data-name="Path 45566" d="M315.249,336.753l-3.71,2.156a2.679,2.679,0,0,0,1.117-2.455l3.71-2.156A2.68,2.68,0,0,1,315.249,336.753Z" transform="translate(-311.539 -334.298)" fill="#30306b"/>
            </g>
            <g id="Group_17898" data-name="Group 17898" transform="translate(1.413)">
              <path id="Path_45567" data-name="Path 45567" d="M171.281,40.9l3.71-2.156a2.7,2.7,0,0,1,2.722.268L174,41.171A2.7,2.7,0,0,0,171.281,40.9Z" transform="translate(-171.281 -38.49)" fill="#6b6cb3"/>
            </g>
            <g id="Group_17899" data-name="Group 17899" transform="translate(73.744 45.288)">
              <path id="Path_45568" data-name="Path 45568" d="M314.036,129.84l3.709-2.156-.3,104.906-3.709,2.156Z" transform="translate(-313.738 -127.685)" fill="#30306b"/>
            </g>
            <g id="Group_17900" data-name="Group 17900" transform="translate(4.134 0.525)">
              <path id="Path_45569" data-name="Path 45569" d="M176.642,41.681l3.71-2.156,66.092,38.158-3.71,2.156Z" transform="translate(-176.642 -39.525)" fill="#6b6cb3"/>
            </g>
            <g id="Group_17901" data-name="Group 17901" transform="translate(70.226 38.684)">
              <path id="Path_45570" data-name="Path 45570" d="M306.81,116.833l3.71-2.155a8.4,8.4,0,0,1,3.815,6.6l-3.71,2.156A8.4,8.4,0,0,0,306.81,116.833Z" transform="translate(-306.81 -114.678)" fill="#6b6cb3"/>
            </g>
            <g id="Group_17902" data-name="Group 17902" transform="translate(0 2.156)">
              <path id="Path_45571" data-name="Path 45571" d="M238.725,81.419a8.4,8.4,0,0,1,3.815,6.6l-.3,104.906c-.007,2.429-1.726,3.408-3.84,2.188l-66.091-38.158a8.4,8.4,0,0,1-3.812-6.606l.3-104.906c.007-2.429,1.723-3.407,3.837-2.187Z" transform="translate(-168.499 -42.736)" fill="#4d4d80"/>
            </g>
            <g id="Group_17903" data-name="Group 17903" transform="translate(0.398 2.977)">
              <path id="Path_45572" data-name="Path 45572" d="M238.754,82.622a8.31,8.31,0,0,1,3.774,6.533l-.294,103.778c-.007,2.4-1.708,3.372-3.8,2.165L173.053,157.35a8.311,8.311,0,0,1-3.77-6.535l.294-103.778c.007-2.4,1.7-3.37,3.8-2.163Z" transform="translate(-169.283 -44.354)" fill="#eff0f2"/>
            </g>
            <g id="Group_17905" data-name="Group 17905" transform="translate(4.768 16.057)">
              <g id="Group_17904" data-name="Group 17904">
                <path id="Path_45573" data-name="Path 45573" d="M239.071,103.816a7.321,7.321,0,0,1,3.324,5.754l-.259,83.732c-.006,2.116-1.5,2.97-3.346,1.907l-57.58-33.244a7.32,7.32,0,0,1-3.321-5.755l.259-83.733c.006-2.116,1.5-2.968,3.342-1.905Z" transform="translate(-177.889 -70.115)" fill="#75c7eb"/>
              </g>
            </g>
            <g id="Group_17915" data-name="Group 17915" transform="translate(9.603 30.974)">
              <g id="Group_17906" data-name="Group 17906">
                <path id="Path_45574" data-name="Path 45574" d="M187.413,123.652V101.616c0-1.785,1.085-2.605,2.424-1.832l19.988,11.54a5.8,5.8,0,0,1,2.424,4.631v22.035c0,1.785-1.086,2.605-2.424,1.832l-19.988-11.54A5.8,5.8,0,0,1,187.413,123.652Z" transform="translate(-187.413 -99.493)" fill="#fff"/>
                <path id="Path_45575" data-name="Path 45575" d="M210.806,139.9l-19.83-11.449a3.375,3.375,0,0,1-1.41-2.693V103.529c0-1.038.631-1.515,1.41-1.066l19.83,11.449a3.374,3.374,0,0,1,1.41,2.693v22.231C212.216,139.874,211.585,140.351,210.806,139.9Z" transform="translate(-188.473 -100.872)" fill="#ed341a"/>
                <path id="Path_45576" data-name="Path 45576" d="M196.823,119.206l-2.18.057.417-2.545-1.764-2.991,2.437,1,1.09-1.905,1.09,3.164,2.438,1.814-1.764.954L199,121.78Z" transform="translate(-190.309 -106.055)" fill="#ffea00"/>
                <path id="Path_45577" data-name="Path 45577" d="M209.959,118.372l-.626.016.119-.731-.506-.859.7.288.313-.547.313.908.7.521-.506.274.119.869Z" transform="translate(-198.013 -107.884)" fill="#ffea00"/>
                <path id="Path_45578" data-name="Path 45578" d="M209.959,136.438l-.626.016.119-.731-.506-.859.7.287.313-.547.313.908.7.521-.506.274.119.869Z" transform="translate(-198.013 -116.777)" fill="#ffea00"/>
                <path id="Path_45579" data-name="Path 45579" d="M215.208,133.834l-.626.016.12-.731-.507-.859.7.287.313-.547.313.908.7.521-.506.274.119.869Z" transform="translate(-200.597 -115.495)" fill="#ffea00"/>
                <path id="Path_45580" data-name="Path 45580" d="M215.208,126.807l-.626.016.12-.731-.507-.859.7.287.313-.547.313.908.7.521-.506.274.119.869Z" transform="translate(-200.597 -112.036)" fill="#ffea00"/>
              </g>
              <g id="Group_17907" data-name="Group 17907" transform="translate(0 37.371)">
                <path id="Path_45581" data-name="Path 45581" d="M187.413,197.255V175.219c0-1.785,1.085-2.605,2.424-1.832l19.988,11.54a5.8,5.8,0,0,1,2.424,4.631v22.036c0,1.785-1.086,2.605-2.424,1.832l-19.988-11.54A5.8,5.8,0,0,1,187.413,197.255Z" transform="translate(-187.413 -173.096)" fill="#fff"/>
                <path id="Path_45582" data-name="Path 45582" d="M210.806,213.5l-19.83-11.449a3.375,3.375,0,0,1-1.41-2.693V177.131c0-1.038.631-1.515,1.41-1.066l19.83,11.449a3.376,3.376,0,0,1,1.41,2.694v22.231C212.216,213.476,211.585,213.954,210.806,213.5Z" transform="translate(-188.473 -174.474)" fill="#4d4d80"/>
                <path id="Path_45583" data-name="Path 45583" d="M212.216,190.1v7.144l-22.65-13.077v-7.145c0-.963.681-1.351,1.52-.866L210.78,187.5A3.226,3.226,0,0,1,212.216,190.1Z" transform="translate(-188.473 -174.498)" fill="#f2f2f2"/>
                <path id="Path_45584" data-name="Path 45584" d="M212.216,223.043v6.3c0,.963-.68,1.351-1.519.866l-19.61-11.322a3.349,3.349,0,0,1-1.52-2.621v-6.3Z" transform="translate(-188.473 -191.245)" fill="#ed341a"/>
              </g>
              <g id="Group_17908" data-name="Group 17908" transform="translate(29.927 17.278)">
                <path id="Path_45585" data-name="Path 45585" d="M246.354,157.682V135.646c0-1.785,1.086-2.605,2.424-1.832l19.989,11.54a5.8,5.8,0,0,1,2.423,4.631v22.036c0,1.785-1.085,2.605-2.424,1.832l-19.988-11.54A5.805,5.805,0,0,1,246.354,157.682Z" transform="translate(-246.354 -133.523)" fill="#fff"/>
                <path id="Path_45586" data-name="Path 45586" d="M269.748,173.931l-19.83-11.449a3.376,3.376,0,0,1-1.409-2.693V137.558c0-1.038.631-1.515,1.409-1.066l19.83,11.45a3.375,3.375,0,0,1,1.409,2.693v22.231C271.157,173.9,270.526,174.381,269.748,173.931Z" transform="translate(-247.414 -134.901)" fill="#4d4d80"/>
                <path id="Path_45587" data-name="Path 45587" d="M283.2,162.465v2.587l-8.14,4.641-2.093-3.611,9.561-5.451,0,0A3.253,3.253,0,0,1,283.2,162.465Z" transform="translate(-259.453 -146.867)" fill="#f2f2f2"/>
                <path id="Path_45588" data-name="Path 45588" d="M260.184,153.762l-2.093,1.194-9.583-16.528v-.982c0-.963.68-1.351,1.52-.866l.292.169Z" transform="translate(-247.414 -134.925)" fill="#f2f2f2"/>
                <path id="Path_45589" data-name="Path 45589" d="M284.852,193.609v2.133c0,.721-.383,1.122-.93,1.069l-7.6-13.1,2.093-1.193Z" transform="translate(-261.109 -157.64)" fill="#f2f2f2"/>
                <path id="Path_45590" data-name="Path 45590" d="M280.806,162.945v.392l-8.85,5.048-.847.48-.831.473-.845.485-.481.271-.833-1.438-.011-.019.481-.271.844-.484.831-.474.372-.212.475-.268,9.331-5.323A2.97,2.97,0,0,1,280.806,162.945Z" transform="translate(-257.062 -147.347)" fill="#ed341a"/>
                <path id="Path_45591" data-name="Path 45591" d="M261.985,159.446l-.845.482-1.356-2.339-.834-1.438-.011-.019-10.432-17.994v-.505a1.131,1.131,0,0,1,.32-.881l10.121,17.457.836,1.439.845,1.456Z" transform="translate(-247.414 -135.113)" fill="#ed341a"/>
                <path id="Path_45592" data-name="Path 45592" d="M282.546,188.2V190c0,.047,0,.089-.006.135l-9.692-16.717-1.206-2.079.372-.212.473-.273Z" transform="translate(-258.803 -151.9)" fill="#ed341a"/>
                <path id="Path_45593" data-name="Path 45593" d="M257.661,174.081l-8.287,4.725a3.331,3.331,0,0,1-.866-2.072V174.5l7.06-4.025Z" transform="translate(-247.414 -151.711)" fill="#f2f2f2"/>
                <path id="Path_45594" data-name="Path 45594" d="M261,171.24l-.372.212-.831.474-.844.484-.481.271-9.416,5.368a3.175,3.175,0,0,1-.546-1.63l9.6-5.471.845-.481,1.2-.687.473.819.361.622Z" transform="translate(-247.414 -151.371)" fill="#ed341a"/>
                <path id="Path_45595" data-name="Path 45595" d="M271.158,161.937V169.5l-7.858-4.537v9.214l-6.59-3.8v-9.214l-8.2-4.736V148.86l8.2,4.736v-9.214l6.59,3.8V157.4Z" transform="translate(-247.414 -138.868)" fill="#f2f2f2"/>
                <path id="Path_45596" data-name="Path 45596" d="M271.158,164.269v4.425l-9.225-5.326v10.783l-3.857-2.227V161.142l-9.569-5.525v-4.425l9.569,5.525V145.935l3.857,2.227v10.783Z" transform="translate(-247.414 -139.633)" fill="#ed341a"/>
              </g>
              <g id="Group_17909" data-name="Group 17909" transform="translate(29.927 54.65)">
                <path id="Path_45597" data-name="Path 45597" d="M246.354,231.285V209.249c0-1.785,1.086-2.605,2.424-1.832l19.989,11.54a5.805,5.805,0,0,1,2.423,4.631v22.035c0,1.785-1.085,2.606-2.424,1.833l-19.988-11.54A5.805,5.805,0,0,1,246.354,231.285Z" transform="translate(-246.354 -207.126)" fill="#fff"/>
                <path id="Path_45598" data-name="Path 45598" d="M269.748,247.535l-19.83-11.449a3.376,3.376,0,0,1-1.409-2.693V211.162c0-1.038.631-1.515,1.409-1.066l19.83,11.449a3.376,3.376,0,0,1,1.409,2.693v22.231C271.157,247.507,270.526,247.985,269.748,247.535Z" transform="translate(-247.414 -208.505)" fill="#fa0"/>
                <path id="Path_45599" data-name="Path 45599" d="M271.158,224.126v3.948L248.508,215v-3.949c0-.963.68-1.351,1.52-.866l19.61,11.322A3.351,3.351,0,0,1,271.158,224.126Z" transform="translate(-247.414 -208.528)" fill="#ed341a"/>
                <path id="Path_45600" data-name="Path 45600" d="M271.158,262.459v3.569c0,.963-.681,1.351-1.52.867l-19.61-11.323a3.348,3.348,0,0,1-1.52-2.621v-3.569Z" transform="translate(-247.414 -227.927)" fill="#ed341a"/>
              </g>
              <g id="Group_17910" data-name="Group 17910" transform="translate(38.082 50.848)">
                <path id="Path_45601" data-name="Path 45601" d="M263.7,200.379v.165l-1.136-.656v1.222l1.136.656v.166l-1.136-.657V202.5l1.136.656v.166l-1.28-.739v-2.94Z" transform="translate(-262.416 -199.639)"/>
                <path id="Path_45602" data-name="Path 45602" d="M265.951,204.318v1.4l-.145-.083v-1.805l.145.084v.117a.442.442,0,0,1,.457.039,1.234,1.234,0,0,1,.453.462,1.248,1.248,0,0,1,.179.609v1.207l-.144-.083v-1.192a.929.929,0,0,0-.145-.476.968.968,0,0,0-.343-.361.345.345,0,0,0-.342-.038A.258.258,0,0,0,265.951,204.318Z" transform="translate(-264.085 -201.703)"/>
                <path id="Path_45603" data-name="Path 45603" d="M270.694,208.317a.676.676,0,0,1-.086.064.609.609,0,0,1-.624-.063,1.752,1.752,0,0,1-.621-.655,1.726,1.726,0,0,1-.257-.862.592.592,0,0,1,.257-.566.608.608,0,0,1,.621.064,1.745,1.745,0,0,1,.624.654c.032.058.062.117.09.175v-.255l.144.083v1.4a.576.576,0,0,1-.251.55.605.605,0,0,1-.621-.063,1.743,1.743,0,0,1-.623-.656,1.932,1.932,0,0,1-.094-.181l.152.026c.016.031.032.062.05.093a1.432,1.432,0,0,0,.514.542.5.5,0,0,0,.513.051A.46.46,0,0,0,270.694,208.317Zm0-.77a1.563,1.563,0,0,0-.2-.532,1.444,1.444,0,0,0-.515-.541.5.5,0,0,0-.514-.052.489.489,0,0,0-.212.467,1.422,1.422,0,0,0,.212.712,1.451,1.451,0,0,0,.514.542.5.5,0,0,0,.515.051.414.414,0,0,0,.2-.3Z" transform="translate(-265.709 -202.857)"/>
                <path id="Path_45604" data-name="Path 45604" d="M273.633,206.116v2.94l-.144-.083v-2.94Z" transform="translate(-267.867 -202.786)"/>
                <path id="Path_45605" data-name="Path 45605" d="M274.883,207.923a.273.273,0,0,1,.043.142.091.091,0,0,1-.043.091.1.1,0,0,1-.1-.009.3.3,0,0,1-.1-.108.282.282,0,0,1-.042-.141.1.1,0,0,1,.042-.092.1.1,0,0,1,.1.011A.3.3,0,0,1,274.883,207.923Zm-.029.575V210.3l-.145-.083v-1.806Z" transform="translate(-268.432 -203.655)"/>
                <path id="Path_45606" data-name="Path 45606" d="M276.451,211.029a2.838,2.838,0,0,1-.255-.343.738.738,0,0,1-.111-.368.259.259,0,0,1,.111-.244.256.256,0,0,1,.265.026.7.7,0,0,1,.261.267.652.652,0,0,1,.1.32v.008l-.125-.014a.651.651,0,0,0-.076-.253.425.425,0,0,0-.159-.161.142.142,0,0,0-.233.134.459.459,0,0,0,.069.228,2.368,2.368,0,0,0,.17.238,3.239,3.239,0,0,1,.29.4.915.915,0,0,1,.136.456.283.283,0,0,1-.466.269.923.923,0,0,1-.329-.347.858.858,0,0,1-.137-.423l.143.041a.65.65,0,0,0,.094.323.639.639,0,0,0,.228.241.222.222,0,0,0,.228.024.22.22,0,0,0,.1-.21.626.626,0,0,0-.094-.315A3.411,3.411,0,0,0,276.451,211.029Z" transform="translate(-269.085 -204.763)"/>
                <path id="Path_45607" data-name="Path 45607" d="M278.6,208.985l.144.083V210.3a.44.44,0,0,1,.439.051,1.32,1.32,0,0,1,.632,1.07v1.207l-.144-.083v-1.192a.947.947,0,0,0-.145-.476.974.974,0,0,0-.343-.361.345.345,0,0,0-.343-.039.24.24,0,0,0-.1.1v1.436l-.144-.083Z" transform="translate(-270.384 -204.24)"/>
              </g>
              <g id="Group_17912" data-name="Group 17912" transform="translate(8.492 33.921)">
                <g id="Group_17911" data-name="Group 17911">
                  <path id="Path_45608" data-name="Path 45608" d="M207.207,168.081l-1.308-.755V166.9l.181.1v-.152l-.181-.1-.226-.131v.578l-1.308-.755v-.007l-.226-.131v2.091l.226.131v-.387l1.308.755v1.5l.226.13v-1.5l1.308.755v.387l.226.13V168.2l-.226-.131Zm-2.842-.2V166.7l1.308.755v1.178Zm2.842,1.641-1.308-.755v-1.178l1.308.755Z" transform="translate(-204.139 -166.302)"/>
                  <path id="Path_45609" data-name="Path 45609" d="M215.554,176.343A11.618,11.618,0,0,1,213.661,174a2.739,2.739,0,0,0,1.036-1.059l.457.264v-.259l-1.478-.853v-.426l.18.1v-.152l-.18-.1-.226-.131v.578l-1.59-.919v.259l.376.217a12.694,12.694,0,0,0,1.036,2.256,2.978,2.978,0,0,1-1.893.157l.081.344a3.131,3.131,0,0,0,2.007-.172,12.265,12.265,0,0,0,2.007,2.489Zm-3.012-4.646,1.849,1.067a2.574,2.574,0,0,1-.924.906A12.15,12.15,0,0,1,212.542,171.7Z" transform="translate(-207.703 -168.636)"/>
                </g>
              </g>
              <g id="Group_17913" data-name="Group 17913" transform="translate(37.262 88.872)">
                <path id="Path_45610" data-name="Path 45610" d="M262.081,275.267v.165l-1.136-.655V276l1.136.656v.165l-1.136-.656v1.222l1.136.656v.165l-1.28-.739v-2.94Z" transform="translate(-260.801 -274.528)"/>
                <path id="Path_45611" data-name="Path 45611" d="M264.567,279.988a2.793,2.793,0,0,1-.255-.342.728.728,0,0,1-.111-.369.23.23,0,0,1,.376-.219.716.716,0,0,1,.261.268.659.659,0,0,1,.1.32v.009l-.125-.015a.662.662,0,0,0-.076-.254.431.431,0,0,0-.159-.16.141.141,0,0,0-.233.133.461.461,0,0,0,.069.229,2.644,2.644,0,0,0,.17.239,3.237,3.237,0,0,1,.29.4.916.916,0,0,1,.136.456.283.283,0,0,1-.466.269.917.917,0,0,1-.33-.347.864.864,0,0,1-.136-.423l.143.04a.71.71,0,0,0,.323.566.228.228,0,0,0,.229.024.221.221,0,0,0,.1-.21.622.622,0,0,0-.094-.315C264.739,280.221,264.671,280.125,264.567,279.988Z" transform="translate(-262.415 -276.733)"/>
                <path id="Path_45612" data-name="Path 45612" d="M266.72,280.184l.144.083v.253a.506.506,0,0,1,.09-.069.608.608,0,0,1,.622.065,1.933,1.933,0,0,1,.879,1.516.534.534,0,0,1-.879.5,1.751,1.751,0,0,1-.622-.655c-.033-.059-.063-.116-.09-.173v1.055l-.144-.083Zm.144.757v.345a1.551,1.551,0,0,0,.2.531,1.433,1.433,0,0,0,.514.542.5.5,0,0,0,.514.052.491.491,0,0,0,.213-.467,1.6,1.6,0,0,0-.727-1.254.5.5,0,0,0-.514-.053A.421.421,0,0,0,266.864,280.941Z" transform="translate(-263.715 -277.312)"/>
                <path id="Path_45613" data-name="Path 45613" d="M272.585,285.588l-.144-.084v-.368a.469.469,0,0,1-.09.071.606.606,0,0,1-.624-.063,1.936,1.936,0,0,1-.879-1.518.6.6,0,0,1,.257-.566.607.607,0,0,1,.622.063,1.729,1.729,0,0,1,.624.656c.032.057.062.116.09.175V283.7l.144.083Zm-.144-.878v-.327a1.547,1.547,0,0,0-.2-.541,1.443,1.443,0,0,0-.514-.542.5.5,0,0,0-.515-.053.491.491,0,0,0-.212.467,1.415,1.415,0,0,0,.212.712,1.459,1.459,0,0,0,.515.54.5.5,0,0,0,.514.052A.418.418,0,0,0,272.441,284.711Z" transform="translate(-265.747 -278.699)"/>
                <path id="Path_45614" data-name="Path 45614" d="M275.361,285.214v1.4l-.144-.083v-1.806l.144.083v.115a.443.443,0,0,1,.457.041,1.319,1.319,0,0,1,.633,1.07v1.207l-.144-.083V285.97a.935.935,0,0,0-.144-.476.969.969,0,0,0-.344-.361.338.338,0,0,0-.342-.038A.264.264,0,0,0,275.361,285.214Zm.465-.636a.738.738,0,0,0,.2.225l.007,0c.054.026.091,0,.112-.09l.111.064c-.022.145-.075.208-.16.189a.3.3,0,0,1-.066-.029.579.579,0,0,1-.183-.19.755.755,0,0,0-.2-.223l-.008,0c-.052-.027-.09,0-.112.089l-.112-.064c.024-.144.076-.207.16-.187a.34.34,0,0,1,.068.027A.613.613,0,0,1,275.826,284.578Z" transform="translate(-267.897 -279.367)"/>
                <path id="Path_45615" data-name="Path 45615" d="M279.283,287.486a1.737,1.737,0,0,1,.623.656,1.717,1.717,0,0,1,.257.863.591.591,0,0,1-.257.564.6.6,0,0,1-.623-.063,1.945,1.945,0,0,1-.879-1.516.594.594,0,0,1,.259-.568A.6.6,0,0,1,279.283,287.486Zm-.513.125a.486.486,0,0,0-.213.466,1.4,1.4,0,0,0,.213.712,1.421,1.421,0,0,0,.513.54.5.5,0,0,0,.514.054.488.488,0,0,0,.213-.467,1.414,1.414,0,0,0-.213-.712,1.435,1.435,0,0,0-.514-.542A.5.5,0,0,0,278.77,287.611Z" transform="translate(-269.466 -280.846)"/>
                <path id="Path_45616" data-name="Path 45616" d="M282.77,287.213v2.94l-.144-.083v-2.94Z" transform="translate(-271.545 -280.731)"/>
              </g>
              <g id="Group_17914" data-name="Group 17914" transform="translate(6.854 71.316)">
                <path id="Path_45617" data-name="Path 45617" d="M201.056,241.955v1.02l-.144-.084v-2.94l.671.388a1.815,1.815,0,0,1,.5.569,1.628,1.628,0,0,1,.245.819.564.564,0,0,1-.245.539.577.577,0,0,1-.592-.06Zm0-1.754v1.586l.435.252a.478.478,0,0,0,.488.05.467.467,0,0,0,.2-.445,1.341,1.341,0,0,0-.2-.678,1.364,1.364,0,0,0-.488-.512Z" transform="translate(-200.912 -239.951)"/>
                <path id="Path_45618" data-name="Path 45618" d="M204.27,246.62l-.162-.094.416-.782-.6-1.815.162.092.515,1.559.519-.961.16.093Z" transform="translate(-202.396 -241.909)"/>
                <path id="Path_45619" data-name="Path 45619" d="M208.38,248.084l.152.15a.4.4,0,0,1-.1.072.6.6,0,0,1-.623-.063,1.742,1.742,0,0,1-.62-.655,1.712,1.712,0,0,1-.258-.863.59.59,0,0,1,.258-.565.6.6,0,0,1,.62.063,1.712,1.712,0,0,1,.623.655,1.935,1.935,0,0,1,.1.179l-.152-.024c-.016-.03-.034-.063-.051-.095a1.426,1.426,0,0,0-.515-.54.5.5,0,0,0-.512-.052.49.49,0,0,0-.213.466,1.6,1.6,0,0,0,.725,1.253.5.5,0,0,0,.515.053C208.346,248.108,208.364,248.1,208.38,248.084Z" transform="translate(-203.877 -242.978)"/>
                <path id="Path_45620" data-name="Path 45620" d="M212.092,250.227l.152.15a.379.379,0,0,1-.095.073.6.6,0,0,1-.623-.063,1.738,1.738,0,0,1-.62-.655,1.715,1.715,0,0,1-.258-.863.592.592,0,0,1,.258-.565.6.6,0,0,1,.62.063,1.72,1.72,0,0,1,.623.655,1.942,1.942,0,0,1,.095.18l-.152-.024c-.015-.031-.033-.063-.051-.1a1.436,1.436,0,0,0-.515-.539.5.5,0,0,0-.512-.053.49.49,0,0,0-.213.466,1.6,1.6,0,0,0,.725,1.253.5.5,0,0,0,.515.054A.565.565,0,0,0,212.092,250.227Z" transform="translate(-205.704 -244.033)"/>
                <path id="Path_45621" data-name="Path 45621" d="M215.382,250.541l-.388.328.616,1.61-.176-.1-.536-1.43-.319.223v.714l-.146-.085v-1.8l.146.084v.828l.617-.472Z" transform="translate(-207.568 -244.895)"/>
                <path id="Path_45622" data-name="Path 45622" d="M217.031,251.495l.143.082v1.529l1-.948.155.089v1.8l-.143-.082v-1.542l-1.017.953v0l-.143-.083Z" transform="translate(-208.847 -245.634)"/>
                <path id="Path_45623" data-name="Path 45623" d="M220.24,252.868l.143.082v1.529l1.006-.948.154.089v1.8l-.143-.082V253.8l-1.017.953v0l-.143-.084Zm.394-.427a.544.544,0,0,0,.074.21.512.512,0,0,0,.185.2.185.185,0,0,0,.185.019.153.153,0,0,0,.073-.126l.117.067a.235.235,0,0,1-.109.2.254.254,0,0,1-.266-.027.725.725,0,0,1-.267-.28.739.739,0,0,1-.112-.328Z" transform="translate(-210.426 -246.065)"/>
              </g>
            </g>
          </g>
        </g>
        <path id="Path_45624" data-name="Path 45624" d="M242.323,193.014l-.069,22.327L192.036,228.71l-10.827-6.247a7.317,7.317,0,0,1-3.321-5.753l.021-6.548Z" transform="translate(-173.121 -114.556)" fill="#4f5f66" style="mix-blend-mode: screen;isolation: isolate"/>
        <path id="Path_45625" data-name="Path 45625" d="M242.478,141.873l-64.414,17.148.021-6.89,60.63-16.143.442.258A7.329,7.329,0,0,1,242.478,141.873Z" transform="translate(-173.207 -86.484)" fill="#4f5f66" style="mix-blend-mode: screen;isolation: isolate"/>
        <path id="Path_45626" data-name="Path 45626" d="M242.437,156.6l-.021,6.89L178,180.64l.021-6.89Z" transform="translate(-173.177 -96.629)" fill="#4f5f66" style="mix-blend-mode: screen;isolation: isolate"/>
      </g>
    </g>
    <g id="Group_17922" data-name="Group 17922" transform="translate(62.043 90.324)">
      <path id="Path_45627" data-name="Path 45627" d="M131.633,366.4c-8.5,4.9-22.314,4.88-30.863-.056s-8.592-12.914-.1-17.819,22.314-4.88,30.863.056S140.129,361.5,131.633,366.4Z" transform="translate(-94.33 -241.14)" fill="#e3ecff"/>
      <g id="Group_17921" data-name="Group 17921" transform="translate(0.644 0)">
        <g id="Group_17920" data-name="Group 17920">
          <path id="Path_45628" data-name="Path 45628" d="M108.127,199.772a6.63,6.63,0,0,0-1.062-2.927,3.05,3.05,0,0,0-2.69-1.328c-.873.1-1.191.733-1.569,1.438a11.3,11.3,0,0,0-.925,2.255c-.332,1.172-.583,2.366-.828,3.559a19.009,19.009,0,0,1-1.231,4.106q-.171.382-.333.767a33.1,33.1,0,0,0-2.015,6.655,42.8,42.8,0,0,0-.523,7.046,14.019,14.019,0,0,1-.615,4.824q-.254.673-.534,1.335a1.824,1.824,0,0,0-.2.784,1.767,1.767,0,0,0,.17.586q.305.727.611,1.454a1.171,1.171,0,0,0,.252.422,1.116,1.116,0,0,0,.345.194,13.09,13.09,0,0,0,1.654.554.978.978,0,0,0,.449.044c.1-.02.185-.067.28-.092.363-.094.758.147,1.111.022.08-.028.153-.074.235-.095s.162-.015.241-.034a.574.574,0,0,0,.362-.662,1.676,1.676,0,0,0-.39-.722l-1.23-1.58a3.013,3.013,0,0,1-.458-.72c.183-.009.366-.01.548,0a.2.2,0,0,1,.113.028.2.2,0,0,1,.058.109,6.068,6.068,0,0,0,.9,1.8,1.306,1.306,0,0,0,.4.4.511.511,0,0,0,.539,0c.233-.174.193-.528.129-.811l-.475-2.125a1.778,1.778,0,0,0-.531-1.088c-.192-.145-.541-.205-.676-.415a2.339,2.339,0,0,1-.134-1.254,49.094,49.094,0,0,1,1.536-5.2c.85-2.207,1.549-4.493,2.445-6.676.825-2.009,1.96-3.868,2.9-5.821a10.336,10.336,0,0,0,1.349-3.9A16.593,16.593,0,0,0,108.127,199.772Z" transform="translate(-95.599 -167.615)" fill="#ffb78c"/>
          <path id="Path_45629" data-name="Path 45629" d="M117.262,186.024a9.336,9.336,0,0,0,.636-.813,7.046,7.046,0,0,0-7.721,2.506,20.782,20.782,0,0,0-3.059,6.64,1.745,1.745,0,0,0-.1.913,1.629,1.629,0,0,0,.225.464,7.273,7.273,0,0,0,2.2,2.2,9.164,9.164,0,0,0,4.248,1.256,2.148,2.148,0,0,0,1.039-.1c.751-.33.484-1.118.391-1.741a17.275,17.275,0,0,1-.187-2.439,20.167,20.167,0,0,1,.581-4.868,5.194,5.194,0,0,0,.223-.965,3.161,3.161,0,0,1,.022-.683,4.011,4.011,0,0,1,.748-1.467C116.747,186.617,117.008,186.323,117.262,186.024Z" transform="translate(-101.206 -162.386)" fill="#6b6cb3"/>
          <path id="Path_45630" data-name="Path 45630" d="M100.908,368.205a5.48,5.48,0,0,0-.446.82c-.513,1.289-.239,3.11,1.245,3.589a2.941,2.941,0,0,0,1.595-.026c.523-.128,1.031-.32,1.562-.412a10.331,10.331,0,0,1,3,.132,5.635,5.635,0,0,0,2.972-.236,3.322,3.322,0,0,0,1.707-1.969c.28-.806.478-1.993-.5-2.354a8.509,8.509,0,0,0-1.955-.282,6.19,6.19,0,0,1-2.993-1.215,2.425,2.425,0,0,1-.553-.512c-.131-.19-.118-.307-.358-.412a9.763,9.763,0,0,0-1.872-.413,2.9,2.9,0,0,0-1.641.074c-1.085.443-1.068,1.853-1.515,2.765-.069.141-.147.277-.228.411Z" transform="translate(-97.875 -250.971)" fill="#4d4d80"/>
          <path id="Path_45631" data-name="Path 45631" d="M124.5,261.448a8.981,8.981,0,0,1-.99-2.883,33.106,33.106,0,0,0-2.116-6.16,6.09,6.09,0,0,0-1.2-1.9,5.861,5.861,0,0,0-2.958-1.312,2.3,2.3,0,0,0-2.424.757c-.372.518-.747,1.036-1.1,1.568-.237.356-.617.525-.834.869a17.441,17.441,0,0,0-2.731,8.277,49.437,49.437,0,0,0,.2,5.284,37.178,37.178,0,0,1-.334,5.191,37.566,37.566,0,0,1-3.324,12.045,35.219,35.219,0,0,0-2.372,6.512,35.8,35.8,0,0,0-.8,5.3c-.083,1-.137,2.008-.175,3.012-.1,2.734-.1,5.472-.284,8.2-.054.794-.123,1.586-.217,2.377-.047.395-.115.788-.158,1.184-.111,1.01,1.671.945,2.27.942a7.941,7.941,0,0,0,3.132-.655c.434-.189.479-.33.453-.749-.033-.528.3-3.86.454-4.977a36.573,36.573,0,0,1,1.245-6.315c.653-1.993,1.462-3.955,2.181-5.93.414-1.138,3.233-8.323,3.6-9.128l2.6-5.659c1.188-2.584,2.377-5.17,3.462-7.8.957-2.317,1.833-4.667,2.6-7.054a1.129,1.129,0,0,0,.078-.466A1.324,1.324,0,0,0,124.5,261.448Z" transform="translate(-99.085 -194.013)" fill="#fa0"/>
          <path id="Path_45632" data-name="Path 45632" d="M148.055,365.037a1.875,1.875,0,0,0,.472,1.28,1.73,1.73,0,0,0,1.2.489,3.416,3.416,0,0,0,1.3-.262c1.48-.562,2.731-1.63,4.223-2.158a18.3,18.3,0,0,0,2.58-.852,5.6,5.6,0,0,0,1.211-.921,5.839,5.839,0,0,0,1.506-2.205c.247-.686.6-2.109-.1-2.637a3.6,3.6,0,0,0-2.592-.549,16.433,16.433,0,0,0-4.593.989q-.749.283-1.471.633a6.172,6.172,0,0,0-1.2.627,5.692,5.692,0,0,0-1.16,1.366,8.324,8.324,0,0,0-1.221,2.82A6.052,6.052,0,0,0,148.055,365.037Z" transform="translate(-121.42 -247.209)" fill="#6b6cb3"/>
          <path id="Path_45633" data-name="Path 45633" d="M148.479,253.483c-.2,1.378-.477,2.4-1.9,2.842a5.992,5.992,0,0,1-2.786.091,10.632,10.632,0,0,1-3.659-1.351c-1.447-.865-2.683-2.071-4.2-2.81-1.648-.8-3.358-.759-4.548.817a6.965,6.965,0,0,0-1.17,3.528,11.394,11.394,0,0,0,4.889,10.848,5.065,5.065,0,0,1,1.477,1.217,3.841,3.841,0,0,1,.522,1.693c.407,3.083.107,6.176.3,9.26a93.81,93.81,0,0,1,.113,9.693c-.071,1.779-.188,3.559-.138,5.34a23.869,23.869,0,0,0,.849,5.179c.412,1.671.739,3.408,1.019,5.117.154.944.29,1.891.417,2.84A14.583,14.583,0,0,0,140,310.35a4.85,4.85,0,0,0,4.6-1.008.94.94,0,0,0,.258-.323,1.061,1.061,0,0,0,.056-.364q.246-7.445.493-14.889a45,45,0,0,1,2.1-12.878c.7-2.146,1.47-4.274,2.052-6.456a43.148,43.148,0,0,0,1.074-6.541,31.123,31.123,0,0,0-1.823-13.5Q148.648,253.933,148.479,253.483Z" transform="translate(-112.607 -195.3)" fill="#ffea00"/>
          <path id="Path_45634" data-name="Path 45634" d="M119.346,184.909a5.565,5.565,0,0,0-3.642,1.53c-1.923,1.944-2.34,5.21-2.038,7.811A18.737,18.737,0,0,0,115.8,201a28.434,28.434,0,0,1,2.7,5.174c.846,2.827-1.514,13.644-1.677,16.165a1.669,1.669,0,0,0,.539,1.634,15.763,15.763,0,0,0,6.184,4.01,25.64,25.64,0,0,0,7.275,1.423,19.007,19.007,0,0,0,10.162-1.718,2.552,2.552,0,0,0,.687-.482,2.425,2.425,0,0,0,.478-1.746,20.244,20.244,0,0,0-.685-3.33c-1.072-5.369-2.334-10.811-1.8-16.26a64.734,64.734,0,0,1,1.129-6.417c.373-1.866,1.316-4.311-.156-5.858-2.341-2.462-5.547-3.876-8.663-5.229-1.9-.826-3.809-1.647-5.782-2.285A18.881,18.881,0,0,0,119.346,184.909Z" transform="translate(-104.449 -162.386)" fill="#4d4d80"/>
          <path id="Path_45635" data-name="Path 45635" d="M139.443,158.071l-.018.28a3.992,3.992,0,0,0,.048,1.388,12.451,12.451,0,0,1,.43,1.316,4.134,4.134,0,0,1-.14,1.6q-.26,1.149-.56,2.288a3.047,3.047,0,0,1-.782,1.586c-.215.189-.478.314-.709.484a3.348,3.348,0,0,0-1.157,2.566c-.051.968.12,1.936.107,2.906a15.832,15.832,0,0,1-5.169.51,6.963,6.963,0,0,1-4.114-1.4.473.473,0,0,1-.139-.164.531.531,0,0,1-.014-.265c.255-2.368-1.349-4.406-1.81-6.637a18.2,18.2,0,0,1-.451-6.618,7.165,7.165,0,0,1,3.569-5.342,8.959,8.959,0,0,1,4.353-.678,10.252,10.252,0,0,1,3.753.727,4.7,4.7,0,0,1,2.621,2.663A7.164,7.164,0,0,1,139.443,158.071Z" transform="translate(-109.982 -146.141)" fill="#ffb78c"/>
          <path id="Path_45636" data-name="Path 45636" d="M136.46,151.863a6.944,6.944,0,0,0-2.021-.944,10.015,10.015,0,0,0-2.634-.464,8.123,8.123,0,0,0-8.05,5.824q-.151.47-.265.952a13.691,13.691,0,0,0,1.3,9.57,12.867,12.867,0,0,0,.874,1.391c.383.532.587.808,1.258.906a8.363,8.363,0,0,0,5.113-1.2,13.965,13.965,0,0,0,5.146-4.714c1.907-3.025,2.574-7.488.19-10.453A4.64,4.64,0,0,0,136.46,151.863Z" transform="translate(-109.157 -145.438)" fill="#754600"/>
          <path id="Path_45637" data-name="Path 45637" d="M189.187,147.141a1.131,1.131,0,0,0-.9-.307.632.632,0,0,0-.364-.486,1.486,1.486,0,0,1-.508-.373,2.991,2.991,0,0,0-.208-.364c-.235-.255-.653-.113-.966.038s-.75.265-.954-.015a.708.708,0,0,1-.1-.429c.01-1.379.65-2.737.419-4.1-.04-.234-.156-.51-.392-.53-.2-.018-.363.171-.463.35a6.04,6.04,0,0,0-.567,1.908q-.156.864-.312,1.728c-.177.979-.353,1.959-.516,2.941a8.869,8.869,0,0,0-.171,2.225c.045.5.239,1.03.247,1.527.007.414-1.966,7.377-2.44,8.809-.35,1.06-.682,2.127-.961,3.208a7.168,7.168,0,0,0-.231,1.257c-1.21.711-5.605,3.188-6.631,3.578a6.433,6.433,0,0,0-2.73,1.338,1.249,1.249,0,0,0-.275.388,1.524,1.524,0,0,0,.027.858,7.673,7.673,0,0,1-.867,5.356,2.024,2.024,0,0,0-.376.948,16.2,16.2,0,0,0,4.12-.555,15.1,15.1,0,0,0,4.246-2.4q1.527-1.116,3.014-2.285a27.491,27.491,0,0,0,3.935-3.588c1.112-1.294,1.363-2.762,1.8-4.338a26.885,26.885,0,0,0,.845-5.776,23.8,23.8,0,0,1,.426-4.341,5.945,5.945,0,0,1,.491-1.847,5.327,5.327,0,0,0,.716-2.278,2.877,2.877,0,0,1,.2-.805c.124-.275.323-.51.451-.783A.854.854,0,0,0,189.187,147.141Z" transform="translate(-131.707 -140.578)" fill="#ffe5cc"/>
          <path id="Path_45638" data-name="Path 45638" d="M157.582,195.486c-.824.02-1.646.062-2.466.15a7.984,7.984,0,0,0-4,1.122,3.318,3.318,0,0,0-1.112,2.782,6.814,6.814,0,0,0,1.351,3.218,7.305,7.305,0,0,0,6.225,2.785,15.719,15.719,0,0,0,3.062-.346,3.749,3.749,0,0,0,1.6-.619,5.648,5.648,0,0,0,1.1-1.792,9.428,9.428,0,0,0,.88-4.195c-.034-1.292-.487-3.084-2.081-3.1q-1.229-.013-2.458-.017C158.992,195.469,158.287,195.469,157.582,195.486Z" transform="translate(-122.383 -167.599)" fill="#6b6cb3"/>
          <path id="Path_45639" data-name="Path 45639" d="M126.24,186.175A5.049,5.049,0,0,0,125.1,190.8a2.964,2.964,0,0,1,.152.754,3.067,3.067,0,0,1-.18.813,4.371,4.371,0,0,0-.037,2.234,3.448,3.448,0,0,1,.192,1.064,3.525,3.525,0,0,1-.254.868,4.194,4.194,0,0,0,.05,2.871,2.225,2.225,0,0,1,.2,1.982,4.208,4.208,0,0,0,.395,2.775,2.736,2.736,0,0,1,.34.771,2.071,2.071,0,0,1-.082.826q-.437,1.835-.874,3.67a20.3,20.3,0,0,0-.687,4.13,10.2,10.2,0,0,0,1.426,5.461,3.224,3.224,0,0,0,1.73-1.932,10.762,10.762,0,0,0,.669-6.34A13.435,13.435,0,0,0,127,207.494a1,1,0,0,1-.152-.576,1.1,1.1,0,0,1,.314-.512,4.466,4.466,0,0,0,.627-4.759,2.773,2.773,0,0,1-.369-.96,2.88,2.88,0,0,1,.361-1.242,3.983,3.983,0,0,0,.136-2.527,1.672,1.672,0,0,1-.11-.654,1.763,1.763,0,0,1,.226-.548,3.285,3.285,0,0,0-.461-3.594,8.545,8.545,0,0,0,1.119-1.96,2.878,2.878,0,0,0-.025-2.2,1.566,1.566,0,0,1-.246-.657,1.228,1.228,0,0,1,.247-.615,4.828,4.828,0,0,0,.831-3.161c-.18-1.219-1.441-2.709-2.694-1.706a2.868,2.868,0,0,0-.866,1.934,4.974,4.974,0,0,0,0,1.232C125.948,185.112,126.265,186.147,126.24,186.175Z" transform="translate(-109.732 -160.716)" fill="#754600"/>
        </g>
      </g>
    </g>
    <g id="Group_17939" data-name="Group 17939" transform="translate(157.532 142.013)">
      <path id="Path_45640" data-name="Path 45640" d="M315.28,392.576,283.2,374.058c-1.195-.69-1.045-1.9.335-2.693l48.986-28.282a5.181,5.181,0,0,1,4.664-.193l32.075,18.519c1.2.69,1.045,1.9-.335,2.692l-48.985,28.282A5.18,5.18,0,0,1,315.28,392.576Z" transform="translate(-282.398 -291.628)" fill="#e3ecff"/>
      <g id="Group_17926" data-name="Group 17926" transform="translate(4.405 43.212)">
        <g id="Group_17923" data-name="Group 17923" transform="translate(0.255)">
          <path id="Path_45641" data-name="Path 45641" d="M291.576,382.427l28.58-16.578,3.925,21.934-4.143,10.952-3.16-.654Z" transform="translate(-291.576 -346.372)" fill="#ffea00"/>
          <path id="Path_45642" data-name="Path 45642" d="M297.561,381.522v7.993L322.979,404.2v-6.334l-2.084-2.738Z" transform="translate(-294.522 -354.087)" fill="#eff0f2"/>
          <path id="Path_45643" data-name="Path 45643" d="M297.561,390.4l12.709,7.331-12.709-6.479Z" transform="translate(-294.522 -358.456)" fill="#ced3de"/>
          <path id="Path_45644" data-name="Path 45644" d="M346.769,399.016l43.65-25.16.124-.072a2.056,2.056,0,0,0,1-1.778V364.84l-1.3.752-6.48,3.74-1.556.9L348.116,389.9l-.713,7.539Z" transform="translate(-318.745 -345.875)" fill="#fa0"/>
          <path id="Path_45645" data-name="Path 45645" d="M338.978,379.9l5.3,5.074L378.371,365.3l1.556-.9,6.48-3.741,1.3-.752a3.519,3.519,0,0,0-1.759-3.046l-3.544-2.04-.013.007-1.549.9-7.971,4.6-1.556.9Z" transform="translate(-314.91 -340.944)" fill="#ffd60a"/>
          <path id="Path_45646" data-name="Path 45646" d="M322.979,397.868V404.2l-.906-.521v-1.9a9.92,9.92,0,0,0-.071-1.831,3.384,3.384,0,0,0-.895-1.647,1.073,1.073,0,0,0-.083-.083,20.762,20.762,0,0,0-4.744-3.14q-2.391-1.36-4.769-2.725-2.559-1.466-5.118-2.927-2.373-1.359-4.751-2.719c-1.226-.7-2.459-1.4-3.685-2.109-.13-.077-.267-.154-.4-.225v-2.861l23.335,13.613Z" transform="translate(-294.522 -354.085)" fill="#ced3de"/>
          <path id="Path_45647" data-name="Path 45647" d="M318.068,403.135l-2.425-1.4L291.576,387.84v1.792l24.067,13.895,2.176,1.254a2.059,2.059,0,0,0,1,.284,2.091,2.091,0,0,0,2.129-2.09v-7.163a3.513,3.513,0,0,0-1.757-3.046l-3.545-2.044v.018l-24.067-13.894v1.791l24.067,13.894,2.176,1.255a2.183,2.183,0,0,0,.215.108l.287.166a2.639,2.639,0,0,1,1.323,2.29v5.873A1.052,1.052,0,0,1,318.068,403.135Z" transform="translate(-291.576 -351.785)" fill="#ffc400"/>
          <path id="Path_45648" data-name="Path 45648" d="M291.576,352.548l24.068,13.894,43.429-25.078L335,327.488Z" transform="translate(-291.576 -327.488)" fill="#ffea00"/>
        </g>
        <g id="Group_17924" data-name="Group 17924" transform="translate(42.568 27.309)">
          <path id="Path_45649" data-name="Path 45649" d="M377.543,404.494v.39l-2.631,1.518v-4.464l2.58-1.49v.39l-2.194,1.267v1.609l1.912-1.1v.37l-1.912,1.1v1.7Z" transform="translate(-374.912 -390.713)" fill="#f2f2f2"/>
          <path id="Path_45650" data-name="Path 45650" d="M382.015,404a2.072,2.072,0,0,1-.656.253.917.917,0,0,1-.551-.046l.171-.388a1.055,1.055,0,0,0,.493.055,1.472,1.472,0,0,0,.539-.2,1.807,1.807,0,0,0,.554-.48.963.963,0,0,0,.207-.575.284.284,0,0,0-.056-.2.229.229,0,0,0-.163-.067.9.9,0,0,0-.27.034c-.108.026-.234.063-.377.108q-.249.075-.431.11a.825.825,0,0,1-.3.016.239.239,0,0,1-.176-.114.563.563,0,0,1-.059-.29,1.44,1.44,0,0,1,.086-.484,1.892,1.892,0,0,1,.232-.443,2.237,2.237,0,0,1,.342-.384,2.5,2.5,0,0,1,.415-.3,1.608,1.608,0,0,1,.6-.224.648.648,0,0,1,.436.071l-.182.357a.552.552,0,0,0-.389-.059,1.4,1.4,0,0,0-.477.182,1.873,1.873,0,0,0-.275.192,1.4,1.4,0,0,0-.224.24,1.156,1.156,0,0,0-.151.279.859.859,0,0,0-.055.306.362.362,0,0,0,.039.191.158.158,0,0,0,.127.068.725.725,0,0,0,.222-.021c.09-.022.2-.051.328-.092.185-.057.346-.1.485-.129a1,1,0,0,1,.35-.027.294.294,0,0,1,.212.123.551.551,0,0,1,.072.31,1.556,1.556,0,0,1-.3.893A2.464,2.464,0,0,1,382.015,404Z" transform="translate(-377.814 -390.678)" fill="#f2f2f2"/>
          <path id="Path_45651" data-name="Path 45651" d="M388.063,400.459a.968.968,0,0,1-.643.159.7.7,0,0,1-.449-.272v2.018l-.375.216v-4.614l.336-.194v.635a3.354,3.354,0,0,1,.458-.765A2.205,2.205,0,0,1,388,397.1a1.129,1.129,0,0,1,.546-.174.7.7,0,0,1,.431.129.845.845,0,0,1,.284.379,1.528,1.528,0,0,1,.1.576,2.845,2.845,0,0,1-.093.708,3.265,3.265,0,0,1-.268.695,3.079,3.079,0,0,1-.413.607A2.122,2.122,0,0,1,388.063,400.459Zm-.106-.317a1.6,1.6,0,0,0,.422-.357,2.472,2.472,0,0,0,.325-.485,2.657,2.657,0,0,0,.207-.542,2.107,2.107,0,0,0,.071-.528,1.152,1.152,0,0,0-.082-.456.673.673,0,0,0-.226-.291.555.555,0,0,0-.339-.093.927.927,0,0,0-.422.137,1.579,1.579,0,0,0-.3.24,2.754,2.754,0,0,0-.292.345,2.62,2.62,0,0,0-.232.391,1.259,1.259,0,0,0-.118.379v1.006a.719.719,0,0,0,.168.231.563.563,0,0,0,.232.126.659.659,0,0,0,.278.013A.9.9,0,0,0,387.958,400.142Z" transform="translate(-380.664 -388.978)" fill="#f2f2f2"/>
          <path id="Path_45652" data-name="Path 45652" d="M393.793,397.2a1.014,1.014,0,0,1-.377.138.518.518,0,0,1-.3-.042.442.442,0,0,1-.2-.208.813.813,0,0,1-.07-.358,1.271,1.271,0,0,1,.087-.447,2.037,2.037,0,0,1,.248-.457,2.636,2.636,0,0,1,.38-.424,2.884,2.884,0,0,1,.485-.352,3.182,3.182,0,0,1,.447-.214,1.693,1.693,0,0,1,.4-.107v-.3q0-.435-.215-.565c-.144-.087-.343-.057-.6.089a2.147,2.147,0,0,0-.452.362,4.908,4.908,0,0,0-.47.561l-.132-.207a3.819,3.819,0,0,1,1.081-1.052.882.882,0,0,1,.848-.145c.206.112.309.372.309.777v1.478c0,.118.046.15.138.1v.377a1.445,1.445,0,0,1-.143.1.258.258,0,0,1-.223.047c-.054-.023-.082-.083-.085-.177l-.011-.252a3.094,3.094,0,0,1-.5.74A2.686,2.686,0,0,1,393.793,397.2Zm.089-.379a2.3,2.3,0,0,0,.537-.435,2.1,2.1,0,0,0,.372-.548.8.8,0,0,0,.075-.167.462.462,0,0,0,.025-.136V395a1.961,1.961,0,0,0-.389.1,2.506,2.506,0,0,0-.41.193,2.1,2.1,0,0,0-.645.561,1.079,1.079,0,0,0-.248.641.553.553,0,0,0,.052.253.333.333,0,0,0,.143.146.375.375,0,0,0,.218.028A.761.761,0,0,0,393.882,396.821Z" transform="translate(-383.737 -387.253)" fill="#f2f2f2"/>
          <path id="Path_45653" data-name="Path 45653" d="M401.628,391.124l-.375.217v-1.829a1.271,1.271,0,0,0-.151-.761c-.1-.118-.256-.117-.466,0a1.624,1.624,0,0,0-.331.259,2.488,2.488,0,0,0-.305.372,3.078,3.078,0,0,0-.252.444,2.254,2.254,0,0,0-.16.466V392.3l-.374.217v-3.275l.341-.2v.741a3.265,3.265,0,0,1,.5-.87,2.571,2.571,0,0,1,.714-.632.794.794,0,0,1,.4-.132.335.335,0,0,1,.265.129.847.847,0,0,1,.144.364,3.151,3.151,0,0,1,.044.559Zm-.854-3.517a.725.725,0,0,1-.218.089,1.026,1.026,0,0,1-.171.013c-.053,0-.106,0-.154,0a.342.342,0,0,0-.163.053.47.47,0,0,0-.146.128.929.929,0,0,0-.082.145.487.487,0,0,0-.038.123c-.006.035-.009.056-.009.064l-.232.134a1.106,1.106,0,0,1,.02-.14,1.219,1.219,0,0,1,.075-.241,1.317,1.317,0,0,1,.154-.267.81.81,0,0,1,.254-.226.516.516,0,0,1,.2-.075.97.97,0,0,1,.162,0,.96.96,0,0,0,.158,0,.447.447,0,0,0,.184-.065.581.581,0,0,0,.168-.141.715.715,0,0,0,.1-.156.555.555,0,0,0,.042-.128.6.6,0,0,0,.007-.065l.232-.133a.882.882,0,0,1-.023.139,1.183,1.183,0,0,1-.08.24,1.345,1.345,0,0,1-.166.276A.914.914,0,0,1,400.774,387.607Z" transform="translate(-386.875 -383.953)" fill="#f2f2f2"/>
          <path id="Path_45654" data-name="Path 45654" d="M406.576,389.743a1.319,1.319,0,0,1-.574.194.731.731,0,0,1-.449-.108.79.79,0,0,1-.295-.37,1.511,1.511,0,0,1-.1-.587,2.574,2.574,0,0,1,.107-.716,3.475,3.475,0,0,1,.746-1.343,2.352,2.352,0,0,1,.569-.466,1.291,1.291,0,0,1,.57-.192.743.743,0,0,1,.452.111.817.817,0,0,1,.3.368,1.49,1.49,0,0,1,.107.592,2.608,2.608,0,0,1-.105.708,3.359,3.359,0,0,1-.3.71,3.281,3.281,0,0,1-.452.63A2.422,2.422,0,0,1,406.576,389.743Zm-1.042-1.083a1.176,1.176,0,0,0,.081.464.65.65,0,0,0,.224.286.512.512,0,0,0,.33.09.922.922,0,0,0,.407-.134,1.639,1.639,0,0,0,.4-.338,2.521,2.521,0,0,0,.333-.476,2.68,2.68,0,0,0,.227-.548,2.025,2.025,0,0,0,.083-.564,1.182,1.182,0,0,0-.083-.465.641.641,0,0,0-.227-.29.558.558,0,0,0-.333-.09.865.865,0,0,0-.4.131,1.594,1.594,0,0,0-.4.336,2.544,2.544,0,0,0-.331.477,2.757,2.757,0,0,0-.227.555A2.1,2.1,0,0,0,405.534,388.66Z" transform="translate(-389.798 -383.677)" fill="#f2f2f2"/>
          <path id="Path_45655" data-name="Path 45655" d="M412.038,381.49l.374-.216v3.848c0,.121.029.2.088.235s.141.021.247-.04a1.149,1.149,0,0,0,.144-.1,2.044,2.044,0,0,0,.154-.141l.067.307a2.186,2.186,0,0,1-.258.231,2.212,2.212,0,0,1-.26.182c-.174.1-.309.124-.408.069s-.149-.181-.149-.381Z" transform="translate(-393.188 -381.274)" fill="#f2f2f2"/>
        </g>
        <g id="Group_17925" data-name="Group 17925" transform="translate(33.531 39.354)">
          <path id="Path_45656" data-name="Path 45656" d="M362.73,411.912l-5.243,3.027c-.207.119-.373-.008-.373-.282V408.78a.89.89,0,0,1,.373-.712l5.243-3.027c.206-.119.373.007.373.282V411.2A.893.893,0,0,1,362.73,411.912Z" transform="translate(-357.114 -404.996)" fill="#ffea00"/>
          <path id="Path_45657" data-name="Path 45657" d="M363.1,405.292v1.044l-5.989,3.458V408.75a.886.886,0,0,1,.4-.693l5.186-2.994C362.923,404.935,363.1,405.037,363.1,405.292Z" transform="translate(-357.114 -405.002)" fill="#e70317"/>
          <path id="Path_45658" data-name="Path 45658" d="M363.1,415.428v.943a.885.885,0,0,1-.4.693l-5.186,2.994c-.221.128-.4.026-.4-.229v-.944Z" transform="translate(-357.114 -410.131)" fill="#e70317"/>
        </g>
        <path id="Path_45659" data-name="Path 45659" d="M299.362,394.516a1.917,1.917,0,0,0-.319.242,4.256,4.256,0,0,0-.738,1.031,4.179,4.179,0,0,0-.191.408c-.395.827-.687,1.7-1.145,2.507a6.365,6.365,0,0,1-2.953,2.6l.213-1.787-3.156.051a6.331,6.331,0,0,0,2.939-2.6c.458-.789.751-1.667,1.133-2.494.063-.14.127-.28.2-.42a4.255,4.255,0,0,1,.738-1.031,1.661,1.661,0,0,1,.292-.229Z" transform="translate(-291.074 -359.635)" fill="#e70317"/>
      </g>
      <g id="Group_17930" data-name="Group 17930" transform="translate(10.564 30.311)">
        <g id="Group_17927" data-name="Group 17927">
          <path id="Path_45660" data-name="Path 45660" d="M303.2,357.019l28.58-16.578,3.926,21.934-4.143,10.952-3.16-.654Z" transform="translate(-303.204 -320.963)" fill="#d7dde8"/>
          <path id="Path_45661" data-name="Path 45661" d="M309.19,356.114v7.993l25.418,14.686V372.46l-2.084-2.738Z" transform="translate(-306.151 -328.678)" fill="#e6e6e6"/>
          <path id="Path_45662" data-name="Path 45662" d="M309.19,369.228l12.709,7.331-12.709-6.48Z" transform="translate(-306.151 -335.134)" fill="#b3b3b3"/>
          <path id="Path_45663" data-name="Path 45663" d="M358.4,373.607l43.65-25.159.124-.072a2.058,2.058,0,0,0,1-1.779v-7.166l-1.3.751-6.479,3.74-1.556.9-34.091,19.674-.713,7.539Z" transform="translate(-330.373 -320.466)" fill="#b3bac9"/>
          <path id="Path_45664" data-name="Path 45664" d="M350.607,354.488l5.3,5.074L390,339.888l1.556-.9,6.479-3.74,1.3-.751a3.52,3.52,0,0,0-1.759-3.047l-3.543-2.04-.014.007-1.55.9-7.97,4.6-1.556.9Z" transform="translate(-326.539 -315.535)" fill="#d7dde8"/>
          <path id="Path_45665" data-name="Path 45665" d="M334.607,372.459v6.333l-.906-.521v-1.9a9.912,9.912,0,0,0-.072-1.83,3.38,3.38,0,0,0-.895-1.647.9.9,0,0,0-.083-.083,20.738,20.738,0,0,0-4.745-3.14q-2.39-1.359-4.769-2.725-2.559-1.467-5.119-2.927-2.372-1.359-4.751-2.719c-1.227-.705-2.458-1.4-3.685-2.109-.13-.078-.267-.154-.4-.225v-2.862l23.335,13.614Z" transform="translate(-306.149 -328.676)" fill="#f2f2f2"/>
          <path id="Path_45666" data-name="Path 45666" d="M329.7,377.726l-2.424-1.4L303.2,362.431v1.791l24.068,13.894,2.175,1.255a2.067,2.067,0,0,0,1,.284,2.092,2.092,0,0,0,2.129-2.091V370.4a3.512,3.512,0,0,0-1.757-3.046l-3.545-2.045v.018L303.2,351.435v1.792l24.068,13.895,2.175,1.254a2.187,2.187,0,0,0,.215.108l.287.166a2.642,2.642,0,0,1,1.323,2.29v5.873A1.052,1.052,0,0,1,329.7,377.726Z" transform="translate(-303.204 -326.375)" fill="#ced3de"/>
          <path id="Path_45667" data-name="Path 45667" d="M303.2,327.139l24.068,13.894L370.7,315.956l-24.068-13.877Z" transform="translate(-303.204 -302.079)" fill="#e6e6e6"/>
        </g>
        <g id="Group_17928" data-name="Group 17928" transform="translate(41.704 27.206)">
          <path id="Path_45668" data-name="Path 45668" d="M385.341,382.082v-4.464l1.621-.936a.959.959,0,0,1,.466-.148.628.628,0,0,1,.367.11.734.734,0,0,1,.242.309,1.128,1.128,0,0,1,.088.459,2.213,2.213,0,0,1-.082.578,2.834,2.834,0,0,1-.232.583,2.79,2.79,0,0,1-.355.52,1.783,1.783,0,0,1-.46.385l-1.268.733v1.647Zm.386-2.26,1.251-.723a1.238,1.238,0,0,0,.312-.264,1.936,1.936,0,0,0,.239-.365,2.065,2.065,0,0,0,.155-.417,1.7,1.7,0,0,0,.055-.418.9.9,0,0,0-.064-.356.505.505,0,0,0-.17-.225.4.4,0,0,0-.253-.071.68.68,0,0,0-.307.1l-1.218.7Z" transform="translate(-385.341 -365.937)" fill="#f2f2f2"/>
          <path id="Path_45669" data-name="Path 45669" d="M391.621,379.96a.247.247,0,0,0,.166.025.613.613,0,0,0,.176-.07.535.535,0,0,0,.141-.129,1.2,1.2,0,0,0,.138-.243,3.769,3.769,0,0,0,.14-.392c.047-.158.1-.354.16-.589l-1.252-2.554.386-.222,1.064,2.265.988-3.449.359-.207-1.34,4.59a5.327,5.327,0,0,1-.169.506,2.5,2.5,0,0,1-.176.365,1.261,1.261,0,0,1-.192.254,1.126,1.126,0,0,1-.224.17c-.165.1-.292.118-.38.069Z" transform="translate(-388.269 -364.884)" fill="#f2f2f2"/>
          <path id="Path_45670" data-name="Path 45670" d="M397.24,374.708a2.6,2.6,0,0,1,.1-.714,3.291,3.291,0,0,1,.749-1.333,2.493,2.493,0,0,1,.586-.469,1.184,1.184,0,0,1,.71-.2.577.577,0,0,1,.458.305l-.364.342a.421.421,0,0,0-.339-.2.839.839,0,0,0-.482.136,1.708,1.708,0,0,0-.411.338,2.444,2.444,0,0,0-.331.464,2.51,2.51,0,0,0-.22.539,2.123,2.123,0,0,0-.08.568,1.263,1.263,0,0,0,.081.476.642.642,0,0,0,.227.292.55.55,0,0,0,.333.091.886.886,0,0,0,.406-.13,1.674,1.674,0,0,0,.274-.2,2.324,2.324,0,0,0,.25-.268,2.16,2.16,0,0,0,.2-.294,1.131,1.131,0,0,0,.116-.281l.369-.087a2.209,2.209,0,0,1-.176.426,2.847,2.847,0,0,1-.274.414,2.772,2.772,0,0,1-.347.372,2.461,2.461,0,0,1-.393.287,1.352,1.352,0,0,1-.579.2.73.73,0,0,1-.457-.106.805.805,0,0,1-.3-.371A1.485,1.485,0,0,1,397.24,374.708Z" transform="translate(-391.198 -363.698)" fill="#f2f2f2"/>
          <path id="Path_45671" data-name="Path 45671" d="M403.138,371.3a2.592,2.592,0,0,1,.1-.714,3.2,3.2,0,0,1,.295-.708,3.235,3.235,0,0,1,.454-.624,2.514,2.514,0,0,1,.585-.47,1.191,1.191,0,0,1,.711-.2.577.577,0,0,1,.457.3l-.364.342a.424.424,0,0,0-.339-.2.858.858,0,0,0-.482.137,1.693,1.693,0,0,0-.41.338,2.428,2.428,0,0,0-.332.465,2.537,2.537,0,0,0-.22.539,2.091,2.091,0,0,0-.08.568,1.233,1.233,0,0,0,.082.474.638.638,0,0,0,.227.293.545.545,0,0,0,.333.09.869.869,0,0,0,.4-.13,1.572,1.572,0,0,0,.273-.2,2.257,2.257,0,0,0,.449-.561,1.2,1.2,0,0,0,.116-.281l.369-.086a2.063,2.063,0,0,1-.176.424,2.762,2.762,0,0,1-.273.415,2.793,2.793,0,0,1-.347.371,2.4,2.4,0,0,1-.4.287,1.37,1.37,0,0,1-.578.2.735.735,0,0,1-.458-.107.815.815,0,0,1-.3-.371A1.5,1.5,0,0,1,403.138,371.3Z" transform="translate(-394.102 -362.022)" fill="#f2f2f2"/>
          <path id="Path_45672" data-name="Path 45672" d="M411.2,364.895l.419-.243-1.086,2.212,1.18,1.01-.419.241-1.014-.911-.408.236v1.5l-.369.213v-3.275l.369-.213v1.446l.375-.217Z" transform="translate(-397.234 -360.087)" fill="#f2f2f2"/>
          <path id="Path_45673" data-name="Path 45673" d="M415.126,365.147l1.715-3.661.3-.176v3.275l-.369.214v-2.621l-1.681,3.593-.337.194v-3.275l.37-.214Z" transform="translate(-399.821 -358.442)" fill="#f2f2f2"/>
          <path id="Path_45674" data-name="Path 45674" d="M421.488,360.5l1.715-3.662.3-.174v3.275l-.37.213v-2.621l-1.682,3.592-.336.194v-3.275l.37-.213Zm1.632-4.84a1.008,1.008,0,0,1-.212.571,1.788,1.788,0,0,1-.555.475.881.881,0,0,1-.556.167c-.133-.026-.2-.135-.215-.326l.237-.136c.008.138.055.211.144.216a.8.8,0,0,0,.391-.141,1.419,1.419,0,0,0,.389-.306.661.661,0,0,0,.146-.386Z" transform="translate(-402.953 -355.662)" fill="#f2f2f2"/>
        </g>
        <g id="Group_17929" data-name="Group 17929" transform="translate(32.805 39.801)">
          <path id="Path_45675" data-name="Path 45675" d="M373.266,387.184l-5.091,2.939c-.2.116-.362-.007-.362-.274v-5.707a.867.867,0,0,1,.362-.692l5.091-2.939c.2-.116.362.007.362.274v5.708A.867.867,0,0,1,373.266,387.184Z" transform="translate(-367.813 -380.468)" fill="#0039a6"/>
          <path id="Path_45676" data-name="Path 45676" d="M373.628,380.756v1.834l-5.815,3.357v-1.834a.86.86,0,0,1,.39-.673l5.035-2.906C373.453,380.41,373.628,380.509,373.628,380.756Z" transform="translate(-367.813 -380.474)" fill="#f2f2f2"/>
          <path id="Path_45677" data-name="Path 45677" d="M373.628,389.215v1.618a.859.859,0,0,1-.39.673l-5.035,2.907c-.216.124-.39.025-.39-.222v-1.619Z" transform="translate(-367.813 -384.774)" fill="#d52b1e"/>
        </g>
        <path id="Path_45678" data-name="Path 45678" d="M317.663,377.316a1.9,1.9,0,0,0-.319.242,4.261,4.261,0,0,0-.738,1.031,4.17,4.17,0,0,0-.191.407c-.394.827-.687,1.7-1.145,2.507a6.366,6.366,0,0,1-2.952,2.6l.213-1.787-3.156.051a6.339,6.339,0,0,0,2.939-2.6c.458-.789.751-1.667,1.133-2.495.063-.14.127-.279.2-.419a4.244,4.244,0,0,1,.738-1.031,1.66,1.66,0,0,1,.292-.229Z" transform="translate(-306.242 -338.267)" fill="#0039a6"/>
      </g>
      <g id="Group_17934" data-name="Group 17934" transform="translate(3.534 21.273)">
        <g id="Group_17933" data-name="Group 17933">
          <path id="Path_45679" data-name="Path 45679" d="M289.358,339.218l28.58-16.578,3.925,21.934-4.143,10.952-3.16-.654Z" transform="translate(-289.358 -303.162)" fill="#595994"/>
          <path id="Path_45680" data-name="Path 45680" d="M295.345,338.314v7.993l25.418,14.686v-6.334l-2.084-2.738Z" transform="translate(-292.305 -310.878)" fill="#eff0f2"/>
          <path id="Path_45681" data-name="Path 45681" d="M295.345,344.557l12.709,7.33-12.709-6.479Z" transform="translate(-292.305 -313.951)" fill="#ced3de"/>
          <path id="Path_45682" data-name="Path 45682" d="M344.553,355.806,388.2,330.647l.125-.072a2.059,2.059,0,0,0,1-1.779v-7.166l-1.3.751-6.48,3.74-1.556.9L345.9,346.692l-.712,7.539Z" transform="translate(-316.528 -302.666)" fill="#30306b"/>
          <g id="Group_17931" data-name="Group 17931" transform="translate(42.794 28.783)">
            <path id="Path_45683" data-name="Path 45683" d="M376.27,360.1v.388l-2.629,1.519v-4.464l2.579-1.489v.389l-2.194,1.267v1.61l1.914-1.1v.371l-1.914,1.1v1.7Z" transform="translate(-373.641 -348.393)" fill="#f2f2f2"/>
            <path id="Path_45684" data-name="Path 45684" d="M382.449,358.46l-.374.216v-1.83a1.282,1.282,0,0,0-.151-.761c-.1-.117-.257-.116-.467.005a1.678,1.678,0,0,0-.33.26,2.517,2.517,0,0,0-.306.372,3.041,3.041,0,0,0-.251.443,2.221,2.221,0,0,0-.16.466v2.006l-.375.217v-3.275l.342-.2v.742a3.237,3.237,0,0,1,.5-.87,2.576,2.576,0,0,1,.714-.632.784.784,0,0,1,.4-.132.331.331,0,0,1,.265.129.838.838,0,0,1,.144.363,3.17,3.17,0,0,1,.044.561Z" transform="translate(-376.788 -348.115)" fill="#f2f2f2"/>
            <path id="Path_45685" data-name="Path 45685" d="M387.331,355.189a1.117,1.117,0,0,1-.544.173.708.708,0,0,1-.424-.13.833.833,0,0,1-.278-.374,1.485,1.485,0,0,1-.1-.565,2.753,2.753,0,0,1,.1-.706,3.254,3.254,0,0,1,.694-1.316,2.182,2.182,0,0,1,.543-.451.935.935,0,0,1,.64-.158.845.845,0,0,1,.463.264v-.685l.337-.194v3.288a2.017,2.017,0,0,1-.114.666,2.708,2.708,0,0,1-.3.611,2.842,2.842,0,0,1-.447.522,3.017,3.017,0,0,1-.542.4,1.472,1.472,0,0,1-.8.26.675.675,0,0,1-.49-.256l.231-.342a.508.508,0,0,0,.452.2,1.378,1.378,0,0,0,.607-.2,2.214,2.214,0,0,0,.4-.3,2.141,2.141,0,0,0,.328-.383,1.947,1.947,0,0,0,.224-.457,1.607,1.607,0,0,0,.082-.51V353.9a2.861,2.861,0,0,1-.452.758A2.243,2.243,0,0,1,387.331,355.189Zm.105-.419a1.535,1.535,0,0,0,.325-.257,2.389,2.389,0,0,0,.289-.352,2.515,2.515,0,0,0,.218-.386,1.454,1.454,0,0,0,.115-.362V352.4a.629.629,0,0,0-.164-.232.541.541,0,0,0-.238-.119.688.688,0,0,0-.284-.007.892.892,0,0,0-.306.114,1.614,1.614,0,0,0-.433.366,2.46,2.46,0,0,0-.322.491,2.613,2.613,0,0,0-.2.543,2.157,2.157,0,0,0-.069.525,1.149,1.149,0,0,0,.082.455.626.626,0,0,0,.23.285.554.554,0,0,0,.339.087A.918.918,0,0,0,387.436,354.77Z" transform="translate(-379.717 -345.928)" fill="#f2f2f2"/>
            <path id="Path_45686" data-name="Path 45686" d="M393.108,347.287l.375-.217v3.849c0,.122.029.2.088.234s.143.023.249-.039a1.273,1.273,0,0,0,.143-.1,1.894,1.894,0,0,0,.155-.141l.067.308a2.4,2.4,0,0,1-.257.23,2.118,2.118,0,0,1-.262.182q-.26.152-.408.069c-.1-.053-.149-.181-.149-.382Z" transform="translate(-383.224 -343.971)" fill="#f2f2f2"/>
            <path id="Path_45687" data-name="Path 45687" d="M396.029,346.231v-.63l.375-.215v.629Zm0,3.96v-3.275l.375-.216v3.275Z" transform="translate(-384.662 -343.142)" fill="#f2f2f2"/>
            <path id="Path_45688" data-name="Path 45688" d="M399.1,349.007a2.068,2.068,0,0,1-.656.253.908.908,0,0,1-.551-.047l.172-.387a1.047,1.047,0,0,0,.492.055,1.475,1.475,0,0,0,.539-.2,1.771,1.771,0,0,0,.553-.48.956.956,0,0,0,.207-.575.288.288,0,0,0-.056-.2.228.228,0,0,0-.162-.065.876.876,0,0,0-.27.033c-.109.027-.236.063-.378.109-.166.049-.308.085-.431.11a.849.849,0,0,1-.3.016.245.245,0,0,1-.176-.115.568.568,0,0,1-.058-.291,1.419,1.419,0,0,1,.085-.482,1.793,1.793,0,0,1,.232-.445,2.269,2.269,0,0,1,.342-.384,2.5,2.5,0,0,1,.416-.3,1.641,1.641,0,0,1,.6-.224.646.646,0,0,1,.436.072l-.182.356a.553.553,0,0,0-.388-.058,1.422,1.422,0,0,0-.477.181,1.905,1.905,0,0,0-.276.193,1.471,1.471,0,0,0-.224.24,1.153,1.153,0,0,0-.151.279.877.877,0,0,0-.056.305.366.366,0,0,0,.039.191.154.154,0,0,0,.126.068.686.686,0,0,0,.223-.022c.09-.021.2-.051.328-.091q.276-.085.484-.129a1.031,1.031,0,0,1,.351-.027.3.3,0,0,1,.213.123.553.553,0,0,1,.071.311,1.563,1.563,0,0,1-.3.892A2.481,2.481,0,0,1,399.1,349.007Z" transform="translate(-385.581 -343.139)" fill="#f2f2f2"/>
            <path id="Path_45689" data-name="Path 45689" d="M406.1,344.378l-.376.216v-1.829a1.131,1.131,0,0,0-.168-.738q-.168-.181-.494.008a1.456,1.456,0,0,0-.316.255,2.572,2.572,0,0,0-.295.368,2.937,2.937,0,0,0-.241.435,2.3,2.3,0,0,0-.15.458v2.006l-.376.217v-4.589l.376-.217v2.056a3.106,3.106,0,0,1,.473-.86,2.324,2.324,0,0,1,.656-.592.853.853,0,0,1,.42-.139.383.383,0,0,1,.281.128.748.748,0,0,1,.16.353,2.655,2.655,0,0,1,.05.547Z" transform="translate(-388.43 -340.966)" fill="#f2f2f2"/>
          </g>
          <g id="Group_17932" data-name="Group 17932" transform="translate(32.769 39.273)">
            <path id="Path_45690" data-name="Path 45690" d="M359.732,368.813l-5.448,3.145c-.214.123-.387-.008-.387-.293v-6.107a.93.93,0,0,1,.387-.74l5.448-3.145c.213-.123.387.007.387.293v6.107A.928.928,0,0,1,359.732,368.813Z" transform="translate(-353.897 -361.626)" fill="#6b6cb3"/>
            <path id="Path_45691" data-name="Path 45691" d="M363.426,361.938v.711l-2.236,3.857-.575-.328,2.627-4.531h0C363.354,361.669,363.426,361.773,363.426,361.938Z" transform="translate(-357.204 -361.637)" fill="#f2f2f2"/>
            <path id="Path_45692" data-name="Path 45692" d="M357.1,369.332l-.575.992-2.633-1.5v-.269a.921.921,0,0,1,.418-.72l.08-.046Z" transform="translate(-353.897 -364.659)" fill="#f2f2f2"/>
            <path id="Path_45693" data-name="Path 45693" d="M363.882,372.266v.586a.923.923,0,0,1-.255.589l-2.086-1.19.575-.992Z" transform="translate(-357.659 -366.368)" fill="#f2f2f2"/>
            <path id="Path_45694" data-name="Path 45694" d="M362.77,361.976v.108l-2.431,4.194-.233.4-.228.394-.232.4-.133.227-.228-.131,0,0,.132-.227.232-.4.228-.393.1-.176.131-.224,2.564-4.422A.3.3,0,0,1,362.77,361.976Z" transform="translate(-356.548 -361.674)" fill="#c8102e"/>
            <path id="Path_45695" data-name="Path 45695" d="M357.6,370.68l-.232.4-.372-.212-.229-.131,0,0L353.9,369.1v-.138a.8.8,0,0,1,.088-.344l2.781,1.586.23.13.232.133Z" transform="translate(-353.897 -365.069)" fill="#c8102e"/>
            <path id="Path_45696" data-name="Path 45696" d="M363.248,371.9v.493c0,.013,0,.025,0,.039l-2.663-1.518-.331-.189.1-.176.13-.225Z" transform="translate(-357.026 -365.906)" fill="#c8102e"/>
            <path id="Path_45697" data-name="Path 45697" d="M356.412,374l-2.277,3.927c-.141,0-.238-.1-.238-.294v-.615l1.94-3.345Z" transform="translate(-353.897 -367.556)" fill="#f2f2f2"/>
            <path id="Path_45698" data-name="Path 45698" d="M357.328,370.75l-.1.176-.228.393-.232.4-.132.227-2.587,4.462a.27.27,0,0,1-.15-.274l2.637-4.547.232-.4.331-.571.13.075.1.056Z" transform="translate(-353.897 -366.052)" fill="#c8102e"/>
            <path id="Path_45699" data-name="Path 45699" d="M360.12,365.017v2.078l-2.159,1.246v2.532l-1.81,1.045v-2.532l-2.253,1.3V368.61l2.253-1.3v-2.531l1.81-1.045v2.531Z" transform="translate(-353.897 -362.663)" fill="#f2f2f2"/>
            <path id="Path_45700" data-name="Path 45700" d="M360.12,365.658v1.216l-2.534,1.463V371.3l-1.06.611v-2.962l-2.628,1.518V369.25l2.628-1.517v-2.963l1.06-.611v2.962Z" transform="translate(-353.897 -362.873)" fill="#c8102e"/>
          </g>
          <path id="Path_45701" data-name="Path 45701" d="M336.762,336.687l5.3,5.073,34.091-19.674,1.556-.9,6.48-3.74,1.3-.751a3.519,3.519,0,0,0-1.759-3.047l-3.543-2.04-.013.007-1.55.9-7.97,4.6-1.556.9Z" transform="translate(-312.693 -297.734)" fill="#595994"/>
          <path id="Path_45702" data-name="Path 45702" d="M320.762,354.659v6.332l-.906-.521v-1.9a9.914,9.914,0,0,0-.071-1.831,3.385,3.385,0,0,0-.895-1.647.97.97,0,0,0-.083-.083,20.755,20.755,0,0,0-4.745-3.14q-2.391-1.359-4.769-2.725-2.559-1.467-5.119-2.927c-1.582-.906-3.169-1.813-4.75-2.719-1.227-.705-2.459-1.4-3.685-2.109-.13-.077-.266-.154-.4-.225v-2.861l23.335,13.613Z" transform="translate(-292.304 -310.875)" fill="#ced3de"/>
          <path id="Path_45703" data-name="Path 45703" d="M315.851,359.925l-2.424-1.4-24.068-13.894v1.791l24.068,13.895,2.175,1.254a2.063,2.063,0,0,0,1,.284,2.09,2.09,0,0,0,2.129-2.09V352.6a3.511,3.511,0,0,0-1.757-3.046l-3.545-2.045v.018l-24.068-13.894v1.791l24.068,13.894,2.175,1.255a2.3,2.3,0,0,0,.215.108l.287.166a2.641,2.641,0,0,1,1.324,2.29v5.873A1.053,1.053,0,0,1,315.851,359.925Z" transform="translate(-289.358 -308.575)" fill="#4d4d80"/>
          <path id="Path_45704" data-name="Path 45704" d="M289.358,309.339l24.068,13.894,43.429-25.078-24.068-13.877Z" transform="translate(-289.358 -284.278)" fill="#6b6cb3"/>
        </g>
        <path id="Path_45705" data-name="Path 45705" d="M313.042,357.8a1.9,1.9,0,0,0-.318.241,4.246,4.246,0,0,0-.738,1.031,4.146,4.146,0,0,0-.191.407c-.395.827-.687,1.705-1.145,2.507a6.365,6.365,0,0,1-2.952,2.6l.213-1.786-3.156.05a6.337,6.337,0,0,0,2.94-2.6c.458-.79.75-1.667,1.132-2.494.063-.14.127-.28.2-.419a4.244,4.244,0,0,1,.738-1.031,1.705,1.705,0,0,1,.292-.229Z" transform="translate(-296.937 -319.62)" fill="#fa8406"/>
      </g>
      <g id="Group_17938" data-name="Group 17938" transform="translate(15.59)">
        <g id="Group_17937" data-name="Group 17937">
          <path id="Path_45706" data-name="Path 45706" d="M313.1,297.321l28.58-16.578,3.926,21.934-4.143,10.952-3.16-.654Z" transform="translate(-313.102 -261.265)" fill="#ff5740"/>
          <path id="Path_45707" data-name="Path 45707" d="M319.088,296.416v7.993L344.506,319.1v-6.334l-2.084-2.738Z" transform="translate(-316.048 -268.98)" fill="#eff0f2"/>
          <path id="Path_45708" data-name="Path 45708" d="M319.088,306.161l23.044,13.293-23.044-12.441Z" transform="translate(-316.048 -273.777)" fill="#ced3de"/>
          <path id="Path_45709" data-name="Path 45709" d="M368.3,313.909l43.65-25.16.124-.072a2.058,2.058,0,0,0,1-1.779v-7.166l-1.3.752-6.48,3.74-1.556.9-34.091,19.674-.713,7.538Z" transform="translate(-340.271 -260.768)" fill="#de2910"/>
          <g id="Group_17935" data-name="Group 17935" transform="translate(45.185 30.277)">
            <path id="Path_45710" data-name="Path 45710" d="M406.861,309.547l-2.032,1.173v-.662l.28-.162v-.236l-.28.162-.351.2v.9l-2.032,1.173v-.011l-.351.2v3.25l.351-.2v-.6l2.032-1.173V315.9l.351-.2v-2.338l2.032-1.173v.6l.351-.2v-3.249l-.351.2Zm-4.415,4.784V312.5l2.032-1.173v1.831Zm4.415-2.549-2.032,1.173v-1.831l2.032-1.173Z" transform="translate(-402.094 -305.615)" fill="#f2f2f2"/>
            <path id="Path_45711" data-name="Path 45711" d="M419.829,306.573a4.627,4.627,0,0,1-2.942-.244,19.682,19.682,0,0,0,1.611-3.5l.709-.409v-.4l-2.295,1.325v-.662l.28-.161v-.236l-.28.162-.351.2v.9l-2.472,1.427v.4l.585-.338a4.252,4.252,0,0,0,1.611,1.646,18.074,18.074,0,0,1-2.942,3.64l.126.39a19.033,19.033,0,0,0,3.117-3.868,4.863,4.863,0,0,0,3.118.268Zm-4.679-1.816,2.872-1.658a18.859,18.859,0,0,1-1.436,3.067A4.007,4.007,0,0,1,415.15,304.757Z" transform="translate(-407.631 -302.011)" fill="#f2f2f2"/>
          </g>
          <g id="Group_17936" data-name="Group 17936" transform="translate(32.885 39.606)">
            <path id="Path_45712" data-name="Path 45712" d="M383.486,327.3l-5.243,3.028c-.206.119-.373-.008-.373-.282v-5.879a.9.9,0,0,1,.373-.712l5.243-3.027c.206-.119.373.007.373.281v5.878A.892.892,0,0,1,383.486,327.3Z" transform="translate(-377.87 -320.385)" fill="#e6e6e6"/>
            <path id="Path_45713" data-name="Path 45713" d="M383.508,327.534l-4.826,2.787c-.189.109-.343-.007-.343-.259V324.65a.823.823,0,0,1,.343-.655l4.826-2.786c.19-.11.343.007.343.259v5.411A.82.82,0,0,1,383.508,327.534Z" transform="translate(-378.101 -320.77)" fill="#de2910"/>
            <path id="Path_45714" data-name="Path 45714" d="M380.014,328.51l-.544.642.1-.755-.44-.238.608-.453.272-.789.272.475.608-.25-.44.746.1.635Z" transform="translate(-378.492 -323.601)" fill="#ffde00"/>
            <path id="Path_45715" data-name="Path 45715" d="M383.291,325.22l-.156.185.03-.217-.126-.068.174-.13.078-.227.078.136.175-.072-.126.215.03.182Z" transform="translate(-380.414 -322.54)" fill="#ffde00"/>
            <path id="Path_45716" data-name="Path 45716" d="M383.291,329.727l-.156.184.03-.217-.126-.068.174-.13.078-.227.078.136.175-.071-.126.214.03.182Z" transform="translate(-380.414 -324.759)" fill="#ffde00"/>
            <path id="Path_45717" data-name="Path 45717" d="M384.6,327.565l-.156.184.03-.217-.126-.068.175-.13.078-.227.078.137.175-.072-.126.214.03.182Z" transform="translate(-381.059 -323.694)" fill="#ffde00"/>
            <path id="Path_45718" data-name="Path 45718" d="M384.6,325.813l-.156.184.03-.217-.126-.068.175-.13.078-.226.078.136.175-.072-.126.214.03.182Z" transform="translate(-381.059 -322.832)" fill="#ffde00"/>
          </g>
          <path id="Path_45719" data-name="Path 45719" d="M360.505,294.79l5.3,5.074L399.9,280.19l1.556-.9,6.48-3.74,1.3-.752a3.52,3.52,0,0,0-1.758-3.047l-3.544-2.04-.013.006-1.55.9-7.97,4.6-1.556.9Z" transform="translate(-336.436 -255.836)" fill="#ff4126"/>
          <path id="Path_45720" data-name="Path 45720" d="M344.5,312.761v6.333l-.906-.521v-1.9a9.958,9.958,0,0,0-.071-1.83,3.383,3.383,0,0,0-.895-1.647.92.92,0,0,0-.083-.083,20.729,20.729,0,0,0-4.745-3.14q-2.391-1.359-4.769-2.725-2.559-1.466-5.118-2.927-2.372-1.359-4.751-2.719c-1.226-.705-2.459-1.4-3.685-2.109-.13-.077-.267-.154-.4-.225v-2.862l23.335,13.614Z" transform="translate(-316.047 -268.978)" fill="#ced3de"/>
          <path id="Path_45721" data-name="Path 45721" d="M339.594,318.028l-2.424-1.4L313.1,302.733v1.791l24.068,13.894,2.175,1.255a2.065,2.065,0,0,0,1,.284,2.091,2.091,0,0,0,2.129-2.091V310.7a3.51,3.51,0,0,0-1.757-3.046l-3.544-2.045v.018L313.1,291.737v1.792l24.068,13.895,2.175,1.254a2.1,2.1,0,0,0,.216.108l.287.165a2.64,2.64,0,0,1,1.324,2.29v5.874A1.053,1.053,0,0,1,339.594,318.028Z" transform="translate(-313.102 -266.677)" fill="#ed341a"/>
          <path id="Path_45722" data-name="Path 45722" d="M313.1,267.441l24.068,13.894L380.6,256.257,356.53,242.381Z" transform="translate(-313.102 -242.381)" fill="#ff5740"/>
        </g>
        <path id="Path_45723" data-name="Path 45723" d="M355.452,330.1a1.917,1.917,0,0,0-.318.241,4.261,4.261,0,0,0-.738,1.031,4,4,0,0,0-.19.407c-.395.827-.687,1.706-1.146,2.507a6.363,6.363,0,0,1-2.952,2.6l.213-1.786-3.156.051a6.333,6.333,0,0,0,2.939-2.6c.458-.79.751-1.667,1.133-2.495.063-.14.127-.28.2-.42a4.241,4.241,0,0,1,.738-1.031,1.617,1.617,0,0,1,.292-.229Z" transform="translate(-329.87 -284.711)" fill="#b3b3b3"/>
      </g>
    </g>
    <g id="Group_17952" data-name="Group 17952" transform="translate(184.525 130.709)">
      <path id="Path_45724" data-name="Path 45724" d="M355.935,286.047l-19.958-11.52c-.618-.357-.541-.981.174-1.393L350,265.1a2.682,2.682,0,0,1,2.413-.1l19.958,11.519c.618.357.541.98-.173,1.393l-13.85,8.029A2.68,2.68,0,0,1,355.935,286.047Z" transform="translate(-335.56 -242.095)" fill="#ed341a"/>
      <g id="Group_17951" data-name="Group 17951" transform="translate(3.738)">
        <g id="Group_17950" data-name="Group 17950" style="isolation: isolate">
          <g id="Group_17940" data-name="Group 17940" transform="translate(0.002 25.226)">
            <path id="Path_45725" data-name="Path 45725" d="M342.926,275.659l10.082-5.859,2.092,1.208-10.082,5.859Z" transform="translate(-342.926 -269.8)" fill="#ffea00"/>
          </g>
          <g id="Group_17941" data-name="Group 17941" transform="translate(8.379 30.062)">
            <path id="Path_45726" data-name="Path 45726" d="M359.425,285.185l10.082-5.859,1.52.878-10.082,5.859Z" transform="translate(-359.425 -279.325)" fill="#ffea00"/>
          </g>
          <g id="Group_17942" data-name="Group 17942" transform="translate(9.899 30.94)">
            <path id="Path_45727" data-name="Path 45727" d="M374.615,281.4l-10.082,5.859c-.49.285-1.176.2-2.116-.345l10.082-5.859C373.44,281.6,374.125,281.684,374.615,281.4Z" transform="translate(-362.418 -281.054)" fill="#ffea00"/>
          </g>
          <g id="Group_17943" data-name="Group 17943" transform="translate(8.379 17.66)">
            <path id="Path_45728" data-name="Path 45728" d="M359.46,260.757l10.082-5.859-.035,12.4-10.082,5.859Z" transform="translate(-359.425 -254.898)" fill="#ff8c00"/>
          </g>
          <g id="Group_17944" data-name="Group 17944" transform="translate(8.416 16.953)">
            <path id="Path_45729" data-name="Path 45729" d="M359.5,259.367l10.082-5.859.839.484-10.082,5.859Z" transform="translate(-359.498 -253.508)" fill="#ffea00"/>
          </g>
          <g id="Group_17945" data-name="Group 17945" transform="translate(9.255 17.437)">
            <path id="Path_45730" data-name="Path 45730" d="M373.317,254.842,363.235,260.7c-.466.271-1.139.165-2.085-.38l10.082-5.859C372.178,255.007,372.85,255.112,373.317,254.842Z" transform="translate(-361.15 -254.461)" fill="#ffea00"/>
          </g>
          <g id="Group_17946" data-name="Group 17946" transform="translate(13.315 19.82)">
            <path id="Path_45731" data-name="Path 45731" d="M384.184,273.169,374.1,279.028c.945-.549,1.472-1.749,1.477-3.775.012-3.893-2.366-7.224-6.433-10.241l10.082-5.859c4.066,3.017,6.444,6.348,6.432,10.241C385.655,271.421,385.129,272.62,384.184,273.169Z" transform="translate(-369.146 -259.153)" fill="#ff8c00"/>
          </g>
          <g id="Group_17947" data-name="Group 17947" transform="translate(8.416 5.543)">
            <path id="Path_45732" data-name="Path 45732" d="M359.531,236.893l10.082-5.859-.033,11.411L359.5,248.3Z" transform="translate(-359.498 -231.034)" fill="#ff8c00"/>
          </g>
          <g id="Group_17948" data-name="Group 17948" transform="translate(0.073)">
            <path id="Path_45733" data-name="Path 45733" d="M343.066,225.977l10.082-5.859,9.64,5.566-10.082,5.859Z" transform="translate(-343.066 -220.118)" fill="#ffea00"/>
          </g>
          <g id="Group_17949" data-name="Group 17949" transform="translate(9.713 5.565)">
            <path id="Path_45734" data-name="Path 45734" d="M379.762,245.614l-10.083,5.859c.853-.5,1.309-1.565,1.314-3.286.013-4.589-3.27-7.976-8.941-11.249l10.082-5.859c5.671,3.274,8.955,6.661,8.941,11.249C381.07,244.049,380.614,245.118,379.762,245.614Z" transform="translate(-362.052 -231.079)" fill="#ffd60a"/>
          </g>
          <path id="Path_45735" data-name="Path 45735" d="M356.237,251.477c3.389,1.327,5.33.554,5.339-3,.013-4.589-3.27-7.976-8.941-11.249L343,231.657l0,.706,2.093,1.208-.07,24.519-2.092-1.208,0,.706,9.473,5.47c6.061,3.5,10.258,4.4,10.274-1.34C362.681,257.825,360.3,254.494,356.237,251.477ZM351.371,237.2l1.038.6c2.25,1.3,2.794,2.99,2.784,6.548l0,1.736c-.009,3.034-.686,4.354-3.011,3.011l-.839-.484Zm4.654,21.685c-.01,3.406-.721,5.145-3.2,3.712l-1.52-.877.035-12.4.747.431c3.122,1.8,3.955,4.137,3.947,7.171Z" transform="translate(-342.922 -225.798)" fill="#ffc400"/>
        </g>
      </g>
    </g>
    <g id="Group_17965" data-name="Group 17965" transform="translate(100.815 206.581)">
      <path id="Path_45736" data-name="Path 45736" d="M222.161,387.435l-8.282-4.785,1.906-1.1c1.387-.8,1.538-2.012.337-2.706l-.339-.2a5.207,5.207,0,0,0-4.687.194l-1.9,1.1-9.506-5.492a3.4,3.4,0,0,0-3.058.126l-25.187,14.54c-.9.522-1,1.313-.219,1.765l9.756,5.636-4.591,2.651c-1.387.8-1.538,2.013-.336,2.706l.339.2a5.211,5.211,0,0,0,4.687-.194l4.589-2.65,8.032,4.64a3.4,3.4,0,0,0,3.057-.126l25.188-14.54C222.846,388.678,222.944,387.888,222.161,387.435Z" transform="translate(-170.691 -371.81)" fill="#e3ecff"/>
      <g id="Group_17964" data-name="Group 17964" transform="translate(2.606)">
        <g id="Group_17960" data-name="Group 17960">
          <g id="Group_17959" data-name="Group 17959" style="isolation: isolate">
            <path id="Path_45737" data-name="Path 45737" d="M253.57,377.711a4.188,4.188,0,0,1-1.4.658c-.166.045-.268.07-.37.089l-.358.087a14.434,14.434,0,0,0-1.955.617c-.613.244-.933.633-.934,1.024l-.011,3.848c0-.392.321-.78.934-1.025a14.517,14.517,0,0,1,1.955-.617l.358-.087c.1-.02.2-.044.37-.089a4.208,4.208,0,0,0,1.4-.658,1.778,1.778,0,0,0,.812-1.392l.011-3.847A1.778,1.778,0,0,1,253.57,377.711Z" transform="translate(-211.622 -372.88)" fill="#b4bccf"/>
            <path id="Path_45738" data-name="Path 45738" d="M206.4,382.17a4.829,4.829,0,0,0-1.391-.52l-.138-.029c-.06-.012-.118-.024-.177-.035a13.566,13.566,0,0,1-4.2-1.5.341.341,0,0,1-.2-.281l-.011,3.847a.342.342,0,0,0,.2.282,13.588,13.588,0,0,0,4.2,1.5c.058.01.116.023.176.035l.139.029a4.825,4.825,0,0,1,1.39.52,1.991,1.991,0,0,1,1.174,1.639l.011-3.847A1.989,1.989,0,0,0,206.4,382.17Z" transform="translate(-187.864 -374.596)" fill="#ed341a"/>
            <g id="Group_17953" data-name="Group 17953" transform="translate(25.95 15.002)">
              <path id="Path_45739" data-name="Path 45739" d="M233.34,399.574l-.007,3.847a6.316,6.316,0,0,0-5.221.175,2.339,2.339,0,0,0-1.031,1.017.12.12,0,0,0-.027.061,1.356,1.356,0,0,0-.121.552v-.552l.013-3.3a1.4,1.4,0,0,1,.135-.586,2.394,2.394,0,0,1,1.037-1.037A6.319,6.319,0,0,1,233.34,399.574Z" transform="translate(-226.933 -399.094)" fill="#ed341a"/>
            </g>
            <path id="Path_45740" data-name="Path 45740" d="M227.081,402.427v3.887h-.148l.013-3.3A1.4,1.4,0,0,1,227.081,402.427Z" transform="translate(-200.983 -385.732)" fill="#b4bccf"/>
            <path id="Path_45741" data-name="Path 45741" d="M256.068,395.169l-.013,3.847a1.367,1.367,0,0,1-.8,1.119l-1.348.781L250.49,402.9l-1.651.963-.943.546.007-3.847.937-.545,1.651-.957,3.415-1.987,1.361-.788A1.366,1.366,0,0,0,256.068,395.169Z" transform="translate(-211.302 -382.16)" fill="#3a3a61"/>
            <path id="Path_45742" data-name="Path 45742" d="M261.893,395.169l-.013,3.847a.959.959,0,0,1-.142.492,1.654,1.654,0,0,1-.66.627l-1.348.781v-3.84l1.361-.788a1.758,1.758,0,0,0,.647-.6A1,1,0,0,0,261.893,395.169Z" transform="translate(-217.128 -382.16)" fill="#b4bccf"/>
            <path id="Path_45743" data-name="Path 45743" d="M263.84,395.169l-.013,3.847a.959.959,0,0,1-.142.492v-3.82A1,1,0,0,0,263.84,395.169Z" transform="translate(-219.074 -382.16)" fill="#ed341a"/>
            <path id="Path_45744" data-name="Path 45744" d="M248.84,404.723v3.846l-.943.546.006-3.847Z" transform="translate(-211.302 -386.862)" fill="#ed341a"/>
            <path id="Path_45745" data-name="Path 45745" d="M251.4,402.838v3.84l-1.651.963v-3.846Z" transform="translate(-212.217 -385.935)" fill="#b4bccf"/>
            <path id="Path_45746" data-name="Path 45746" d="M240.99,401.266l-.151-.208a1.534,1.534,0,0,0-.123-.175,2.922,2.922,0,0,0-.8-.659,3.936,3.936,0,0,0-.376-.191l-.011,3.847a4.022,4.022,0,0,1,.376.191,2.944,2.944,0,0,1,.8.659,1.533,1.533,0,0,1,.123.176l.151.207a7.015,7.015,0,0,0,1.822,1.7l.011-3.847A7.007,7.007,0,0,1,240.99,401.266Z" transform="translate(-207.185 -384.554)" fill="#ed341a"/>
            <g id="Group_17954" data-name="Group 17954" transform="translate(35.616 18.405)">
              <path id="Path_45747" data-name="Path 45747" d="M246.956,405.8l-.011,3.848a1.076,1.076,0,0,1-.975,0l.011-3.847A1.078,1.078,0,0,0,246.956,405.8Z" transform="translate(-245.97 -405.796)" fill="#ed341a"/>
            </g>
            <path id="Path_45748" data-name="Path 45748" d="M183.585,400.869l-.007,3.847a1.082,1.082,0,0,0-.633-.883l-.768-.444-5.45-3.146a1.521,1.521,0,0,1-.9-1.267l.007-3.846a1.544,1.544,0,0,0,.91,1.266l5.436,3.139.781.451A1.05,1.05,0,0,1,183.585,400.869Z" transform="translate(-175.824 -382.14)" fill="#3a3a61"/>
            <path id="Path_45749" data-name="Path 45749" d="M189.744,405.141l-.007,3.847a1.082,1.082,0,0,0-.633-.883l-.768-.444v-3.853l.781.451A1.049,1.049,0,0,1,189.744,405.141Z" transform="translate(-181.983 -386.412)" fill="#b4bccf"/>
            <path id="Path_45750" data-name="Path 45750" d="M198.584,412l-.014,3.847a3.113,3.113,0,0,0-1.536-.364,2.787,2.787,0,0,0-1.738.539,6.011,6.011,0,0,0-.97,1.031,4.356,4.356,0,0,0-.323.491.762.762,0,0,0-.054.1l-.054.081.014-3.847.047-.081a.724.724,0,0,0,.054-.1c.094-.161.2-.323.317-.485a6.367,6.367,0,0,1,.976-1.038,2.769,2.769,0,0,1,1.731-.539A3.147,3.147,0,0,1,198.584,412Z" transform="translate(-184.72 -390.265)" fill="#ed341a"/>
            <g id="Group_17955" data-name="Group 17955" transform="translate(1.509 22.784)">
              <path id="Path_45751" data-name="Path 45751" d="M186.476,415.25l-.014,3.847a2.57,2.57,0,0,1-.9.8,5.371,5.371,0,0,1-2.338.661,5.917,5.917,0,0,1-3.274-.661,2,2,0,0,1-1.159-1.644l.014-3.833a1.982,1.982,0,0,0,1.159,1.63,5.923,5.923,0,0,0,3.261.653,5.278,5.278,0,0,0,2.351-.653A2.633,2.633,0,0,0,186.476,415.25Z" transform="translate(-178.796 -414.421)" fill="#ed341a"/>
            </g>
            <path id="Path_45752" data-name="Path 45752" d="M191.192,414.74v3.84a4.35,4.35,0,0,0-.323.491.763.763,0,0,0-.054.1l-.054.081a2.57,2.57,0,0,1-.9.8,5.37,5.37,0,0,1-2.338.661v-3.854a5.277,5.277,0,0,0,2.351-.653,2.633,2.633,0,0,0,.9-.8l.047-.081a.726.726,0,0,0,.054-.1C190.969,415.063,191.077,414.9,191.192,414.74Z" transform="translate(-181.585 -391.794)" fill="#b4bccf"/>
            <path id="Path_45753" data-name="Path 45753" d="M231.846,410.507l-.013,3.847a.337.337,0,0,1-.2.27l-.869.505-3.975,2.311-.371.216-1.421.822-.633.371-.2.114.007-3.847.189-.108.633-.37,1.421-.823.371-.215,3.975-2.311.882-.512A.336.336,0,0,0,231.846,410.507Z" transform="translate(-199.624 -389.71)" fill="#3a3a61"/>
            <path id="Path_45754" data-name="Path 45754" d="M227.6,416.6v3.84l-.371.216-1.421.822v-3.84l1.421-.822Z" transform="translate(-200.428 -392.708)" fill="#b4bccf"/>
            <path id="Path_45755" data-name="Path 45755" d="M226.613,417.021v3.84l-2.055,1.192v-3.84Z" transform="translate(-199.814 -392.917)" fill="#ed341a"/>
            <path id="Path_45756" data-name="Path 45756" d="M238.24,410.507l-.013,3.847a.337.337,0,0,1-.2.27l-.869.505v-3.84l.882-.512A.336.336,0,0,0,238.24,410.507Z" transform="translate(-206.019 -389.71)" fill="#b4bccf"/>
            <g id="Group_17956" data-name="Group 17956" transform="translate(13.851 21.734)">
              <path id="Path_45757" data-name="Path 45757" d="M209.5,416.037l-.034,3.833-5.753-3.321-.606-.35.013-3.847.593.344Z" transform="translate(-203.103 -412.352)" fill="#3a3a61"/>
            </g>
            <path id="Path_45758" data-name="Path 45758" d="M202.221,412.342V416.2l-.607-.35a3.113,3.113,0,0,0-1.536-.364v-3.847a3.147,3.147,0,0,1,1.55.364Z" transform="translate(-187.763 -390.265)" fill="#b4bccf"/>
            <g id="Group_17957" data-name="Group 17957" transform="translate(0.008)">
              <path id="Path_45759" data-name="Path 45759" d="M208.19,385.026a6.342,6.342,0,0,0-5.22.175c-1.57.9-1.57,2.365-.006,3.268a4.926,4.926,0,0,0,1.391.521l.14.028c.058.013.118.024.177.035a14.457,14.457,0,0,1,3.121.958c.332.187.337.442.065.6l-7.469,4.34a4.78,4.78,0,0,1-4.337,0l-6.358-3.67a3.218,3.218,0,0,0-3.277.175,5.8,5.8,0,0,0-1.293,1.522c-.016.032-.038.066-.055.1l-.05.082a2.62,2.62,0,0,1-.895.8,6.187,6.187,0,0,1-5.615,0c-1.408-.825-1.541-2.139-.349-3.037a4.222,4.222,0,0,1,1.4-.659c.166-.045.266-.068.368-.09l.358-.087a13.726,13.726,0,0,0,2.486-.842c1.012-.458,1.1-1.327.188-1.855l-6.218-3.59a1.327,1.327,0,0,1-.014-2.512l7.233-4.2a1.083,1.083,0,0,1,.949-.016q.233.119.453.246a7.443,7.443,0,0,1,2.335,2.013l.149.207a1.756,1.756,0,0,0,.125.176,2.92,2.92,0,0,0,.8.66,4.046,4.046,0,0,0,.376.191,6.342,6.342,0,0,0,5.22-.175c1.571-.9,1.568-2.364,0-3.267a4.829,4.829,0,0,0-1.391-.52l-.138-.029c-.06-.012-.118-.024-.177-.035a13.566,13.566,0,0,1-4.2-1.5.3.3,0,0,1,0-.562l7.674-4.46a4.292,4.292,0,0,1,3.893,0l6.5,3.751a3.173,3.173,0,0,0,3.36-.244,5.634,5.634,0,0,0,.931-1.195c.02-.033.042-.066.059-.1l.048-.083a2.6,2.6,0,0,1,.9-.8,6.191,6.191,0,0,1,5.615,0c1.4.827,1.541,2.139.343,3.038a4.19,4.19,0,0,1-1.4.658c-.166.045-.268.07-.37.089l-.358.087a14.423,14.423,0,0,0-1.955.617c-1.107.441-1.258,1.352-.3,1.9l6.386,3.688a1.191,1.191,0,0,1,.012,2.254l-7.363,4.279a1.078,1.078,0,0,1-.974,0,7.005,7.005,0,0,1-1.822-1.7l-.151-.208a1.536,1.536,0,0,0-.123-.175,2.922,2.922,0,0,0-.8-.659A3.922,3.922,0,0,0,208.19,385.026Z" transform="translate(-175.84 -369.547)" fill="#499fd2"/>
            </g>
            <g id="Group_17958" data-name="Group 17958" transform="translate(20.21 25.405)">
              <path id="Path_45760" data-name="Path 45760" d="M219.973,419.582l-.007,3.847a4.515,4.515,0,0,1-2.506.505,4.229,4.229,0,0,1-1.832-.505l.014-3.847a4.262,4.262,0,0,0,1.819.505A4.551,4.551,0,0,0,219.973,419.582Z" transform="translate(-215.628 -419.582)" fill="#3a3a61"/>
            </g>
            <path id="Path_45761" data-name="Path 45761" d="M221.939,419.37v3.84l-.2.114a4.514,4.514,0,0,1-2.506.505v-3.847a4.549,4.549,0,0,0,2.513-.505Z" transform="translate(-197.194 -394.073)" fill="#b4bccf"/>
          </g>
        </g>
        <g id="Group_17963" data-name="Group 17963" transform="translate(0.008)">
          <g id="Group_17962" data-name="Group 17962" clip-path="url(#clip-path)">
            <g id="Group_17961" data-name="Group 17961" transform="translate(-5.71 -3.203)">
              <path id="Path_45762" data-name="Path 45762" d="M193.546,393.66l-24.378-14.075c-.957-.552-.837-1.518.268-2.155L193.1,363.766a4.15,4.15,0,0,1,3.733-.154l24.378,14.074c.957.552.837,1.518-.268,2.156L197.28,393.505A4.152,4.152,0,0,1,193.546,393.66Z" transform="translate(-166.528 -363.238)" fill="#4d4d80"/>
              <path id="Path_45763" data-name="Path 45763" d="M250.032,394.409,247.277,396l-19.949-.036L227.312,393l23.433.042,0,0C250.911,393.525,250.673,394.039,250.032,394.409Z" transform="translate(-195.468 -377.889)" fill="#f2f2f2"/>
              <path id="Path_45764" data-name="Path 45764" d="M220.368,377.857l-5.131-.009-.074-13.56,1.045-.6a4.118,4.118,0,0,1,3.725.007l.359.207Z" transform="translate(-189.487 -363.241)" fill="#f2f2f2"/>
              <path id="Path_45765" data-name="Path 45765" d="M224.325,411.6l-2.271,1.311a4.131,4.131,0,0,1-2.852.327l-.058-10.748,5.131.01Z" transform="translate(-191.447 -382.561)" fill="#f2f2f2"/>
              <path id="Path_45766" data-name="Path 45766" d="M243.481,394.8l-.418.241L221.369,395,219.3,395l-2.037,0-2.074,0-1.175,0-.007-1.18v-.015l1.176,0,2.073,0,2.037,0,.911,0,1.163,0,22.873.04A1.361,1.361,0,0,1,243.481,394.8Z" transform="translate(-188.917 -378.279)" fill="#ff5740"/>
              <path id="Path_45767" data-name="Path 45767" d="M218.329,381.889l-2.07,0-.011-1.919-.006-1.18v-.015l-.08-14.762.538-.311a3.56,3.56,0,0,1,1.528-.428l.078,14.322.01,1.182.007,1.195Z" transform="translate(-189.979 -363.254)" fill="#ff5740"/>
              <path id="Path_45768" data-name="Path 45768" d="M226.559,407.039l-1.913,1.1c-.05.028-.1.054-.154.081l-.074-13.715-.009-1.706.911,0h1.162Z" transform="translate(-194.039 -377.793)" fill="#ff5740"/>
              <path id="Path_45769" data-name="Path 45769" d="M189,391.638,168.69,391.6c-.335-.536-.13-1.155.608-1.581l2.384-1.376,17.3.031Z" transform="translate(-166.533 -375.745)" fill="#f2f2f2"/>
              <path id="Path_45770" data-name="Path 45770" d="M197.815,392.634H196.9l-2.037,0-2.073,0-1.176,0-23.077-.042a1.209,1.209,0,0,1,.727-1.2l23.519.043,2.07,0,2.954,0v.672l0,.51Z" transform="translate(-166.532 -377.094)" fill="#ff5740"/>
              <path id="Path_45771" data-name="Path 45771" d="M211.2,385.553l-8.05,4.648-9.66-5.577-20.8,12.112-8.1-4.677,20.8-12.112-10.083-5.822,8.05-4.647,10.083,5.822,16.852-9.617,8.1,4.677-16.852,9.617Z" transform="translate(-164.594 -364.441)" fill="#f2f2f2"/>
              <path id="Path_45772" data-name="Path 45772" d="M212.526,387.788l-4.711,2.72-11.34-6.547L175.41,396.208l-4.741-2.737,21.065-12.247-11.763-6.791,4.711-2.72,11.763,6.792,17.724-10.24L218.91,371l-17.724,10.24Z" transform="translate(-167.585 -365.712)" fill="#ff5740"/>
            </g>
          </g>
        </g>
      </g>
    </g>
    <g id="Group_17976" data-name="Group 17976" transform="translate(182.553 63.244)">
      <path id="Path_45774" data-name="Path 45774" d="M364.629,199.718l1.238-.715c.566-.326.5-.9-.158-1.275L337.1,181.21a2.453,2.453,0,0,0-2.208-.091l-1.239.715c-.566.327-.495.9.159,1.275l28.61,16.518A2.454,2.454,0,0,0,364.629,199.718Z" transform="translate(-332.461 -133.346)" fill="#e3ecff"/>
      <g id="Group_17975" data-name="Group 17975">
        <g id="Group_17973" data-name="Group 17973">
          <g id="Group_17972" data-name="Group 17972" style="isolation: isolate">
            <g id="Group_17966" data-name="Group 17966" transform="translate(0.793)">
              <path id="Path_45775" data-name="Path 45775" d="M333.238,88.764l2.328-1.35a1.781,1.781,0,0,1,1.8.177l-2.328,1.35A1.781,1.781,0,0,0,333.238,88.764Z" transform="translate(-333.238 -87.244)" fill="#eff0f2"/>
            </g>
            <g id="Group_17967" data-name="Group 17967" transform="translate(35.883 43.542)">
              <path id="Path_45776" data-name="Path 45776" d="M404.677,174.617l-2.328,1.35a1.764,1.764,0,0,0,.737-1.617l2.328-1.35A1.765,1.765,0,0,1,404.677,174.617Z" transform="translate(-402.349 -173)" fill="#eff0f2"/>
            </g>
            <g id="Group_17968" data-name="Group 17968" transform="translate(36.621 22.933)">
              <path id="Path_45777" data-name="Path 45777" d="M403.859,133.76l2.329-1.35-.059,20.609-2.328,1.35Z" transform="translate(-403.801 -132.41)" fill="#eff0f2"/>
            </g>
            <g id="Group_17969" data-name="Group 17969" transform="translate(2.59 0.347)">
              <path id="Path_45778" data-name="Path 45778" d="M336.776,89.278l2.328-1.35,31.574,18.229-2.328,1.35Z" transform="translate(-336.776 -87.928)" fill="#eff0f2"/>
            </g>
            <g id="Group_17970" data-name="Group 17970" transform="translate(34.164 18.577)">
              <path id="Path_45779" data-name="Path 45779" d="M398.962,125.181l2.328-1.35a5.544,5.544,0,0,1,2.515,4.356l-2.329,1.35A5.542,5.542,0,0,0,398.962,125.181Z" transform="translate(-398.962 -123.831)" fill="#eff0f2"/>
            </g>
            <g id="Group_17971" data-name="Group 17971" transform="translate(0 1.35)">
              <path id="Path_45780" data-name="Path 45780" d="M365.84,108.48a5.542,5.542,0,0,1,2.515,4.356l-.058,20.609c-.005,1.6-1.14,2.246-2.532,1.442l-19.6-11.315-11.2,6.4.026-12.856-.8-.462a5.541,5.541,0,0,1-2.515-4.356l.058-20.609c.005-1.6,1.136-2.249,2.532-1.442Z" transform="translate(-331.676 -89.903)" fill="#ced3de"/>
            </g>
          </g>
        </g>
        <g id="Group_17974" data-name="Group 17974" transform="translate(9.994 23.512)">
          <path id="Path_45781" data-name="Path 45781" d="M354.4,136.377c0,.962-.68,1.349-1.518.865a3.343,3.343,0,0,1-1.518-2.617c0-.962.679-1.349,1.518-.865A3.345,3.345,0,0,1,354.4,136.377Z" transform="translate(-351.36 -133.552)" fill="#6b6cb3"/>
          <path id="Path_45782" data-name="Path 45782" d="M362.8,141.232c0,.962-.679,1.349-1.517.865a3.343,3.343,0,0,1-1.518-2.617c0-.962.679-1.349,1.518-.865A3.344,3.344,0,0,1,362.8,141.232Z" transform="translate(-355.499 -135.941)" fill="#6b6cb3"/>
          <path id="Path_45783" data-name="Path 45783" d="M371.213,146.087c0,.962-.679,1.349-1.517.865a3.343,3.343,0,0,1-1.518-2.617c0-.962.679-1.349,1.518-.865A3.344,3.344,0,0,1,371.213,146.087Z" transform="translate(-359.639 -138.331)" fill="#6b6cb3"/>
          <path id="Path_45784" data-name="Path 45784" d="M379.622,150.942c0,.962-.679,1.349-1.517.865a3.344,3.344,0,0,1-1.518-2.618c0-.962.679-1.349,1.518-.865A3.342,3.342,0,0,1,379.622,150.942Z" transform="translate(-363.778 -140.721)" fill="#6b6cb3"/>
        </g>
      </g>
    </g>
    <g id="Group_17986" data-name="Group 17986" transform="translate(155.229 38.49)">
      <g id="Group_17985" data-name="Group 17985" transform="translate(0 0)">
        <g id="Group_17984" data-name="Group 17984" style="isolation: isolate">
          <g id="Group_17977" data-name="Group 17977" transform="translate(0.574)">
            <path id="Path_45785" data-name="Path 45785" d="M278.992,39.59l1.685-.977a1.289,1.289,0,0,1,1.3.128l-1.685.977A1.289,1.289,0,0,0,278.992,39.59Z" transform="translate(-278.992 -38.49)" fill="#ffea00"/>
          </g>
          <g id="Group_17978" data-name="Group 17978" transform="translate(18.89 27.471)">
            <path id="Path_45786" data-name="Path 45786" d="M316.75,93.765l-1.685.977a1.275,1.275,0,0,0,.533-1.17l1.685-.977A1.277,1.277,0,0,1,316.75,93.765Z" transform="translate(-315.065 -92.595)" fill="#ff8c00"/>
          </g>
          <g id="Group_17979" data-name="Group 17979" transform="translate(19.423 12.561)">
            <path id="Path_45787" data-name="Path 45787" d="M316.158,64.206l1.684-.977-.042,14.91-1.685.977Z" transform="translate(-316.115 -63.229)" fill="#ff8c00"/>
          </g>
          <g id="Group_17980" data-name="Group 17980" transform="translate(1.874 0.251)">
            <path id="Path_45788" data-name="Path 45788" d="M281.552,39.962l1.685-.977,15.772,9.158-1.685.977Z" transform="translate(-281.552 -38.985)" fill="#ffea00"/>
          </g>
          <g id="Group_17981" data-name="Group 17981" transform="translate(17.646 9.409)">
            <path id="Path_45789" data-name="Path 45789" d="M312.615,58l1.685-.977a4.012,4.012,0,0,1,1.819,3.152l-1.685.977A4.01,4.01,0,0,0,312.615,58Z" transform="translate(-312.615 -57.022)" fill="#ffea00"/>
          </g>
          <g id="Group_17982" data-name="Group 17982" transform="translate(0 0.977)">
            <path id="Path_45790" data-name="Path 45790" d="M295.507,49.823a4.01,4.01,0,0,1,1.82,3.152l-.043,14.91c0,1.157-.825,1.625-1.831,1.044l-15.772-9.158a4.011,4.011,0,0,1-1.82-3.152l.042-14.911c0-1.16.822-1.627,1.832-1.043Z" transform="translate(-277.861 -40.414)" fill="#ffc400"/>
          </g>
          <g id="Group_17983" data-name="Group 17983" transform="translate(2.067 5.319)">
            <path id="Path_45791" data-name="Path 45791" d="M297.368,59.776,282.4,51.134a1.124,1.124,0,0,1-.469-.9v-.862c0-.345.21-.5.469-.354l14.968,8.642a1.124,1.124,0,0,1,.469.9v.862C297.837,59.767,297.628,59.926,297.368,59.776Z" transform="translate(-281.931 -48.965)" fill="#fff"/>
            <path id="Path_45792" data-name="Path 45792" d="M297.368,66.227,282.4,57.585a1.125,1.125,0,0,1-.469-.9v-.862c0-.345.21-.5.469-.354l14.968,8.642a1.123,1.123,0,0,1,.469.9v.861C297.837,66.218,297.628,66.376,297.368,66.227Z" transform="translate(-281.931 -52.141)" fill="#fff"/>
            <path id="Path_45793" data-name="Path 45793" d="M297.368,72.678,282.4,64.035a1.123,1.123,0,0,1-.469-.9v-.862c0-.345.21-.5.469-.355l14.968,8.642a1.121,1.121,0,0,1,.469.9v.862C297.837,72.668,297.628,72.827,297.368,72.678Z" transform="translate(-281.931 -55.316)" fill="#fff"/>
            <path id="Path_45794" data-name="Path 45794" d="M297.368,79.128,282.4,70.486a1.124,1.124,0,0,1-.469-.9v-.861c0-.346.21-.5.469-.355l14.968,8.642a1.123,1.123,0,0,1,.469.9v.862C297.837,79.119,297.628,79.278,297.368,79.128Z" transform="translate(-281.931 -58.491)" fill="#fff"/>
          </g>
        </g>
      </g>
    </g>
  </g>
</svg>
