<svg xmlns="http://www.w3.org/2000/svg" width="274.313" height="161.189" viewBox="0 0 274.313 161.189">
  <g id="Group_17866" data-name="Group 17866" transform="translate(-569.883 271.266)">
    <g id="Group_17835" data-name="Group 17835" transform="translate(661.736 -267.116)" opacity="0.4">
      <path id="Path_45446" data-name="Path 45446" d="M1009.624-130.38a101.919,101.919,0,0,1,49.7-54.157c6.376-3.121,13.275-5.6,20.373-5.483s14.447,3.221,18.228,9.23c3.044,4.837,5.188,15.31,1.755,25.091-5.97,17-27,25.951-44.884,23.727" transform="translate(-919.509 219.557)" fill="none" stroke="#659feb" stroke-linecap="round" stroke-linejoin="round" stroke-width="1.046" stroke-dasharray="8.972"/>
      <path id="Path_45447" data-name="Path 45447" d="M1022.118-113.1c12.066-19.96,28.829-38.333,50.874-45.952,4.222-1.459,8.689-2.512,13.133-2.062s8.885,2.6,11.254,6.386c2.32,3.709,2.37,8.462,1.288,12.7-1.909,7.478-7.033,13.843-13.2,18.482s-13.357,7.715-20.6,10.386" transform="translate(-926.838 202.66)" fill="#659feb" stroke="#659feb" stroke-linecap="round" stroke-linejoin="round" stroke-width="1.046" stroke-dasharray="8.972"/>
      <path id="Path_45448" data-name="Path 45448" d="M974.958,12.162c4.736,26.076,26.576,31.819,44.129,31.5,5.638-.1,11.479-1.463,15.779-5.112,6.652-5.647,8.1-15.146,11.826-23.038,4.951-10.5,11.482-20.525,22.671-23.609" transform="translate(-899.174 112.84)" fill="none" stroke="#659feb" stroke-linecap="round" stroke-linejoin="round" stroke-width="1.046" stroke-dasharray="8.972"/>
      <path id="Path_45449" data-name="Path 45449" d="M893.5-171.506a.784.784,0,0,1-1.025.746c-4.483-13.481-3.81-28.033-4.487-42.223s-3.136-29.184-12.452-39.91c-3.957-4.555-9.368-8.251-15.395-8.551s-12.45,3.673-13.464,9.621a28.761,28.761,0,0,0,.174,6.911,35.507,35.507,0,0,1-1.289,12.385,7.563,7.563,0,0,1-1.875,3.589c-2.684,2.471-7.092.63-10.578,1.705a9.336,9.336,0,0,0-5.238,5.029,20.293,20.293,0,0,0-1.129,13.91,35.045,35.045,0,0,0,6.51,12.569,55.935,55.935,0,0,0,34.695,20.784" transform="translate(-811.811 261.459)" fill="#659feb" stroke="#659feb" stroke-linecap="round" stroke-linejoin="round" stroke-width="1.046" stroke-dasharray="8.972"/>
      <path id="Path_45450" data-name="Path 45450" d="M834.69-195.449c-8.045-.689-15.875,5.039-18.713,12.6s-1.115,16.374,3.407,23.063,11.555,11.395,19.1,14.282" transform="translate(-805.107 222.771)" fill="none" stroke="#659feb" stroke-linecap="round" stroke-linejoin="round" stroke-width="1.046" stroke-dasharray="8.972"/>
      <path id="Path_45451" data-name="Path 45451" d="M845.088-68.385c-7.725-1.987-20.59,2.292-28.563,2.543s-16.176,2.87-21.643,8.679c-2.448,2.6-4.31,6.559-2.534,9.658a7.575,7.575,0,0,0,2.854,2.65c6.115,3.562,13.835,2.107,20.748,3.619,2.886.632,5.991,2.158,6.769,5.008.979,3.591-2.235,7.416-1.055,10.946a6.1,6.1,0,0,0,4.776,3.739,13.707,13.707,0,0,0,6.273-.637,28.412,28.412,0,0,0,12.674-7.32,18.85,18.85,0,0,0,5.449-13.348c-.123-3.746,12.774-23.345,11.167-26.732" transform="translate(-791.645 148.906)" fill="#659feb" stroke="#659feb" stroke-linecap="round" stroke-linejoin="round" stroke-width="1.046" stroke-dasharray="8.972"/>
      <path id="Path_45452" data-name="Path 45452" d="M856.643-14.1c.625,4.913-6.213,14.717-4.2,19.243,1.789,4.025,6.42,6.084,10.81,6.446,8.672.715,17.239-3.95,22.6-10.8s7.83-15.612,8.463-24.291" transform="translate(-827.089 121.878)" fill="none" stroke="#659feb" stroke-linecap="round" stroke-linejoin="round" stroke-width="1.046" stroke-dasharray="8.972"/>
      <path id="Path_45453" data-name="Path 45453" d="M956.22-60.636c2.268,5.691,13.579,43.182,16.683,48.463a38.415,38.415,0,0,0,7.111,9.346c3.223,2.893,7.193,4.8,11.179,6.5,5.645,2.4,12.332,4.394,17.685,1.4,4.619-2.583,6.751-8.3,6.552-13.586s-7.376-48.69-9.455-53.555" transform="translate(-888.183 144.499)" fill="#659feb" stroke="#659feb" stroke-linecap="round" stroke-linejoin="round" stroke-width="1.046" stroke-dasharray="8.972"/>
      <path id="Path_45454" data-name="Path 45454" d="M1035.015-144.811c2.784-5.15,5.595-10.373,6.973-16.063s1.182-12-1.808-17.029a6.7,6.7,0,0,0-2.354-2.548,3.078,3.078,0,0,0-3.312.074,4.763,4.763,0,0,0-1.357,2.468l-2.12,6.83a3.022,3.022,0,0,1-.644,1.292c-.8.792-2.194.448-3.046-.284s-1.407-1.76-2.26-2.489c-2.228-1.9-5.914-1.073-7.838,1.136s3.143,39.489,3.251,42.416" transform="translate(-923.726 214.202)" fill="#659feb" stroke="#659feb" stroke-linecap="round" stroke-linejoin="round" stroke-width="1.046" stroke-dasharray="8.972"/>
    </g>
    <g id="Group_17862" data-name="Group 17862" transform="translate(570.179 -271.102)">
      <g id="Group_17836" data-name="Group 17836" transform="translate(84.073 23.893)">
        <path id="Path_45455" data-name="Path 45455" d="M776.578-192.278c14.746,11.719,40.046-6.757,40.046-6.757l5.2-4.481c6.3-2.8,8.376-4.987,8.376-4.987l-4.092,1.882,4.882-3.858c.13-.106-.442-.027-.59.049l-4.569,2.377,4.7-4.178a.118.118,0,0,0-.136-.192l-5.605,3.095s4.419-4.087,3.717-3.977-6.516,4.166-6.516,4.166,2.4-3.9,1.675-3.693c-.472.136-2.314,2.495-3.548,4.132-.795,1.054-.572,1.413-1.724,2.086l-8.367,4.956c-7.022,4.307-19.482,7.588-28.848-.153,0,0-3.574-1.88-6.649,1.9S776.578-192.278,776.578-192.278Z" transform="translate(-773.543 213.307)" fill="#ffa47a" stroke="#ffa47a" stroke-linecap="round" stroke-linejoin="round" stroke-width="1.476"/>
        <path id="Path_45456" data-name="Path 45456" d="M798.183-182.022c-5.617.759-10.069-.943-17.009-4.14,0,0-3.574-1.88-6.649,1.9s2.053,7.631,2.053,7.631c4.961,3.943,8.244,5.835,14.228,4.8Z" transform="translate(-773.543 197.659)" fill="#ff7f4d" stroke="#ff7f4d" stroke-miterlimit="10" stroke-width="0.595"/>
        <path id="Path_45457" data-name="Path 45457" d="M824.432-175.557l-2.972,8.836a23.379,23.379,0,0,1-3.721.528Z" transform="translate(-799.468 191.163)" fill="#cf5540"/>
        <path id="Path_45458" data-name="Path 45458" d="M881.74-198.795c.247.4.439,1.046.172,1.213s-.894-.21-1.142-.606" transform="translate(-836.441 204.795)" fill="#cf5540"/>
        <path id="Path_45459" data-name="Path 45459" d="M892.074-207.538s-.662,1.885-.656,1.829l2.629-3.129Z" transform="translate(-842.687 210.685)" fill="#cf5540"/>
      </g>
      <g id="Group_17849" data-name="Group 17849">
        <g id="Group_17837" data-name="Group 17837" transform="translate(77.115)">
          <path id="Path_45460" data-name="Path 45460" d="M762.7-270.236c4.384,1.367,15.332,16.153,15.332,16.153a12.752,12.752,0,0,1,3.8,6.543c.181.934-.451,3.684-1.194,4.261l-14.582,11.844s-11.737-4.16-8.906-13.218,5.227-7.123,3.833-12.31S762.7-270.236,762.7-270.236Z" transform="translate(-756.711 270.594)" fill="#00043b"/>
          <path id="Path_45461" data-name="Path 45461" d="M791.21-249c-1.472-3.894-2.377-6.391-4.872-9.722-5.453-7.282-5.1-6.592-12.112-12.383" transform="translate(-766.985 271.102)" fill="none" stroke="#00043b" stroke-miterlimit="10" stroke-width="0.426"/>
        </g>
        <g id="Group_17838" data-name="Group 17838" transform="translate(85.606 18.433)">
          <path id="Path_45462" data-name="Path 45462" d="M783.649-217.542a.2.2,0,0,1-.3,0,1.574,1.574,0,0,0-2.294-.357c-1.1.849.088,2.341.407,3.04a10,10,0,0,1-.268,6.676c-.781,1.841-3.942,5.106-3.942,5.106s4.326,4.838,7.495,2.723c0,0,.314-6.816,1.358-8.163.022-.029,2.714,1.586,5.763-2.986,2.874-4.308.029-7-.661-7.553C790.624-219.523,787.961-222.055,783.649-217.542Z" transform="translate(-777.25 222.802)" fill="#ffa47a"/>
          <path id="Path_45463" data-name="Path 45463" d="M789.631-178.891c-.1.008-4.441,2.127-4.441,2.127s2,2.035,4.212.633Z" transform="translate(-781.907 198.579)" fill="#cf5540"/>
          <path id="Path_45464" data-name="Path 45464" d="M806.774-198.507l-2.425-1.354s-.044,1.5.726,1.773A2.191,2.191,0,0,0,806.774-198.507Z" transform="translate(-793.146 210.88)" fill="#fff"/>
          <path id="Path_45465" data-name="Path 45465" d="M788.944-212.774a.963.963,0,0,0-1.267-.162,1.029,1.029,0,0,0,.08,1.327" transform="translate(-783.245 218.653)" fill="#cf5540"/>
          <path id="Path_45466" data-name="Path 45466" d="M808.8-201.651l-.813,1.151.669.3a.178.178,0,0,0,.249-.177Z" transform="translate(-795.278 211.93)" fill="#cf5540"/>
          <path id="Path_45467" data-name="Path 45467" d="M800.91-220.676s-7.015,1.485-9.807-.579,4.407-7.474,7.091-4.266S800.91-220.676,800.91-220.676Z" transform="translate(-785.005 226.514)" fill="#00043b"/>
          <path id="Path_45468" data-name="Path 45468" d="M794.859-195.677a5.758,5.758,0,0,1-2.449-2.5c-.49-.99-.489,3.812,1.672,4.943C794.082-193.234,794.468-194.536,794.859-195.677Z" transform="translate(-785.987 209.971)" fill="#cf5540"/>
          <path id="Path_45469" data-name="Path 45469" d="M807.6-208.776c-.307.036.411-.476.759-.393a.608.608,0,0,1,.5.692A1.9,1.9,0,0,0,807.6-208.776Z" transform="translate(-795.008 216.345)" fill="#00043b"/>
          <path id="Path_45470" data-name="Path 45470" d="M814.235-206.04a.633.633,0,0,0-.875-.01,1.874,1.874,0,0,1,.748.524" transform="translate(-798.432 214.61)" fill="#00043b"/>
          <path id="Path_45471" data-name="Path 45471" d="M807.51-203.916c-.108.224-.107.447,0,.5s.284-.086.392-.31.107-.448,0-.5S807.617-204.14,807.51-203.916Z" transform="translate(-794.953 213.447)" fill="#00043b"/>
          <path id="Path_45472" data-name="Path 45472" d="M811.242-202.089c-.1.214-.1.427,0,.477s.271-.083.374-.3.1-.427,0-.477S811.345-202.3,811.242-202.089Z" transform="translate(-797.144 212.367)" fill="#00043b"/>
          <path id="Path_45473" data-name="Path 45473" d="M797.073-204.5a1.349,1.349,0,0,0,.886,1.69,1.35,1.35,0,0,0,1.69-.887,1.35,1.35,0,0,0-.886-1.69A1.349,1.349,0,0,0,797.073-204.5Z" transform="translate(-788.842 214.157)" fill="#e8632e" stroke="#e8632e" stroke-miterlimit="10" stroke-width="0.318" opacity="0.37"/>
          <path id="Path_45474" data-name="Path 45474" d="M789.81-217.833c.595.645,1.112,1.358,1.722,1.989a4.839,4.839,0,0,0,2.184,1.406,5.815,5.815,0,0,0,2.415-.026,8.96,8.96,0,0,0,4.851-2.051" transform="translate(-784.618 221.422)" fill="none" stroke="#00043b" stroke-miterlimit="10" stroke-width="0.349"/>
        </g>
        <g id="Group_17839" data-name="Group 17839" transform="translate(14.212 30.187)">
          <path id="Path_45475" data-name="Path 45475" d="M620.341-181.6c-.495-3.266-.786-11.337-.786-11.337l-13.984.757c1.779.861,8.029,4.746,8.029,4.746l1.1,6.224S620.346-181.655,620.341-181.6Z" transform="translate(-605.152 195.063)" fill="#ffa47a"/>
          <path id="Path_45476" data-name="Path 45476" d="M612.968-190.459l-8.178-4.574a.443.443,0,0,1,.135-.826c3.39-.523,12.535-1.872,14.94-2.219a.438.438,0,0,1,.492.508c-.257,1.629-.606,6.149-.832,7.472-.036.21-2.717-3.129-3.655-2.588C615.064-192.219,613.039-190.48,612.968-190.459Z" transform="translate(-604.557 198.082)" fill="#659feb" stroke="#659feb" stroke-miterlimit="10" stroke-width="0.318"/>
          <path id="Path_45477" data-name="Path 45477" d="M621.4-184.768l1.288-1.731a.928.928,0,0,0-.191-1.3h0a.928.928,0,0,0-1.3.19l-1.446,1.943" transform="translate(-613.467 192.158)" fill="none" stroke="#f8f1ee" stroke-miterlimit="10" stroke-width="0.724"/>
          <path id="Path_45478" data-name="Path 45478" d="M634.99-180.252c.088,1.955.215,3.907.215,3.907l2.439-.116-.314-5.48s-2-2.26-2.316-2.236a17.186,17.186,0,0,0-.024,3.925" transform="translate(-622.362 189.925)" fill="#cf5540"/>
        </g>
        <g id="Group_17840" data-name="Group 17840" transform="translate(0 60.754)">
          <path id="Path_45479" data-name="Path 45479" d="M590.063-114.425c-2.17-2.158-4.314-8.732-4.314-8.732s-14.837,4.4-14.7,4.447,9,3.364,9,3.364l5.43,4.07S589.588-114.185,590.063-114.425Z" transform="translate(-570.686 123.565)" fill="#ffa47a" stroke="#ffa47a" stroke-miterlimit="10" stroke-width="1.303"/>
          <path id="Path_45480" data-name="Path 45480" d="M579.28-115.691l-8.812-3.285a.443.443,0,0,1,.017-.837c3.282-1,12.141-3.635,14.473-4.32.283-.083.8.372.883.658a45.427,45.427,0,0,0,2.062,5.529c.1.188-5.28-.95-6.132-.281C581.04-117.652,579.529-115.55,579.28-115.691Z" transform="translate(-570.179 124.144)" fill="#659feb" stroke="#659feb" stroke-miterlimit="10" stroke-width="0.318"/>
          <path id="Path_45481" data-name="Path 45481" d="M588.013-109.585l.881-2.2A.927.927,0,0,0,588.38-113h0a.928.928,0,0,0-1.207.514l-.906,2.246" transform="translate(-579.615 117.645)" fill="none" stroke="#f8f1ee" stroke-miterlimit="10" stroke-width="0.724"/>
          <path id="Path_45482" data-name="Path 45482" d="M599.152-102.261l-5.665-4.575-1.294,1.3,5.774,4.183Z" transform="translate(-583.093 113.991)" fill="#cf5540"/>
        </g>
        <g id="Group_17846" data-name="Group 17846" transform="translate(14.873 42.757)">
          <g id="Group_17843" data-name="Group 17843" transform="translate(8.275)">
            <g id="Group_17841" data-name="Group 17841">
              <path id="Path_45483" data-name="Path 45483" d="M677.191-151.34c1.792.687,3.082,2.187,3.727,5.266s3.707-1.918,3.633,1.174c-1.2.668-7.753,9.111-10.016,10.051-10.034,4.168-17.672,5.96-27.435,3.988-9.548-1.929-15-12.824-17.776-20.028-2.188-5.676-2.153-10.31-3.151-16.1.29-.672,5.94-.828,6.247-.567,3.849,11.942,9.181,18.59,16.432,19.966,6.775,1.286,11.588.229,16.523-1.359C665.375-148.95,670.916-153.744,677.191-151.34Z" transform="translate(-626.172 167.677)" fill="#365185" stroke="#365185" stroke-miterlimit="10" stroke-width="0.302"/>
            </g>
            <g id="Group_17842" data-name="Group 17842" transform="translate(22.679 15.662)" opacity="0.43" style="mix-blend-mode: multiply;isolation: isolate">
              <path id="Path_45484" data-name="Path 45484" d="M681.031-125.368c6.775,1.286,11.587.229,16.523-1.359,0,0,5.541-4.794,11.816-2.39,1.792.687,3.082,2.187,3.727,5.266s3.526-1.593,3.452,1.5c-1.2.668-7.573,8.787-9.835,9.728" transform="translate(-681.031 129.792)" fill="#365185"/>
            </g>
          </g>
          <g id="Group_17845" data-name="Group 17845" transform="translate(0 14.414)">
            <g id="Group_17844" data-name="Group 17844">
              <path id="Path_45485" data-name="Path 45485" d="M672.223-125.6c-3.139-2.905-9.112-7.515-9.617-7.2-5.395.648-10.642,4.862-13.064,9.485a12.036,12.036,0,0,1-1.7,2.465,29.693,29.693,0,0,1-12.185,8.542c-6.888,2.648-15.283.252-24.844-7.873-1.055,1.117-4.76,2.86-4.653,3.584,3.9,4.4,6.31,8.1,11.16,11.768,6.156,4.662,16.525,11.054,25.658,7.666a45.039,45.039,0,0,0,20.453-15.136Z" transform="translate(-606.155 132.811)" fill="#4465a6" stroke="#4465a6" stroke-miterlimit="10" stroke-width="0.302"/>
            </g>
            <path id="Path_45486" data-name="Path 45486" d="M662.853-88.331S635.369-61.5,607.1-94.261a48.532,48.532,0,0,0,20.016,17.6C627.779-77.12,641.762-65.007,662.853-88.331Z" transform="translate(-606.708 110.198)" fill="#4465a6" opacity="0.5" style="mix-blend-mode: multiply;isolation: isolate"/>
          </g>
        </g>
        <g id="Group_17847" data-name="Group 17847" transform="translate(71.204 34.974)">
          <path id="Path_45487" data-name="Path 45487" d="M764.507-182.773c.2.376,1.541,10.119-.351,13.4-1.268,2.2-8.42,8.755-11.62,12.776a76.361,76.361,0,0,1-10.123-7.517c1.012-3.8,4.432-18.518,11.417-22.39a39.463,39.463,0,0,1,4.349,1.215S761.98-178.853,764.507-182.773Z" transform="translate(-742.413 186.504)" fill="#ffa47a" stroke="#ffa47a" stroke-linecap="round" stroke-linejoin="round" stroke-width="1.476"/>
          <path id="Path_45488" data-name="Path 45488" d="M742.714-137.628l-.294,1.158,7.9,6.929Z" transform="translate(-742.417 157.834)" fill="#cf5540"/>
        </g>
        <g id="Group_17848" data-name="Group 17848" transform="translate(70.482 34.974)">
          <path id="Path_45489" data-name="Path 45489" d="M763.483-182.773c.2.376,1.541,10.119-.351,13.4-1.268,2.2-8.42,8.755-11.62,12.776,0,0-1.991-1.326-10.844-11.236,1.013-3.8,5.154-14.8,12.139-18.67a39.467,39.467,0,0,1,4.349,1.215S760.956-178.853,763.483-182.773Z" transform="translate(-740.668 186.504)" fill="#f8f1ee" stroke="#f8f1ee" stroke-miterlimit="10" stroke-width="1.476"/>
          <path id="Path_45490" data-name="Path 45490" d="M751.512-156.6s-1.991-1.326-10.844-11.236c1.013-3.8,5.154-14.8,12.139-18.67a39.467,39.467,0,0,1,4.349,1.215" transform="translate(-740.668 186.504)" fill="#f8f1ee" stroke="#f8f1ee" stroke-linecap="round" stroke-linejoin="round" stroke-width="1.476" style="mix-blend-mode: multiply;isolation: isolate"/>
        </g>
      </g>
      <g id="Group_17850" data-name="Group 17850" transform="translate(101.165 18.845)">
        <path id="Path_45491" data-name="Path 45491" d="M946.141-67.24l57.633,24.834a4.957,4.957,0,0,0,6.287-2.2l36.915-68.949c1.463-2.692,1.4-5.762-1.5-6.762,0,0-12.536-11.368-34.608-17.764-6.4-1.853-27.135-3.667-27.135-3.667Z" transform="translate(-891.879 176.378)" fill="none" stroke="#f8f1ee" stroke-linecap="round" stroke-linejoin="round" stroke-width="1.061"/>
        <path id="Path_45492" data-name="Path 45492" d="M871.73-115.321l-54.436-31.8a4.96,4.96,0,0,1-1.927-6.38l32.506-69.49c1.315-2.769,4.439-3,7.317-1.941,9.071,3.326,17.134,1.621,35.312,15.707,5.267,4.081,18.952,19.789,18.952,19.789Z" transform="translate(-814.887 225.518)" fill="none" stroke="#f8f1ee" stroke-linecap="round" stroke-linejoin="round" stroke-width="1.061"/>
      </g>
      <g id="Group_17851" data-name="Group 17851" transform="translate(102.988 20.883)">
        <path id="Path_45493" data-name="Path 45493" d="M969.261-165.55s-12.058-10.935-33.289-17.087c-5.888-1.706-24.412-3.377-25.991-3.517-1.694-1.934-13.314-15.142-18-18.775-17.473-13.539-25.223-11.9-33.942-15.1-2.766-1.015-5.769-.8-7.032,1.866l-31.246,66.794a4.768,4.768,0,0,0,1.852,6.133l52.217,30.507.069.007,55.251,24.109a4.768,4.768,0,0,0,6.047-2.114l35.508-66.32C972.109-161.635,972.045-164.588,969.261-165.55Z" transform="translate(-819.297 220.587)" fill="#2e4470" stroke="#2e4470" stroke-miterlimit="10" stroke-width="0.302"/>
        <path id="Path_45494" data-name="Path 45494" d="M943.581-70.673l5.943,3.1,36.856-72.566a9.532,9.532,0,0,1-6.015-2.719Z" transform="translate(-892.2 174.992)" fill="#1d2b47" stroke="#1d2b47" stroke-miterlimit="10" stroke-width="0.302"/>
        <path id="Path_45495" data-name="Path 45495" d="M972.139-157.926S947.264-175.887,916-179.418c-21.245-23.066-50.266-32.552-50.266-32.552l-34.7,67.434c6.939,1.872,44.853,27.578,50.513,32.142l-.061.122c.067.006.154.018.251.033a4.609,4.609,0,0,1,.463.421l.156-.3c5.48,1.163,30.643,8.845,55.7,21.946Z" transform="translate(-826.185 215.532)" fill="#cfb2a3"/>
      </g>
      <g id="Group_17860" data-name="Group 17860" transform="translate(110.891 26.392)">
        <g id="Group_17853" data-name="Group 17853" transform="translate(64.55 4.196)">
          <path id="Path_45496" data-name="Path 45496" d="M994.555-184.383s3.331-9.811,10.245-12.681a.632.632,0,0,1,.874.523l.2,2.205,2.609.353a.625.625,0,0,1,.347,1.076c-2.57,2.408-9.408,9.462-9.214,12.077Z" transform="translate(-994.555 197.114)" fill="#ff7f4d" stroke="#ff7f4d" stroke-miterlimit="10" stroke-width="0.595"/>
          <g id="Group_17852" data-name="Group 17852" transform="translate(1.172 2.144)" opacity="0.76">
            <path id="Path_45497" data-name="Path 45497" d="M997.39-177.744c.172-.412.287-.845.43-1.269a20.175,20.175,0,0,1,4.336-6.61" transform="translate(-997.39 188.229)" fill="none" stroke="#f2fcf9" stroke-miterlimit="10" stroke-width="0.769"/>
            <path id="Path_45498" data-name="Path 45498" d="M1012.3-190.989l1.109-.939" transform="translate(-1006.138 191.928)" fill="none" stroke="#f2fcf9" stroke-miterlimit="10" stroke-width="0.769"/>
          </g>
        </g>
        <path id="Path_45499" data-name="Path 45499" d="M871.273-206.7c4.761-1.2,4.894-.26,9.65.964a44.526,44.526,0,0,1,12.374,4.977,65,65,0,0,1,11.88,8.657c5.229,5.1,9.934,9.8,14.816,15.23L885.716-110.9s-32.458-38.952-47.3-31.709Z" transform="translate(-838.414 207.262)" fill="#f8f1ee" stroke="#f8f1ee" stroke-linecap="round" stroke-linejoin="round" stroke-width="0.598"/>
        <g id="Group_17854" data-name="Group 17854" transform="translate(0.269 53.176)">
          <path id="Path_45500" data-name="Path 45500" d="M1009.656,44.285A107.666,107.666,0,0,0,961.5,27.511" transform="translate(-910.886 16.371)" fill="none" stroke="#f8f1ee" stroke-linecap="round" stroke-linejoin="round" stroke-width="0.598"/>
          <path id="Path_45501" data-name="Path 45501" d="M954.541,28.2c17.515,3.512,38.272,10.847,53.741,19.783" transform="translate(-906.802 15.969)" fill="none" stroke="#f8f1ee" stroke-linecap="round" stroke-linejoin="round" stroke-width="0.598"/>
          <path id="Path_45502" data-name="Path 45502" d="M843.438-50.81a29.589,29.589,0,0,1,9.124,3.374A118.157,118.157,0,0,1,884.9-22.764" transform="translate(-841.63 62.313)" fill="none" stroke="#f8f1ee" stroke-linecap="round" stroke-linejoin="round" stroke-width="0.598"/>
          <path id="Path_45503" data-name="Path 45503" d="M839.065-49.867c16.572,7.24,34.976,20.213,48.115,32.64" transform="translate(-839.065 61.76)" fill="none" stroke="#f8f1ee" stroke-linecap="round" stroke-linejoin="round" stroke-width="0.598"/>
          <path id="Path_45504" data-name="Path 45504" d="M1130.933-78.635Q1118-54.228,1105.059-29.822" transform="translate(-995.094 78.635)" fill="none" stroke="#f8f1ee" stroke-linecap="round" stroke-linejoin="round" stroke-width="0.598"/>
        </g>
        <path id="Path_45505" data-name="Path 45505" d="M1040.381-111.97c-1.829-4.558-2.671-4.108-6.461-7.232a44.492,44.492,0,0,0-11.309-7.072,65.011,65.011,0,0,0-13.992-4.505c-7.2-1.226-13.715-2.037-20.98-2.785L953-67.256s52.5,4.735,55.383,21Z" transform="translate(-905.631 164.032)" fill="#f8f1ee" stroke="#f8f1ee" stroke-linecap="round" stroke-linejoin="round" stroke-width="0.598"/>
        <g id="Group_17859" data-name="Group 17859" transform="translate(12.352 8.068)">
          <g id="Group_17855" data-name="Group 17855" transform="translate(0 21.885)">
            <path id="Path_45506" data-name="Path 45506" d="M937.193-133.412s-20.558,33.834-32.2,38.52c-16.058,6.462-36.7-3.669-36.7-3.669s31.48,20.291,34.95,30.986Z" transform="translate(-868.293 133.99)" fill="#e0cfc8" opacity="0.42"/>
            <path id="Path_45507" data-name="Path 45507" d="M997.011-134.81S982.435-98,985.724-85.888c4.537,16.705,25.069,27.05,25.069,27.05S975.618-71.7,965-68.011Z" transform="translate(-925.018 134.81)" fill="#e0cfc8" opacity="0.42"/>
          </g>
          <g id="Group_17858" data-name="Group 17858" transform="translate(8.524)" opacity="0.46">
            <g id="Group_17856" data-name="Group 17856">
              <path id="Path_45508" data-name="Path 45508" d="M922.468-187.747l7.5,2.736" transform="translate(-908.595 187.747)" fill="none" stroke="#659feb" stroke-miterlimit="10" stroke-width="2.121"/>
              <path id="Path_45509" data-name="Path 45509" d="M950.315-175.215a83.881,83.881,0,0,1,27.19,21.538" transform="translate(-924.93 180.396)" fill="none" stroke="#659feb" stroke-miterlimit="10" stroke-width="2.121"/>
              <path id="Path_45510" data-name="Path 45510" d="M911.147-167.846A40.568,40.568,0,0,1,935.974-155.4" transform="translate(-901.954 176.073)" fill="none" stroke="#659feb" stroke-miterlimit="10" stroke-width="2.121"/>
              <path id="Path_45511" data-name="Path 45511" d="M981.834-125.941l9.261,7.534" transform="translate(-943.419 151.492)" fill="none" stroke="#659feb" stroke-miterlimit="10" stroke-width="2.121"/>
              <path id="Path_45512" data-name="Path 45512" d="M895.474-124.811a89.228,89.228,0,0,1,32.4,19.11c2.6,2.4,5.051,4.955,7.5,7.508" transform="translate(-892.761 150.829)" fill="none" stroke="#659feb" stroke-miterlimit="10" stroke-width="2.121"/>
              <path id="Path_45513" data-name="Path 45513" d="M888.911-106.948a67.129,67.129,0,0,1,12.593,6.385" transform="translate(-888.911 140.351)" fill="none" stroke="#659feb" stroke-miterlimit="10" stroke-width="2.121"/>
              <path id="Path_45514" data-name="Path 45514" d="M932.42-80.52l18.064,14.367" transform="translate(-914.433 124.849)" fill="none" stroke="#659feb" stroke-miterlimit="10" stroke-width="2.121"/>
              <path id="Path_45515" data-name="Path 45515" d="M901.7-54.964c2.838.726,5.813,2.928,7.977,4.9" transform="translate(-896.412 109.858)" fill="none" stroke="#659feb" stroke-miterlimit="10" stroke-width="2.121"/>
              <path id="Path_45516" data-name="Path 45516" d="M927.469-36.438l10.466,10.12" transform="translate(-911.529 98.991)" fill="none" stroke="#659feb" stroke-miterlimit="10" stroke-width="2.121"/>
            </g>
            <g id="Group_17857" data-name="Group 17857" transform="translate(47.763 31.505)">
              <path id="Path_45517" data-name="Path 45517" d="M1046.979-111.54a48.209,48.209,0,0,1,8.945,2.135" transform="translate(-1029.395 111.54)" fill="none" stroke="#659feb" stroke-miterlimit="10" stroke-width="2.121"/>
              <path id="Path_45518" data-name="Path 45518" d="M1081.785-102.18a63.509,63.509,0,0,1,24.846,12.4" transform="translate(-1049.812 106.05)" fill="none" stroke="#659feb" stroke-miterlimit="10" stroke-width="2.121"/>
              <path id="Path_45519" data-name="Path 45519" d="M1037.478-89.9a39,39,0,0,1,17.622,5.689" transform="translate(-1023.822 98.849)" fill="none" stroke="#659feb" stroke-miterlimit="10" stroke-width="2.121"/>
              <path id="Path_45520" data-name="Path 45520" d="M1095.2-70.252a131.575,131.575,0,0,1,16.914,9.138" transform="translate(-1057.68 87.321)" fill="none" stroke="#659feb" stroke-miterlimit="10" stroke-width="2.121"/>
              <path id="Path_45521" data-name="Path 45521" d="M1024.155-64.53l8.755,3.07" transform="translate(-1016.007 83.964)" fill="none" stroke="#659feb" stroke-miterlimit="10" stroke-width="2.121"/>
              <path id="Path_45522" data-name="Path 45522" d="M1053.2-53.3a11.326,11.326,0,0,0,3.7,1.59" transform="translate(-1033.046 77.376)" fill="none" stroke="#659feb" stroke-miterlimit="10" stroke-width="2.121"/>
              <path id="Path_45523" data-name="Path 45523" d="M1004.445-28.883A92.629,92.629,0,0,1,1043.875-11" transform="translate(-1004.445 63.054)" fill="none" stroke="#659feb" stroke-miterlimit="10" stroke-width="2.121"/>
              <path id="Path_45524" data-name="Path 45524" d="M1030.861-1.553c2.952-.255,6.829,2.51,9.308,4.133" transform="translate(-1019.94 47.033)" fill="none" stroke="#659feb" stroke-miterlimit="10" stroke-width="2.121"/>
              <path id="Path_45525" data-name="Path 45525" d="M1063.224,13.25l11.734,6.5" transform="translate(-1038.924 38.34)" fill="none" stroke="#659feb" stroke-miterlimit="10" stroke-width="2.121"/>
            </g>
          </g>
        </g>
      </g>
      <g id="Group_17861" data-name="Group 17861" transform="translate(79.179 33.967)">
        <path id="Path_45526" data-name="Path 45526" d="M762.029-182.925c-1.37,18.786,28.151,29.272,28.151,29.272l6.629,1.766c5.859,3.627,8.84,4.108,8.84,4.108l-3.861-2.319,5.938,1.859c.161.047-.226-.381-.373-.46l-4.538-2.435,6.1,1.528a.118.118,0,0,0,.082-.22l-5.716-2.887s5.867,1.347,5.38.829-6.264-2.8-6.264-2.8,1.891-2.8,1.723-3.046c-.277-.405-2.3.785-4.369,1.111-1.3.205-11.126-3.972-11.126-3.972C781.112-163.958,771.38-172.4,772.5-184.5c0,0-.462-4.012-5.319-4.421S762.029-182.925,762.029-182.925Z" transform="translate(-761.868 188.94)" fill="#ffa47a" stroke="#ffa47a" stroke-linecap="round" stroke-linejoin="round" stroke-width="1.476"/>
        <path id="Path_45527" data-name="Path 45527" d="M778.5-168.117c-3.793-4.212-4.9-8.849-6.166-16.383,0,0-.462-4.012-5.319-4.421s-5.147,6-5.147,6c-.461,6.319-.174,10.1,4.057,14.456Z" transform="translate(-761.704 188.94)" fill="#ff7f4d" stroke="#ff7f4d" stroke-miterlimit="10" stroke-width="0.595"/>
        <path id="Path_45528" data-name="Path 45528" d="M786.676-138.3l-9.316,2.223a16.82,16.82,0,0,1-2.367-2.5Z" transform="translate(-769.499 159.395)" fill="#cf5540"/>
      </g>
    </g>
    <g id="Group_17865" data-name="Group 17865" transform="translate(575.254 -248.717)">
      <g id="Group_17863" data-name="Group 17863" transform="translate(9.352 17.787)">
        <path id="Path_45529" data-name="Path 45529" d="M738.048-96.25c-3.776,10.563-11.056,17.224-21.516,16.492-8.4-.587-16.179-4.411-23.713-8.164-2.581-1.286-5.226-2.619-7.165-4.753-2.855-3.142-3.772-7.537-4.579-11.705l-2.414-12.465c-.613-3.167-1.27-6.439-3.127-9.076s-5.266-4.471-8.339-3.489-4.641,5.53-2.218,7.659c5.11-3.07,4.768-10.569,3.037-16.273a69.344,69.344,0,0,0-14.467-25.827c-4.535-5.1-10.379-9.755-17.2-10.062-8.824-.4-16.25,6.512-21.327,13.741-5.263,7.493-9.327,16.112-9.895,25.252-.285,4.6.609,9.761,4.281,12.539s10.435.908,10.593-3.694" transform="translate(-605.077 173.928)" fill="none" stroke="#ff7f4d" stroke-linecap="round" stroke-linejoin="round" stroke-width="2.121" stroke-dasharray="9.092"/>
        <path id="Path_45530" data-name="Path 45530" d="M1122.214-118.61a8.655,8.655,0,0,0,7.676-.92,17.8,17.8,0,0,0,5.446-5.8c2.02-3.163,3.614-6.931,2.822-10.6a14.573,14.573,0,0,0-2.6-5.254,20.961,20.961,0,0,0-5.094-5.276,14.436,14.436,0,0,0-13.916-1.154,14.436,14.436,0,0,0-8.135,11.348" transform="translate(-900.327 159.237)" fill="none" stroke="#f8f1ee" stroke-linecap="round" stroke-linejoin="round" stroke-width="2.121" stroke-dasharray="7.332" style="mix-blend-mode: lighten;isolation: isolate"/>
      </g>
      <g id="Group_17864" data-name="Group 17864" transform="translate(88.637 0)">
        <path id="Path_45531" data-name="Path 45531" d="M1218.336-16.459a1.749,1.749,0,0,1-2.044,1.394,1.749,1.749,0,0,1-1.394-2.044,1.749,1.749,0,0,1,2.043-1.394A1.749,1.749,0,0,1,1218.336-16.459Z" transform="translate(-1042.058 100.563)" fill="#659feb"/>
        <path id="Path_45532" data-name="Path 45532" d="M1174.341-32.619a2.332,2.332,0,0,1-2.725,1.859,2.333,2.333,0,0,1-1.859-2.725,2.333,2.333,0,0,1,2.726-1.859A2.333,2.333,0,0,1,1174.341-32.619Z" transform="translate(-1015.572 110.448)" fill="none" stroke="#659feb" stroke-miterlimit="10" stroke-width="1.061"/>
        <path id="Path_45533" data-name="Path 45533" d="M980.87-214.361a2.187,2.187,0,0,1-2.555,1.743,2.187,2.187,0,0,1-1.743-2.555,2.187,2.187,0,0,1,2.555-1.743A2.187,2.187,0,0,1,980.87-214.361Z" transform="translate(-902.254 216.954)" fill="#ff7f4d"/>
        <path id="Path_45534" data-name="Path 45534" d="M946.277,49.909a2.333,2.333,0,1,1-1.859-2.725A2.333,2.333,0,0,1,946.277,49.909Z" transform="translate(-881.793 62.038)" fill="none" stroke="#ff7f4d" stroke-miterlimit="10" stroke-width="1.061"/>
        <path id="Path_45535" data-name="Path 45535" d="M802.351-80.792a2.77,2.77,0,0,1-3.236,2.208,2.77,2.77,0,0,1-2.208-3.236,2.77,2.77,0,0,1,3.236-2.208A2.77,2.77,0,0,1,802.351-80.792Z" transform="translate(-796.859 139.01)" fill="#659feb" stroke="#659feb" stroke-linecap="round" stroke-linejoin="round" stroke-width="1.061" stroke-dasharray="9.092"/>
      </g>
      <path id="Path_45536" data-name="Path 45536" d="M685.855,1.835A1.824,1.824,0,1,1,684.03.011,1.825,1.825,0,0,1,685.855,1.835Z" transform="translate(-640.968 89.685)" fill="#ff7f4d"/>
      <path id="Path_45537" data-name="Path 45537" d="M586.743-38.336a2.145,2.145,0,0,1-2.144,2.144,2.144,2.144,0,0,1-2.144-2.144A2.144,2.144,0,0,1,584.6-40.48,2.144,2.144,0,0,1,586.743-38.336Z" transform="translate(-582.455 113.436)" fill="none" stroke="#659feb" stroke-miterlimit="10" stroke-width="0.948"/>
    </g>
  </g>
</svg>
