<svg xmlns="http://www.w3.org/2000/svg" xmlns:xlink="http://www.w3.org/1999/xlink" width="986.999" height="789.954" viewBox="0 0 986.999 789.954">
  <defs>
    <linearGradient id="linear-gradient" x1="0.5" x2="0.5" y2="1" gradientUnits="objectBoundingBox">
      <stop offset="0" stop-color="#e75d7a"/>
      <stop offset="1" stop-color="#c12280"/>
    </linearGradient>
  </defs>
  <path id="Subtraction_2" data-name="Subtraction 2" d="M987,789.953v0H20.22A522.45,522.45,0,0,1,5.192,720.038,513.25,513.25,0,0,1,0,647.388a567.872,567.872,0,0,1,3.084-58.893A580.574,580.574,0,0,1,12.177,530.4c3.97-19.024,8.97-38.182,14.864-56.944,5.856-18.626,12.723-37.273,20.408-55.424,7.65-18.065,16.3-36.082,25.717-53.552,9.395-17.428,19.754-34.693,30.789-51.315s23.027-33.019,35.629-48.722c12.642-15.744,26.179-31.142,40.235-45.765,14.132-14.7,29.14-28.987,44.606-42.454,15.562-13.549,31.962-26.6,48.744-38.779,16.917-12.278,34.63-23.967,52.645-34.745,18.218-10.9,37.167-21.108,56.318-30.353,19.406-9.369,39.509-17.981,59.751-25.6,20.507-7.718,41.688-14.612,62.954-20.487,21.594-5.964,43.773-11.017,65.921-15.016,22.546-4.069,45.645-7.158,68.656-9.18C655.078.7,670.673,0,685.767,0a471.105,471.105,0,0,1,61.407,3.951,424.749,424.749,0,0,1,56.882,11.472,395.882,395.882,0,0,1,100.5,43.237,411.546,411.546,0,0,1,42.808,29.852A441.4,441.4,0,0,1,987,124.241V789.953Z" fill="url(#linear-gradient)"/>
</svg>
