<svg xmlns="http://www.w3.org/2000/svg" xmlns:xlink="http://www.w3.org/1999/xlink" width="19.326" height="19.179" viewBox="0 0 19.326 19.179">
  <defs>
    <linearGradient id="linear-gradient" x1="0.5" x2="0.5" y2="1" gradientUnits="objectBoundingBox">
      <stop offset="0" stop-color="#e75d7a"/>
      <stop offset="1" stop-color="#c12280"/>
    </linearGradient>
  </defs>
  <g id="Group_21499" data-name="Group 21499" transform="translate(-696.673 -636.81)">
    <path id="Path_49647" data-name="Path 49647" d="M713.77,644.015l-.024-.514a.5.5,0,0,0-.064-.371l-.024-.236h0a1.255,1.255,0,0,0-.014-.17,7.488,7.488,0,0,0-3.035-4.526,6.686,6.686,0,0,0-3.184-1.28l-.322-.025a3.5,3.5,0,0,0-1.52,0l-.321.024c-.334.068-.675.111-1,.208a7.456,7.456,0,0,0-3.205,1.922,7.127,7.127,0,0,0-2.094,4.172c-.075.553-.133.989-.764,1.1a.557.557,0,0,0-.181.112,3.379,3.379,0,0,0-1.331,2.884q0,.343,0,.687a2.369,2.369,0,0,0,.076.772,2.7,2.7,0,0,0,2.515,2.514h.426a.691.691,0,0,0,.594-.6l.009-3.032.023-3.64h0c.024-.126.055-.251.071-.378a5.859,5.859,0,0,1,2.809-4.453,7.028,7.028,0,0,1,2.489-.878h1.29a.92.92,0,0,0,.159.055,5.9,5.9,0,0,1,4.834,3.91,9.105,9.105,0,0,1,.376,1.761l.022,2.061q0,1.125.006,2.251c0,.79-.014,1.581.02,2.37a2.194,2.194,0,0,1-1.415,2.238,11.745,11.745,0,0,1-1.676.5l-.323.026a.793.793,0,0,0-.456.063l-.5.019a.715.715,0,0,1-.658-.313,1.261,1.261,0,0,0-1.229-.43,1.587,1.587,0,0,0-1.408,1.463,1.633,1.633,0,0,0,.992,1.572,1.54,1.54,0,0,0,1.906-.572.537.537,0,0,1,.484-.261,10.361,10.361,0,0,0,2.679-.427,3.955,3.955,0,0,0,2.892-2.46,6.661,6.661,0,0,1,.934-1.222,3.407,3.407,0,0,0,1.37-2.915q0-.343,0-.687A3.187,3.187,0,0,0,713.77,644.015Zm-6.816-7.1-.025,0-.033-.007Zm6.684,6.31h0s0,0,0,0Z" fill="url(#linear-gradient)"/>
    <path id="Path_49648" data-name="Path 49648" d="M783.438,728.272a1.373,1.373,0,0,1,.8-1.592,2.185,2.185,0,0,1,.929,0,1.357,1.357,0,0,1,.239,2.393c-.343.346-.678.7-1.017,1.048a.291.291,0,0,0-.157.284c0,.646,0,1.292,0,1.992l.262-.222h0a.7.7,0,0,1,.41,0h0l.089.056h0c.05.041.081.2.163.057a.491.491,0,0,0,.009-.3,2.264,2.264,0,0,1,.964-2.351,1.984,1.984,0,0,0,.767-1.407v-.6a2.238,2.238,0,0,0-1.815-1.892,2.284,2.284,0,0,0-.766,0h0a2.2,2.2,0,0,0-1.816,2.49c.038.352.114.678.58.621C783.428,728.808,783.491,728.544,783.438,728.272Zm1.6,2.575c0,.014-.007.029-.01.043,0-.006,0-.012,0-.018,0-.027-.009-.037-.02-.03C784.969,730.865,785.015,730.819,785.04,730.847Z" transform="translate(-78.357 -81.18)" fill="url(#linear-gradient)"/>
  </g>
</svg>
