<svg xmlns="http://www.w3.org/2000/svg" width="495.859" height="291.286" viewBox="0 0 495.859 291.286">
  <g id="Group_20938" data-name="Group 20938" transform="translate(0.159 0.164)">
    <g id="Group_17835" data-name="Group 17835" transform="translate(165.77 7.218)" opacity="0.4">
      <path id="Path_45446" data-name="Path 45446" d="M1009.624-82.035a184.531,184.531,0,0,1,89.98-98.055c11.545-5.651,24.035-10.14,36.887-9.927s26.157,5.832,33,16.712c5.51,8.758,9.394,27.72,3.177,45.428-10.808,30.785-48.888,46.986-81.265,42.959" transform="translate(-846.465 243.494)" fill="none" stroke="#659feb" stroke-linecap="round" stroke-linejoin="round" stroke-width="1.046" stroke-dasharray="8.972"/>
      <path id="Path_45447" data-name="Path 45447" d="M1022.118-74.1c21.847-36.14,52.2-69.4,92.11-83.2,7.644-2.641,15.732-4.549,23.778-3.733s16.088,4.706,20.376,11.563c4.2,6.716,4.291,15.32,2.332,23-3.457,13.539-12.735,25.063-23.9,33.463s-24.184,13.969-37.295,18.8" transform="translate(-849.607 236.25)" fill="#659feb" stroke="#659feb" stroke-linecap="round" stroke-linejoin="round" stroke-width="1.046" stroke-dasharray="8.972"/>
      <path id="Path_45448" data-name="Path 45448" d="M974.958,28.584c8.576,47.212,48.118,57.61,79.9,57.031,10.209-.187,20.783-2.648,28.568-9.256,12.043-10.224,14.673-27.422,21.411-41.712,8.964-19.005,20.789-37.163,41.047-42.745" transform="translate(-837.747 197.741)" fill="none" stroke="#659feb" stroke-linecap="round" stroke-linejoin="round" stroke-width="1.046" stroke-dasharray="8.972"/>
      <path id="Path_45449" data-name="Path 45449" d="M948.189-98.593a1.419,1.419,0,0,1-1.856,1.35c-8.118-24.407-6.9-50.755-8.124-76.447s-5.678-52.84-22.545-72.259c-7.164-8.248-16.962-14.94-27.873-15.481s-22.542,6.651-24.378,17.419c-.7,4.125.011,8.339.316,12.513a64.284,64.284,0,0,1-2.333,22.423c-.685,2.38-1.573,4.821-3.394,6.5-4.86,4.474-12.841,1.142-19.152,3.088-4.306,1.327-7.479,5.069-9.484,9.1-3.827,7.7-4.16,16.847-2.044,25.185s6.534,15.943,11.786,22.756a101.274,101.274,0,0,0,62.817,37.631" transform="translate(-800.292 261.459)" fill="#659feb" stroke="#659feb" stroke-linecap="round" stroke-linejoin="round" stroke-width="1.046" stroke-dasharray="8.972"/>
      <path id="Path_45450" data-name="Path 45450" d="M850.979-195.4c-14.565-1.247-28.742,9.123-33.88,22.808s-2.019,29.646,6.169,41.756,20.921,20.631,34.574,25.859" transform="translate(-797.417 244.872)" fill="none" stroke="#659feb" stroke-linecap="round" stroke-linejoin="round" stroke-width="1.046" stroke-dasharray="8.972"/>
      <path id="Path_45451" data-name="Path 45451" d="M888.406-67.416c-13.987-3.6-37.279,4.15-51.715,4.6S807.4-57.616,797.507-47.1c-4.432,4.709-7.8,11.876-4.588,17.487a13.715,13.715,0,0,0,5.168,4.8c11.071,6.449,25.049,3.814,37.566,6.552,5.225,1.144,10.847,3.906,12.255,9.068,1.773,6.5-4.047,13.427-1.909,19.819,1.218,3.642,4.87,6.073,8.647,6.77s7.671-.076,11.357-1.153c8.576-2.508,16.776-6.79,22.947-13.253s10.159-15.237,9.866-24.168c-.223-6.781,23.129-42.267,20.218-48.4" transform="translate(-791.645 213.203)" fill="#659feb" stroke="#659feb" stroke-linecap="round" stroke-linejoin="round" stroke-width="1.046" stroke-dasharray="8.972"/>
      <path id="Path_45452" data-name="Path 45452" d="M860.35-6.479c1.13,8.895-11.249,26.646-7.608,34.84,3.239,7.288,11.624,11.016,19.573,11.671,15.7,1.294,31.212-7.152,40.925-19.556s14.177-28.267,15.322-43.981" transform="translate(-806.841 201.616)" fill="none" stroke="#659feb" stroke-linecap="round" stroke-linejoin="round" stroke-width="1.046" stroke-dasharray="8.972"/>
      <path id="Path_45453" data-name="Path 45453" d="M956.22-59.474c4.106,10.3,24.585,78.185,30.206,87.745,3.608,6.134,7.58,12.169,12.875,16.922,5.834,5.238,13.024,8.7,20.239,11.767,10.22,4.346,22.327,7.955,32.021,2.535,8.363-4.676,12.223-15.024,11.863-24.6s-13.354-88.156-17.119-96.966" transform="translate(-833.034 211.314)" fill="#659feb" stroke="#659feb" stroke-linecap="round" stroke-linejoin="round" stroke-width="1.046" stroke-dasharray="8.972"/>
      <path id="Path_45454" data-name="Path 45454" d="M1049.769-115.561c5.039-9.325,10.129-18.781,12.624-29.083s2.14-21.719-3.274-30.832a12.123,12.123,0,0,0-4.261-4.613,5.574,5.574,0,0,0-6,.134c-1.362,1.062-1.945,2.817-2.457,4.468q-1.92,6.183-3.838,12.365a5.471,5.471,0,0,1-1.166,2.339c-1.439,1.435-3.973.811-5.514-.515s-2.548-3.186-4.093-4.506c-4.035-3.444-10.707-1.942-14.191,2.057s5.691,71.5,5.886,76.8" transform="translate(-848.273 241.198)" fill="#659feb" stroke="#659feb" stroke-linecap="round" stroke-linejoin="round" stroke-width="1.046" stroke-dasharray="8.972"/>
    </g>
    <g id="Group_17862" data-name="Group 17862" transform="translate(0 0)">
      <g id="Group_17836" data-name="Group 17836" transform="translate(152.22 43.26)">
        <path id="Path_45455" data-name="Path 45455" d="M779.038-175.232c26.7,21.218,72.5-12.234,72.5-12.234l9.407-8.114c11.4-5.062,15.165-9.03,15.165-9.03l-7.409,3.408,8.84-6.985c.235-.192-.8-.049-1.068.089l-8.272,4.3,8.511-7.564a.215.215,0,0,0-.247-.348l-10.149,5.6s8-7.4,6.73-7.2-11.8,7.542-11.8,7.542,4.347-7.067,3.032-6.686c-.854.247-4.19,4.517-6.425,7.481-1.439,1.909-1.036,2.558-3.12,3.777l-15.15,8.973c-12.714,7.8-35.273,13.738-52.231-.276,0,0-6.472-3.4-12.039,3.445S779.038-175.232,779.038-175.232Z" transform="translate(-773.543 213.307)" fill="#ffa47a" stroke="#ffa47a" stroke-linecap="round" stroke-linejoin="round" stroke-width="1.476"/>
        <path id="Path_45456" data-name="Path 45456" d="M818.155-178.288c-10.169,1.375-18.231-1.707-30.8-7.5,0,0-6.472-3.4-12.039,3.445s3.717,13.817,3.717,13.817c8.982,7.139,14.926,10.565,25.761,8.683Z" transform="translate(-773.543 206.598)" fill="#ff7f4d" stroke="#ff7f4d" stroke-miterlimit="10" stroke-width="0.595"/>
        <path id="Path_45457" data-name="Path 45457" d="M829.857-175.557l-5.381,16a42.327,42.327,0,0,1-6.736.957Z" transform="translate(-784.658 203.813)" fill="#cf5540"/>
        <path id="Path_45458" data-name="Path 45458" d="M882.527-198.795c.448.717.8,1.893.311,2.2s-1.619-.38-2.068-1.1" transform="translate(-800.51 209.658)" fill="#cf5540"/>
        <path id="Path_45459" data-name="Path 45459" d="M892.6-206.484s-1.2,3.412-1.187,3.312l4.76-5.665Z" transform="translate(-803.188 212.183)" fill="#cf5540"/>
      </g>
      <g id="Group_17849" data-name="Group 17849">
        <g id="Group_17837" data-name="Group 17837" transform="translate(139.621)">
          <path id="Path_45460" data-name="Path 45460" d="M767.562-270.236c7.938,2.474,27.759,29.246,27.759,29.246a23.089,23.089,0,0,1,6.877,11.847c.327,1.691-.816,6.671-2.162,7.715l-26.4,21.444s-21.25-7.532-16.125-23.932,9.464-12.9,6.94-22.288S767.562-270.236,767.562-270.236Z" transform="translate(-756.711 270.884)" fill="#00043b"/>
          <path id="Path_45461" data-name="Path 45461" d="M804.977-231.079c-2.665-7.05-4.3-11.57-8.821-17.6-9.873-13.184-9.228-11.936-21.93-22.42" transform="translate(-761.116 271.102)" fill="none" stroke="#00043b" stroke-miterlimit="10" stroke-width="0.426"/>
        </g>
        <g id="Group_17838" data-name="Group 17838" transform="translate(154.994 33.374)">
          <path id="Path_45462" data-name="Path 45462" d="M788.836-215.4a.362.362,0,0,1-.546,0,2.849,2.849,0,0,0-4.154-.646c-1.983,1.537.159,4.239.737,5.5.845,1.849,1.471,7.474-.485,12.087-1.413,3.334-7.138,9.246-7.138,9.246s7.832,8.759,13.57,4.93c0,0,.569-12.341,2.458-14.78.04-.052,4.913,2.872,10.435-5.406,5.2-7.8.052-12.675-1.2-13.676C801.464-218.987,796.643-223.57,788.836-215.4Z" transform="translate(-777.25 224.923)" fill="#ffa47a"/>
          <path id="Path_45463" data-name="Path 45463" d="M793.231-178.891c-.19.014-8.041,3.85-8.041,3.85s3.622,3.684,7.627,1.146Z" transform="translate(-779.247 214.538)" fill="#cf5540"/>
          <path id="Path_45464" data-name="Path 45464" d="M808.741-197.409l-4.391-2.452s-.08,2.722,1.314,3.21S808.741-197.409,808.741-197.409Z" transform="translate(-784.065 219.811)" fill="#fff"/>
          <path id="Path_45465" data-name="Path 45465" d="M790.139-212.5a1.743,1.743,0,0,0-2.294-.293,1.864,1.864,0,0,0,.145,2.4" transform="translate(-779.82 223.144)" fill="#cf5540"/>
          <path id="Path_45466" data-name="Path 45466" d="M809.455-201.651l-1.472,2.083,1.211.537a.322.322,0,0,0,.451-.321Z" transform="translate(-784.979 220.262)" fill="#cf5540"/>
          <path id="Path_45467" data-name="Path 45467" d="M809.372-215.944s-12.7,2.689-17.756-1.048,7.978-13.532,12.839-7.725S809.372-215.944,809.372-215.944Z" transform="translate(-780.575 226.514)" fill="#00043b"/>
          <path id="Path_45468" data-name="Path 45468" d="M797.058-193.542a10.426,10.426,0,0,1-4.433-4.527c-.888-1.792-.885,6.9,3.027,8.95C795.652-189.119,796.35-191.476,797.058-193.542Z" transform="translate(-780.996 219.421)" fill="#cf5540"/>
          <path id="Path_45469" data-name="Path 45469" d="M807.658-208.45c-.555.064.745-.862,1.373-.711a1.1,1.1,0,0,1,.9,1.254A3.438,3.438,0,0,0,807.658-208.45Z" transform="translate(-784.863 222.154)" fill="#00043b"/>
          <path id="Path_45470" data-name="Path 45470" d="M814.944-205.894a1.146,1.146,0,0,0-1.584-.019,3.394,3.394,0,0,1,1.355.948" transform="translate(-786.332 221.411)" fill="#00043b"/>
          <path id="Path_45471" data-name="Path 45471" d="M807.575-203.656c-.2.4-.195.81,0,.9s.514-.156.71-.562.194-.811,0-.9S807.77-204.061,807.575-203.656Z" transform="translate(-784.84 220.912)" fill="#00043b"/>
          <path id="Path_45472" data-name="Path 45472" d="M811.3-201.84c-.187.387-.187.774,0,.865s.491-.15.677-.537.186-.774,0-.865S811.491-202.227,811.3-201.84Z" transform="translate(-785.779 220.449)" fill="#00043b"/>
          <path id="Path_45473" data-name="Path 45473" d="M797.122-203.73a2.443,2.443,0,0,0,1.605,3.06,2.443,2.443,0,0,0,3.06-1.605,2.443,2.443,0,0,0-1.6-3.06A2.443,2.443,0,0,0,797.122-203.73Z" transform="translate(-782.22 221.216)" fill="#e8632e" stroke="#e8632e" stroke-miterlimit="10" stroke-width="0.318" opacity="0.37"/>
          <path id="Path_45474" data-name="Path 45474" d="M789.81-217.833c1.077,1.168,2.013,2.46,3.117,3.6a8.763,8.763,0,0,0,3.955,2.545,10.527,10.527,0,0,0,4.372-.047c3.184-.533,6.46-1.47,8.783-3.713" transform="translate(-780.409 224.331)" fill="none" stroke="#00043b" stroke-miterlimit="10" stroke-width="0.349"/>
        </g>
        <g id="Group_17839" data-name="Group 17839" transform="translate(25.732 54.656)">
          <path id="Path_45475" data-name="Path 45475" d="M632.313-172.408c-.9-5.914-1.423-20.527-1.423-20.527l-25.318,1.37c3.221,1.558,14.537,8.593,14.537,8.593l2,11.269S632.321-172.512,632.313-172.408Z" transform="translate(-604.812 196.788)" fill="#ffa47a"/>
          <path id="Path_45476" data-name="Path 45476" d="M619.785-184.28l-14.807-8.281a.8.8,0,0,1,.245-1.5c6.138-.948,22.695-3.39,27.05-4.017a.793.793,0,0,1,.891.919c-.466,2.949-1.1,11.133-1.506,13.529-.065.38-4.919-5.665-6.617-4.685C623.581-187.467,619.914-184.318,619.785-184.28Z" transform="translate(-604.557 198.082)" fill="#659feb" stroke="#659feb" stroke-miterlimit="10" stroke-width="0.318"/>
          <path id="Path_45477" data-name="Path 45477" d="M622.731-182.163l2.332-3.134a1.68,1.68,0,0,0-.345-2.35l0,0a1.679,1.679,0,0,0-2.35.344l-2.618,3.517" transform="translate(-608.377 195.542)" fill="none" stroke="#f8f1ee" stroke-miterlimit="10" stroke-width="0.724"/>
          <path id="Path_45478" data-name="Path 45478" d="M635.056-177.07c.159,3.54.389,7.073.389,7.073l4.416-.21-.569-9.921s-3.618-4.091-4.192-4.048c-.288.022-.2,3.567-.043,7.106" transform="translate(-612.191 194.585)" fill="#cf5540"/>
        </g>
        <g id="Group_17840" data-name="Group 17840" transform="translate(0 109.999)">
          <path id="Path_45479" data-name="Path 45479" d="M605.479-107.346c-3.93-3.908-7.811-15.811-7.811-15.811s-26.864,7.972-26.622,8.051,16.3,6.091,16.3,6.091l9.832,7.37S604.618-106.912,605.479-107.346Z" transform="translate(-570.397 123.896)" fill="#ffa47a" stroke="#ffa47a" stroke-miterlimit="10" stroke-width="1.303"/>
          <path id="Path_45480" data-name="Path 45480" d="M586.657-108.84,570.7-114.788a.8.8,0,0,1,.031-1.516c5.942-1.81,21.982-6.582,26.2-7.822.513-.15,1.442.674,1.6,1.192a82.21,82.21,0,0,0,3.734,10.01c.181.341-9.561-1.721-11.1-.509C589.843-112.39,587.107-108.584,586.657-108.84Z" transform="translate(-570.179 124.144)" fill="#659feb" stroke="#659feb" stroke-miterlimit="10" stroke-width="0.318"/>
          <path id="Path_45481" data-name="Path 45481" d="M589.429-106.765l1.6-3.99a1.679,1.679,0,0,0-.931-2.186l0,0a1.679,1.679,0,0,0-2.186.93l-1.64,4.066" transform="translate(-574.225 121.358)" fill="none" stroke="#f8f1ee" stroke-miterlimit="10" stroke-width="0.724"/>
          <path id="Path_45482" data-name="Path 45482" d="M604.793-98.553l-10.257-8.283-2.342,2.349,10.454,7.573Z" transform="translate(-575.715 119.791)" fill="#cf5540"/>
        </g>
        <g id="Group_17846" data-name="Group 17846" transform="translate(26.929 77.415)">
          <g id="Group_17843" data-name="Group 17843" transform="translate(14.983)">
            <g id="Group_17841" data-name="Group 17841">
              <path id="Path_45483" data-name="Path 45483" d="M718.545-138.1c3.245,1.243,5.58,3.96,6.747,9.534s6.711-3.472,6.577,2.126c-2.178,1.21-14.037,16.5-18.135,18.2-18.168,7.546-32,10.79-49.673,7.22-17.287-3.493-27.154-23.218-32.184-36.262-3.962-10.277-3.9-18.668-5.706-29.152.526-1.216,10.755-1.5,11.312-1.026,6.969,21.621,16.624,33.659,29.751,36.15,12.266,2.328,20.98.414,29.916-2.461C697.151-133.771,707.184-142.451,718.545-138.1Z" transform="translate(-626.172 167.677)" fill="#365185" stroke="#365185" stroke-miterlimit="10" stroke-width="0.302"/>
            </g>
            <g id="Group_17842" data-name="Group 17842" transform="translate(41.062 28.357)" opacity="0.43" style="mix-blend-mode: multiply;isolation: isolate">
              <path id="Path_45484" data-name="Path 45484" d="M681.031-121.782c12.266,2.328,20.98.414,29.916-2.461,0,0,10.033-8.68,21.395-4.326,3.245,1.243,5.58,3.96,6.747,9.534s6.384-2.885,6.25,2.712c-2.178,1.21-13.711,15.91-17.808,17.612" transform="translate(-681.031 129.792)" fill="#365185"/>
            </g>
          </g>
          <g id="Group_17845" data-name="Group 17845" transform="translate(0 26.097)">
            <g id="Group_17844" data-name="Group 17844">
              <path id="Path_45485" data-name="Path 45485" d="M725.775-119.756c-5.683-5.26-16.5-13.606-17.412-13.027-9.767,1.173-19.269,8.8-23.653,17.173a21.8,21.8,0,0,1-3.083,4.463,53.762,53.762,0,0,1-22.061,15.466c-12.471,4.795-27.672.456-44.982-14.255-1.91,2.023-8.619,5.178-8.424,6.489,7.058,7.961,11.425,14.657,20.205,21.307C637.51-73.7,656.284-62.126,672.82-68.26a81.547,81.547,0,0,0,37.032-27.405Z" transform="translate(-606.156 132.811)" fill="#4465a6" stroke="#4465a6" stroke-miterlimit="10" stroke-width="0.302"/>
            </g>
            <path id="Path_45486" data-name="Path 45486" d="M708.047-83.524S658.286-34.948,607.1-94.261a87.868,87.868,0,0,0,36.24,31.87C644.544-63.226,669.86-41.3,708.047-83.524Z" transform="translate(-606.392 123.116)" fill="#4465a6" opacity="0.5" style="mix-blend-mode: multiply;isolation: isolate"/>
          </g>
        </g>
        <g id="Group_17847" data-name="Group 17847" transform="translate(128.919 63.322)">
          <path id="Path_45487" data-name="Path 45487" d="M782.416-179.749c.357.68,2.79,18.321-.636,24.261-2.3,3.983-15.245,15.852-21.038,23.131,0,0-11.748-7.294-18.328-13.609,1.833-6.874,8.025-33.529,20.672-40.538a71.451,71.451,0,0,1,7.874,2.2S777.84-172.651,782.416-179.749Z" transform="translate(-742.413 186.504)" fill="#ffa47a" stroke="#ffa47a" stroke-linecap="round" stroke-linejoin="round" stroke-width="1.476"/>
          <path id="Path_45488" data-name="Path 45488" d="M742.952-137.628l-.531,2.1,14.3,12.546Z" transform="translate(-742.415 174.212)" fill="#cf5540"/>
        </g>
        <g id="Group_17848" data-name="Group 17848" transform="translate(127.613 63.322)">
          <path id="Path_45489" data-name="Path 45489" d="M781.977-179.749c.357.68,2.79,18.321-.636,24.261-2.3,3.983-15.245,15.852-21.038,23.131,0,0-3.606-2.4-19.634-20.343,1.834-6.874,9.331-26.8,21.978-33.8a71.451,71.451,0,0,1,7.874,2.2S777.4-172.651,781.977-179.749Z" transform="translate(-740.668 186.504)" fill="#f8f1ee" stroke="#f8f1ee" stroke-miterlimit="10" stroke-width="1.476"/>
          <path id="Path_45490" data-name="Path 45490" d="M760.3-132.357s-3.606-2.4-19.634-20.343c1.834-6.874,9.331-26.8,21.978-33.8a71.451,71.451,0,0,1,7.874,2.2" transform="translate(-740.668 186.504)" fill="#f8f1ee" stroke="#f8f1ee" stroke-linecap="round" stroke-linejoin="round" stroke-width="1.476" style="mix-blend-mode: multiply;isolation: isolate"/>
        </g>
      </g>
      <g id="Group_17850" data-name="Group 17850" transform="translate(183.166 34.12)">
        <path id="Path_45491" data-name="Path 45491" d="M946.141-6.848l104.348,44.963a8.974,8.974,0,0,0,11.383-3.979L1128.71-90.7c2.648-4.874,2.528-10.432-2.715-12.243,0,0-22.7-20.583-62.661-32.163-11.58-3.356-49.13-6.639-49.13-6.639Z" transform="translate(-847.897 204.45)" fill="none" stroke="#f8f1ee" stroke-linecap="round" stroke-linejoin="round" stroke-width="1.061"/>
        <path id="Path_45492" data-name="Path 45492" d="M917.806-26,819.245-83.582a8.98,8.98,0,0,1-3.488-11.551l58.854-125.815c2.382-5.013,8.038-5.426,13.247-3.515,16.424,6.022,31.022,2.935,63.934,28.438,9.537,7.389,34.314,35.829,34.314,35.829Z" transform="translate(-814.887 225.518)" fill="none" stroke="#f8f1ee" stroke-linecap="round" stroke-linejoin="round" stroke-width="1.061"/>
      </g>
      <g id="Group_17851" data-name="Group 17851" transform="translate(186.467 37.811)">
        <path id="Path_45493" data-name="Path 45493" d="M1090.816-120.939s-21.833-19.8-60.272-30.937c-10.66-3.089-44.2-6.114-47.058-6.368-3.067-3.5-24.107-27.416-32.6-33.994-31.636-24.513-45.667-21.545-61.454-27.334-5.008-1.838-10.445-1.44-12.732,3.379L820.132-95.259a8.633,8.633,0,0,0,3.353,11.1l94.543,55.235.125.012,100.036,43.65a8.633,8.633,0,0,0,10.949-3.827l64.289-120.077C1095.974-113.85,1095.858-119.2,1090.816-120.939Z" transform="translate(-819.297 220.587)" fill="#2e4470" stroke="#2e4470" stroke-miterlimit="10" stroke-width="0.302"/>
        <path id="Path_45494" data-name="Path 45494" d="M943.581-12.163l10.76,5.615,66.73-131.386a17.257,17.257,0,0,1-10.89-4.923Z" transform="translate(-850.553 201.039)" fill="#1d2b47" stroke="#1d2b47" stroke-miterlimit="10" stroke-width="0.302"/>
        <path id="Path_45495" data-name="Path 45495" d="M1086.51-114.12s-45.038-32.52-101.635-38.913c-38.466-41.762-91.01-58.938-91.01-58.938L831.039-89.876C843.6-86.486,912.248-39.943,922.5-31.681l-.111.221c.122.011.279.032.454.06a8.316,8.316,0,0,1,.838.762l.283-.549c9.922,2.106,55.481,16.014,100.848,39.735Z" transform="translate(-822.25 218.42)" fill="#cfb2a3"/>
      </g>
      <g id="Group_17860" data-name="Group 17860" transform="translate(200.776 47.785)">
        <g id="Group_17853" data-name="Group 17853" transform="translate(116.873 7.596)">
          <path id="Path_45496" data-name="Path 45496" d="M994.555-174.064s6.032-17.764,18.55-22.96a1.144,1.144,0,0,1,1.581.946l.366,3.992,4.725.639a1.132,1.132,0,0,1,.629,1.948c-4.653,4.359-17.034,17.131-16.683,21.866Z" transform="translate(-994.555 197.114)" fill="#ff7f4d" stroke="#ff7f4d" stroke-miterlimit="10" stroke-width="0.595"/>
          <g id="Group_17852" data-name="Group 17852" transform="translate(2.122 3.882)" opacity="0.76">
            <path id="Path_45497" data-name="Path 45497" d="M997.39-171.358c.312-.746.52-1.53.778-2.3,1.525-4.555,4.686-8.354,7.85-11.967" transform="translate(-997.39 190.342)" fill="none" stroke="#f2fcf9" stroke-miterlimit="10" stroke-width="0.769"/>
            <path id="Path_45498" data-name="Path 45498" d="M1012.3-190.228l2.008-1.7" transform="translate(-1001.141 191.928)" fill="none" stroke="#f2fcf9" stroke-miterlimit="10" stroke-width="0.769"/>
          </g>
        </g>
        <path id="Path_45499" data-name="Path 45499" d="M897.908-206.253c8.621-2.18,8.86-.47,17.472,1.746a80.619,80.619,0,0,1,22.4,9.012c7.075,4.108,15.651,9.963,21.509,15.675,9.468,9.231,17.986,17.74,26.825,27.574L924.058-32.783s-58.767-70.525-85.643-57.411Z" transform="translate(-838.414 207.262)" fill="#f8f1ee" stroke="#f8f1ee" stroke-linecap="round" stroke-linejoin="round" stroke-width="0.598"/>
        <g id="Group_17854" data-name="Group 17854" transform="translate(0.487 96.279)">
          <path id="Path_45500" data-name="Path 45500" d="M1048.688,57.881A194.936,194.936,0,0,0,961.5,27.511" transform="translate(-869.857 51.94)" fill="none" stroke="#f8f1ee" stroke-linecap="round" stroke-linejoin="round" stroke-width="0.598"/>
          <path id="Path_45501" data-name="Path 45501" d="M954.541,28.2c31.713,6.358,69.295,19.639,97.3,35.819" transform="translate(-868.107 51.768)" fill="none" stroke="#f8f1ee" stroke-linecap="round" stroke-linejoin="round" stroke-width="0.598"/>
          <path id="Path_45502" data-name="Path 45502" d="M843.438-50.81c5.835.865,11.282,3.394,16.519,6.109A213.934,213.934,0,0,1,918.507-.03" transform="translate(-840.165 71.637)" fill="none" stroke="#f8f1ee" stroke-linecap="round" stroke-linejoin="round" stroke-width="0.598"/>
          <path id="Path_45503" data-name="Path 45503" d="M839.065-49.867c30,13.109,63.326,36.6,87.114,59.1" transform="translate(-839.065 71.4)" fill="none" stroke="#f8f1ee" stroke-linecap="round" stroke-linejoin="round" stroke-width="0.598"/>
          <path id="Path_45504" data-name="Path 45504" d="M1151.905-78.635q-23.422,44.191-46.846,88.379" transform="translate(-905.96 78.635)" fill="none" stroke="#f8f1ee" stroke-linecap="round" stroke-linejoin="round" stroke-width="0.598"/>
        </g>
        <path id="Path_45505" data-name="Path 45505" d="M1111.206-94.466c-3.312-8.252-4.837-7.439-11.7-13.094a80.555,80.555,0,0,0-20.475-12.8c-7.485-3.3-17.268-6.784-25.333-8.157-13.036-2.219-24.832-3.689-37.986-5.043L953-13.509s95.051,8.573,100.275,38.019Z" transform="translate(-867.232 188.728)" fill="#f8f1ee" stroke="#f8f1ee" stroke-linecap="round" stroke-linejoin="round" stroke-width="0.598"/>
        <g id="Group_17859" data-name="Group 17859" transform="translate(22.365 14.607)">
          <g id="Group_17855" data-name="Group 17855" transform="translate(0 39.624)">
            <path id="Path_45506" data-name="Path 45506" d="M993.041-133.412s-37.221,61.258-58.3,69.742c-29.075,11.7-66.444-6.643-66.444-6.643s57,36.738,63.279,56.1Z" transform="translate(-868.293 134.458)" fill="#e0cfc8" opacity="0.42"/>
            <path id="Path_45507" data-name="Path 45507" d="M1022.962-134.81s-26.39,66.645-20.436,88.576c8.214,30.246,45.389,48.976,45.389,48.976S984.228-20.541,965-13.866Z" transform="translate(-892.613 134.81)" fill="#e0cfc8" opacity="0.42"/>
          </g>
          <g id="Group_17858" data-name="Group 17858" transform="translate(15.433)" opacity="0.46">
            <g id="Group_17856" data-name="Group 17856">
              <path id="Path_45508" data-name="Path 45508" d="M922.468-187.747l13.575,4.954" transform="translate(-897.35 187.747)" fill="none" stroke="#659feb" stroke-miterlimit="10" stroke-width="2.121"/>
              <path id="Path_45509" data-name="Path 45509" d="M950.315-175.215a151.867,151.867,0,0,1,49.229,39" transform="translate(-904.354 184.595)" fill="none" stroke="#659feb" stroke-miterlimit="10" stroke-width="2.121"/>
              <path id="Path_45510" data-name="Path 45510" d="M911.147-167.846A73.451,73.451,0,0,1,956.1-145.309" transform="translate(-894.503 182.742)" fill="none" stroke="#659feb" stroke-miterlimit="10" stroke-width="2.121"/>
              <path id="Path_45511" data-name="Path 45511" d="M981.834-125.941,998.6-112.3" transform="translate(-912.28 172.203)" fill="none" stroke="#659feb" stroke-miterlimit="10" stroke-width="2.121"/>
              <path id="Path_45512" data-name="Path 45512" d="M895.474-124.811a161.555,161.555,0,0,1,58.666,34.6c4.7,4.348,9.145,8.972,13.582,13.593" transform="translate(-890.561 171.919)" fill="none" stroke="#659feb" stroke-miterlimit="10" stroke-width="2.121"/>
              <path id="Path_45513" data-name="Path 45513" d="M888.911-106.948a121.555,121.555,0,0,1,22.8,11.561" transform="translate(-888.911 167.427)" fill="none" stroke="#659feb" stroke-miterlimit="10" stroke-width="2.121"/>
              <path id="Path_45514" data-name="Path 45514" d="M932.42-80.52l32.705,26.013" transform="translate(-899.854 160.78)" fill="none" stroke="#659feb" stroke-miterlimit="10" stroke-width="2.121"/>
              <path id="Path_45515" data-name="Path 45515" d="M901.7-54.964c5.139,1.314,10.525,5.3,14.443,8.877" transform="translate(-892.127 154.353)" fill="none" stroke="#659feb" stroke-miterlimit="10" stroke-width="2.121"/>
              <path id="Path_45516" data-name="Path 45516" d="M927.469-36.438l18.95,18.323" transform="translate(-898.608 149.694)" fill="none" stroke="#659feb" stroke-miterlimit="10" stroke-width="2.121"/>
            </g>
            <g id="Group_17857" data-name="Group 17857" transform="translate(86.478 57.042)">
              <path id="Path_45517" data-name="Path 45517" d="M1046.979-111.54a87.293,87.293,0,0,1,16.195,3.865" transform="translate(-1015.142 111.54)" fill="none" stroke="#659feb" stroke-miterlimit="10" stroke-width="2.121"/>
              <path id="Path_45518" data-name="Path 45518" d="M1081.785-102.18a114.987,114.987,0,0,1,44.986,22.458" transform="translate(-1023.895 109.186)" fill="none" stroke="#659feb" stroke-miterlimit="10" stroke-width="2.121"/>
              <path id="Path_45519" data-name="Path 45519" d="M1037.478-89.9a70.614,70.614,0,0,1,31.906,10.3" transform="translate(-1012.752 106.099)" fill="none" stroke="#659feb" stroke-miterlimit="10" stroke-width="2.121"/>
              <path id="Path_45520" data-name="Path 45520" d="M1095.2-70.252a238.207,238.207,0,0,1,30.624,16.546" transform="translate(-1027.269 101.156)" fill="none" stroke="#659feb" stroke-miterlimit="10" stroke-width="2.121"/>
              <path id="Path_45521" data-name="Path 45521" d="M1024.155-64.53l15.852,5.558" transform="translate(-1009.402 99.717)" fill="none" stroke="#659feb" stroke-miterlimit="10" stroke-width="2.121"/>
              <path id="Path_45522" data-name="Path 45522" d="M1053.2-53.3a20.509,20.509,0,0,0,6.708,2.88" transform="translate(-1016.707 96.893)" fill="none" stroke="#659feb" stroke-miterlimit="10" stroke-width="2.121"/>
              <path id="Path_45523" data-name="Path 45523" d="M1004.445-28.883a167.71,167.71,0,0,1,71.391,32.375" transform="translate(-1004.445 90.752)" fill="none" stroke="#659feb" stroke-miterlimit="10" stroke-width="2.121"/>
              <path id="Path_45524" data-name="Path 45524" d="M1030.861-1.54C1036.206-2,1043.226,3,1047.715,5.943" transform="translate(-1011.088 83.884)" fill="none" stroke="#659feb" stroke-miterlimit="10" stroke-width="2.121"/>
              <path id="Path_45525" data-name="Path 45525" d="M1063.224,13.25l21.245,11.777" transform="translate(-1019.227 80.156)" fill="none" stroke="#659feb" stroke-miterlimit="10" stroke-width="2.121"/>
            </g>
          </g>
        </g>
      </g>
      <g id="Group_17861" data-name="Group 17861" transform="translate(143.358 61.499)">
        <path id="Path_45526" data-name="Path 45526" d="M762.067-178.048c-2.48,34.013,50.969,53,50.969,53l12,3.2c10.608,6.567,16.005,7.438,16.005,7.438l-6.991-4.2,10.752,3.366c.291.085-.41-.689-.675-.832l-8.216-4.408,11.045,2.767a.214.214,0,0,0,.149-.4l-10.35-5.227s10.623,2.439,9.742,1.5-11.341-5.062-11.341-5.062,3.424-5.067,3.119-5.514c-.5-.734-4.164,1.421-7.911,2.012-2.361.372-20.144-7.192-20.144-7.192C796.617-143.708,779-159,781.016-180.9c0,0-.836-7.264-9.63-8S762.067-178.048,762.067-178.048Z" transform="translate(-761.774 188.94)" fill="#ffa47a" stroke="#ffa47a" stroke-linecap="round" stroke-linejoin="round" stroke-width="1.476"/>
        <path id="Path_45527" data-name="Path 45527" d="M792.109-151.239c-6.867-7.626-8.865-16.023-11.163-29.663,0,0-.836-7.264-9.63-8S762-178.048,762-178.048c-.834,11.442-.315,18.284,7.346,26.174Z" transform="translate(-761.704 188.94)" fill="#ff7f4d" stroke="#ff7f4d" stroke-miterlimit="10" stroke-width="0.595"/>
        <path id="Path_45528" data-name="Path 45528" d="M796.147-138.076l-16.868,4.025a30.451,30.451,0,0,1-4.286-4.521Z" transform="translate(-765.046 176.273)" fill="#cf5540"/>
      </g>
    </g>
    <g id="Group_17865" data-name="Group 17865" transform="translate(9.189 40.531)">
      <g id="Group_17863" data-name="Group 17863" transform="translate(16.933 32.205)">
        <path id="Path_45529" data-name="Path 45529" d="M845.831-33.286C838.994-14.161,825.812-2.1,806.874-3.426c-15.2-1.064-29.294-7.986-42.935-14.782-4.673-2.328-9.462-4.742-12.972-8.606-5.17-5.689-6.83-13.646-8.291-21.193l-4.37-22.568c-1.11-5.734-2.3-11.659-5.661-16.434s-9.534-8.1-15.1-6.317-8.4,10.012-4.017,13.867c9.253-5.558,8.634-19.136,5.5-29.463a125.552,125.552,0,0,0-26.194-46.761c-8.21-9.24-18.792-17.662-31.141-18.217-15.977-.718-29.421,11.791-38.614,24.879-9.528,13.567-16.888,29.172-17.915,45.72-.516,8.32,1.1,17.672,7.751,22.7s18.892,1.644,19.179-6.689" transform="translate(-605.077 173.928)" fill="none" stroke="#ff7f4d" stroke-linecap="round" stroke-linejoin="round" stroke-width="2.121" stroke-dasharray="9.092"/>
        <path id="Path_45530" data-name="Path 45530" d="M1133.4-94.071c4.474,1.859,9.767.865,13.9-1.665s7.252-6.421,9.86-10.5c3.657-5.728,6.544-12.549,5.109-19.192a26.378,26.378,0,0,0-4.708-9.512,37.951,37.951,0,0,0-9.223-9.553,26.138,26.138,0,0,0-25.2-2.09,26.137,26.137,0,0,0-14.729,20.547" transform="translate(-731.661 167.63)" fill="none" stroke="#f8f1ee" stroke-linecap="round" stroke-linejoin="round" stroke-width="2.121" stroke-dasharray="7.332" style="mix-blend-mode: lighten;isolation: isolate"/>
      </g>
      <g id="Group_17864" data-name="Group 17864" transform="translate(160.483 0)">
        <path id="Path_45531" data-name="Path 45531" d="M1221.148-14.777a3.167,3.167,0,0,1-3.7,2.525,3.168,3.168,0,0,1-2.524-3.7,3.167,3.167,0,0,1,3.7-2.525A3.168,3.168,0,0,1,1221.148-14.777Z" transform="translate(-901.984 167.053)" fill="#659feb"/>
        <path id="Path_45532" data-name="Path 45532" d="M1178.09-30.377a4.222,4.222,0,0,1-4.934,3.365,4.224,4.224,0,0,1-3.366-4.934,4.224,4.224,0,0,1,4.935-3.366A4.224,4.224,0,0,1,1178.09-30.377Z" transform="translate(-890.629 171.291)" fill="none" stroke="#659feb" stroke-miterlimit="10" stroke-width="1.061"/>
        <path id="Path_45533" data-name="Path 45533" d="M984.385-212.259a3.959,3.959,0,0,1-4.626,3.156,3.96,3.96,0,0,1-3.156-4.626,3.96,3.96,0,0,1,4.626-3.155A3.96,3.96,0,0,1,984.385-212.259Z" transform="translate(-842.045 216.954)" fill="#ff7f4d"/>
        <path id="Path_45534" data-name="Path 45534" d="M950.026,52.151a4.224,4.224,0,1,1-3.367-4.934A4.224,4.224,0,0,1,950.026,52.151Z" transform="translate(-833.273 150.536)" fill="none" stroke="#ff7f4d" stroke-miterlimit="10" stroke-width="1.061"/>
        <path id="Path_45535" data-name="Path 45535" d="M806.8-78.129a5.016,5.016,0,0,1-5.86,4,5.016,5.016,0,0,1-4-5.859,5.015,5.015,0,0,1,5.86-4A5.016,5.016,0,0,1,806.8-78.129Z" transform="translate(-796.859 183.536)" fill="#659feb" stroke="#659feb" stroke-linecap="round" stroke-linejoin="round" stroke-width="1.061" stroke-dasharray="9.092"/>
      </g>
      <path id="Path_45536" data-name="Path 45536" d="M688.812,3.314a3.3,3.3,0,1,1-3.3-3.3A3.3,3.3,0,0,1,688.812,3.314Z" transform="translate(-607.542 162.389)" fill="#ff7f4d"/>
      <path id="Path_45537" data-name="Path 45537" d="M590.219-36.6a3.883,3.883,0,0,1-3.882,3.883,3.882,3.882,0,0,1-3.882-3.883,3.881,3.881,0,0,1,3.882-3.882A3.882,3.882,0,0,1,590.219-36.6Z" transform="translate(-582.455 172.572)" fill="none" stroke="#659feb" stroke-miterlimit="10" stroke-width="0.948"/>
    </g>
  </g>
</svg>
