<svg xmlns="http://www.w3.org/2000/svg" width="102.858" height="60.356" viewBox="0 0 102.858 60.356">
  <g id="Group_21604" data-name="Group 21604" transform="translate(0.521 0.164)">
    <g id="Group_17835" data-name="Group 17835" transform="translate(34.037 1.482)" opacity="0.4">
      <path id="Path_45446" data-name="Path 45446" d="M1009.624-167.851a37.89,37.89,0,0,1,18.475-20.134,16.871,16.871,0,0,1,7.574-2.038,8.128,8.128,0,0,1,6.776,3.431,11.8,11.8,0,0,1,.652,9.328c-2.219,6.321-10.038,9.648-16.686,8.821" transform="translate(-976.123 201.004)" fill="none" stroke="#659feb" stroke-linecap="round" stroke-linejoin="round" stroke-width="1.046" stroke-dasharray="8.972"/>
      <path id="Path_45447" data-name="Path 45447" d="M1022.118-143.331c4.486-7.421,10.718-14.251,18.913-17.083a11.535,11.535,0,0,1,4.882-.766,5.557,5.557,0,0,1,4.184,2.374,6.113,6.113,0,0,1,.479,4.722,12.853,12.853,0,0,1-4.908,6.871,29.588,29.588,0,0,1-7.658,3.861" transform="translate(-986.697 176.626)" fill="#659feb" stroke="#659feb" stroke-linecap="round" stroke-linejoin="round" stroke-width="1.046" stroke-dasharray="8.972"/>
      <path id="Path_45448" data-name="Path 45448" d="M974.958-.566c1.761,9.694,9.88,11.829,16.405,11.71a9.268,9.268,0,0,0,5.866-1.9c2.473-2.1,3.013-5.631,4.4-8.565,1.84-3.9,4.269-7.631,8.428-8.777" transform="translate(-946.784 47.037)" fill="none" stroke="#659feb" stroke-linecap="round" stroke-linejoin="round" stroke-width="1.046" stroke-dasharray="8.972"/>
      <path id="Path_45449" data-name="Path 45449" d="M851.108-228.018a.291.291,0,0,1-.381.277c-1.667-5.012-1.416-10.421-1.668-15.7s-1.166-10.85-4.629-14.837a8.46,8.46,0,0,0-5.723-3.179c-2.24-.111-4.629,1.366-5.006,3.577a10.69,10.69,0,0,0,.065,2.569,13.2,13.2,0,0,1-.479,4.6,2.81,2.81,0,0,1-.7,1.334c-1,.919-2.637.234-3.932.634a3.471,3.471,0,0,0-1.947,1.869,7.544,7.544,0,0,0-.42,5.171,13.028,13.028,0,0,0,2.42,4.672,20.8,20.8,0,0,0,12.9,7.727" transform="translate(-820.74 261.459)" fill="#659feb" stroke="#659feb" stroke-linecap="round" stroke-linejoin="round" stroke-width="1.046" stroke-dasharray="8.972"/>
      <path id="Path_45450" data-name="Path 45450" d="M822.066-195.484a7.147,7.147,0,0,0-6.957,4.683,9.608,9.608,0,0,0,1.267,8.574,14.863,14.863,0,0,0,7.1,5.31" transform="translate(-811.068 205.641)" fill="none" stroke="#659feb" stroke-linecap="round" stroke-linejoin="round" stroke-width="1.046" stroke-dasharray="8.972"/>
      <path id="Path_45451" data-name="Path 45451" d="M811.513-69.137c-2.872-.739-7.654.852-10.619.945a11.485,11.485,0,0,0-8.046,3.226c-.91.967-1.6,2.438-.942,3.591a2.817,2.817,0,0,0,1.061.985c2.273,1.324,5.143.783,7.713,1.345a3.1,3.1,0,0,1,2.516,1.862c.364,1.335-.831,2.757-.392,4.069a2.267,2.267,0,0,0,1.776,1.39,5.1,5.1,0,0,0,2.332-.237,10.563,10.563,0,0,0,4.712-2.721,7.008,7.008,0,0,0,2.026-4.962c-.046-1.392,4.749-8.679,4.151-9.938" transform="translate(-791.646 99.071)" fill="#659feb" stroke="#659feb" stroke-linecap="round" stroke-linejoin="round" stroke-width="1.046" stroke-dasharray="8.972"/>
      <path id="Path_45452" data-name="Path 45452" d="M853.77-20.009c.232,1.826-2.31,5.471-1.562,7.154a4.693,4.693,0,0,0,4.019,2.4,10,10,0,0,0,8.4-4.015,16.527,16.527,0,0,0,3.146-9.031" transform="translate(-842.783 60.076)" fill="none" stroke="#659feb" stroke-linecap="round" stroke-linejoin="round" stroke-width="1.046" stroke-dasharray="8.972"/>
      <path id="Path_45453" data-name="Path 45453" d="M956.22-61.536c.843,2.116,5.048,16.054,6.2,18.016a14.289,14.289,0,0,0,2.644,3.474,14.7,14.7,0,0,0,4.156,2.416c2.1.892,4.585,1.633,6.575.521a5.5,5.5,0,0,0,2.436-5.051c-.074-1.966-2.742-18.1-3.515-19.91" transform="translate(-930.926 92.713)" fill="#659feb" stroke="#659feb" stroke-linecap="round" stroke-linejoin="round" stroke-width="1.046" stroke-dasharray="8.972"/>
      <path id="Path_45454" data-name="Path 45454" d="M1023.58-167.481a25.365,25.365,0,0,0,2.592-5.972,8.542,8.542,0,0,0-.672-6.331,2.49,2.49,0,0,0-.875-.947,1.144,1.144,0,0,0-1.231.027,1.769,1.769,0,0,0-.5.917l-.788,2.539a1.122,1.122,0,0,1-.239.48.87.87,0,0,1-1.132-.106c-.316-.272-.523-.654-.84-.925a2.176,2.176,0,0,0-2.914.422c-.716.821,1.168,14.68,1.209,15.769" transform="translate(-982.207 193.278)" fill="#659feb" stroke="#659feb" stroke-linecap="round" stroke-linejoin="round" stroke-width="1.046" stroke-dasharray="8.972"/>
    </g>
    <g id="Group_17862" data-name="Group 17862" transform="translate(0 0)">
      <g id="Group_17836" data-name="Group 17836" transform="translate(31.255 8.882)">
        <path id="Path_45455" data-name="Path 45455" d="M774.671-205.489c5.482,4.357,14.887-2.512,14.887-2.512l1.932-1.666a10.485,10.485,0,0,0,3.114-1.854l-1.521.7,1.815-1.434c.048-.039-.164-.01-.219.018l-1.7.884,1.747-1.553a.044.044,0,0,0-.051-.071l-2.084,1.15s1.643-1.52,1.382-1.478a25.922,25.922,0,0,0-2.422,1.549s.892-1.451.623-1.373a8.777,8.777,0,0,0-1.319,1.536c-.3.392-.213.525-.641.776l-3.111,1.842c-2.61,1.6-7.243,2.821-10.724-.057a2,2,0,0,0-2.472.707C772.765-206.92,774.671-205.489,774.671-205.489Z" transform="translate(-773.543 213.307)" fill="#ffa47a" stroke="#ffa47a" stroke-linecap="round" stroke-linejoin="round" stroke-width="1.476"/>
        <path id="Path_45456" data-name="Path 45456" d="M782.7-184.917c-2.088.282-3.743-.351-6.323-1.539a2,2,0,0,0-2.472.707c-1.143,1.406.763,2.837.763,2.837,1.844,1.466,3.065,2.169,5.29,1.783Z" transform="translate(-773.543 190.73)" fill="#ff7f4d" stroke="#ff7f4d" stroke-miterlimit="10" stroke-width="0.595"/>
        <path id="Path_45457" data-name="Path 45457" d="M820.227-175.557l-1.105,3.285a8.689,8.689,0,0,1-1.383.2Z" transform="translate(-810.947 181.359)" fill="#cf5540"/>
        <path id="Path_45458" data-name="Path 45458" d="M881.13-198.795c.092.147.163.389.064.451s-.332-.078-.425-.225" transform="translate(-864.29 201.025)" fill="#cf5540"/>
        <path id="Path_45459" data-name="Path 45459" d="M891.662-208.354s-.246.7-.244.68l.978-1.163Z" transform="translate(-873.302 209.524)" fill="#cf5540"/>
      </g>
      <g id="Group_17849" data-name="Group 17849">
        <g id="Group_17837" data-name="Group 17837" transform="translate(28.668)">
          <path id="Path_45460" data-name="Path 45460" d="M758.939-270.236c1.63.508,5.7,6,5.7,6a4.741,4.741,0,0,1,1.412,2.432,2.529,2.529,0,0,1-.444,1.584l-5.421,4.4s-4.363-1.546-3.311-4.914,1.943-2.648,1.425-4.576S758.939-270.236,758.939-270.236Z" transform="translate(-756.711 270.369)" fill="#00043b"/>
          <path id="Path_45461" data-name="Path 45461" d="M780.54-262.884a12.643,12.643,0,0,0-1.811-3.614,17.366,17.366,0,0,0-4.5-4.6" transform="translate(-771.534 271.102)" fill="none" stroke="#00043b" stroke-miterlimit="10" stroke-width="0.426"/>
        </g>
        <g id="Group_17838" data-name="Group 17838" transform="translate(31.825 6.853)">
          <path id="Path_45462" data-name="Path 45462" d="M779.629-219.2a.074.074,0,0,1-.112,0,.585.585,0,0,0-.853-.133c-.407.316.033.87.151,1.13a3.717,3.717,0,0,1-.1,2.482,9.689,9.689,0,0,1-1.466,1.9s1.608,1.8,2.786,1.012a10.365,10.365,0,0,1,.5-3.035c.008-.011,1.009.59,2.143-1.11a1.956,1.956,0,0,0-.246-2.808C782.222-219.939,781.232-220.88,779.629-219.2Z" transform="translate(-777.25 221.158)" fill="#ffa47a"/>
          <path id="Path_45463" data-name="Path 45463" d="M786.841-178.891c-.039,0-1.651.791-1.651.791a1.3,1.3,0,0,0,1.566.235Z" transform="translate(-783.97 186.21)" fill="#cf5540"/>
          <path id="Path_45464" data-name="Path 45464" d="M805.251-199.358l-.9-.5s-.016.559.27.659A.815.815,0,0,0,805.251-199.358Z" transform="translate(-800.184 203.957)" fill="#fff"/>
          <path id="Path_45465" data-name="Path 45465" d="M788.018-212.986a.358.358,0,0,0-.471-.06.383.383,0,0,0,.03.493" transform="translate(-785.899 215.172)" fill="#cf5540"/>
          <path id="Path_45466" data-name="Path 45466" d="M808.285-201.651l-.3.428.249.11a.066.066,0,0,0,.093-.066Z" transform="translate(-803.26 205.472)" fill="#cf5540"/>
          <path id="Path_45467" data-name="Path 45467" d="M794.351-224.344s-2.608.552-3.646-.215,1.638-2.779,2.636-1.586S794.351-224.344,794.351-224.344Z" transform="translate(-788.438 226.514)" fill="#00043b"/>
          <path id="Path_45468" data-name="Path 45468" d="M793.154-197.332a2.14,2.14,0,0,1-.91-.93c-.182-.368-.182,1.417.622,1.838C792.865-196.424,793.009-196.908,793.154-197.332Z" transform="translate(-789.856 202.645)" fill="#cf5540"/>
          <path id="Path_45469" data-name="Path 45469" d="M807.551-209.029c-.114.013.153-.177.282-.146a.226.226,0,0,1,.185.257A.705.705,0,0,0,807.551-209.029Z" transform="translate(-802.87 211.843)" fill="#00043b"/>
          <path id="Path_45470" data-name="Path 45470" d="M813.685-206.153a.235.235,0,0,0-.325,0,.7.7,0,0,1,.278.195" transform="translate(-807.81 209.339)" fill="#00043b"/>
          <path id="Path_45471" data-name="Path 45471" d="M807.459-204.118c-.04.083-.04.166,0,.186s.106-.032.146-.115.04-.166,0-.186S807.5-204.2,807.459-204.118Z" transform="translate(-802.791 207.662)" fill="#00043b"/>
          <path id="Path_45472" data-name="Path 45472" d="M811.193-202.281c-.038.079-.038.159,0,.178s.1-.031.139-.11.038-.159,0-.178S811.231-202.361,811.193-202.281Z" transform="translate(-805.952 206.102)" fill="#00043b"/>
          <path id="Path_45473" data-name="Path 45473" d="M797.034-205.094a.5.5,0,0,0,.33.628.5.5,0,0,0,.629-.33.5.5,0,0,0-.33-.628A.5.5,0,0,0,797.034-205.094Z" transform="translate(-793.974 208.685)" fill="#e8632e" stroke="#e8632e" stroke-miterlimit="10" stroke-width="0.318" opacity="0.37"/>
          <path id="Path_45474" data-name="Path 45474" d="M789.81-217.833c.221.24.413.505.64.739a1.8,1.8,0,0,0,.812.523,2.161,2.161,0,0,0,.9-.01,3.331,3.331,0,0,0,1.8-.762" transform="translate(-787.88 219.167)" fill="none" stroke="#00043b" stroke-miterlimit="10" stroke-width="0.349"/>
        </g>
        <g id="Group_17839" data-name="Group 17839" transform="translate(5.284 11.222)">
          <path id="Path_45475" data-name="Path 45475" d="M611.062-188.72c-.184-1.214-.292-4.215-.292-4.215l-5.2.281c.661.32,2.985,1.764,2.985,1.764l.41,2.314S611.064-188.742,611.062-188.72Z" transform="translate(-605.415 193.726)" fill="#ffa47a"/>
          <path id="Path_45476" data-name="Path 45476" d="M607.684-195.248l-3.04-1.7a.165.165,0,0,1,.05-.307c1.26-.195,4.66-.7,5.554-.825a.163.163,0,0,1,.183.189c-.1.606-.225,2.286-.309,2.778-.014.078-1.01-1.163-1.359-.962C608.464-195.9,607.711-195.256,607.684-195.248Z" transform="translate(-604.557 198.082)" fill="#659feb" stroke="#659feb" stroke-miterlimit="10" stroke-width="0.318"/>
          <path id="Path_45477" data-name="Path 45477" d="M620.36-186.787l.479-.643a.345.345,0,0,0-.071-.483h0a.345.345,0,0,0-.483.071l-.538.722" transform="translate(-617.413 189.534)" fill="none" stroke="#f8f1ee" stroke-miterlimit="10" stroke-width="0.724"/>
          <path id="Path_45478" data-name="Path 45478" d="M634.94-182.717c.033.727.08,1.452.08,1.452l.907-.043-.117-2.037s-.743-.84-.861-.831a6.379,6.379,0,0,0-.009,1.459" transform="translate(-630.245 186.314)" fill="#cf5540"/>
        </g>
        <g id="Group_17840" data-name="Group 17840" transform="translate(0 22.586)">
          <path id="Path_45479" data-name="Path 45479" d="M578.115-119.911a11.365,11.365,0,0,1-1.6-3.246s-5.516,1.637-5.466,1.653,3.347,1.251,3.347,1.251l2.019,1.513S577.938-119.821,578.115-119.911Z" transform="translate(-570.911 123.309)" fill="#ffa47a" stroke="#ffa47a" stroke-miterlimit="10" stroke-width="1.303"/>
          <path id="Path_45480" data-name="Path 45480" d="M573.562-121l-3.276-1.221a.165.165,0,0,1,.006-.311c1.22-.372,4.514-1.351,5.38-1.606.105-.031.3.138.328.245a16.876,16.876,0,0,0,.767,2.055c.037.07-1.963-.353-2.28-.1C574.216-121.731,573.655-120.949,573.562-121Z" transform="translate(-570.179 124.144)" fill="#659feb" stroke="#659feb" stroke-miterlimit="10" stroke-width="0.318"/>
          <path id="Path_45481" data-name="Path 45481" d="M586.915-111.771l.328-.819a.345.345,0,0,0-.191-.449h0a.345.345,0,0,0-.449.191l-.337.835" transform="translate(-583.793 114.767)" fill="none" stroke="#f8f1ee" stroke-miterlimit="10" stroke-width="0.724"/>
          <path id="Path_45482" data-name="Path 45482" d="M594.781-105.135l-2.106-1.7-.481.482,2.147,1.555Z" transform="translate(-588.81 109.496)" fill="#cf5540"/>
        </g>
        <g id="Group_17846" data-name="Group 17846" transform="translate(5.529 15.895)">
          <g id="Group_17843" data-name="Group 17843" transform="translate(3.076)">
            <g id="Group_17841" data-name="Group 17841">
              <path id="Path_45483" data-name="Path 45483" d="M645.139-161.6a2.343,2.343,0,0,1,1.385,1.958c.24,1.145,1.378-.713,1.35.436-.447.248-2.882,3.387-3.724,3.737-3.73,1.549-6.57,2.216-10.2,1.483-3.55-.717-5.575-4.767-6.608-7.446-.813-2.11-.8-3.833-1.172-5.986a5.3,5.3,0,0,1,2.323-.211c1.431,4.439,3.413,6.911,6.109,7.423a11.452,11.452,0,0,0,6.143-.505A4.7,4.7,0,0,1,645.139-161.6Z" transform="translate(-626.172 167.677)" fill="#365185" stroke="#365185" stroke-miterlimit="10" stroke-width="0.302"/>
            </g>
            <g id="Group_17842" data-name="Group 17842" transform="translate(8.431 5.823)" opacity="0.43" style="mix-blend-mode: multiply;isolation: isolate">
              <path id="Path_45484" data-name="Path 45484" d="M681.031-128.147a11.452,11.452,0,0,0,6.143-.505,4.7,4.7,0,0,1,4.393-.888,2.343,2.343,0,0,1,1.385,1.958c.24,1.145,1.311-.592,1.283.557-.447.248-2.815,3.267-3.656,3.616" transform="translate(-681.031 129.792)" fill="#365185"/>
            </g>
          </g>
          <g id="Group_17845" data-name="Group 17845" transform="translate(0 5.358)">
            <g id="Group_17844" data-name="Group 17844">
              <path id="Path_45485" data-name="Path 45485" d="M630.717-130.131c-1.167-1.08-3.387-2.794-3.575-2.675a6.853,6.853,0,0,0-4.857,3.526,4.477,4.477,0,0,1-.633.916,11.039,11.039,0,0,1-4.53,3.176c-2.561.985-5.682.094-9.236-2.927-.392.415-1.77,1.063-1.73,1.332a27.5,27.5,0,0,0,4.149,4.375c2.288,1.733,6.143,4.109,9.539,2.85a16.744,16.744,0,0,0,7.6-5.627Z" transform="translate(-606.155 132.811)" fill="#4465a6" stroke="#4465a6" stroke-miterlimit="10" stroke-width="0.302"/>
            </g>
            <path id="Path_45486" data-name="Path 45486" d="M627.825-92.056s-10.217,9.974-20.728-2.2a18.041,18.041,0,0,0,7.441,6.544C614.786-87.889,619.984-83.386,627.825-92.056Z" transform="translate(-606.953 100.186)" fill="#4465a6" opacity="0.5" style="mix-blend-mode: multiply;isolation: isolate"/>
          </g>
        </g>
        <g id="Group_17847" data-name="Group 17847" transform="translate(26.471 13.002)">
          <path id="Path_45487" data-name="Path 45487" d="M750.627-185.117c.073.14.573,3.762-.131,4.982-.471.818-3.13,3.255-4.32,4.749a28.386,28.386,0,0,1-3.763-2.794c.376-1.411,1.648-6.884,4.245-8.324a14.666,14.666,0,0,1,1.617.452S749.687-183.66,750.627-185.117Z" transform="translate(-742.413 186.504)" fill="#ffa47a" stroke="#ffa47a" stroke-linecap="round" stroke-linejoin="round" stroke-width="1.476"/>
          <path id="Path_45488" data-name="Path 45488" d="M742.53-137.628l-.109.43,2.935,2.576Z" transform="translate(-742.419 145.14)" fill="#cf5540"/>
        </g>
        <g id="Group_17848" data-name="Group 17848" transform="translate(26.203 13.002)">
          <path id="Path_45489" data-name="Path 45489" d="M749.15-185.117c.073.14.573,3.762-.131,4.982-.471.818-3.13,3.255-4.32,4.749a35.1,35.1,0,0,1-4.031-4.177c.377-1.411,1.916-5.5,4.513-6.941a14.677,14.677,0,0,1,1.617.452S748.21-183.66,749.15-185.117Z" transform="translate(-740.668 186.504)" fill="#f8f1ee" stroke="#f8f1ee" stroke-miterlimit="10" stroke-width="1.476"/>
          <path id="Path_45490" data-name="Path 45490" d="M744.7-175.386a35.1,35.1,0,0,1-4.031-4.177c.377-1.411,1.916-5.5,4.513-6.941a14.677,14.677,0,0,1,1.617.452" transform="translate(-740.668 186.504)" fill="#f8f1ee" stroke="#f8f1ee" stroke-linecap="round" stroke-linejoin="round" stroke-width="1.476" style="mix-blend-mode: multiply;isolation: isolate"/>
        </g>
      </g>
      <g id="Group_17850" data-name="Group 17850" transform="translate(37.609 7.006)">
        <path id="Path_45491" data-name="Path 45491" d="M946.141-114.048l21.426,9.232a1.843,1.843,0,0,0,2.337-.817l13.724-25.632c.544-1,.519-2.142-.557-2.514a35.1,35.1,0,0,0-12.866-6.6c-2.378-.689-10.088-1.363-10.088-1.363Z" transform="translate(-925.969 154.621)" fill="none" stroke="#f8f1ee" stroke-linecap="round" stroke-linejoin="round" stroke-width="1.061"/>
        <path id="Path_45492" data-name="Path 45492" d="M836.02-184.551l-20.237-11.824a1.844,1.844,0,0,1-.716-2.372L827.15-224.58c.489-1.029,1.651-1.114,2.72-.722,3.372,1.237,6.37.6,13.128,5.839,1.958,1.517,7.046,7.357,7.046,7.357Z" transform="translate(-814.887 225.518)" fill="none" stroke="#f8f1ee" stroke-linecap="round" stroke-linejoin="round" stroke-width="1.061"/>
      </g>
      <g id="Group_17851" data-name="Group 17851" transform="translate(38.287 7.764)">
        <path id="Path_45493" data-name="Path 45493" d="M875.047-200.127a33.756,33.756,0,0,0-12.375-6.352,86.192,86.192,0,0,0-9.662-1.308,84.355,84.355,0,0,0-6.693-6.98c-6.5-5.033-9.377-4.424-12.618-5.612-1.028-.377-2.145-.3-2.614.694l-11.616,24.831a1.773,1.773,0,0,0,.689,2.28l19.412,11.341.026,0,20.54,8.963a1.773,1.773,0,0,0,2.248-.786l13.2-24.655C876.107-198.671,876.083-199.769,875.047-200.127Z" transform="translate(-819.297 220.587)" fill="#2e4470" stroke="#2e4470" stroke-miterlimit="10" stroke-width="0.302"/>
        <path id="Path_45494" data-name="Path 45494" d="M943.581-116.022l2.209,1.153,13.7-26.977a3.544,3.544,0,0,1-2.236-1.011Z" transform="translate(-924.48 154.803)" fill="#1d2b47" stroke="#1d2b47" stroke-miterlimit="10" stroke-width="0.302"/>
        <path id="Path_45495" data-name="Path 45495" d="M883.495-191.879a49.348,49.348,0,0,0-20.869-7.99,49.382,49.382,0,0,0-18.687-12.1l-12.9,25.07c2.58.7,16.674,10.253,18.779,11.949l-.023.045c.025,0,.057.007.093.012a1.71,1.71,0,0,1,.172.156l.058-.113a104.281,104.281,0,0,1,20.707,8.159Z" transform="translate(-829.234 213.294)" fill="#cfb2a3"/>
      </g>
      <g id="Group_17860" data-name="Group 17860" transform="translate(41.225 9.812)">
        <g id="Group_17853" data-name="Group 17853" transform="translate(23.997 1.56)">
          <path id="Path_45496" data-name="Path 45496" d="M994.555-192.381s1.239-3.648,3.809-4.714a.235.235,0,0,1,.325.194l.075.82.97.131a.232.232,0,0,1,.129.4c-.955.9-3.5,3.518-3.425,4.49Z" transform="translate(-994.555 197.114)" fill="#ff7f4d" stroke="#ff7f4d" stroke-miterlimit="10" stroke-width="0.595"/>
          <g id="Group_17852" data-name="Group 17852" transform="translate(0.436 0.797)" opacity="0.76">
            <path id="Path_45497" data-name="Path 45497" d="M997.39-182.693c.064-.153.107-.314.16-.472a7.5,7.5,0,0,1,1.612-2.457" transform="translate(-997.39 186.591)" fill="none" stroke="#f2fcf9" stroke-miterlimit="10" stroke-width="0.769"/>
            <path id="Path_45498" data-name="Path 45498" d="M1012.3-191.579l.412-.349" transform="translate(-1010.011 191.928)" fill="none" stroke="#f2fcf9" stroke-miterlimit="10" stroke-width="0.769"/>
          </g>
        </g>
        <path id="Path_45499" data-name="Path 45499" d="M850.63-207.055c1.77-.448,1.819-.1,3.588.358a16.555,16.555,0,0,1,4.6,1.85,24.164,24.164,0,0,1,4.416,3.218c1.944,1.9,3.693,3.642,5.508,5.662L856-171.437s-12.067-14.481-17.585-11.788Z" transform="translate(-838.414 207.262)" fill="#f8f1ee" stroke="#f8f1ee" stroke-linecap="round" stroke-linejoin="round" stroke-width="0.598"/>
        <g id="Group_17854" data-name="Group 17854" transform="translate(0.1 19.769)">
          <path id="Path_45500" data-name="Path 45500" d="M979.4,33.747a40.025,40.025,0,0,0-17.9-6.236" transform="translate(-942.686 -11.197)" fill="none" stroke="#f8f1ee" stroke-linecap="round" stroke-linejoin="round" stroke-width="0.598"/>
          <path id="Path_45501" data-name="Path 45501" d="M954.541,28.2a70.489,70.489,0,0,1,19.979,7.355" transform="translate(-936.794 -11.777)" fill="none" stroke="#f8f1ee" stroke-linecap="round" stroke-linejoin="round" stroke-width="0.598"/>
          <path id="Path_45502" data-name="Path 45502" d="M843.438-50.81a11,11,0,0,1,3.392,1.254,43.925,43.925,0,0,1,12.022,9.172" transform="translate(-842.766 55.086)" fill="none" stroke="#f8f1ee" stroke-linecap="round" stroke-linejoin="round" stroke-width="0.598"/>
          <path id="Path_45503" data-name="Path 45503" d="M839.065-49.867a67.779,67.779,0,0,1,17.887,12.134" transform="translate(-839.065 54.288)" fill="none" stroke="#f8f1ee" stroke-linecap="round" stroke-linejoin="round" stroke-width="0.598"/>
          <path id="Path_45504" data-name="Path 45504" d="M1114.678-78.635l-9.619,18.147" transform="translate(-1064.178 78.635)" fill="none" stroke="#f8f1ee" stroke-linecap="round" stroke-linejoin="round" stroke-width="0.598"/>
        </g>
        <path id="Path_45505" data-name="Path 45505" d="M985.487-125.537c-.68-1.694-.993-1.527-2.4-2.689a16.535,16.535,0,0,0-4.2-2.629,24.165,24.165,0,0,0-5.2-1.675c-2.677-.456-5.1-.757-7.8-1.035L953-108.914s19.517,1.76,20.589,7.806Z" transform="translate(-935.393 144.892)" fill="#f8f1ee" stroke="#f8f1ee" stroke-linecap="round" stroke-linejoin="round" stroke-width="0.598"/>
        <g id="Group_17859" data-name="Group 17859" transform="translate(4.592 2.999)">
          <g id="Group_17855" data-name="Group 17855" transform="translate(0 8.136)">
            <path id="Path_45506" data-name="Path 45506" d="M893.908-133.412s-7.642,12.578-11.972,14.32c-5.97,2.4-13.643-1.364-13.643-1.364s11.7,7.543,12.993,11.519Z" transform="translate(-868.293 133.627)" fill="#e0cfc8" opacity="0.42"/>
            <path id="Path_45507" data-name="Path 45507" d="M976.9-134.81s-5.419,13.684-4.2,18.187c1.687,6.21,9.32,10.056,9.32,10.056s-13.077-4.781-17.026-3.41Z" transform="translate(-950.134 134.81)" fill="#e0cfc8" opacity="0.42"/>
          </g>
          <g id="Group_17858" data-name="Group 17858" transform="translate(3.169)" opacity="0.46">
            <g id="Group_17856" data-name="Group 17856">
              <path id="Path_45508" data-name="Path 45508" d="M922.468-187.747l2.787,1.017" transform="translate(-917.311 187.747)" fill="none" stroke="#659feb" stroke-miterlimit="10" stroke-width="2.121"/>
              <path id="Path_45509" data-name="Path 45509" d="M950.315-175.215a31.185,31.185,0,0,1,10.108,8.007" transform="translate(-940.878 177.141)" fill="none" stroke="#659feb" stroke-miterlimit="10" stroke-width="2.121"/>
              <path id="Path_45510" data-name="Path 45510" d="M911.147-167.846a15.082,15.082,0,0,1,9.23,4.627" transform="translate(-907.73 170.905)" fill="none" stroke="#659feb" stroke-miterlimit="10" stroke-width="2.121"/>
              <path id="Path_45511" data-name="Path 45511" d="M981.834-125.941l3.443,2.8" transform="translate(-967.553 135.44)" fill="none" stroke="#659feb" stroke-miterlimit="10" stroke-width="2.121"/>
              <path id="Path_45512" data-name="Path 45512" d="M895.474-124.811a33.172,33.172,0,0,1,12.046,7.1c.966.893,1.878,1.842,2.789,2.791" transform="translate(-894.465 134.484)" fill="none" stroke="#659feb" stroke-miterlimit="10" stroke-width="2.121"/>
              <path id="Path_45513" data-name="Path 45513" d="M888.911-106.948a24.961,24.961,0,0,1,4.682,2.374" transform="translate(-888.911 119.366)" fill="none" stroke="#659feb" stroke-miterlimit="10" stroke-width="2.121"/>
              <path id="Path_45514" data-name="Path 45514" d="M932.42-80.52l6.715,5.341" transform="translate(-925.734 97)" fill="none" stroke="#659feb" stroke-miterlimit="10" stroke-width="2.121"/>
              <path id="Path_45515" data-name="Path 45515" d="M901.7-54.964a7.761,7.761,0,0,1,2.966,1.823" transform="translate(-899.734 75.371)" fill="none" stroke="#659feb" stroke-miterlimit="10" stroke-width="2.121"/>
              <path id="Path_45516" data-name="Path 45516" d="M927.469-36.438l3.891,3.762" transform="translate(-921.543 59.693)" fill="none" stroke="#659feb" stroke-miterlimit="10" stroke-width="2.121"/>
            </g>
            <g id="Group_17857" data-name="Group 17857" transform="translate(17.756 11.712)">
              <path id="Path_45517" data-name="Path 45517" d="M1046.979-111.54a17.925,17.925,0,0,1,3.325.794" transform="translate(-1040.442 111.54)" fill="none" stroke="#659feb" stroke-miterlimit="10" stroke-width="2.121"/>
              <path id="Path_45518" data-name="Path 45518" d="M1081.785-102.18a23.609,23.609,0,0,1,9.237,4.611" transform="translate(-1069.899 103.619)" fill="none" stroke="#659feb" stroke-miterlimit="10" stroke-width="2.121"/>
              <path id="Path_45519" data-name="Path 45519" d="M1037.478-89.9a14.5,14.5,0,0,1,6.551,2.115" transform="translate(-1032.401 93.23)" fill="none" stroke="#659feb" stroke-miterlimit="10" stroke-width="2.121"/>
              <path id="Path_45520" data-name="Path 45520" d="M1095.2-70.252a48.9,48.9,0,0,1,6.288,3.4" transform="translate(-1081.25 76.598)" fill="none" stroke="#659feb" stroke-miterlimit="10" stroke-width="2.121"/>
              <path id="Path_45521" data-name="Path 45521" d="M1024.155-64.53l3.255,1.141" transform="translate(-1021.126 71.755)" fill="none" stroke="#659feb" stroke-miterlimit="10" stroke-width="2.121"/>
              <path id="Path_45522" data-name="Path 45522" d="M1053.2-53.3a4.213,4.213,0,0,0,1.377.591" transform="translate(-1045.71 62.249)" fill="none" stroke="#659feb" stroke-miterlimit="10" stroke-width="2.121"/>
              <path id="Path_45523" data-name="Path 45523" d="M1004.445-28.883a34.438,34.438,0,0,1,14.659,6.648" transform="translate(-1004.445 41.587)" fill="none" stroke="#659feb" stroke-miterlimit="10" stroke-width="2.121"/>
              <path id="Path_45524" data-name="Path 45524" d="M1030.861-1.564c1.1-.095,2.539.933,3.46,1.536" transform="translate(-1026.801 18.471)" fill="none" stroke="#659feb" stroke-miterlimit="10" stroke-width="2.121"/>
              <path id="Path_45525" data-name="Path 45525" d="M1063.224,13.25l4.362,2.418" transform="translate(-1054.19 5.929)" fill="none" stroke="#659feb" stroke-miterlimit="10" stroke-width="2.121"/>
            </g>
          </g>
        </g>
      </g>
      <g id="Group_17861" data-name="Group 17861" transform="translate(29.436 12.627)">
        <path id="Path_45526" data-name="Path 45526" d="M762-186.7c-.509,6.984,10.465,10.882,10.465,10.882l2.465.657a10.483,10.483,0,0,0,3.286,1.527l-1.435-.862,2.208.691c.06.017-.084-.142-.139-.171l-1.687-.905,2.268.568a.044.044,0,0,0,.031-.082l-2.125-1.073s2.181.5,2,.308a21.179,21.179,0,0,0-2.329-1.039,5.668,5.668,0,0,0,.641-1.132c-.1-.151-.855.292-1.624.413a27.266,27.266,0,0,1-4.136-1.477c-2.794-1.254-6.412-4.393-6-8.891a2,2,0,0,0-1.977-1.643C762.108-189.085,762-186.7,762-186.7Z" transform="translate(-761.94 188.94)" fill="#ffa47a" stroke="#ffa47a" stroke-linecap="round" stroke-linejoin="round" stroke-width="1.476"/>
        <path id="Path_45527" data-name="Path 45527" d="M767.947-181.2c-1.41-1.566-1.82-3.29-2.292-6.091a2,2,0,0,0-1.977-1.643c-1.806-.152-1.913,2.229-1.913,2.229-.171,2.349-.065,3.754,1.508,5.374Z" transform="translate(-761.704 188.94)" fill="#ff7f4d" stroke="#ff7f4d" stroke-miterlimit="10" stroke-width="0.595"/>
        <path id="Path_45528" data-name="Path 45528" d="M779.337-138.47l-3.463.827a6.258,6.258,0,0,1-.88-.928Z" transform="translate(-772.951 146.313)" fill="#cf5540"/>
      </g>
    </g>
    <g id="Group_17865" data-name="Group 17865" transform="translate(1.887 8.322)">
      <g id="Group_17863" data-name="Group 17863" transform="translate(3.477 6.613)">
        <path id="Path_45529" data-name="Path 45529" d="M654.511-145.051c-1.4,3.927-4.11,6.4-8,6.131-3.121-.218-6.015-1.64-8.816-3.035a8.7,8.7,0,0,1-2.664-1.767,8.737,8.737,0,0,1-1.7-4.352l-.9-4.634a8.561,8.561,0,0,0-1.162-3.374,2.923,2.923,0,0,0-3.1-1.3c-1.142.365-1.725,2.056-.825,2.847,1.9-1.141,1.773-3.929,1.129-6.05a25.779,25.779,0,0,0-5.378-9.6c-1.686-1.9-3.859-3.626-6.394-3.741-3.281-.147-6.041,2.421-7.929,5.108a18.679,18.679,0,0,0-3.678,9.388c-.106,1.708.226,3.629,1.591,4.661s3.879.338,3.938-1.373" transform="translate(-605.077 173.928)" fill="none" stroke="#ff7f4d" stroke-linecap="round" stroke-linejoin="round" stroke-width="2.121" stroke-dasharray="9.092"/>
        <path id="Path_45530" data-name="Path 45530" d="M1113.543-137.629a3.218,3.218,0,0,0,2.854-.342,6.619,6.619,0,0,0,2.024-2.157,5.433,5.433,0,0,0,1.049-3.941,5.415,5.415,0,0,0-.967-1.953,7.792,7.792,0,0,0-1.894-1.962,5.367,5.367,0,0,0-5.173-.429,5.367,5.367,0,0,0-3.024,4.219" transform="translate(-1031.054 152.732)" fill="none" stroke="#f8f1ee" stroke-linecap="round" stroke-linejoin="round" stroke-width="2.121" stroke-dasharray="7.332" style="mix-blend-mode: lighten;isolation: isolate"/>
      </g>
      <g id="Group_17864" data-name="Group 17864" transform="translate(32.952 0)">
        <path id="Path_45531" data-name="Path 45531" d="M1216.157-17.762a.65.65,0,0,1-.76.518.651.651,0,0,1-.518-.76.65.65,0,0,1,.76-.518A.65.65,0,0,1,1216.157-17.762Z" transform="translate(-1150.624 49.029)" fill="#659feb"/>
        <path id="Path_45532" data-name="Path 45532" d="M1171.435-34.358a.867.867,0,0,1-1.013.691.867.867,0,0,1-.691-1.013.867.867,0,0,1,1.013-.691A.867.867,0,0,1,1171.435-34.358Z" transform="translate(-1112.411 63.291)" fill="none" stroke="#659feb" stroke-miterlimit="10" stroke-width="1.061"/>
        <path id="Path_45533" data-name="Path 45533" d="M978.145-215.99a.813.813,0,0,1-.95.648.813.813,0,0,1-.648-.95.813.813,0,0,1,.95-.648A.813.813,0,0,1,978.145-215.99Z" transform="translate(-948.919 216.954)" fill="#ff7f4d"/>
        <path id="Path_45534" data-name="Path 45534" d="M943.371,48.171a.867.867,0,1,1-.691-1.013A.867.867,0,0,1,943.371,48.171Z" transform="translate(-919.399 -6.554)" fill="none" stroke="#ff7f4d" stroke-miterlimit="10" stroke-width="1.061"/>
        <path id="Path_45535" data-name="Path 45535" d="M798.9-82.856a1.03,1.03,0,0,1-1.2.821,1.03,1.03,0,0,1-.821-1.2,1.03,1.03,0,0,1,1.2-.821A1.03,1.03,0,0,1,798.9-82.856Z" transform="translate(-796.859 104.499)" fill="#659feb" stroke="#659feb" stroke-linecap="round" stroke-linejoin="round" stroke-width="1.061" stroke-dasharray="9.092"/>
      </g>
      <path id="Path_45536" data-name="Path 45536" d="M683.563.689a.678.678,0,1,1-.678-.678A.679.679,0,0,1,683.563.689Z" transform="translate(-666.875 33.334)" fill="#ff7f4d"/>
      <path id="Path_45537" data-name="Path 45537" d="M584.049-39.683a.8.8,0,0,1-.8.8.8.8,0,0,1-.8-.8.8.8,0,0,1,.8-.8A.8.8,0,0,1,584.049-39.683Z" transform="translate(-582.455 67.602)" fill="none" stroke="#659feb" stroke-miterlimit="10" stroke-width="0.948"/>
    </g>
  </g>
</svg>
