<svg xmlns="http://www.w3.org/2000/svg" xmlns:xlink="http://www.w3.org/1999/xlink" width="25.462" height="22.633" viewBox="0 0 25.462 22.633">
  <defs>
    <linearGradient id="linear-gradient" x1="0.5" x2="0.5" y2="1" gradientUnits="objectBoundingBox">
      <stop offset="0" stop-color="#e75d7a"/>
      <stop offset="1" stop-color="#c12280"/>
    </linearGradient>
  </defs>
  <path id="Icon_awesome-shopping-cart" data-name="Icon awesome-shopping-cart" d="M23.345,13.32l2.09-9.195a1.061,1.061,0,0,0-1.035-1.3H7.038L6.633.848A1.061,1.061,0,0,0,5.593,0H1.061A1.061,1.061,0,0,0,0,1.061v.707A1.061,1.061,0,0,0,1.061,2.829H4.15L7.255,18.011a2.476,2.476,0,1,0,2.964.379h9.267a2.475,2.475,0,1,0,2.811-.46l.244-1.073a1.061,1.061,0,0,0-1.035-1.3H9.642l-.289-1.415H22.311A1.061,1.061,0,0,0,23.345,13.32Z" fill="url(#linear-gradient)"/>
</svg>
