<svg xmlns="http://www.w3.org/2000/svg" width="31.61" height="21.073" viewBox="0 0 31.61 21.073">
  <path id="Icon_awesome-eye" data-name="Icon awesome-eye" d="M31.419,14.235A17.6,17.6,0,0,0,15.8,4.5,17.6,17.6,0,0,0,.191,14.236a1.775,1.775,0,0,0,0,1.6A17.6,17.6,0,0,0,15.8,25.573a17.6,17.6,0,0,0,15.614-9.736A1.775,1.775,0,0,0,31.419,14.235ZM15.8,22.939a7.9,7.9,0,1,1,7.9-7.9A7.9,7.9,0,0,1,15.8,22.939Zm0-13.171a5.23,5.23,0,0,0-1.389.208,2.626,2.626,0,0,1-3.671,3.671A5.256,5.256,0,1,0,15.8,9.768Z" transform="translate(0 -4.5)" fill="#fff"/>
</svg>
