<svg xmlns="http://www.w3.org/2000/svg" width="181.45" height="106.621" viewBox="0 0 181.45 106.621">
  <g id="Group_20938" data-name="Group 20938" transform="translate(0.418 0.164)">
    <g id="Group_17835" data-name="Group 17835" transform="translate(60.429 2.631)" opacity="0.4">
      <path id="Path_45446" data-name="Path 45446" d="M1009.624-150.659a67.269,67.269,0,0,1,32.8-35.745c4.208-2.06,8.762-3.7,13.447-3.619s9.535,2.126,12.031,6.092c2.009,3.193,3.424,10.1,1.158,16.56-3.94,11.222-17.822,17.128-29.624,15.66" transform="translate(-950.147 209.516)" fill="none" stroke="#659feb" stroke-linecap="round" stroke-linejoin="round" stroke-width="1.046" stroke-dasharray="8.972"/>
      <path id="Path_45447" data-name="Path 45447" d="M1022.118-129.46c7.964-13.174,19.028-25.3,33.577-30.329a20.478,20.478,0,0,1,8.668-1.361,9.868,9.868,0,0,1,7.428,4.215,10.854,10.854,0,0,1,.85,8.383c-1.26,4.935-4.642,9.136-8.713,12.2a52.533,52.533,0,0,1-13.6,6.855" transform="translate(-959.232 188.571)" fill="#659feb" stroke="#659feb" stroke-linecap="round" stroke-linejoin="round" stroke-width="1.046" stroke-dasharray="8.972"/>
      <path id="Path_45448" data-name="Path 45448" d="M974.958,5.274c3.126,17.21,17.541,21,29.126,20.79,3.721-.068,7.576-.965,10.414-3.374,4.39-3.727,5.349-10,7.805-15.206,3.268-6.928,7.578-13.547,14.963-15.582" transform="translate(-924.94 77.229)" fill="none" stroke="#659feb" stroke-linecap="round" stroke-linejoin="round" stroke-width="1.046" stroke-dasharray="8.972"/>
      <path id="Path_45449" data-name="Path 45449" d="M870.557-202.089a.517.517,0,0,1-.676.492c-2.959-8.9-2.515-18.5-2.962-27.868s-2.07-19.262-8.219-26.341c-2.612-3.007-6.183-5.446-10.161-5.644s-8.217,2.424-8.887,6.35a18.984,18.984,0,0,0,.115,4.561,23.434,23.434,0,0,1-.85,8.174,4.992,4.992,0,0,1-1.237,2.369c-1.772,1.631-4.681.416-6.982,1.126a6.162,6.162,0,0,0-3.457,3.319,13.393,13.393,0,0,0-.745,9.181,23.131,23.131,0,0,0,4.3,8.3,36.918,36.918,0,0,0,22.9,13.718" transform="translate(-816.643 261.459)" fill="#659feb" stroke="#659feb" stroke-linecap="round" stroke-linejoin="round" stroke-width="1.046" stroke-dasharray="8.972"/>
      <path id="Path_45450" data-name="Path 45450" d="M827.858-195.468c-5.31-.455-10.478,3.326-12.351,8.314s-.736,10.807,2.249,15.222a26.387,26.387,0,0,0,12.6,9.426" transform="translate(-808.333 213.501)" fill="none" stroke="#659feb" stroke-linecap="round" stroke-linejoin="round" stroke-width="1.046" stroke-dasharray="8.972"/>
      <path id="Path_45451" data-name="Path 45451" d="M826.918-68.792c-5.1-1.311-13.59,1.513-18.852,1.678s-10.676,1.894-14.284,5.728c-1.616,1.717-2.844,4.329-1.673,6.375a5,5,0,0,0,1.884,1.749c4.036,2.351,9.131,1.39,13.694,2.388,1.9.417,3.954,1.424,4.468,3.306.646,2.37-1.475,4.895-.7,7.225a4.025,4.025,0,0,0,3.152,2.468,9.046,9.046,0,0,0,4.14-.42,18.753,18.753,0,0,0,8.365-4.831,12.441,12.441,0,0,0,3.6-8.81c-.081-2.472,8.431-15.408,7.37-17.644" transform="translate(-791.645 121.936)" fill="#659feb" stroke="#659feb" stroke-linecap="round" stroke-linejoin="round" stroke-width="1.046" stroke-dasharray="8.972"/>
      <path id="Path_45452" data-name="Path 45452" d="M855.088-17.3c.412,3.242-4.1,9.713-2.773,12.7,1.181,2.657,4.237,4.016,7.135,4.254,5.724.472,11.378-2.607,14.919-7.129s5.168-10.3,5.585-16.033" transform="translate(-835.582 88.433)" fill="none" stroke="#659feb" stroke-linecap="round" stroke-linejoin="round" stroke-width="1.046" stroke-dasharray="8.972"/>
      <path id="Path_45453" data-name="Path 45453" d="M956.22-61.123c1.5,3.756,8.962,28.5,11.011,31.986a25.355,25.355,0,0,0,4.693,6.168,26.09,26.09,0,0,0,7.378,4.29c3.726,1.584,8.139,2.9,11.673.924,3.049-1.7,4.456-5.477,4.325-8.967s-4.868-32.136-6.24-35.347" transform="translate(-911.314 116.474)" fill="#659feb" stroke="#659feb" stroke-linecap="round" stroke-linejoin="round" stroke-width="1.046" stroke-dasharray="8.972"/>
      <path id="Path_45454" data-name="Path 45454" d="M1028.827-157.079a45.035,45.035,0,0,0,4.6-10.6c.91-3.755.78-7.918-1.193-11.239a4.419,4.419,0,0,0-1.553-1.682,2.032,2.032,0,0,0-2.186.049,3.143,3.143,0,0,0-.9,1.629l-1.4,4.508a1.994,1.994,0,0,1-.425.853,1.546,1.546,0,0,1-2.01-.188c-.562-.483-.929-1.162-1.492-1.643-1.471-1.255-3.9-.708-5.173.75s2.075,26.063,2.146,28" transform="translate(-955.374 202.878)" fill="#659feb" stroke="#659feb" stroke-linecap="round" stroke-linejoin="round" stroke-width="1.046" stroke-dasharray="8.972"/>
    </g>
    <g id="Group_17862" data-name="Group 17862" transform="translate(0 0)">
      <g id="Group_17836" data-name="Group 17836" transform="translate(55.489 15.77)">
        <path id="Path_45455" data-name="Path 45455" d="M775.546-199.428c9.733,7.735,26.431-4.46,26.431-4.46l3.429-2.958c4.156-1.845,5.528-3.292,5.528-3.292l-2.7,1.242,3.222-2.546c.086-.07-.292-.018-.389.032l-3.015,1.569,3.1-2.757a.078.078,0,0,0-.09-.127l-3.7,2.043s2.916-2.7,2.453-2.625a46.028,46.028,0,0,0-4.3,2.749s1.584-2.576,1.105-2.437a15.584,15.584,0,0,0-2.342,2.727c-.525.7-.378.933-1.137,1.377l-5.523,3.271c-4.635,2.843-12.858,5.008-19.04-.1a3.549,3.549,0,0,0-4.389,1.256C772.162-201.968,775.546-199.428,775.546-199.428Z" transform="translate(-773.543 213.307)" fill="#ffa47a" stroke="#ffa47a" stroke-linecap="round" stroke-linejoin="round" stroke-width="1.476"/>
        <path id="Path_45456" data-name="Path 45456" d="M789.806-183.589c-3.707.5-6.646-.622-11.226-2.733a3.549,3.549,0,0,0-4.389,1.256c-2.029,2.5,1.355,5.037,1.355,5.037,3.274,2.6,5.441,3.851,9.391,3.165Z" transform="translate(-773.543 193.909)" fill="#ff7f4d" stroke="#ff7f4d" stroke-miterlimit="10" stroke-width="0.595"/>
        <path id="Path_45457" data-name="Path 45457" d="M822.156-175.557l-1.962,5.832a15.43,15.43,0,0,1-2.456.349Z" transform="translate(-805.68 185.857)" fill="#cf5540"/>
        <path id="Path_45458" data-name="Path 45458" d="M881.41-198.795c.163.261.29.69.113.8s-.59-.139-.754-.4" transform="translate(-851.512 202.755)" fill="#cf5540"/>
        <path id="Path_45459" data-name="Path 45459" d="M891.851-207.979s-.437,1.244-.433,1.207l1.735-2.065Z" transform="translate(-859.255 210.057)" fill="#cf5540"/>
      </g>
      <g id="Group_17849" data-name="Group 17849">
        <g id="Group_17837" data-name="Group 17837" transform="translate(50.897)">
          <path id="Path_45460" data-name="Path 45460" d="M760.667-270.236c2.894.9,10.119,10.661,10.119,10.661a8.417,8.417,0,0,1,2.507,4.319,4.491,4.491,0,0,1-.788,2.812l-9.625,7.817s-7.746-2.745-5.878-8.724,3.45-4.7,2.53-8.125S760.667-270.236,760.667-270.236Z" transform="translate(-756.711 270.472)" fill="#00043b"/>
          <path id="Path_45461" data-name="Path 45461" d="M785.436-256.512a22.446,22.446,0,0,0-3.216-6.417c-3.6-4.806-3.364-4.351-7.994-8.173" transform="translate(-769.447 271.102)" fill="none" stroke="#00043b" stroke-miterlimit="10" stroke-width="0.426"/>
        </g>
        <g id="Group_17838" data-name="Group 17838" transform="translate(56.501 12.166)">
          <path id="Path_45462" data-name="Path 45462" d="M781.474-218.44a.132.132,0,0,1-.2,0,1.039,1.039,0,0,0-1.514-.235c-.723.56.058,1.545.268,2.006a6.6,6.6,0,0,1-.177,4.406,17.2,17.2,0,0,1-2.6,3.37s2.855,3.193,4.947,1.8c0,0,.207-4.5.9-5.388.015-.019,1.791,1.047,3.8-1.971,1.9-2.843.019-4.621-.436-4.985C786.077-219.748,784.319-221.419,781.474-218.44Z" transform="translate(-777.25 221.912)" fill="#ffa47a"/>
          <path id="Path_45463" data-name="Path 45463" d="M788.121-178.891c-.069.005-2.931,1.4-2.931,1.4a2.31,2.31,0,0,0,2.78.418Z" transform="translate(-783.023 191.885)" fill="#cf5540"/>
          <path id="Path_45464" data-name="Path 45464" d="M805.95-198.967l-1.6-.894s-.029.992.479,1.17A1.446,1.446,0,0,0,805.95-198.967Z" transform="translate(-796.955 207.134)" fill="#fff"/>
          <path id="Path_45465" data-name="Path 45465" d="M788.443-212.889a.635.635,0,0,0-.836-.107.679.679,0,0,0,.053.876" transform="translate(-784.681 216.769)" fill="#cf5540"/>
          <path id="Path_45466" data-name="Path 45466" d="M808.52-201.651l-.537.759.442.2a.117.117,0,0,0,.165-.117Z" transform="translate(-799.597 208.435)" fill="#cf5540"/>
          <path id="Path_45467" data-name="Path 45467" d="M797.36-222.661s-4.63.98-6.473-.382,2.908-4.933,4.68-2.816S797.36-222.661,797.36-222.661Z" transform="translate(-786.863 226.514)" fill="#00043b"/>
          <path id="Path_45468" data-name="Path 45468" d="M793.936-196.573a3.8,3.8,0,0,1-1.616-1.65c-.324-.653-.323,2.516,1.1,3.263C793.424-194.96,793.678-195.819,793.936-196.573Z" transform="translate(-788.081 206.006)" fill="#cf5540"/>
          <path id="Path_45469" data-name="Path 45469" d="M807.572-208.913c-.2.023.271-.314.5-.259a.4.4,0,0,1,.329.457A1.254,1.254,0,0,0,807.572-208.913Z" transform="translate(-799.263 213.908)" fill="#00043b"/>
          <path id="Path_45470" data-name="Path 45470" d="M813.937-206.1a.418.418,0,0,0-.577-.007,1.237,1.237,0,0,1,.494.346" transform="translate(-803.507 211.758)" fill="#00043b"/>
          <path id="Path_45471" data-name="Path 45471" d="M807.482-204.026c-.071.148-.071.3,0,.33s.187-.057.259-.2.071-.3,0-.33S807.553-204.173,807.482-204.026Z" transform="translate(-799.194 210.316)" fill="#00043b"/>
          <path id="Path_45472" data-name="Path 45472" d="M811.215-202.193c-.068.141-.068.282,0,.315s.179-.055.247-.2.068-.282,0-.315S811.283-202.334,811.215-202.193Z" transform="translate(-801.911 208.977)" fill="#00043b"/>
          <path id="Path_45473" data-name="Path 45473" d="M797.052-204.821a.891.891,0,0,0,.585,1.115.891.891,0,0,0,1.116-.585.891.891,0,0,0-.585-1.115A.891.891,0,0,0,797.052-204.821Z" transform="translate(-791.619 211.195)" fill="#e8632e" stroke="#e8632e" stroke-miterlimit="10" stroke-width="0.318" opacity="0.37"/>
          <path id="Path_45474" data-name="Path 45474" d="M789.81-217.833c.393.426.734.9,1.136,1.312a3.194,3.194,0,0,0,1.442.928,3.837,3.837,0,0,0,1.594-.017,5.914,5.914,0,0,0,3.2-1.353" transform="translate(-786.383 220.202)" fill="none" stroke="#00043b" stroke-miterlimit="10" stroke-width="0.349"/>
        </g>
        <g id="Group_17839" data-name="Group 17839" transform="translate(9.38 19.924)">
          <path id="Path_45475" data-name="Path 45475" d="M615.319-185.452c-.327-2.156-.519-7.483-.519-7.483l-9.229.5c1.174.568,5.3,3.132,5.3,3.132l.729,4.108S615.322-185.49,615.319-185.452Z" transform="translate(-605.294 194.339)" fill="#ffa47a"/>
          <path id="Path_45476" data-name="Path 45476" d="M610.108-193.051l-5.4-3.019a.292.292,0,0,1,.089-.545c2.238-.345,8.273-1.236,9.861-1.464a.289.289,0,0,1,.325.335c-.17,1.075-.4,4.058-.549,4.932-.024.139-1.793-2.065-2.412-1.708C611.492-194.213,610.155-193.065,610.108-193.051Z" transform="translate(-604.557 198.082)" fill="#659feb" stroke="#659feb" stroke-miterlimit="10" stroke-width="0.318"/>
          <path id="Path_45477" data-name="Path 45477" d="M620.835-185.861l.85-1.142a.612.612,0,0,0-.126-.857h0a.612.612,0,0,0-.857.126l-.954,1.282" transform="translate(-615.602 190.738)" fill="none" stroke="#f8f1ee" stroke-miterlimit="10" stroke-width="0.724"/>
          <path id="Path_45478" data-name="Path 45478" d="M634.963-181.586c.058,1.29.142,2.578.142,2.578l1.61-.076-.207-3.617s-1.319-1.491-1.528-1.476a11.344,11.344,0,0,0-.016,2.59" transform="translate(-626.628 187.971)" fill="#cf5540"/>
        </g>
        <g id="Group_17840" data-name="Group 17840" transform="translate(0 40.099)">
          <path id="Path_45479" data-name="Path 45479" d="M583.6-117.393c-1.432-1.425-2.848-5.764-2.848-5.764s-9.793,2.906-9.7,2.935S576.986-118,576.986-118l3.584,2.687S583.283-117.235,583.6-117.393Z" transform="translate(-570.808 123.426)" fill="#ffa47a" stroke="#ffa47a" stroke-miterlimit="10" stroke-width="1.303"/>
          <path id="Path_45480" data-name="Path 45480" d="M576.186-118.565l-5.816-2.168a.292.292,0,0,1,.011-.553c2.166-.66,8.013-2.4,9.553-2.851.187-.055.526.246.583.434a29.973,29.973,0,0,0,1.361,3.649c.066.124-3.485-.627-4.047-.186C577.347-119.859,576.35-118.472,576.186-118.565Z" transform="translate(-570.179 124.144)" fill="#659feb" stroke="#659feb" stroke-miterlimit="10" stroke-width="0.318"/>
          <path id="Path_45481" data-name="Path 45481" d="M587.418-110.768l.582-1.454a.612.612,0,0,0-.339-.8h0a.612.612,0,0,0-.8.339l-.6,1.482" transform="translate(-581.876 116.087)" fill="none" stroke="#f8f1ee" stroke-miterlimit="10" stroke-width="0.724"/>
          <path id="Path_45482" data-name="Path 45482" d="M596.787-103.817l-3.739-3.019-.854.856L596-103.219Z" transform="translate(-586.187 111.559)" fill="#cf5540"/>
        </g>
        <g id="Group_17846" data-name="Group 17846" transform="translate(9.816 28.22)">
          <g id="Group_17843" data-name="Group 17843" transform="translate(5.462)">
            <g id="Group_17841" data-name="Group 17841">
              <path id="Path_45483" data-name="Path 45483" d="M659.845-156.894c1.183.453,2.034,1.443,2.46,3.475s2.446-1.266,2.4.775c-.794.441-5.117,6.014-6.611,6.634-6.623,2.751-11.664,3.934-18.107,2.632-6.3-1.273-9.9-8.464-11.732-13.219-1.444-3.746-1.421-6.805-2.08-10.627.192-.443,3.92-.547,4.123-.374,2.54,7.882,6.06,12.27,10.845,13.178a20.331,20.331,0,0,0,10.906-.9S655.7-158.481,659.845-156.894Z" transform="translate(-626.172 167.677)" fill="#365185" stroke="#365185" stroke-miterlimit="10" stroke-width="0.302"/>
            </g>
            <g id="Group_17842" data-name="Group 17842" transform="translate(14.969 10.337)" opacity="0.43" style="mix-blend-mode: multiply;isolation: isolate">
              <path id="Path_45484" data-name="Path 45484" d="M681.031-126.872a20.331,20.331,0,0,0,10.906-.9s3.657-3.164,7.8-1.577c1.183.453,2.034,1.443,2.46,3.475s2.327-1.052,2.278.989c-.794.441-5,5.8-6.492,6.42" transform="translate(-681.031 129.792)" fill="#365185"/>
            </g>
          </g>
          <g id="Group_17845" data-name="Group 17845" transform="translate(0 9.513)">
            <g id="Group_17844" data-name="Group 17844">
              <path id="Path_45485" data-name="Path 45485" d="M649.761-128.052c-2.072-1.917-6.014-4.96-6.347-4.749a12.167,12.167,0,0,0-8.622,6.26,7.947,7.947,0,0,1-1.124,1.627,19.6,19.6,0,0,1-8.042,5.638c-4.546,1.748-10.087.166-16.4-5.2-.7.738-3.142,1.888-3.071,2.365,2.573,2.9,4.165,5.343,7.366,7.767,4.063,3.077,10.907,7.3,16.935,5.06a29.727,29.727,0,0,0,13.5-9.99Z" transform="translate(-606.155 132.811)" fill="#4465a6" stroke="#4465a6" stroke-miterlimit="10" stroke-width="0.302"/>
            </g>
            <path id="Path_45486" data-name="Path 45486" d="M643.9-90.347s-18.14,17.707-36.8-3.914a32.031,32.031,0,0,0,13.211,11.618C620.747-82.948,629.976-74.953,643.9-90.347Z" transform="translate(-606.84 104.78)" fill="#4465a6" opacity="0.5" style="mix-blend-mode: multiply;isolation: isolate"/>
          </g>
        </g>
        <g id="Group_17847" data-name="Group 17847" transform="translate(46.995 23.083)">
          <path id="Path_45487" data-name="Path 45487" d="M757-184.042c.13.248,1.017,6.679-.232,8.844-.837,1.452-5.557,5.779-7.669,8.432a50.4,50.4,0,0,1-6.681-4.961c.668-2.506,2.925-12.222,7.536-14.777a26.048,26.048,0,0,1,2.87.8S755.327-181.454,757-184.042Z" transform="translate(-742.413 186.504)" fill="#ffa47a" stroke="#ffa47a" stroke-linecap="round" stroke-linejoin="round" stroke-width="1.476"/>
          <path id="Path_45488" data-name="Path 45488" d="M742.614-137.628l-.194.764,5.211,4.573Z" transform="translate(-742.418 150.964)" fill="#cf5540"/>
        </g>
        <g id="Group_17848" data-name="Group 17848" transform="translate(46.519 23.083)">
          <path id="Path_45489" data-name="Path 45489" d="M755.726-184.042c.13.248,1.017,6.679-.232,8.844-.837,1.452-5.557,5.779-7.669,8.432,0,0-1.314-.875-7.157-7.416.668-2.506,3.4-9.768,8.012-12.323a26.048,26.048,0,0,1,2.87.8S754.059-181.454,755.726-184.042Z" transform="translate(-740.668 186.504)" fill="#f8f1ee" stroke="#f8f1ee" stroke-miterlimit="10" stroke-width="1.476"/>
          <path id="Path_45490" data-name="Path 45490" d="M747.825-166.766s-1.314-.875-7.157-7.416c.668-2.506,3.4-9.768,8.012-12.323a26.048,26.048,0,0,1,2.87.8" transform="translate(-740.668 186.504)" fill="#f8f1ee" stroke="#f8f1ee" stroke-linecap="round" stroke-linejoin="round" stroke-width="1.476" style="mix-blend-mode: multiply;isolation: isolate"/>
        </g>
      </g>
      <g id="Group_17850" data-name="Group 17850" transform="translate(66.771 12.438)">
        <path id="Path_45491" data-name="Path 45491" d="M946.141-92.571,984.18-76.181a3.271,3.271,0,0,0,4.15-1.451l24.365-45.507c.965-1.777.921-3.8-.99-4.463,0,0-8.274-7.5-22.842-11.725-4.221-1.223-17.91-2.42-17.91-2.42Z" transform="translate(-910.327 164.604)" fill="none" stroke="#f8f1ee" stroke-linecap="round" stroke-linejoin="round" stroke-width="1.061"/>
        <path id="Path_45492" data-name="Path 45492" d="M852.4-152.786l-35.929-20.991a3.274,3.274,0,0,1-1.271-4.211l21.455-45.864c.868-1.827,2.93-1.978,4.829-1.281,5.987,2.2,11.309,1.07,23.306,10.367,3.476,2.694,12.509,13.061,12.509,13.061Z" transform="translate(-814.887 225.518)" fill="none" stroke="#f8f1ee" stroke-linecap="round" stroke-linejoin="round" stroke-width="1.061"/>
      </g>
      <g id="Group_17851" data-name="Group 17851" transform="translate(67.974 13.783)">
        <path id="Path_45493" data-name="Path 45493" d="M918.275-184.262s-7.959-7.217-21.971-11.278c-3.886-1.126-16.112-2.229-17.154-2.321-1.118-1.277-8.788-9.994-11.882-12.392-11.532-8.936-16.647-7.854-22.4-9.964-1.825-.67-3.807-.525-4.641,1.232L819.6-174.9a3.147,3.147,0,0,0,1.222,4.048l34.464,20.135.046,0L891.8-134.8a3.147,3.147,0,0,0,3.991-1.4l23.435-43.772C920.155-181.678,920.113-183.627,918.275-184.262Z" transform="translate(-819.297 220.587)" fill="#2e4470" stroke="#2e4470" stroke-miterlimit="10" stroke-width="0.302"/>
        <path id="Path_45494" data-name="Path 45494" d="M943.581-95.214l3.922,2.047,24.325-47.895a6.291,6.291,0,0,1-3.97-1.795Z" transform="translate(-909.669 164.066)" fill="#1d2b47" stroke="#1d2b47" stroke-miterlimit="10" stroke-width="0.302"/>
        <path id="Path_45495" data-name="Path 45495" d="M924.167-176.3s-16.418-11.855-37.05-14.185c-14.022-15.224-33.176-21.485-33.176-21.485l-22.9,44.508c4.58,1.235,29.6,18.2,33.339,21.214l-.04.08c.044,0,.1.012.166.022a3.035,3.035,0,0,1,.306.278l.1-.2c3.617.768,20.225,5.838,36.763,14.485Z" transform="translate(-827.835 214.321)" fill="#cfb2a3"/>
      </g>
      <g id="Group_17860" data-name="Group 17860" transform="translate(73.19 17.419)">
        <g id="Group_17853" data-name="Group 17853" transform="translate(42.604 2.769)">
          <path id="Path_45496" data-name="Path 45496" d="M994.555-188.711s2.2-6.476,6.762-8.37a.417.417,0,0,1,.577.345l.133,1.455,1.722.233a.413.413,0,0,1,.229.71c-1.7,1.589-6.209,6.245-6.081,7.971Z" transform="translate(-994.555 197.114)" fill="#ff7f4d" stroke="#ff7f4d" stroke-miterlimit="10" stroke-width="0.595"/>
          <g id="Group_17852" data-name="Group 17852" transform="translate(0.774 1.415)" opacity="0.76">
            <path id="Path_45497" data-name="Path 45497" d="M997.39-180.422c.114-.272.19-.558.283-.837a13.316,13.316,0,0,1,2.862-4.362" transform="translate(-997.39 187.343)" fill="none" stroke="#f2fcf9" stroke-miterlimit="10" stroke-width="0.769"/>
            <path id="Path_45498" data-name="Path 45498" d="M1012.3-191.308l.732-.62" transform="translate(-1008.234 191.928)" fill="none" stroke="#f2fcf9" stroke-miterlimit="10" stroke-width="0.769"/>
          </g>
        </g>
        <path id="Path_45499" data-name="Path 45499" d="M860.1-206.894c3.143-.795,3.23-.171,6.369.636a29.388,29.388,0,0,1,8.167,3.285,42.9,42.9,0,0,1,7.841,5.714c3.451,3.365,6.557,6.467,9.779,10.052l-22.623,43.549s-21.423-25.709-31.22-20.928Z" transform="translate(-838.414 207.262)" fill="#f8f1ee" stroke="#f8f1ee" stroke-linecap="round" stroke-linejoin="round" stroke-width="0.598"/>
        <g id="Group_17854" data-name="Group 17854" transform="translate(0.178 35.097)">
          <path id="Path_45500" data-name="Path 45500" d="M993.285,38.582A71.061,71.061,0,0,0,961.5,27.511" transform="translate(-928.095 1.452)" fill="none" stroke="#f8f1ee" stroke-linecap="round" stroke-linejoin="round" stroke-width="0.598"/>
          <path id="Path_45501" data-name="Path 45501" d="M954.541,28.2c11.56,2.318,25.26,7.159,35.47,13.057" transform="translate(-923.033 0.954)" fill="none" stroke="#f8f1ee" stroke-linecap="round" stroke-linejoin="round" stroke-width="0.598"/>
          <path id="Path_45502" data-name="Path 45502" d="M843.438-50.81a19.529,19.529,0,0,1,6.022,2.227A77.986,77.986,0,0,1,870.8-32.3" transform="translate(-842.245 58.402)" fill="none" stroke="#f8f1ee" stroke-linecap="round" stroke-linejoin="round" stroke-width="0.598"/>
          <path id="Path_45503" data-name="Path 45503" d="M839.065-49.867C850-45.088,862.15-36.526,870.821-28.324" transform="translate(-839.065 57.717)" fill="none" stroke="#f8f1ee" stroke-linecap="round" stroke-linejoin="round" stroke-width="0.598"/>
          <path id="Path_45504" data-name="Path 45504" d="M1122.136-78.635l-17.077,32.217" transform="translate(-1032.48 78.635)" fill="none" stroke="#f8f1ee" stroke-linecap="round" stroke-linejoin="round" stroke-width="0.598"/>
        </g>
        <path id="Path_45505" data-name="Path 45505" d="M1010.674-119.312c-1.207-3.008-1.763-2.712-4.264-4.773a29.366,29.366,0,0,0-7.464-4.668,42.91,42.91,0,0,0-9.235-2.974c-4.752-.809-9.052-1.345-13.847-1.838L953-89.8s34.65,3.125,36.554,13.859Z" transform="translate(-921.737 153.674)" fill="#f8f1ee" stroke="#f8f1ee" stroke-linecap="round" stroke-linejoin="round" stroke-width="0.598"/>
        <g id="Group_17859" data-name="Group 17859" transform="translate(8.153 5.325)">
          <g id="Group_17855" data-name="Group 17855" transform="translate(0 14.444)">
            <path id="Path_45506" data-name="Path 45506" d="M913.768-133.412s-13.568,22.331-21.254,25.424c-10.6,4.265-24.221-2.422-24.221-2.422s20.778,13.392,23.067,20.451Z" transform="translate(-868.293 133.793)" fill="#e0cfc8" opacity="0.42"/>
            <path id="Path_45507" data-name="Path 45507" d="M986.127-134.81s-9.62,24.294-7.45,32.289c2.994,11.026,16.546,17.854,16.546,17.854S972.007-93.155,965-90.722Z" transform="translate(-938.61 134.81)" fill="#e0cfc8" opacity="0.42"/>
          </g>
          <g id="Group_17858" data-name="Group 17858" transform="translate(5.626)" opacity="0.46">
            <g id="Group_17856" data-name="Group 17856">
              <path id="Path_45508" data-name="Path 45508" d="M922.468-187.747l4.949,1.806" transform="translate(-913.312 187.747)" fill="none" stroke="#659feb" stroke-miterlimit="10" stroke-width="2.121"/>
              <path id="Path_45509" data-name="Path 45509" d="M950.315-175.215A55.362,55.362,0,0,1,968.261-161" transform="translate(-933.56 178.634)" fill="none" stroke="#659feb" stroke-miterlimit="10" stroke-width="2.121"/>
              <path id="Path_45510" data-name="Path 45510" d="M911.147-167.846a26.775,26.775,0,0,1,16.386,8.215" transform="translate(-905.08 173.276)" fill="none" stroke="#659feb" stroke-miterlimit="10" stroke-width="2.121"/>
              <path id="Path_45511" data-name="Path 45511" d="M981.834-125.941l6.113,4.972" transform="translate(-956.479 142.805)" fill="none" stroke="#659feb" stroke-miterlimit="10" stroke-width="2.121"/>
              <path id="Path_45512" data-name="Path 45512" d="M895.474-124.811A58.893,58.893,0,0,1,916.86-112.2c1.715,1.585,3.333,3.27,4.951,4.955" transform="translate(-893.683 141.984)" fill="none" stroke="#659feb" stroke-miterlimit="10" stroke-width="2.121"/>
              <path id="Path_45513" data-name="Path 45513" d="M888.911-106.948a44.31,44.31,0,0,1,8.312,4.214" transform="translate(-888.911 128.995)" fill="none" stroke="#659feb" stroke-miterlimit="10" stroke-width="2.121"/>
              <path id="Path_45514" data-name="Path 45514" d="M932.42-80.52l11.922,9.483" transform="translate(-920.548 109.778)" fill="none" stroke="#659feb" stroke-miterlimit="10" stroke-width="2.121"/>
              <path id="Path_45515" data-name="Path 45515" d="M901.7-54.964a13.78,13.78,0,0,1,5.265,3.236" transform="translate(-898.21 91.195)" fill="none" stroke="#659feb" stroke-miterlimit="10" stroke-width="2.121"/>
              <path id="Path_45516" data-name="Path 45516" d="M927.469-36.438l6.908,6.679" transform="translate(-916.948 77.724)" fill="none" stroke="#659feb" stroke-miterlimit="10" stroke-width="2.121"/>
            </g>
            <g id="Group_17857" data-name="Group 17857" transform="translate(31.524 20.794)">
              <path id="Path_45517" data-name="Path 45517" d="M1046.979-111.54a31.82,31.82,0,0,1,5.9,1.409" transform="translate(-1035.373 111.54)" fill="none" stroke="#659feb" stroke-miterlimit="10" stroke-width="2.121"/>
              <path id="Path_45518" data-name="Path 45518" d="M1081.785-102.18a41.917,41.917,0,0,1,16.4,8.187" transform="translate(-1060.682 104.734)" fill="none" stroke="#659feb" stroke-miterlimit="10" stroke-width="2.121"/>
              <path id="Path_45519" data-name="Path 45519" d="M1037.478-89.9a25.741,25.741,0,0,1,11.631,3.755" transform="translate(-1028.465 95.808)" fill="none" stroke="#659feb" stroke-miterlimit="10" stroke-width="2.121"/>
              <path id="Path_45520" data-name="Path 45520" d="M1095.2-70.252a86.84,86.84,0,0,1,11.164,6.032" transform="translate(-1070.435 81.518)" fill="none" stroke="#659feb" stroke-miterlimit="10" stroke-width="2.121"/>
              <path id="Path_45521" data-name="Path 45521" d="M1024.155-64.53l5.779,2.026" transform="translate(-1018.777 77.357)" fill="none" stroke="#659feb" stroke-miterlimit="10" stroke-width="2.121"/>
              <path id="Path_45522" data-name="Path 45522" d="M1053.2-53.3a7.476,7.476,0,0,0,2.445,1.05" transform="translate(-1039.9 69.19)" fill="none" stroke="#659feb" stroke-miterlimit="10" stroke-width="2.121"/>
              <path id="Path_45523" data-name="Path 45523" d="M1004.445-28.883a61.136,61.136,0,0,1,26.025,11.8" transform="translate(-1004.445 51.437)" fill="none" stroke="#659feb" stroke-miterlimit="10" stroke-width="2.121"/>
              <path id="Path_45524" data-name="Path 45524" d="M1030.861-1.559c1.948-.169,4.507,1.657,6.144,2.728" transform="translate(-1023.653 31.576)" fill="none" stroke="#659feb" stroke-miterlimit="10" stroke-width="2.121"/>
              <path id="Path_45525" data-name="Path 45525" d="M1063.224,13.25l7.745,4.293" transform="translate(-1047.186 20.8)" fill="none" stroke="#659feb" stroke-miterlimit="10" stroke-width="2.121"/>
            </g>
          </g>
        </g>
      </g>
      <g id="Group_17861" data-name="Group 17861" transform="translate(52.259 22.418)">
        <path id="Path_45526" data-name="Path 45526" d="M762.014-184.97c-.9,12.4,18.58,19.32,18.58,19.32l4.375,1.166c3.867,2.394,5.835,2.711,5.835,2.711l-2.548-1.531,3.919,1.227c.106.031-.149-.251-.246-.3l-3-1.607,4.026,1.009a.078.078,0,0,0,.054-.145l-3.773-1.905s3.872.889,3.551.547a37.6,37.6,0,0,0-4.134-1.845,10.069,10.069,0,0,0,1.137-2.01c-.183-.267-1.518.518-2.884.733-.861.136-7.343-2.622-7.343-2.622-4.96-2.226-11.383-7.8-10.647-15.785a3.549,3.549,0,0,0-3.511-2.918C762.205-189.2,762.014-184.97,762.014-184.97Z" transform="translate(-761.907 188.94)" fill="#ffa47a" stroke="#ffa47a" stroke-linecap="round" stroke-linejoin="round" stroke-width="1.476"/>
        <path id="Path_45527" data-name="Path 45527" d="M772.788-175.2c-2.5-2.78-3.231-5.841-4.069-10.813a3.549,3.549,0,0,0-3.511-2.918c-3.206-.269-3.4,3.958-3.4,3.958-.3,4.171-.115,6.665,2.678,9.541Z" transform="translate(-761.704 188.94)" fill="#ff7f4d" stroke="#ff7f4d" stroke-miterlimit="10" stroke-width="0.595"/>
        <path id="Path_45528" data-name="Path 45528" d="M782.7-138.391l-6.149,1.467a11.1,11.1,0,0,1-1.562-1.648Z" transform="translate(-771.367 152.315)" fill="#cf5540"/>
      </g>
    </g>
    <g id="Group_17865" data-name="Group 17865" transform="translate(3.35 14.775)">
      <g id="Group_17863" data-name="Group 17863" transform="translate(6.173 11.74)">
        <path id="Path_45529" data-name="Path 45529" d="M692.84-122.659c-2.492,6.972-7.3,11.368-14.2,10.885-5.542-.388-10.679-2.911-15.651-5.388a15.448,15.448,0,0,1-4.729-3.137c-1.885-2.074-2.49-4.974-3.022-7.726l-1.593-8.227a15.2,15.2,0,0,0-2.064-5.991c-1.226-1.741-3.475-2.951-5.5-2.3s-3.063,3.65-1.464,5.055c3.373-2.026,3.147-6.976,2-10.74a45.768,45.768,0,0,0-9.549-17.046c-2.993-3.368-6.85-6.438-11.352-6.641-5.824-.262-10.725,4.3-14.076,9.069-3.473,4.946-6.156,10.634-6.531,16.667-.188,3.033.4,6.442,2.826,8.276s6.887.6,6.991-2.438" transform="translate(-605.077 173.928)" fill="none" stroke="#ff7f4d" stroke-linecap="round" stroke-linejoin="round" stroke-width="2.121" stroke-dasharray="9.092"/>
        <path id="Path_45530" data-name="Path 45530" d="M1117.521-128.9a5.712,5.712,0,0,0,5.066-.607,11.749,11.749,0,0,0,3.594-3.829c1.333-2.088,2.385-4.575,1.862-7a9.618,9.618,0,0,0-1.716-3.467,13.832,13.832,0,0,0-3.362-3.482,9.528,9.528,0,0,0-9.185-.762,9.528,9.528,0,0,0-5.369,7.49" transform="translate(-971.073 155.717)" fill="none" stroke="#f8f1ee" stroke-linecap="round" stroke-linejoin="round" stroke-width="2.121" stroke-dasharray="7.332" style="mix-blend-mode: lighten;isolation: isolate"/>
      </g>
      <g id="Group_17864" data-name="Group 17864" transform="translate(58.502 0)">
        <path id="Path_45531" data-name="Path 45531" d="M1217.157-17.164a1.155,1.155,0,0,1-1.349.92,1.155,1.155,0,0,1-.92-1.349,1.154,1.154,0,0,1,1.349-.92A1.155,1.155,0,0,1,1217.157-17.164Z" transform="translate(-1100.811 72.674)" fill="#659feb"/>
        <path id="Path_45532" data-name="Path 45532" d="M1172.769-33.56a1.539,1.539,0,0,1-1.8,1.227,1.54,1.54,0,0,1-1.227-1.8,1.54,1.54,0,0,1,1.8-1.227A1.54,1.54,0,0,1,1172.769-33.56Z" transform="translate(-1067.979 84.928)" fill="none" stroke="#659feb" stroke-miterlimit="10" stroke-width="1.061"/>
        <path id="Path_45533" data-name="Path 45533" d="M979.4-215.243a1.443,1.443,0,0,1-1.687,1.15,1.443,1.443,0,0,1-1.15-1.686,1.444,1.444,0,0,1,1.687-1.15A1.443,1.443,0,0,1,979.4-215.243Z" transform="translate(-927.508 216.954)" fill="#ff7f4d"/>
        <path id="Path_45534" data-name="Path 45534" d="M944.7,48.969a1.54,1.54,0,1,1-1.227-1.8A1.54,1.54,0,0,1,944.7,48.969Z" transform="translate(-902.144 24.918)" fill="none" stroke="#ff7f4d" stroke-miterlimit="10" stroke-width="1.061"/>
        <path id="Path_45535" data-name="Path 45535" d="M800.484-81.909a1.828,1.828,0,0,1-2.136,1.457,1.828,1.828,0,0,1-1.457-2.136,1.828,1.828,0,0,1,2.136-1.457A1.828,1.828,0,0,1,800.484-81.909Z" transform="translate(-796.859 120.333)" fill="#659feb" stroke="#659feb" stroke-linecap="round" stroke-linejoin="round" stroke-width="1.061" stroke-dasharray="9.092"/>
      </g>
      <path id="Path_45536" data-name="Path 45536" d="M684.614,1.215a1.2,1.2,0,1,1-1.2-1.2A1.2,1.2,0,0,1,684.614,1.215Z" transform="translate(-654.988 59.189)" fill="#ff7f4d"/>
      <path id="Path_45537" data-name="Path 45537" d="M585.285-39.065a1.415,1.415,0,0,1-1.415,1.415,1.415,1.415,0,0,1-1.415-1.415,1.415,1.415,0,0,1,1.415-1.415A1.415,1.415,0,0,1,585.285-39.065Z" transform="translate(-582.455 88.632)" fill="none" stroke="#659feb" stroke-miterlimit="10" stroke-width="0.948"/>
    </g>
  </g>
</svg>
