<svg xmlns="http://www.w3.org/2000/svg" xmlns:xlink="http://www.w3.org/1999/xlink" width="143.341" height="135.262" viewBox="0 0 143.341 135.262">
  <defs>
    <clipPath id="clip-path">
      <path id="Path_45773" data-name="Path 45773" d="M197.192,379.763a4.186,4.186,0,0,0-3.445.116,1.138,1.138,0,0,0,0,2.157,3.252,3.252,0,0,0,.918.344l.093.018.117.023a9.543,9.543,0,0,1,2.06.632c.219.123.223.292.043.4l-4.93,2.865a3.155,3.155,0,0,1-2.863,0l-4.2-2.423a2.124,2.124,0,0,0-2.163.115,3.83,3.83,0,0,0-.853,1c-.01.021-.025.044-.037.066l-.033.054a1.729,1.729,0,0,1-.59.53,4.084,4.084,0,0,1-3.706,0c-.929-.544-1.017-1.411-.23-2a2.786,2.786,0,0,1,.925-.435c.109-.03.175-.045.243-.06l.236-.057a9.063,9.063,0,0,0,1.641-.556c.668-.3.727-.876.124-1.224l-4.1-2.369a.876.876,0,0,1-.009-1.658l4.774-2.775a.715.715,0,0,1,.626-.01q.154.078.3.163A4.912,4.912,0,0,1,183.669,376l.1.137a1.161,1.161,0,0,0,.083.116,1.927,1.927,0,0,0,.525.435,2.656,2.656,0,0,0,.248.126,4.185,4.185,0,0,0,3.445-.116,1.137,1.137,0,0,0,0-2.156,3.189,3.189,0,0,0-.918-.344l-.091-.019-.117-.023a8.953,8.953,0,0,1-2.773-.991.2.2,0,0,1,0-.371l5.065-2.944a2.833,2.833,0,0,1,2.569,0l4.288,2.475a2.094,2.094,0,0,0,2.218-.161,3.717,3.717,0,0,0,.614-.789c.013-.021.027-.044.039-.066l.031-.055a1.719,1.719,0,0,1,.592-.53,4.086,4.086,0,0,1,3.706,0c.927.546,1.017,1.412.226,2.005a2.766,2.766,0,0,1-.921.434c-.11.03-.177.046-.244.059l-.236.057a9.528,9.528,0,0,0-1.291.407c-.731.291-.83.892-.2,1.256l4.215,2.434a.786.786,0,0,1,.008,1.488l-4.859,2.824a.712.712,0,0,1-.643,0,4.623,4.623,0,0,1-1.2-1.12l-.1-.137a1.016,1.016,0,0,0-.081-.116,1.93,1.93,0,0,0-.525-.435A2.592,2.592,0,0,0,197.192,379.763Z" transform="translate(-175.84 -369.547)" fill="none"/>
    </clipPath>
  </defs>
  <g id="Group_20939" data-name="Group 20939" transform="translate(0 0.001)">
    <g id="Group_17878" data-name="Group 17878" transform="translate(9.528 46.453)">
      <path id="Path_45538" data-name="Path 45538" d="M61.874,255.133l-.834-.492c-.218-.126-.191-.346.061-.493l7.249-4.226a.948.948,0,0,1,.853-.035l.834.492c.218.126.191.347-.062.493L62.727,255.1A.947.947,0,0,1,61.874,255.133Z" transform="translate(-59.645 -225.442)" fill="#e3ecff"/>
      <g id="Group_17877" data-name="Group 17877" transform="translate(0)">
        <g id="Group_17876" data-name="Group 17876">
          <g id="Group_17875" data-name="Group 17875" style="isolation: isolate">
            <g id="Group_17867" data-name="Group 17867" transform="translate(8.931)">
              <path id="Path_45539" data-name="Path 45539" d="M85.337,177.669l-.855-.5a.655.655,0,0,0-.66.065l.855.5A.655.655,0,0,1,85.337,177.669Z" transform="translate(-83.822 -177.111)" fill="#ff5740"/>
            </g>
            <g id="Group_17868" data-name="Group 17868" transform="translate(0.021 13.947)">
              <path id="Path_45540" data-name="Path 45540" d="M57.507,219.322l.855.5a.648.648,0,0,1-.27-.594l-.856-.5A.649.649,0,0,0,57.507,219.322Z" transform="translate(-57.236 -218.728)" fill="#ed341a"/>
            </g>
            <g id="Group_17869" data-name="Group 17869" transform="translate(0 6.377)">
              <path id="Path_45541" data-name="Path 45541" d="M58.028,196.636l-.855-.5.021,7.57.855.5Z" transform="translate(-57.172 -196.14)" fill="#ed341a"/>
            </g>
            <g id="Group_17870" data-name="Group 17870" transform="translate(0.924 0.127)">
              <path id="Path_45542" data-name="Path 45542" d="M68.791,177.987l-.855-.5-8.007,4.649.855.5Z" transform="translate(-59.929 -177.491)" fill="#ff5740"/>
            </g>
            <g id="Group_17871" data-name="Group 17871" transform="translate(0 4.777)">
              <path id="Path_45543" data-name="Path 45543" d="M58.951,191.861l-.855-.5a2.036,2.036,0,0,0-.924,1.6l.856.5A2.035,2.035,0,0,1,58.951,191.861Z" transform="translate(-57.172 -191.365)" fill="#ed341a"/>
            </g>
            <g id="Group_17873" data-name="Group 17873" transform="translate(0.856 0.496)">
              <g id="Group_17872" data-name="Group 17872">
                <path id="Path_45544" data-name="Path 45544" d="M60.649,183.367a2.035,2.035,0,0,0-.924,1.6l.021,7.57c0,.587.419.825.93.53l8.007-4.649a2.035,2.035,0,0,0,.924-1.6l-.021-7.57c0-.589-.417-.826-.93-.53Z" transform="translate(-59.725 -178.591)" fill="#de2910"/>
              </g>
            </g>
            <g id="Group_17874" data-name="Group 17874" transform="translate(1.613 2.7)">
              <path id="Path_45545" data-name="Path 45545" d="M62.224,190.657l7.6-4.387a.57.57,0,0,0,.238-.455v-.437c0-.175-.107-.256-.238-.18l-7.6,4.387a.571.571,0,0,0-.238.455v.438C61.986,190.652,62.093,190.733,62.224,190.657Z" transform="translate(-61.986 -185.168)" fill="#f2f2f2"/>
              <path id="Path_45546" data-name="Path 45546" d="M62.224,195.618l7.6-4.387a.571.571,0,0,0,.238-.455v-.438c0-.175-.107-.256-.238-.18l-7.6,4.387a.571.571,0,0,0-.238.455v.437C61.986,195.614,62.093,195.694,62.224,195.618Z" transform="translate(-61.986 -188.467)" fill="#f2f2f2"/>
              <path id="Path_45547" data-name="Path 45547" d="M62.224,200.58l7.6-4.387a.569.569,0,0,0,.238-.455V195.3c0-.175-.107-.256-.238-.18l-7.6,4.387a.571.571,0,0,0-.238.455v.437C61.986,200.576,62.093,200.656,62.224,200.58Z" transform="translate(-61.986 -191.766)" fill="#f2f2f2"/>
              <path id="Path_45548" data-name="Path 45548" d="M62.224,205.542l7.6-4.387a.569.569,0,0,0,.238-.455v-.437c0-.176-.107-.256-.238-.18l-7.6,4.387a.571.571,0,0,0-.238.455v.438C61.986,205.537,62.093,205.618,62.224,205.542Z" transform="translate(-61.986 -195.065)" fill="#f2f2f2"/>
            </g>
          </g>
        </g>
      </g>
    </g>
    <g id="Group_17885" data-name="Group 17885" transform="translate(20.719 13.455)">
      <path id="Path_45549" data-name="Path 45549" d="M95.794,225.966l-.817-.472c-.373-.216-.326-.592.1-.841l14.513-8.43a1.62,1.62,0,0,1,1.457-.06l.817.472c.374.215.327.592-.1.841l-14.513,8.43A1.619,1.619,0,0,1,95.794,225.966Z" transform="translate(-93.332 -169.98)" fill="#e3ecff"/>
      <g id="Group_17884" data-name="Group 17884">
        <g id="Group_17881" data-name="Group 17881">
          <g id="Group_17880" data-name="Group 17880" style="isolation: isolate">
            <path id="Path_45550" data-name="Path 45550" d="M109.136,78.73a.921.921,0,0,0-.93.091L91.87,88.254a2.869,2.869,0,0,0-1.3,2.254l.03,10.663a.913.913,0,0,0,.381.836l1.2.7a.913.913,0,0,1-.381-.836l-.03-10.663a2.868,2.868,0,0,1,1.3-2.254l16.336-9.432a.922.922,0,0,1,.93-.092Z" transform="translate(-90.569 -78.642)" fill="#eff0f2"/>
            <g id="Group_17879" data-name="Group 17879" transform="translate(1.205 0.699)">
              <path id="Path_45551" data-name="Path 45551" d="M95.465,90.339a2.868,2.868,0,0,0-1.3,2.254l.03,10.663c0,.827.59,1.162,1.31.747l10.14-5.855,5.8,3.313-.013-6.651.414-.239a2.868,2.868,0,0,0,1.3-2.254l-.03-10.663c0-.83-.588-1.163-1.31-.746Z" transform="translate(-94.164 -80.727)" fill="#ced3de"/>
            </g>
          </g>
        </g>
        <g id="Group_17883" data-name="Group 17883" transform="translate(6.227 12.098)">
          <g id="Group_17882" data-name="Group 17882">
            <path id="Path_45552" data-name="Path 45552" d="M128.927,116.205c0,.5.352.7.785.448a1.73,1.73,0,0,0,.785-1.354c0-.5-.352-.7-.785-.448A1.731,1.731,0,0,0,128.927,116.205Z" transform="translate(-122.3 -114.743)" fill="#4d4d80"/>
            <path id="Path_45553" data-name="Path 45553" d="M122.335,120.012c0,.5.352.7.785.447a1.73,1.73,0,0,0,.785-1.354c0-.5-.352-.7-.785-.448A1.73,1.73,0,0,0,122.335,120.012Z" transform="translate(-117.917 -117.274)" fill="#4d4d80"/>
            <path id="Path_45554" data-name="Path 45554" d="M115.743,123.817c0,.5.352.7.785.448a1.73,1.73,0,0,0,.785-1.354c0-.5-.352-.7-.785-.448A1.73,1.73,0,0,0,115.743,123.817Z" transform="translate(-113.534 -119.804)" fill="#4d4d80"/>
            <path id="Path_45555" data-name="Path 45555" d="M109.151,127.623c0,.5.352.7.785.448a1.73,1.73,0,0,0,.785-1.354c0-.5-.352-.7-.785-.448A1.73,1.73,0,0,0,109.151,127.623Z" transform="translate(-109.151 -122.335)" fill="#4d4d80"/>
          </g>
        </g>
      </g>
    </g>
    <g id="Group_17896" data-name="Group 17896" transform="translate(0 78.049)">
      <path id="Path_45556" data-name="Path 45556" d="M41.187,305.413l-12.121-7c-.482-.278-.421-.763.135-1.084l16.056-9.27a2.09,2.09,0,0,1,1.879-.078l12.121,7c.482.278.421.764-.135,1.085l-16.056,9.27A2.089,2.089,0,0,1,41.187,305.413Z" transform="translate(-28.741 -282.299)" fill="#e3ecff"/>
      <g id="Group_17895" data-name="Group 17895" transform="translate(2.345)">
        <g id="Group_17894" data-name="Group 17894" style="isolation: isolate">
          <g id="Group_17886" data-name="Group 17886" transform="translate(9.997 2.494)">
            <path id="Path_45557" data-name="Path 45557" d="M65.962,279.053l-.021,7.585-.373-.215.022-7.586Z" transform="translate(-65.568 -278.838)" fill="#30306b"/>
          </g>
          <g id="Group_17887" data-name="Group 17887" transform="translate(10.369 2.021)">
            <path id="Path_45558" data-name="Path 45558" d="M75.861,278.6l-.021,7.585c-2.533-1.463-4.267-1.475-9.16-.484l.021-7.585C71.595,277.123,73.328,277.136,75.861,278.6Z" transform="translate(-66.68 -277.427)" fill="#4d4d80"/>
          </g>
          <g id="Group_17888" data-name="Group 17888" transform="translate(19.529 3.193)">
            <path id="Path_45559" data-name="Path 45559" d="M94.9,281.422l-.022,7.585-.864-.5.022-7.585Z" transform="translate(-94.014 -280.923)" fill="#4d4d80"/>
          </g>
          <g id="Group_17889" data-name="Group 17889" transform="translate(24.838 5.993)">
            <path id="Path_45560" data-name="Path 45560" d="M110.334,289.278l-.021,7.585-.456.265.022-7.585Z" transform="translate(-109.856 -289.278)" fill="#30306b"/>
          </g>
          <g id="Group_17890" data-name="Group 17890" transform="translate(4.982 6.258)">
            <path id="Path_45561" data-name="Path 45561" d="M70.482,290.069l-.022,7.585L50.6,302l.022-7.585Z" transform="translate(-50.603 -290.069)" fill="#30306b"/>
          </g>
          <g id="Group_17891" data-name="Group 17891" transform="translate(0 8.279)">
            <path id="Path_45562" data-name="Path 45562" d="M46.5,302.3l-.022,7.585-10.737-6.2.021-7.585Z" transform="translate(-35.737 -296.1)" fill="#595994"/>
          </g>
          <g id="Group_17892" data-name="Group 17892" transform="translate(10.737 11.668)">
            <path id="Path_45563" data-name="Path 45563" d="M73.129,306.214l-.022,7.585-5.33,2.81.022-7.585Z" transform="translate(-67.777 -306.214)" fill="#4d4d80"/>
          </g>
          <g id="Group_17893" data-name="Group 17893" transform="translate(0.021)">
            <path id="Path_45564" data-name="Path 45564" d="M51.49,282.845l.378.218-5.33,2.81-10.737-6.2.392-.228,20-4.36-.864-.5c-2.533-1.462-4.267-1.475-9.16-.484l-.373-.215,4.917-2.494L61.1,277.388l-.456.265L40.783,282l.713.412C43.953,283.827,47.632,284.092,51.49,282.845Z" transform="translate(-35.801 -271.395)" fill="#6b6cb3"/>
          </g>
        </g>
      </g>
    </g>
    <g id="Group_17919" data-name="Group 17919" transform="translate(46.835 -0.001)">
      <path id="Path_45565" data-name="Path 45565" d="M215.888,325.846l-45.1-25.971c-.712-.411-.623-1.129.2-1.6l1.476-.852a3.088,3.088,0,0,1,2.778-.115l45.1,25.971c.712.411.623,1.129-.2,1.6l-1.476.852A3.088,3.088,0,0,1,215.888,325.846Z" transform="translate(-169.703 -210.387)" fill="#e3ecff"/>
      <g id="Group_17918" data-name="Group 17918" transform="translate(0 0)">
        <g id="Group_17917" data-name="Group 17917">
          <g id="Group_17916" data-name="Group 17916" style="isolation: isolate">
            <g id="Group_17897" data-name="Group 17897" transform="translate(47.935 99.13)">
              <path id="Path_45566" data-name="Path 45566" d="M313.988,335.918l-2.449,1.423a1.768,1.768,0,0,0,.737-1.62l2.448-1.423A1.769,1.769,0,0,1,313.988,335.918Z" transform="translate(-311.539 -334.298)" fill="#30306b"/>
            </g>
            <g id="Group_17898" data-name="Group 17898" transform="translate(0.932)">
              <path id="Path_45567" data-name="Path 45567" d="M171.281,40.083l2.448-1.423a1.781,1.781,0,0,1,1.8.177l-2.448,1.423A1.781,1.781,0,0,0,171.281,40.083Z" transform="translate(-171.281 -38.49)" fill="#6b6cb3"/>
            </g>
            <g id="Group_17899" data-name="Group 17899" transform="translate(48.672 29.89)">
              <path id="Path_45568" data-name="Path 45568" d="M313.935,129.108l2.448-1.423-.2,69.239-2.448,1.423Z" transform="translate(-313.738 -127.685)" fill="#30306b"/>
            </g>
            <g id="Group_17900" data-name="Group 17900" transform="translate(2.729 0.347)">
              <path id="Path_45569" data-name="Path 45569" d="M176.642,40.948l2.448-1.423L222.711,64.71l-2.449,1.423Z" transform="translate(-176.642 -39.525)" fill="#6b6cb3"/>
            </g>
            <g id="Group_17901" data-name="Group 17901" transform="translate(46.35 25.532)">
              <path id="Path_45570" data-name="Path 45570" d="M306.81,116.1l2.448-1.423a5.545,5.545,0,0,1,2.518,4.359l-2.448,1.423A5.546,5.546,0,0,0,306.81,116.1Z" transform="translate(-306.81 -114.678)" fill="#6b6cb3"/>
            </g>
            <g id="Group_17902" data-name="Group 17902" transform="translate(0 1.423)">
              <path id="Path_45571" data-name="Path 45571" d="M214.849,68.267a5.546,5.546,0,0,1,2.518,4.359l-.2,69.239c0,1.6-1.139,2.25-2.534,1.444l-43.621-25.185a5.546,5.546,0,0,1-2.516-4.36l.2-69.239c0-1.6,1.137-2.249,2.532-1.443Z" transform="translate(-168.499 -42.736)" fill="#4d4d80"/>
            </g>
            <g id="Group_17903" data-name="Group 17903" transform="translate(0.263 1.965)">
              <path id="Path_45572" data-name="Path 45572" d="M215.135,69.611a5.485,5.485,0,0,1,2.491,4.312l-.194,68.495c0,1.586-1.127,2.226-2.507,1.429l-43.153-24.914a5.485,5.485,0,0,1-2.489-4.313l.194-68.495c0-1.586,1.125-2.224,2.505-1.428Z" transform="translate(-169.283 -44.354)" fill="#eff0f2"/>
            </g>
            <g id="Group_17905" data-name="Group 17905" transform="translate(3.147 10.598)">
              <g id="Group_17904" data-name="Group 17904">
                <path id="Path_45573" data-name="Path 45573" d="M218.27,92.358a4.832,4.832,0,0,1,2.194,3.8l-.171,55.264c0,1.4-.993,1.96-2.208,1.258l-38-21.941a4.831,4.831,0,0,1-2.192-3.8l.171-55.265c0-1.4.991-1.959,2.206-1.257Z" transform="translate(-177.889 -70.115)" fill="#75c7eb"/>
              </g>
            </g>
            <g id="Group_17915" data-name="Group 17915" transform="translate(6.338 20.443)">
              <g id="Group_17906" data-name="Group 17906">
                <path id="Path_45574" data-name="Path 45574" d="M187.413,115.438V100.895c0-1.178.716-1.719,1.6-1.209l13.192,7.617a3.831,3.831,0,0,1,1.6,3.057V124.9c0,1.178-.716,1.719-1.6,1.209l-13.192-7.617A3.831,3.831,0,0,1,187.413,115.438Z" transform="translate(-187.413 -99.493)" fill="#fff"/>
                <path id="Path_45575" data-name="Path 45575" d="M203.585,127.116,190.5,119.559a2.227,2.227,0,0,1-.931-1.777V103.109c0-.685.417-1,.931-.7l13.088,7.557a2.227,2.227,0,0,1,.931,1.777v14.673C204.515,127.1,204.1,127.412,203.585,127.116Z" transform="translate(-188.844 -101.355)" fill="#ed341a"/>
                <path id="Path_45576" data-name="Path 45576" d="M195.624,117.036l-1.439.037.275-1.68-1.164-1.974,1.609.661.719-1.257.719,2.088,1.609,1.2-1.164.63.275,2Z" transform="translate(-191.324 -108.356)" fill="#ffea00"/>
                <path id="Path_45577" data-name="Path 45577" d="M209.615,117.749l-.413.011.079-.482-.334-.567.462.19.207-.361.207.6.462.344-.334.181.079.574Z" transform="translate(-201.73 -110.827)" fill="#ffea00"/>
                <path id="Path_45578" data-name="Path 45578" d="M209.615,135.814l-.413.011.079-.482-.334-.567.462.19.207-.361.207.6.462.344-.334.181.079.574Z" transform="translate(-201.73 -122.838)" fill="#ffea00"/>
                <path id="Path_45579" data-name="Path 45579" d="M214.863,133.21l-.413.011.079-.482-.334-.567.462.19.207-.361.207.6.462.344-.334.181.079.574Z" transform="translate(-205.22 -121.107)" fill="#ffea00"/>
                <path id="Path_45580" data-name="Path 45580" d="M214.863,126.184l-.413.011.079-.482-.334-.567.462.19.207-.361.207.6.462.344-.334.181.079.574Z" transform="translate(-205.22 -116.435)" fill="#ffea00"/>
              </g>
              <g id="Group_17907" data-name="Group 17907" transform="translate(0 24.665)">
                <path id="Path_45581" data-name="Path 45581" d="M187.413,189.041V174.5c0-1.178.716-1.719,1.6-1.209l13.192,7.617a3.831,3.831,0,0,1,1.6,3.056V198.5c0,1.178-.716,1.719-1.6,1.209L189.013,192.1A3.831,3.831,0,0,1,187.413,189.041Z" transform="translate(-187.413 -173.096)" fill="#fff"/>
                <path id="Path_45582" data-name="Path 45582" d="M203.585,200.718,190.5,193.161a2.227,2.227,0,0,1-.931-1.777V176.711c0-.685.417-1,.931-.7l13.088,7.557a2.229,2.229,0,0,1,.931,1.778v14.673C204.515,200.7,204.1,201.015,203.585,200.718Z" transform="translate(-188.844 -174.958)" fill="#4d4d80"/>
                <path id="Path_45583" data-name="Path 45583" d="M204.515,185.285V190l-14.949-8.631v-4.716c0-.635.449-.891,1-.572l13,7.487A2.129,2.129,0,0,1,204.515,185.285Z" transform="translate(-188.844 -174.99)" fill="#f2f2f2"/>
                <path id="Path_45584" data-name="Path 45584" d="M204.515,218.6v4.161c0,.635-.449.891-1,.572l-12.943-7.473a2.21,2.21,0,0,1-1-1.73v-4.16Z" transform="translate(-188.844 -197.61)" fill="#ed341a"/>
              </g>
              <g id="Group_17908" data-name="Group 17908" transform="translate(19.752 11.404)">
                <path id="Path_45585" data-name="Path 45585" d="M246.354,149.468V134.925c0-1.178.716-1.719,1.6-1.209l13.193,7.617a3.831,3.831,0,0,1,1.6,3.056v14.544c0,1.178-.716,1.719-1.6,1.209l-13.193-7.617A3.832,3.832,0,0,1,246.354,149.468Z" transform="translate(-246.354 -133.523)" fill="#fff"/>
                <path id="Path_45586" data-name="Path 45586" d="M262.527,161.145l-13.088-7.557a2.228,2.228,0,0,1-.93-1.777V137.138c0-.685.417-1,.93-.7l13.088,7.557a2.228,2.228,0,0,1,.93,1.777v14.673C263.457,161.127,263.04,161.442,262.527,161.145Z" transform="translate(-247.786 -135.385)" fill="#4d4d80"/>
                <path id="Path_45587" data-name="Path 45587" d="M279.717,161.841v1.708l-5.372,3.063-1.382-2.383,6.31-3.6h0A2.147,2.147,0,0,1,279.717,161.841Z" transform="translate(-264.046 -151.547)" fill="#f2f2f2"/>
                <path id="Path_45588" data-name="Path 45588" d="M256.214,147.849l-1.382.788-6.325-10.909v-.648c0-.635.449-.891,1-.572l.193.111Z" transform="translate(-247.786 -135.417)" fill="#f2f2f2"/>
                <path id="Path_45589" data-name="Path 45589" d="M281.954,189.837v1.407c0,.476-.253.74-.614.706l-5.013-8.647,1.382-.788Z" transform="translate(-266.283 -166.098)" fill="#f2f2f2"/>
                <path id="Path_45590" data-name="Path 45590" d="M276.488,162.49v.259l-5.841,3.332-.559.317-.548.312-.558.32-.318.179-.55-.949-.007-.012.318-.179.557-.32.548-.313.246-.14.314-.177,6.158-3.513A1.96,1.96,0,0,1,276.488,162.49Z" transform="translate(-260.817 -152.195)" fill="#ed341a"/>
                <path id="Path_45591" data-name="Path 45591" d="M257.4,151.731l-.558.318-.895-1.544-.55-.949-.007-.012-6.886-11.876v-.333a.747.747,0,0,1,.211-.582l6.68,11.522.552.95.558.961Z" transform="translate(-247.786 -135.67)" fill="#ed341a"/>
                <path id="Path_45592" data-name="Path 45592" d="M278.839,182.306v1.186c0,.031,0,.059,0,.089l-6.4-11.033-.8-1.372.246-.14.312-.18Z" transform="translate(-263.168 -158.344)" fill="#ed341a"/>
                <path id="Path_45593" data-name="Path 45593" d="M254.549,172.853l-5.469,3.119a2.2,2.2,0,0,1-.572-1.367v-1.478l4.659-2.657Z" transform="translate(-247.786 -158.089)" fill="#f2f2f2"/>
                <path id="Path_45594" data-name="Path 45594" d="M256.752,170.743l-.245.14-.549.313-.557.32-.317.179-6.215,3.543a2.1,2.1,0,0,1-.361-1.076l6.333-3.611.558-.318.8-.454.312.541.238.411Z" transform="translate(-247.786 -157.63)" fill="#ed341a"/>
                <path id="Path_45595" data-name="Path 45595" d="M263.457,155.968v4.991l-5.186-2.994v6.082l-4.349-2.511v-6.082l-5.414-3.126v-4.991l5.414,3.126v-6.082l4.349,2.511v6.081Z" transform="translate(-247.786 -140.742)" fill="#f2f2f2"/>
                <path id="Path_45596" data-name="Path 45596" d="M263.457,158.036v2.921l-6.088-3.515v7.117l-2.545-1.47v-7.117l-6.315-3.646V149.4l6.315,3.646v-7.117l2.545,1.47v7.117Z" transform="translate(-247.786 -141.775)" fill="#ed341a"/>
              </g>
              <g id="Group_17909" data-name="Group 17909" transform="translate(19.752 36.069)">
                <path id="Path_45597" data-name="Path 45597" d="M246.354,223.072V208.528c0-1.178.716-1.719,1.6-1.209l13.193,7.617a3.831,3.831,0,0,1,1.6,3.057v14.544c0,1.178-.716,1.72-1.6,1.21l-13.193-7.617A3.832,3.832,0,0,1,246.354,223.072Z" transform="translate(-246.354 -207.126)" fill="#fff"/>
                <path id="Path_45598" data-name="Path 45598" d="M262.527,234.749l-13.088-7.557a2.228,2.228,0,0,1-.93-1.777V210.742c0-.685.417-1,.93-.7l13.088,7.557a2.228,2.228,0,0,1,.93,1.777v14.673C263.457,234.73,263.04,235.045,262.527,234.749Z" transform="translate(-247.786 -208.988)" fill="#fa0"/>
                <path id="Path_45599" data-name="Path 45599" d="M263.457,219.315v2.606l-14.949-8.631v-2.606c0-.635.449-.891,1-.572l12.943,7.473A2.211,2.211,0,0,1,263.457,219.315Z" transform="translate(-247.786 -209.02)" fill="#ed341a"/>
                <path id="Path_45600" data-name="Path 45600" d="M263.457,258.013v2.356c0,.636-.449.892-1,.572l-12.943-7.473a2.209,2.209,0,0,1-1-1.73v-2.356Z" transform="translate(-247.786 -235.221)" fill="#ed341a"/>
              </g>
              <g id="Group_17910" data-name="Group 17910" transform="translate(25.135 33.56)">
                <path id="Path_45601" data-name="Path 45601" d="M263.261,200.127v.109l-.75-.433v.807l.75.433v.109l-.75-.433v.807l.75.433v.109l-.845-.488v-1.941Z" transform="translate(-262.416 -199.639)"/>
                <path id="Path_45602" data-name="Path 45602" d="M265.9,204.153v.926l-.1-.055v-1.192l.1.055v.077a.291.291,0,0,1,.3.026.815.815,0,0,1,.3.3.823.823,0,0,1,.118.4v.8l-.095-.055v-.787a.613.613,0,0,0-.1-.314.639.639,0,0,0-.227-.238.228.228,0,0,0-.226-.025A.17.17,0,0,0,265.9,204.153Z" transform="translate(-264.67 -202.427)"/>
                <path id="Path_45603" data-name="Path 45603" d="M270.154,207.589a.445.445,0,0,1-.057.042.4.4,0,0,1-.412-.042,1.156,1.156,0,0,1-.41-.432,1.139,1.139,0,0,1-.17-.569.391.391,0,0,1,.17-.373.4.4,0,0,1,.41.042,1.152,1.152,0,0,1,.412.432c.021.039.041.077.06.116v-.168l.1.055v.925a.38.38,0,0,1-.166.363.4.4,0,0,1-.41-.042,1.15,1.15,0,0,1-.411-.433,1.273,1.273,0,0,1-.062-.12l.1.017c.01.021.021.041.033.062a.945.945,0,0,0,.339.358.329.329,0,0,0,.339.034A.3.3,0,0,0,270.154,207.589Zm0-.508a1.032,1.032,0,0,0-.131-.351.953.953,0,0,0-.34-.357.329.329,0,0,0-.339-.035.323.323,0,0,0-.14.308.938.938,0,0,0,.14.47.957.957,0,0,0,.339.358.331.331,0,0,0,.34.034.273.273,0,0,0,.131-.2Z" transform="translate(-266.863 -203.985)"/>
                <path id="Path_45604" data-name="Path 45604" d="M273.584,206.087v1.94l-.095-.055v-1.941Z" transform="translate(-269.778 -203.89)"/>
                <path id="Path_45605" data-name="Path 45605" d="M274.8,207.88a.18.18,0,0,1,.028.093.06.06,0,0,1-.028.06.065.065,0,0,1-.067-.006.2.2,0,0,1-.068-.071.186.186,0,0,1-.027-.093.063.063,0,0,1,.027-.061.067.067,0,0,1,.068.007A.2.2,0,0,1,274.8,207.88Zm-.019.38v1.191l-.1-.055V208.2Z" transform="translate(-270.542 -205.063)"/>
                <path id="Path_45606" data-name="Path 45606" d="M276.285,210.695a1.878,1.878,0,0,1-.168-.226.487.487,0,0,1-.073-.243.171.171,0,0,1,.073-.161.169.169,0,0,1,.175.017.463.463,0,0,1,.172.176.431.431,0,0,1,.065.211v.005l-.082-.009a.43.43,0,0,0-.05-.167.28.28,0,0,0-.1-.106.094.094,0,0,0-.154.088.3.3,0,0,0,.046.151,1.568,1.568,0,0,0,.112.157,2.138,2.138,0,0,1,.192.261.6.6,0,0,1,.09.3.187.187,0,0,1-.307.178.609.609,0,0,1-.217-.229.567.567,0,0,1-.09-.279l.094.027a.429.429,0,0,0,.062.213.422.422,0,0,0,.151.159.147.147,0,0,0,.151.016.145.145,0,0,0,.063-.138.413.413,0,0,0-.062-.208A2.256,2.256,0,0,0,276.285,210.695Z" transform="translate(-271.423 -206.559)"/>
                <path id="Path_45607" data-name="Path 45607" d="M278.6,208.985l.1.055v.811a.291.291,0,0,1,.29.034.871.871,0,0,1,.417.706v.8l-.095-.055v-.787a.625.625,0,0,0-.1-.314.643.643,0,0,0-.227-.238.228.228,0,0,0-.227-.025.158.158,0,0,0-.063.064v.948l-.1-.055Z" transform="translate(-273.178 -205.853)"/>
              </g>
              <g id="Group_17912" data-name="Group 17912" transform="translate(5.605 22.389)">
                <g id="Group_17911" data-name="Group 17911">
                  <path id="Path_45608" data-name="Path 45608" d="M206.164,167.476l-.864-.5V166.7l.119.069v-.1l-.119-.069-.149-.086v.381l-.863-.5v0l-.149-.086v1.38l.149.086v-.255l.863.5v.993l.149.086V168.1l.864.5v.255l.149.086v-1.38l-.149-.086Zm-1.876-.134v-.778l.863.5v.778Zm1.876,1.083-.864-.5v-.778l.864.5Z" transform="translate(-204.139 -166.302)"/>
                  <path id="Path_45609" data-name="Path 45609" d="M214.135,174.541a7.667,7.667,0,0,1-1.25-1.547,1.807,1.807,0,0,0,.684-.7l.3.174V172.3l-.975-.563v-.281l.119.069v-.1l-.119-.069-.149-.086v.382l-1.05-.606v.171l.248.143a8.378,8.378,0,0,0,.684,1.489,1.965,1.965,0,0,1-1.25.1l.054.227a2.067,2.067,0,0,0,1.324-.114,8.1,8.1,0,0,0,1.324,1.643Zm-1.988-3.067,1.22.7a1.7,1.7,0,0,1-.61.6A8.021,8.021,0,0,1,212.147,171.475Z" transform="translate(-208.953 -169.454)"/>
                </g>
              </g>
              <g id="Group_17913" data-name="Group 17913" transform="translate(24.593 58.657)">
                <path id="Path_45610" data-name="Path 45610" d="M261.645,275.016v.109l-.75-.432v.806l.75.433v.109l-.75-.433v.806l.75.433v.109l-.845-.488v-1.941Z" transform="translate(-260.801 -274.528)"/>
                <path id="Path_45611" data-name="Path 45611" d="M264.4,279.655a1.837,1.837,0,0,1-.168-.226.48.48,0,0,1-.073-.243.152.152,0,0,1,.248-.144.472.472,0,0,1,.172.177.435.435,0,0,1,.065.211v.006l-.083-.01a.437.437,0,0,0-.05-.168.284.284,0,0,0-.1-.106.093.093,0,0,0-.154.088.3.3,0,0,0,.046.151,1.75,1.75,0,0,0,.112.157,2.135,2.135,0,0,1,.192.261.6.6,0,0,1,.09.3.187.187,0,0,1-.307.177.6.6,0,0,1-.217-.229.57.57,0,0,1-.09-.279l.094.026a.469.469,0,0,0,.213.373.151.151,0,0,0,.151.016.146.146,0,0,0,.063-.138.41.41,0,0,0-.062-.208C264.515,279.808,264.47,279.745,264.4,279.655Z" transform="translate(-262.98 -277.506)"/>
                <path id="Path_45612" data-name="Path 45612" d="M266.72,280.184l.1.055v.167a.332.332,0,0,1,.06-.046.4.4,0,0,1,.411.043,1.275,1.275,0,0,1,.58,1,.353.353,0,0,1-.58.331,1.156,1.156,0,0,1-.411-.433c-.022-.039-.042-.077-.06-.114v.7l-.1-.055Zm.1.5v.228a1.024,1.024,0,0,0,.131.351.946.946,0,0,0,.339.358.328.328,0,0,0,.339.035.324.324,0,0,0,.141-.308,1.056,1.056,0,0,0-.48-.827.33.33,0,0,0-.339-.035A.278.278,0,0,0,266.815,280.684Z" transform="translate(-264.736 -278.289)"/>
                <path id="Path_45613" data-name="Path 45613" d="M271.994,284.709l-.095-.055v-.243a.309.309,0,0,1-.06.047.4.4,0,0,1-.412-.042,1.278,1.278,0,0,1-.58-1,.393.393,0,0,1,.17-.373.4.4,0,0,1,.41.042,1.141,1.141,0,0,1,.412.433c.021.038.041.076.06.116v-.169l.095.055Zm-.095-.579v-.216a1.021,1.021,0,0,0-.132-.357.953.953,0,0,0-.339-.358.331.331,0,0,0-.34-.035.324.324,0,0,0-.14.308.934.934,0,0,0,.14.47.963.963,0,0,0,.34.357.33.33,0,0,0,.339.034A.276.276,0,0,0,271.9,284.129Z" transform="translate(-267.481 -280.162)"/>
                <path id="Path_45614" data-name="Path 45614" d="M275.312,284.923v.926l-.1-.055V284.6l.1.055v.076a.293.293,0,0,1,.3.027.871.871,0,0,1,.418.706v.8l-.1-.055v-.787a.617.617,0,0,0-.1-.314.64.64,0,0,0-.227-.238.223.223,0,0,0-.226-.025A.175.175,0,0,0,275.312,284.923Zm.307-.42a.487.487,0,0,0,.131.148l0,0c.035.017.06,0,.074-.06l.073.042c-.015.1-.05.137-.106.125a.2.2,0,0,1-.044-.019.383.383,0,0,1-.121-.126.5.5,0,0,0-.131-.147l-.005,0c-.035-.018-.06,0-.074.059l-.074-.042c.016-.1.05-.137.106-.123a.226.226,0,0,1,.045.018A.4.4,0,0,1,275.619,284.5Z" transform="translate(-270.386 -281.064)"/>
                <path id="Path_45615" data-name="Path 45615" d="M278.984,287.444a1.147,1.147,0,0,1,.411.433,1.134,1.134,0,0,1,.17.569.39.39,0,0,1-.17.372.4.4,0,0,1-.411-.042,1.284,1.284,0,0,1-.58-1,.392.392,0,0,1,.171-.375A.4.4,0,0,1,278.984,287.444Zm-.339.082a.32.32,0,0,0-.141.308.925.925,0,0,0,.141.47.938.938,0,0,0,.339.357.332.332,0,0,0,.339.035.322.322,0,0,0,.141-.308.933.933,0,0,0-.141-.47.947.947,0,0,0-.339-.358A.327.327,0,0,0,278.646,287.527Z" transform="translate(-272.505 -283.062)"/>
                <path id="Path_45616" data-name="Path 45616" d="M282.721,287.185v1.941l-.1-.055V287.13Z" transform="translate(-275.312 -282.907)"/>
              </g>
              <g id="Group_17914" data-name="Group 17914" transform="translate(4.524 47.07)">
                <path id="Path_45617" data-name="Path 45617" d="M201.007,241.274v.673l-.1-.055v-1.94l.443.256a1.2,1.2,0,0,1,.329.376,1.075,1.075,0,0,1,.162.541.373.373,0,0,1-.162.356.381.381,0,0,1-.39-.04Zm0-1.158v1.047l.287.166a.316.316,0,0,0,.322.033.308.308,0,0,0,.134-.294.885.885,0,0,0-.134-.447.9.9,0,0,0-.322-.338Z" transform="translate(-200.912 -239.951)"/>
                <path id="Path_45618" data-name="Path 45618" d="M204.153,245.705l-.107-.062.274-.516-.394-1.2.107.061.34,1.029.343-.634.106.061Z" transform="translate(-202.916 -242.596)"/>
                <path id="Path_45619" data-name="Path 45619" d="M207.888,247.409l.1.1a.266.266,0,0,1-.063.048.4.4,0,0,1-.411-.042,1.149,1.149,0,0,1-.41-.432,1.13,1.13,0,0,1-.17-.57.39.39,0,0,1,.17-.373.394.394,0,0,1,.41.042,1.13,1.13,0,0,1,.411.432,1.283,1.283,0,0,1,.063.118l-.1-.016-.034-.063a.942.942,0,0,0-.34-.356.328.328,0,0,0-.338-.035.323.323,0,0,0-.141.307,1.058,1.058,0,0,0,.479.827.33.33,0,0,0,.34.035C207.866,247.425,207.878,247.418,207.888,247.409Z" transform="translate(-204.917 -244.039)"/>
                <path id="Path_45620" data-name="Path 45620" d="M211.6,249.553l.1.1a.251.251,0,0,1-.063.048.4.4,0,0,1-.411-.042,1.147,1.147,0,0,1-.41-.432,1.132,1.132,0,0,1-.171-.57.391.391,0,0,1,.171-.373.4.4,0,0,1,.41.042,1.135,1.135,0,0,1,.411.432,1.289,1.289,0,0,1,.063.119l-.1-.016c-.01-.02-.022-.042-.033-.063a.948.948,0,0,0-.34-.356.327.327,0,0,0-.338-.035.324.324,0,0,0-.141.307,1.057,1.057,0,0,0,.479.827.33.33,0,0,0,.34.036A.365.365,0,0,0,211.6,249.553Z" transform="translate(-207.385 -245.464)"/>
                <path id="Path_45621" data-name="Path 45621" d="M215.059,250.355l-.256.216.407,1.063-.116-.068-.354-.944-.211.147v.471l-.1-.056v-1.191l.1.056v.546l.407-.311Z" transform="translate(-209.902 -246.628)"/>
                <path id="Path_45622" data-name="Path 45622" d="M217.031,251.495l.094.054v1.009l.663-.626.1.059v1.191l-.094-.054V252.11l-.671.629v0l-.094-.055Z" transform="translate(-211.629 -247.626)"/>
                <path id="Path_45623" data-name="Path 45623" d="M220.24,252.7l.094.054v1.009l.664-.626.1.059v1.191l-.095-.054v-1.018l-.671.629v0l-.094-.055Zm.26-.282a.359.359,0,0,0,.049.138.338.338,0,0,0,.122.129.122.122,0,0,0,.122.012.1.1,0,0,0,.048-.083l.077.044a.155.155,0,0,1-.072.132.168.168,0,0,1-.175-.018.479.479,0,0,1-.176-.185.488.488,0,0,1-.074-.216Z" transform="translate(-213.763 -248.21)"/>
              </g>
            </g>
          </g>
        </g>
        <path id="Path_45624" data-name="Path 45624" d="M220.416,193.014l-.045,14.736-33.145,8.824-7.146-4.123a4.829,4.829,0,0,1-2.192-3.8l.014-4.322Z" transform="translate(-174.742 -141.231)" fill="#4f5f66" style="mix-blend-mode: screen;isolation: isolate"/>
        <path id="Path_45625" data-name="Path 45625" d="M220.578,139.872,178.064,151.19l.014-4.548,40.016-10.655.292.17A4.837,4.837,0,0,1,220.578,139.872Z" transform="translate(-174.859 -103.315)" fill="#4f5f66" style="mix-blend-mode: screen;isolation: isolate"/>
        <path id="Path_45626" data-name="Path 45626" d="M220.53,156.6l-.014,4.547L178,172.465l.014-4.547Z" transform="translate(-174.817 -117.017)" fill="#4f5f66" style="mix-blend-mode: screen;isolation: isolate"/>
      </g>
    </g>
    <g id="Group_17922" data-name="Group 17922" transform="translate(21.98 34.211)">
      <path id="Path_45627" data-name="Path 45627" d="M118.951,359.08c-5.607,3.237-14.728,3.221-20.37-.037s-5.671-8.523-.064-11.761,14.727-3.221,20.37.037S124.558,355.842,118.951,359.08Z" transform="translate(-94.33 -276.405)" fill="#e3ecff"/>
      <g id="Group_17921" data-name="Group 17921" transform="translate(0.425 0)">
        <g id="Group_17920" data-name="Group 17920">
          <path id="Path_45628" data-name="Path 45628" d="M103.868,198.321a4.376,4.376,0,0,0-.7-1.932,2.013,2.013,0,0,0-1.775-.876c-.576.068-.786.484-1.036.949a7.457,7.457,0,0,0-.611,1.488c-.219.774-.385,1.562-.547,2.349a12.547,12.547,0,0,1-.813,2.71q-.113.252-.219.506a21.844,21.844,0,0,0-1.33,4.392,28.252,28.252,0,0,0-.346,4.65,9.252,9.252,0,0,1-.406,3.184q-.168.444-.353.881a1.2,1.2,0,0,0-.133.517,1.166,1.166,0,0,0,.112.387l.4.959a.773.773,0,0,0,.167.278.736.736,0,0,0,.228.128,8.64,8.64,0,0,0,1.091.366.646.646,0,0,0,.3.029c.064-.013.122-.044.185-.061.239-.062.5.1.733.015.053-.018.1-.049.155-.063s.107-.01.159-.022a.379.379,0,0,0,.239-.437,1.107,1.107,0,0,0-.257-.477L98.3,217.2a1.989,1.989,0,0,1-.3-.476c.121-.006.242-.006.362,0a.13.13,0,0,1,.075.018.131.131,0,0,1,.039.072A4,4,0,0,0,99.065,218a.862.862,0,0,0,.264.264.337.337,0,0,0,.356,0c.153-.115.127-.348.085-.536l-.314-1.4a1.174,1.174,0,0,0-.351-.718c-.127-.1-.357-.135-.446-.274a1.544,1.544,0,0,1-.088-.827,32.4,32.4,0,0,1,1.014-3.432c.561-1.456,1.022-2.965,1.614-4.406.544-1.326,1.294-2.553,1.914-3.842a6.822,6.822,0,0,0,.89-2.576A10.951,10.951,0,0,0,103.868,198.321Z" transform="translate(-95.599 -177.096)" fill="#ffb78c"/>
          <path id="Path_45629" data-name="Path 45629" d="M113.77,185.636a6.164,6.164,0,0,0,.42-.537,4.651,4.651,0,0,0-5.1,1.654,13.716,13.716,0,0,0-2.019,4.382,1.152,1.152,0,0,0-.065.6,1.075,1.075,0,0,0,.148.306,4.8,4.8,0,0,0,1.452,1.454,6.048,6.048,0,0,0,2.8.829,1.417,1.417,0,0,0,.686-.065c.5-.218.32-.738.258-1.149a11.4,11.4,0,0,1-.123-1.61,13.31,13.31,0,0,1,.384-3.213,3.428,3.428,0,0,0,.147-.637,2.088,2.088,0,0,1,.015-.451,2.647,2.647,0,0,1,.494-.968C113.43,186.027,113.6,185.833,113.77,185.636Z" transform="translate(-103.173 -170.034)" fill="#6b6cb3"/>
          <path id="Path_45630" data-name="Path 45630" d="M100.675,367.06a3.617,3.617,0,0,0-.295.542,1.741,1.741,0,0,0,.822,2.369,1.942,1.942,0,0,0,1.053-.017c.345-.085.681-.211,1.031-.272a6.82,6.82,0,0,1,1.983.087,3.719,3.719,0,0,0,1.961-.155,2.193,2.193,0,0,0,1.126-1.3c.185-.532.315-1.316-.33-1.554a5.616,5.616,0,0,0-1.291-.186,4.085,4.085,0,0,1-1.976-.8,1.6,1.6,0,0,1-.365-.338c-.087-.126-.078-.2-.237-.272a6.445,6.445,0,0,0-1.235-.272,1.911,1.911,0,0,0-1.083.049c-.716.293-.7,1.223-1,1.825-.046.093-.1.183-.15.271Z" transform="translate(-98.674 -289.683)" fill="#4d4d80"/>
          <path id="Path_45631" data-name="Path 45631" d="M117.084,257.259a5.928,5.928,0,0,1-.653-1.9,21.851,21.851,0,0,0-1.4-4.066,4.019,4.019,0,0,0-.792-1.251,3.869,3.869,0,0,0-1.952-.866,1.519,1.519,0,0,0-1.6.5c-.245.342-.493.684-.726,1.035-.157.235-.408.346-.55.574a11.511,11.511,0,0,0-1.8,5.463,32.629,32.629,0,0,0,.13,3.488,24.54,24.54,0,0,1-.22,3.426,24.794,24.794,0,0,1-2.194,7.95,23.245,23.245,0,0,0-1.565,4.3,23.628,23.628,0,0,0-.527,3.5c-.055.662-.09,1.325-.115,1.988-.068,1.8-.065,3.612-.187,5.413-.036.524-.081,1.047-.143,1.569-.031.261-.076.52-.1.781-.073.667,1.1.624,1.5.622a5.241,5.241,0,0,0,2.067-.433c.287-.125.316-.218.3-.495-.022-.348.2-2.548.3-3.285a24.138,24.138,0,0,1,.822-4.168c.431-1.315.965-2.61,1.44-3.914.273-.751,2.134-5.494,2.378-6.024l1.717-3.735c.784-1.706,1.569-3.412,2.285-5.148.631-1.529,1.21-3.08,1.714-4.656a.745.745,0,0,0,.052-.308A.874.874,0,0,0,117.084,257.259Z" transform="translate(-100.307 -212.751)" fill="#fa0"/>
          <path id="Path_45632" data-name="Path 45632" d="M148.055,362.371a1.237,1.237,0,0,0,.311.845,1.142,1.142,0,0,0,.795.323,2.255,2.255,0,0,0,.858-.173c.977-.371,1.8-1.076,2.787-1.425a12.081,12.081,0,0,0,1.7-.562,3.7,3.7,0,0,0,.8-.608,3.854,3.854,0,0,0,.994-1.455c.163-.453.4-1.392-.067-1.74a2.373,2.373,0,0,0-1.711-.363,10.847,10.847,0,0,0-3.031.652q-.495.186-.971.418a4.077,4.077,0,0,0-.792.414,3.757,3.757,0,0,0-.766.9,5.494,5.494,0,0,0-.806,1.862A4,4,0,0,0,148.055,362.371Z" transform="translate(-130.475 -284.602)" fill="#6b6cb3"/>
          <path id="Path_45633" data-name="Path 45633" d="M142.248,252.891c-.133.91-.315,1.581-1.253,1.876a3.955,3.955,0,0,1-1.839.06,7.017,7.017,0,0,1-2.415-.891c-.955-.571-1.771-1.367-2.771-1.855a2.238,2.238,0,0,0-3,.54,4.6,4.6,0,0,0-.772,2.329,7.52,7.52,0,0,0,3.226,7.16,3.343,3.343,0,0,1,.975.8,2.535,2.535,0,0,1,.344,1.117c.268,2.035.07,4.076.2,6.112a61.914,61.914,0,0,1,.074,6.4c-.047,1.174-.124,2.349-.091,3.525a15.754,15.754,0,0,0,.56,3.419c.272,1.1.488,2.249.672,3.377.1.623.191,1.248.275,1.874a9.623,9.623,0,0,0,.217,1.691,3.2,3.2,0,0,0,3.037-.665.621.621,0,0,0,.171-.213.7.7,0,0,0,.037-.24q.162-4.914.325-9.827a29.7,29.7,0,0,1,1.385-8.5c.463-1.417.97-2.821,1.355-4.261a28.48,28.48,0,0,0,.709-4.317,20.542,20.542,0,0,0-1.2-8.912Q142.359,253.188,142.248,252.891Z" transform="translate(-118.571 -214.489)" fill="#ffea00"/>
          <path id="Path_45634" data-name="Path 45634" d="M117.385,184.9a3.673,3.673,0,0,0-2.4,1.01,6.468,6.468,0,0,0-1.345,5.155,12.367,12.367,0,0,0,1.41,4.456,18.767,18.767,0,0,1,1.781,3.415c.558,1.866-1,9.006-1.107,10.669a1.1,1.1,0,0,0,.356,1.079,10.4,10.4,0,0,0,4.081,2.646,16.923,16.923,0,0,0,4.8.939,12.545,12.545,0,0,0,6.707-1.134,1.684,1.684,0,0,0,.453-.318,1.6,1.6,0,0,0,.316-1.152,13.362,13.362,0,0,0-.452-2.2c-.707-3.544-1.54-7.135-1.19-10.732a42.722,42.722,0,0,1,.745-4.236c.246-1.232.868-2.845-.1-3.866a16.855,16.855,0,0,0-5.718-3.451c-1.255-.545-2.514-1.087-3.816-1.508A12.462,12.462,0,0,0,117.385,184.9Z" transform="translate(-107.553 -170.034)" fill="#4d4d80"/>
          <path id="Path_45635" data-name="Path 45635" d="M134.471,155.966l-.012.185a2.634,2.634,0,0,0,.032.916,8.219,8.219,0,0,1,.284.869,2.729,2.729,0,0,1-.092,1.057q-.172.759-.369,1.51a2.011,2.011,0,0,1-.516,1.047c-.142.125-.316.207-.468.32a2.21,2.21,0,0,0-.763,1.693c-.034.639.079,1.278.07,1.918a10.45,10.45,0,0,1-3.412.336,4.6,4.6,0,0,1-2.715-.921.312.312,0,0,1-.091-.108.35.35,0,0,1-.009-.175c.168-1.563-.89-2.908-1.194-4.381a12.015,12.015,0,0,1-.3-4.368,4.729,4.729,0,0,1,2.356-3.526,5.913,5.913,0,0,1,2.873-.447,6.767,6.767,0,0,1,2.477.48,3.1,3.1,0,0,1,1.73,1.758A4.729,4.729,0,0,1,134.471,155.966Z" transform="translate(-115.026 -148.092)" fill="#ffb78c"/>
          <path id="Path_45636" data-name="Path 45636" d="M131.932,151.383a4.583,4.583,0,0,0-1.334-.623,6.61,6.61,0,0,0-1.739-.306,5.361,5.361,0,0,0-5.313,3.844q-.1.31-.175.628a9.036,9.036,0,0,0,.861,6.316,8.494,8.494,0,0,0,.577.918c.253.351.387.533.83.6a5.52,5.52,0,0,0,3.375-.794,9.217,9.217,0,0,0,3.4-3.111c1.259-2,1.7-4.942.125-6.9A3.063,3.063,0,0,0,131.932,151.383Z" transform="translate(-113.911 -147.143)" fill="#754600"/>
          <path id="Path_45637" data-name="Path 45637" d="M182.307,144.91a.746.746,0,0,0-.6-.2.417.417,0,0,0-.24-.321.98.98,0,0,1-.335-.246,1.976,1.976,0,0,0-.137-.24c-.155-.169-.431-.074-.637.025s-.495.175-.629-.01a.467.467,0,0,1-.064-.283,15.742,15.742,0,0,0,.277-2.7c-.026-.154-.1-.336-.259-.35-.135-.012-.24.113-.306.231a3.986,3.986,0,0,0-.374,1.259q-.1.571-.206,1.141c-.117.646-.233,1.293-.34,1.941a5.854,5.854,0,0,0-.113,1.468c.029.332.157.68.163,1.008,0,.273-1.3,4.869-1.61,5.814-.231.7-.45,1.4-.634,2.118a4.732,4.732,0,0,0-.152.829c-.8.469-3.7,2.1-4.376,2.361a4.246,4.246,0,0,0-1.8.883.824.824,0,0,0-.182.256,1.006,1.006,0,0,0,.018.566,5.064,5.064,0,0,1-.572,3.535,1.335,1.335,0,0,0-.248.626,10.7,10.7,0,0,0,2.719-.366,9.963,9.963,0,0,0,2.8-1.585q1.008-.736,1.99-1.508a18.145,18.145,0,0,0,2.6-2.368,6.734,6.734,0,0,0,1.189-2.863,17.743,17.743,0,0,0,.558-3.812,15.7,15.7,0,0,1,.281-2.865,3.923,3.923,0,0,1,.324-1.219,3.516,3.516,0,0,0,.473-1.5,1.9,1.9,0,0,1,.131-.531c.082-.181.213-.336.3-.517A.564.564,0,0,0,182.307,144.91Z" transform="translate(-144.369 -140.578)" fill="#ffe5cc"/>
          <path id="Path_45638" data-name="Path 45638" d="M155.008,195.481c-.544.013-1.086.041-1.628.1a5.27,5.27,0,0,0-2.637.74,2.19,2.19,0,0,0-.734,1.836,4.5,4.5,0,0,0,.891,2.124,4.821,4.821,0,0,0,4.108,1.838,10.377,10.377,0,0,0,2.021-.229,2.474,2.474,0,0,0,1.059-.408,3.728,3.728,0,0,0,.729-1.183,6.222,6.222,0,0,0,.581-2.769c-.022-.853-.322-2.036-1.373-2.047q-.811-.009-1.622-.011C155.938,195.47,155.473,195.47,155.008,195.481Z" transform="translate(-131.775 -177.075)" fill="#6b6cb3"/>
          <path id="Path_45639" data-name="Path 45639" d="M125.584,184.582a3.333,3.333,0,0,0-.75,3.053,1.957,1.957,0,0,1,.1.5,2.024,2.024,0,0,1-.119.537,2.885,2.885,0,0,0-.024,1.474,2.276,2.276,0,0,1,.127.7,2.327,2.327,0,0,1-.168.573,2.768,2.768,0,0,0,.033,1.9,1.469,1.469,0,0,1,.129,1.308,2.777,2.777,0,0,0,.26,1.831,1.806,1.806,0,0,1,.224.509,1.367,1.367,0,0,1-.054.545q-.289,1.211-.577,2.423a13.394,13.394,0,0,0-.453,2.726,6.733,6.733,0,0,0,.941,3.6,2.128,2.128,0,0,0,1.142-1.275,7.1,7.1,0,0,0,.442-4.184,8.868,8.868,0,0,0-.755-2.148.663.663,0,0,1-.1-.38.724.724,0,0,1,.207-.338,2.947,2.947,0,0,0,.414-3.141,1.83,1.83,0,0,1-.244-.634,1.9,1.9,0,0,1,.238-.82,2.629,2.629,0,0,0,.09-1.668,1.1,1.1,0,0,1-.072-.432,1.164,1.164,0,0,1,.149-.362,2.168,2.168,0,0,0-.3-2.372,5.64,5.64,0,0,0,.739-1.294,1.9,1.9,0,0,0-.017-1.455,1.034,1.034,0,0,1-.162-.434.81.81,0,0,1,.163-.406,3.187,3.187,0,0,0,.549-2.086c-.119-.8-.951-1.788-1.778-1.126a1.893,1.893,0,0,0-.571,1.276,3.283,3.283,0,0,0,0,.813C125.391,183.88,125.6,184.563,125.584,184.582Z" transform="translate(-114.688 -167.778)" fill="#754600"/>
        </g>
      </g>
    </g>
    <g id="Group_17939" data-name="Group 17939" transform="translate(85.004 68.326)">
      <path id="Path_45640" data-name="Path 45640" d="M304.1,375.525,282.93,363.3c-.789-.455-.69-1.251.221-1.777l32.331-18.666a3.42,3.42,0,0,1,3.078-.128l21.17,12.223c.789.455.69,1.251-.221,1.777L307.178,375.4A3.419,3.419,0,0,1,304.1,375.525Z" transform="translate(-282.398 -308.898)" fill="#e3ecff"/>
      <g id="Group_17926" data-name="Group 17926" transform="translate(2.908 28.521)">
        <g id="Group_17923" data-name="Group 17923" transform="translate(0.168)">
          <path id="Path_45641" data-name="Path 45641" d="M291.576,376.791l18.863-10.942,2.591,14.477-2.735,7.229-2.086-.432Z" transform="translate(-291.576 -352.993)" fill="#ffea00"/>
          <path id="Path_45642" data-name="Path 45642" d="M297.561,381.522V386.8l16.776,9.693v-4.18l-1.376-1.807Z" transform="translate(-295.556 -363.415)" fill="#eff0f2"/>
          <path id="Path_45643" data-name="Path 45643" d="M297.561,390.4l8.388,4.839-8.388-4.276Z" transform="translate(-295.556 -369.316)" fill="#ced3de"/>
          <path id="Path_45644" data-name="Path 45644" d="M346.769,387.4l28.81-16.606.082-.048a1.357,1.357,0,0,0,.66-1.174v-4.73l-.859.5-4.277,2.469-1.027.591-22.5,12.985-.471,4.976Z" transform="translate(-328.273 -352.323)" fill="#fa0"/>
          <path id="Path_45645" data-name="Path 45645" d="M338.978,371.371l3.5,3.349,22.5-12.985,1.027-.591,4.277-2.469.859-.5a2.323,2.323,0,0,0-1.161-2.011l-2.339-1.346-.009,0-1.022.591-5.261,3.038-1.027.591Z" transform="translate(-323.093 -345.662)" fill="#ffd60a"/>
          <path id="Path_45646" data-name="Path 45646" d="M314.337,392.309v4.18l-.6-.344v-1.251a6.547,6.547,0,0,0-.047-1.208,2.233,2.233,0,0,0-.59-1.087.712.712,0,0,0-.055-.055,13.7,13.7,0,0,0-3.131-2.072q-1.578-.9-3.148-1.8-1.689-.968-3.378-1.932l-3.136-1.795c-.809-.465-1.623-.927-2.432-1.392-.086-.051-.176-.1-.262-.149v-1.888l15.4,8.985Z" transform="translate(-295.555 -363.412)" fill="#ced3de"/>
          <path id="Path_45647" data-name="Path 45647" d="M309.061,394.2l-1.6-.924L291.576,384.1v1.183l15.885,9.171,1.436.828a1.359,1.359,0,0,0,.658.187,1.38,1.38,0,0,0,1.405-1.38v-4.727a2.319,2.319,0,0,0-1.16-2.01L307.461,386v.012l-15.885-9.17v1.182l15.885,9.17,1.436.828a1.432,1.432,0,0,0,.142.071l.19.11a1.742,1.742,0,0,1,.873,1.511v3.876A.694.694,0,0,1,309.061,394.2Z" transform="translate(-291.576 -360.305)" fill="#ffc400"/>
          <path id="Path_45648" data-name="Path 45648" d="M291.576,344.028l15.885,9.171,28.663-16.552-15.885-9.159Z" transform="translate(-291.576 -327.488)" fill="#ffea00"/>
        </g>
        <g id="Group_17924" data-name="Group 17924" transform="translate(28.095 18.024)">
          <path id="Path_45649" data-name="Path 45649" d="M376.648,403.118v.258l-1.736,1v-2.946l1.7-.983v.257l-1.448.836V402.6l1.262-.729v.244l-1.262.729v1.125Z" transform="translate(-374.912 -394.023)" fill="#f2f2f2"/>
          <path id="Path_45650" data-name="Path 45650" d="M381.6,402.772a1.367,1.367,0,0,1-.433.167.605.605,0,0,1-.364-.03l.113-.256a.7.7,0,0,0,.325.036.971.971,0,0,0,.356-.13,1.192,1.192,0,0,0,.366-.317.636.636,0,0,0,.137-.38.188.188,0,0,0-.037-.13.151.151,0,0,0-.107-.044.6.6,0,0,0-.178.022c-.071.017-.154.042-.249.071q-.164.049-.285.072a.544.544,0,0,1-.2.011.158.158,0,0,1-.116-.075.371.371,0,0,1-.039-.192.95.95,0,0,1,.057-.32,1.25,1.25,0,0,1,.153-.292,1.48,1.48,0,0,1,.226-.254,1.654,1.654,0,0,1,.274-.2,1.063,1.063,0,0,1,.4-.148.428.428,0,0,1,.288.047l-.12.236a.364.364,0,0,0-.257-.039.926.926,0,0,0-.315.12,1.238,1.238,0,0,0-.182.127.925.925,0,0,0-.148.158.763.763,0,0,0-.1.184.567.567,0,0,0-.037.2.239.239,0,0,0,.025.126.1.1,0,0,0,.084.045.48.48,0,0,0,.147-.014c.06-.014.132-.034.216-.061.122-.038.228-.066.32-.085a.66.66,0,0,1,.231-.018.194.194,0,0,1,.14.081.364.364,0,0,1,.048.2,1.027,1.027,0,0,1-.2.589A1.627,1.627,0,0,1,381.6,402.772Z" transform="translate(-378.832 -393.976)" fill="#f2f2f2"/>
          <path id="Path_45651" data-name="Path 45651" d="M387.565,399.258a.639.639,0,0,1-.424.105.464.464,0,0,1-.3-.179v1.332l-.247.142v-3.046l.222-.128v.419a2.214,2.214,0,0,1,.3-.5,1.456,1.456,0,0,1,.4-.359.745.745,0,0,1,.36-.115.463.463,0,0,1,.284.085.558.558,0,0,1,.188.25,1.009,1.009,0,0,1,.067.38,1.877,1.877,0,0,1-.061.467,2.156,2.156,0,0,1-.177.458,2.032,2.032,0,0,1-.273.4A1.4,1.4,0,0,1,387.565,399.258Zm-.07-.21a1.055,1.055,0,0,0,.279-.236,1.633,1.633,0,0,0,.215-.32,1.756,1.756,0,0,0,.137-.358,1.392,1.392,0,0,0,.047-.348.76.76,0,0,0-.054-.3.444.444,0,0,0-.149-.192.366.366,0,0,0-.224-.061.612.612,0,0,0-.279.09,1.043,1.043,0,0,0-.2.158,1.825,1.825,0,0,0-.193.228,1.73,1.73,0,0,0-.153.258.831.831,0,0,0-.078.25v.664a.475.475,0,0,0,.111.153.371.371,0,0,0,.153.083.434.434,0,0,0,.184.008A.593.593,0,0,0,387.5,399.048Z" transform="translate(-382.681 -391.68)" fill="#f2f2f2"/>
          <path id="Path_45652" data-name="Path 45652" d="M393.469,395.915a.67.67,0,0,1-.249.091.343.343,0,0,1-.2-.027.292.292,0,0,1-.134-.137.537.537,0,0,1-.046-.236.839.839,0,0,1,.058-.295,1.348,1.348,0,0,1,.164-.3,1.739,1.739,0,0,1,.251-.28,1.9,1.9,0,0,1,.32-.232,2.092,2.092,0,0,1,.295-.141,1.115,1.115,0,0,1,.265-.071v-.195q0-.287-.142-.373c-.095-.057-.226-.038-.393.059a1.417,1.417,0,0,0-.3.239,3.239,3.239,0,0,0-.31.37l-.087-.136a2.522,2.522,0,0,1,.713-.694.582.582,0,0,1,.56-.1c.136.074.2.245.2.513v.975c0,.078.03.1.091.064v.249a.949.949,0,0,1-.095.067.17.17,0,0,1-.147.031c-.036-.016-.054-.055-.056-.117l-.007-.166a2.042,2.042,0,0,1-.33.489A1.774,1.774,0,0,1,393.469,395.915Zm.059-.25a1.516,1.516,0,0,0,.355-.287,1.389,1.389,0,0,0,.245-.362.525.525,0,0,0,.049-.11.305.305,0,0,0,.016-.089v-.353a1.294,1.294,0,0,0-.257.065,1.65,1.65,0,0,0-.27.127,1.387,1.387,0,0,0-.426.37.712.712,0,0,0-.164.423.365.365,0,0,0,.035.167.219.219,0,0,0,.094.1.248.248,0,0,0,.144.018A.5.5,0,0,0,393.528,395.664Z" transform="translate(-386.832 -389.349)" fill="#f2f2f2"/>
          <path id="Path_45653" data-name="Path 45653" d="M400.807,389.626l-.248.143v-1.207a.839.839,0,0,0-.1-.5c-.067-.078-.169-.077-.308,0a1.072,1.072,0,0,0-.218.171,1.647,1.647,0,0,0-.2.246,2.035,2.035,0,0,0-.166.293,1.489,1.489,0,0,0-.106.307V390.4l-.247.143v-2.162l.225-.13v.489a2.156,2.156,0,0,1,.333-.574,1.7,1.7,0,0,1,.472-.417.524.524,0,0,1,.265-.087.221.221,0,0,1,.175.085.56.56,0,0,1,.095.24,2.08,2.08,0,0,1,.029.369Zm-.564-2.321a.478.478,0,0,1-.144.059.678.678,0,0,1-.113.009c-.035,0-.07,0-.1,0a.225.225,0,0,0-.108.035.311.311,0,0,0-.1.084.613.613,0,0,0-.054.1.32.32,0,0,0-.025.081c0,.023-.006.037-.006.043l-.153.088a.73.73,0,0,1,.013-.092.806.806,0,0,1,.049-.159.869.869,0,0,1,.1-.176.534.534,0,0,1,.168-.149.342.342,0,0,1,.133-.05.644.644,0,0,1,.107,0,.632.632,0,0,0,.1,0,.3.3,0,0,0,.122-.043.384.384,0,0,0,.111-.093.473.473,0,0,0,.064-.1.363.363,0,0,0,.028-.084.4.4,0,0,0,0-.043l.153-.087a.583.583,0,0,1-.015.091.781.781,0,0,1-.053.159.888.888,0,0,1-.109.182A.6.6,0,0,1,400.243,387.3Z" transform="translate(-391.07 -384.893)" fill="#f2f2f2"/>
          <path id="Path_45654" data-name="Path 45654" d="M406.092,388.523a.871.871,0,0,1-.379.128.482.482,0,0,1-.3-.071.521.521,0,0,1-.195-.244,1,1,0,0,1-.069-.388,1.7,1.7,0,0,1,.071-.473,2.294,2.294,0,0,1,.493-.886,1.552,1.552,0,0,1,.376-.308.853.853,0,0,1,.376-.127.49.49,0,0,1,.3.073.538.538,0,0,1,.2.243.982.982,0,0,1,.071.391,1.721,1.721,0,0,1-.069.467,2.217,2.217,0,0,1-.195.469,2.17,2.17,0,0,1-.3.416A1.6,1.6,0,0,1,406.092,388.523Zm-.688-.715a.777.777,0,0,0,.054.306.429.429,0,0,0,.148.189.338.338,0,0,0,.217.059.609.609,0,0,0,.268-.089,1.081,1.081,0,0,0,.267-.223,1.659,1.659,0,0,0,.22-.314,1.769,1.769,0,0,0,.15-.362,1.336,1.336,0,0,0,.055-.372.781.781,0,0,0-.055-.307.423.423,0,0,0-.15-.192.368.368,0,0,0-.22-.06.571.571,0,0,0-.267.086,1.051,1.051,0,0,0-.266.222,1.677,1.677,0,0,0-.218.315,1.816,1.816,0,0,0-.15.366A1.388,1.388,0,0,0,405.4,387.808Z" transform="translate(-395.019 -384.519)" fill="#f2f2f2"/>
          <path id="Path_45655" data-name="Path 45655" d="M412.038,381.416l.247-.142v2.539c0,.08.019.132.058.155s.093.014.163-.026a.758.758,0,0,0,.1-.066,1.353,1.353,0,0,0,.1-.093l.044.2a1.805,1.805,0,0,1-.342.272c-.115.066-.2.082-.269.046s-.1-.119-.1-.252Z" transform="translate(-399.596 -381.274)" fill="#f2f2f2"/>
        </g>
        <g id="Group_17925" data-name="Group 17925" transform="translate(22.131 25.974)">
          <path id="Path_45656" data-name="Path 45656" d="M360.821,409.561l-3.46,2c-.136.079-.246,0-.246-.186v-3.88a.587.587,0,0,1,.246-.47l3.46-2c.136-.078.246,0,.246.186v3.88A.59.59,0,0,1,360.821,409.561Z" transform="translate(-357.114 -404.996)" fill="#ffea00"/>
          <path id="Path_45657" data-name="Path 45657" d="M361.067,405.2v.689l-3.953,2.282v-.689a.585.585,0,0,1,.265-.457l3.423-1.976C360.948,404.959,361.067,405.027,361.067,405.2Z" transform="translate(-357.114 -405.004)" fill="#e70317"/>
          <path id="Path_45658" data-name="Path 45658" d="M361.067,415.428v.623a.584.584,0,0,1-.265.457l-3.423,1.976c-.146.085-.265.017-.265-.151v-.623Z" transform="translate(-357.114 -411.932)" fill="#e70317"/>
        </g>
        <path id="Path_45659" data-name="Path 45659" d="M296.544,393.93a1.266,1.266,0,0,0-.21.16,2.809,2.809,0,0,0-.487.68,2.753,2.753,0,0,0-.126.269c-.26.546-.453,1.125-.756,1.654a4.2,4.2,0,0,1-1.949,1.713l.141-1.179-2.083.034a4.179,4.179,0,0,0,1.94-1.713c.3-.521.5-1.1.748-1.646.042-.092.084-.185.134-.277a2.809,2.809,0,0,1,.487-.68,1.1,1.1,0,0,1,.193-.151Z" transform="translate(-291.074 -370.908)" fill="#e70317"/>
      </g>
      <g id="Group_17930" data-name="Group 17930" transform="translate(6.973 20.006)">
        <g id="Group_17927" data-name="Group 17927">
          <path id="Path_45660" data-name="Path 45660" d="M303.2,351.382l18.863-10.942,2.591,14.477-2.735,7.228-2.086-.431Z" transform="translate(-303.204 -327.585)" fill="#d7dde8"/>
          <path id="Path_45661" data-name="Path 45661" d="M309.19,356.114v5.276l16.776,9.693V366.9l-1.375-1.807Z" transform="translate(-307.184 -338.006)" fill="#e6e6e6"/>
          <path id="Path_45662" data-name="Path 45662" d="M309.19,369.228l8.388,4.839-8.388-4.277Z" transform="translate(-307.184 -346.726)" fill="#b3b3b3"/>
          <path id="Path_45663" data-name="Path 45663" d="M358.4,361.988l28.81-16.605.082-.048a1.358,1.358,0,0,0,.661-1.174v-4.729l-.859.5-4.276,2.468-1.027.591-22.5,12.985-.471,4.976Z" transform="translate(-339.901 -326.914)" fill="#b3bac9"/>
          <path id="Path_45664" data-name="Path 45664" d="M350.607,345.963l3.5,3.349,22.5-12.985,1.027-.591,4.276-2.468.859-.5a2.323,2.323,0,0,0-1.161-2.011l-2.339-1.346-.009,0-1.023.591-5.26,3.038-1.027.591Z" transform="translate(-334.722 -320.253)" fill="#d7dde8"/>
          <path id="Path_45665" data-name="Path 45665" d="M325.965,366.9v4.18l-.6-.344v-1.251a6.542,6.542,0,0,0-.047-1.208,2.231,2.231,0,0,0-.59-1.087.6.6,0,0,0-.055-.055,13.687,13.687,0,0,0-3.132-2.072q-1.577-.9-3.147-1.8-1.689-.968-3.378-1.932l-3.136-1.795c-.81-.466-1.623-.927-2.432-1.392-.086-.051-.176-.1-.262-.149v-1.889l15.4,8.985Z" transform="translate(-307.182 -338.003)" fill="#f2f2f2"/>
          <path id="Path_45666" data-name="Path 45666" d="M320.689,368.787l-1.6-.924-15.885-9.17v1.182l15.885,9.17,1.436.828a1.365,1.365,0,0,0,.658.188,1.38,1.38,0,0,0,1.405-1.38v-4.727a2.318,2.318,0,0,0-1.16-2.01l-2.339-1.35v.012L303.2,351.435v1.183l15.885,9.171,1.436.828a1.438,1.438,0,0,0,.142.071l.19.109a1.743,1.743,0,0,1,.873,1.512v3.876A.7.7,0,0,1,320.689,368.787Z" transform="translate(-303.204 -334.895)" fill="#ced3de"/>
          <path id="Path_45667" data-name="Path 45667" d="M303.2,318.619l15.885,9.171,28.663-16.552-15.885-9.159Z" transform="translate(-303.204 -302.079)" fill="#e6e6e6"/>
        </g>
        <g id="Group_17928" data-name="Group 17928" transform="translate(27.525 17.956)">
          <path id="Path_45668" data-name="Path 45668" d="M385.341,380.2V377.25l1.07-.618a.633.633,0,0,1,.308-.1.415.415,0,0,1,.242.072.485.485,0,0,1,.16.2.744.744,0,0,1,.058.3,1.462,1.462,0,0,1-.054.381,1.87,1.87,0,0,1-.153.385,1.838,1.838,0,0,1-.235.343,1.177,1.177,0,0,1-.3.254l-.837.484v1.087Zm.255-1.492.825-.477a.819.819,0,0,0,.206-.174,1.28,1.28,0,0,0,.157-.241,1.361,1.361,0,0,0,.1-.275,1.123,1.123,0,0,0,.036-.276.592.592,0,0,0-.042-.235.334.334,0,0,0-.112-.149.261.261,0,0,0-.167-.047.449.449,0,0,0-.2.065l-.8.464Z" transform="translate(-385.341 -369.54)" fill="#f2f2f2"/>
          <path id="Path_45669" data-name="Path 45669" d="M391.508,378.068a.163.163,0,0,0,.11.016.4.4,0,0,0,.116-.046.352.352,0,0,0,.093-.085.8.8,0,0,0,.091-.16,2.5,2.5,0,0,0,.092-.259c.031-.1.067-.234.106-.389l-.826-1.686.255-.147.7,1.495.652-2.276.237-.137-.885,3.029a3.5,3.5,0,0,1-.111.334,1.65,1.65,0,0,1-.116.241.832.832,0,0,1-.127.168.741.741,0,0,1-.148.112c-.109.063-.193.078-.251.045Z" transform="translate(-389.296 -368.117)" fill="#f2f2f2"/>
          <path id="Path_45670" data-name="Path 45670" d="M397.24,373.783a1.717,1.717,0,0,1,.069-.471,2.171,2.171,0,0,1,.495-.88,1.645,1.645,0,0,1,.387-.31.782.782,0,0,1,.469-.132.381.381,0,0,1,.3.2l-.24.226a.278.278,0,0,0-.224-.13.554.554,0,0,0-.318.09,1.125,1.125,0,0,0-.271.223,1.611,1.611,0,0,0-.218.306,1.652,1.652,0,0,0-.145.356,1.4,1.4,0,0,0-.053.375.834.834,0,0,0,.054.314.424.424,0,0,0,.15.193.363.363,0,0,0,.22.06.585.585,0,0,0,.268-.086,1.1,1.1,0,0,0,.181-.133,1.531,1.531,0,0,0,.165-.177,1.426,1.426,0,0,0,.131-.194.746.746,0,0,0,.077-.185l.244-.057a1.461,1.461,0,0,1-.116.281,1.879,1.879,0,0,1-.181.273,1.831,1.831,0,0,1-.229.246,1.626,1.626,0,0,1-.26.189.893.893,0,0,1-.382.131.482.482,0,0,1-.3-.07.531.531,0,0,1-.2-.245A.98.98,0,0,1,397.24,373.783Z" transform="translate(-393.252 -366.516)" fill="#f2f2f2"/>
          <path id="Path_45671" data-name="Path 45671" d="M403.138,370.378a1.712,1.712,0,0,1,.069-.471,2.174,2.174,0,0,1,.494-.879,1.659,1.659,0,0,1,.386-.31.787.787,0,0,1,.469-.132.381.381,0,0,1,.3.2l-.24.226a.28.28,0,0,0-.224-.13.566.566,0,0,0-.318.091,1.116,1.116,0,0,0-.271.223,1.6,1.6,0,0,0-.219.307,1.674,1.674,0,0,0-.145.356,1.379,1.379,0,0,0-.053.375.814.814,0,0,0,.054.313.421.421,0,0,0,.15.194.359.359,0,0,0,.22.06.574.574,0,0,0,.267-.086,1.034,1.034,0,0,0,.18-.133,1.49,1.49,0,0,0,.3-.37.792.792,0,0,0,.076-.186l.243-.057a1.364,1.364,0,0,1-.116.28,1.954,1.954,0,0,1-.409.519,1.583,1.583,0,0,1-.261.19.905.905,0,0,1-.381.131.485.485,0,0,1-.3-.07.538.538,0,0,1-.2-.245A.987.987,0,0,1,403.138,370.378Z" transform="translate(-397.174 -364.253)" fill="#f2f2f2"/>
          <path id="Path_45672" data-name="Path 45672" d="M410.62,364.812l.277-.16-.717,1.46.779.667-.276.159-.67-.6-.269.156v.988l-.244.141v-2.162l.244-.141v.954l.248-.143Z" transform="translate(-401.404 -361.639)" fill="#f2f2f2"/>
          <path id="Path_45673" data-name="Path 45673" d="M415,363.842l1.132-2.417.2-.116v2.162l-.244.141v-1.73l-1.11,2.371-.222.128V362.22l.244-.141Z" transform="translate(-404.899 -359.417)" fill="#f2f2f2"/>
          <path id="Path_45674" data-name="Path 45674" d="M421.362,358.857l1.132-2.417.2-.115v2.161l-.244.14V356.9l-1.11,2.371-.222.128v-2.161l.244-.14Zm1.077-3.195a.665.665,0,0,1-.14.377,1.18,1.18,0,0,1-.366.313.582.582,0,0,1-.367.11c-.088-.017-.135-.089-.142-.215l.156-.09c.005.091.036.139.095.142a.526.526,0,0,0,.258-.093.937.937,0,0,0,.257-.2.436.436,0,0,0,.1-.255Z" transform="translate(-409.129 -355.662)" fill="#f2f2f2"/>
        </g>
        <g id="Group_17929" data-name="Group 17929" transform="translate(21.651 26.269)">
          <path id="Path_45675" data-name="Path 45675" d="M371.412,384.9l-3.36,1.94c-.132.076-.239,0-.239-.181v-3.767a.572.572,0,0,1,.239-.456l3.36-1.94c.132-.076.239,0,.239.181v3.767A.572.572,0,0,1,371.412,384.9Z" transform="translate(-367.813 -380.468)" fill="#0039a6"/>
          <path id="Path_45676" data-name="Path 45676" d="M371.651,380.663v1.211l-3.838,2.216v-1.211a.568.568,0,0,1,.258-.444l3.323-1.918C371.536,380.434,371.651,380.5,371.651,380.663Z" transform="translate(-367.813 -380.476)" fill="#f2f2f2"/>
          <path id="Path_45677" data-name="Path 45677" d="M371.651,389.215v1.068a.567.567,0,0,1-.257.444l-3.323,1.919c-.142.082-.258.016-.258-.146v-1.068Z" transform="translate(-367.813 -386.284)" fill="#d52b1e"/>
        </g>
        <path id="Path_45678" data-name="Path 45678" d="M314.845,376.73a1.25,1.25,0,0,0-.21.16,2.813,2.813,0,0,0-.487.68,2.762,2.762,0,0,0-.126.269c-.26.546-.453,1.125-.756,1.654a4.2,4.2,0,0,1-1.948,1.714l.141-1.179-2.083.033a4.184,4.184,0,0,0,1.94-1.713c.3-.521.5-1.1.748-1.647.042-.092.084-.184.134-.277a2.8,2.8,0,0,1,.487-.68,1.1,1.1,0,0,1,.193-.151Z" transform="translate(-307.307 -350.957)" fill="#0039a6"/>
      </g>
      <g id="Group_17934" data-name="Group 17934" transform="translate(2.333 14.04)">
        <g id="Group_17933" data-name="Group 17933">
          <path id="Path_45679" data-name="Path 45679" d="M289.358,333.582l18.863-10.942,2.591,14.477-2.735,7.228-2.086-.432Z" transform="translate(-289.358 -309.784)" fill="#595994"/>
          <path id="Path_45680" data-name="Path 45680" d="M295.345,338.313v5.276l16.776,9.693V349.1l-1.375-1.807Z" transform="translate(-293.338 -320.205)" fill="#eff0f2"/>
          <path id="Path_45681" data-name="Path 45681" d="M295.345,344.557l8.388,4.838-8.388-4.276Z" transform="translate(-293.338 -324.356)" fill="#ced3de"/>
          <path id="Path_45682" data-name="Path 45682" d="M344.553,344.187l28.809-16.605.082-.048a1.359,1.359,0,0,0,.66-1.174v-4.729l-.859.5-4.277,2.468-1.027.591-22.5,12.985-.47,4.976Z" transform="translate(-326.056 -309.114)" fill="#30306b"/>
          <g id="Group_17931" data-name="Group 17931" transform="translate(28.245 18.997)">
            <path id="Path_45683" data-name="Path 45683" d="M375.376,358.723v.256l-1.735,1v-2.946l1.7-.983v.257l-1.448.836v1.062l1.263-.729v.245l-1.263.729v1.125Z" transform="translate(-373.641 -350.997)" fill="#f2f2f2"/>
            <path id="Path_45684" data-name="Path 45684" d="M381.628,357.45l-.247.143v-1.208a.846.846,0,0,0-.1-.5c-.067-.077-.17-.077-.308,0a1.106,1.106,0,0,0-.218.172,1.662,1.662,0,0,0-.2.245,2.007,2.007,0,0,0-.166.293,1.467,1.467,0,0,0-.106.308v1.324l-.247.143v-2.162l.226-.13v.49a2.136,2.136,0,0,1,.333-.574,1.7,1.7,0,0,1,.472-.417.518.518,0,0,1,.265-.087.218.218,0,0,1,.175.085.554.554,0,0,1,.095.24,2.091,2.091,0,0,1,.029.37Z" transform="translate(-377.892 -350.622)" fill="#f2f2f2"/>
            <path id="Path_45685" data-name="Path 45685" d="M386.873,353.78a.737.737,0,0,1-.359.114.467.467,0,0,1-.28-.086.549.549,0,0,1-.184-.247.981.981,0,0,1-.065-.373,1.819,1.819,0,0,1,.064-.466,2.148,2.148,0,0,1,.458-.869,1.44,1.44,0,0,1,.359-.3.617.617,0,0,1,.422-.1.558.558,0,0,1,.305.174v-.452l.222-.128v2.17a1.33,1.33,0,0,1-.075.44,1.789,1.789,0,0,1-.2.4,1.876,1.876,0,0,1-.3.345,1.991,1.991,0,0,1-.358.265.971.971,0,0,1-.528.172.445.445,0,0,1-.324-.169l.153-.226a.336.336,0,0,0,.3.132.909.909,0,0,0,.4-.133,1.46,1.46,0,0,0,.261-.2,1.411,1.411,0,0,0,.216-.253,1.286,1.286,0,0,0,.148-.3,1.061,1.061,0,0,0,.054-.336v-.427a1.888,1.888,0,0,1-.3.5A1.479,1.479,0,0,1,386.873,353.78Zm.069-.276a1.013,1.013,0,0,0,.214-.17,1.575,1.575,0,0,0,.191-.233,1.66,1.66,0,0,0,.144-.255.958.958,0,0,0,.076-.239v-.668a.415.415,0,0,0-.109-.153.357.357,0,0,0-.157-.079.455.455,0,0,0-.187,0,.589.589,0,0,0-.2.075,1.066,1.066,0,0,0-.286.241,1.624,1.624,0,0,0-.212.324,1.726,1.726,0,0,0-.133.359,1.426,1.426,0,0,0-.046.346.758.758,0,0,0,.054.3.413.413,0,0,0,.152.188.366.366,0,0,0,.224.058A.606.606,0,0,0,386.942,353.5Z" transform="translate(-381.848 -347.668)" fill="#f2f2f2"/>
            <path id="Path_45686" data-name="Path 45686" d="M393.108,347.213l.247-.143v2.54c0,.08.019.132.058.154s.094.015.164-.025a.838.838,0,0,0,.094-.066,1.252,1.252,0,0,0,.1-.093l.044.2a1.586,1.586,0,0,1-.17.152,1.4,1.4,0,0,1-.173.12q-.171.1-.269.046c-.065-.035-.1-.119-.1-.252Z" transform="translate(-386.584 -345.024)" fill="#f2f2f2"/>
            <path id="Path_45687" data-name="Path 45687" d="M396.029,345.944v-.416l.248-.142v.415Zm0,2.614V346.4l.248-.142v2.162Z" transform="translate(-388.526 -343.905)" fill="#f2f2f2"/>
            <path id="Path_45688" data-name="Path 45688" d="M398.693,347.774a1.365,1.365,0,0,1-.433.167.6.6,0,0,1-.364-.031l.114-.256a.691.691,0,0,0,.325.036.974.974,0,0,0,.356-.13,1.169,1.169,0,0,0,.365-.317.631.631,0,0,0,.137-.38.19.19,0,0,0-.037-.131.15.15,0,0,0-.107-.043.578.578,0,0,0-.178.021c-.072.018-.156.042-.25.072-.109.033-.2.056-.284.072a.561.561,0,0,1-.2.011.161.161,0,0,1-.116-.076.374.374,0,0,1-.038-.192.936.936,0,0,1,.056-.318,1.185,1.185,0,0,1,.153-.294,1.5,1.5,0,0,1,.225-.253,1.654,1.654,0,0,1,.274-.2,1.084,1.084,0,0,1,.4-.148.427.427,0,0,1,.288.047l-.12.235a.365.365,0,0,0-.256-.038.938.938,0,0,0-.315.119,1.262,1.262,0,0,0-.182.127.975.975,0,0,0-.148.159.762.762,0,0,0-.1.184.579.579,0,0,0-.037.2.241.241,0,0,0,.026.126.1.1,0,0,0,.083.045.454.454,0,0,0,.147-.014c.059-.014.131-.034.216-.06q.182-.056.32-.085a.68.68,0,0,1,.232-.018.2.2,0,0,1,.14.081.365.365,0,0,1,.047.205,1.032,1.032,0,0,1-.2.589A1.637,1.637,0,0,1,398.693,347.774Z" transform="translate(-389.768 -343.901)" fill="#f2f2f2"/>
            <path id="Path_45689" data-name="Path 45689" d="M405.278,343.218l-.248.143v-1.207a.747.747,0,0,0-.111-.487q-.111-.119-.326.005a.962.962,0,0,0-.209.169,1.7,1.7,0,0,0-.195.243,1.941,1.941,0,0,0-.159.287,1.521,1.521,0,0,0-.1.3V344l-.248.143v-3.029l.248-.143v1.357a2.052,2.052,0,0,1,.312-.567,1.534,1.534,0,0,1,.433-.39.563.563,0,0,1,.277-.092.253.253,0,0,1,.185.084.494.494,0,0,1,.106.233,1.755,1.755,0,0,1,.033.361Z" transform="translate(-393.616 -340.966)" fill="#f2f2f2"/>
          </g>
          <g id="Group_17932" data-name="Group 17932" transform="translate(21.628 25.921)">
            <path id="Path_45690" data-name="Path 45690" d="M357.748,366.369l-3.6,2.076c-.141.081-.256-.005-.256-.193v-4.031a.614.614,0,0,1,.256-.489l3.6-2.076c.141-.081.255,0,.255.193v4.031A.613.613,0,0,1,357.748,366.369Z" transform="translate(-353.897 -361.626)" fill="#6b6cb3"/>
            <path id="Path_45691" data-name="Path 45691" d="M362.47,361.839v.469l-1.476,2.546-.38-.216,1.734-2.99h0C362.423,361.662,362.47,361.73,362.47,361.839Z" transform="translate(-358.364 -361.64)" fill="#f2f2f2"/>
            <path id="Path_45692" data-name="Path 45692" d="M356.014,368.807l-.38.655-1.738-.991v-.178a.608.608,0,0,1,.276-.476l.053-.03Z" transform="translate(-353.897 -365.723)" fill="#f2f2f2"/>
            <path id="Path_45693" data-name="Path 45693" d="M363.086,371.924v.387a.609.609,0,0,1-.169.389l-1.377-.785.38-.655Z" transform="translate(-358.979 -368.031)" fill="#f2f2f2"/>
            <path id="Path_45694" data-name="Path 45694" d="M361.584,361.891v.071l-1.6,2.768-.154.264-.15.26-.153.265-.087.15-.151-.086h0l.087-.15.153-.265.151-.26.067-.116.086-.148,1.692-2.919A.2.2,0,0,1,361.584,361.891Z" transform="translate(-357.477 -361.691)" fill="#c8102e"/>
            <path id="Path_45695" data-name="Path 45695" d="M356.341,369.98l-.153.264-.246-.14-.151-.087h0l-1.892-1.079v-.091a.528.528,0,0,1,.058-.227l1.835,1.047.152.086.153.087Z" transform="translate(-353.897 -366.276)" fill="#c8102e"/>
            <path id="Path_45696" data-name="Path 45696" d="M362.23,371.361v.326c0,.009,0,.017,0,.026l-1.757-1-.219-.125.067-.116.086-.149Z" transform="translate(-358.123 -367.407)" fill="#c8102e"/>
            <path id="Path_45697" data-name="Path 45697" d="M355.557,373.888l-1.5,2.592c-.093,0-.157-.068-.157-.194v-.406l1.28-2.208Z" transform="translate(-353.897 -369.635)" fill="#f2f2f2"/>
            <path id="Path_45698" data-name="Path 45698" d="M356.162,370.7l-.067.116-.15.26-.153.265-.087.15L354,374.44a.178.178,0,0,1-.1-.181l1.74-3,.153-.264.218-.377.086.05.065.037Z" transform="translate(-353.897 -367.604)" fill="#c8102e"/>
            <path id="Path_45699" data-name="Path 45699" d="M358,364.58v1.371l-1.425.822v1.671l-1.195.69v-1.671l-1.487.859v-1.371l1.487-.859v-1.671l1.195-.69V365.4Z" transform="translate(-353.897 -363.027)" fill="#f2f2f2"/>
            <path id="Path_45700" data-name="Path 45700" d="M358,365.148v.8l-1.673.966v1.955l-.7.4V367.32l-1.735,1v-.8l1.735-1v-1.955l.7-.4v1.955Z" transform="translate(-353.897 -363.31)" fill="#c8102e"/>
          </g>
          <path id="Path_45701" data-name="Path 45701" d="M336.762,328.162l3.5,3.349,22.5-12.985,1.027-.591,4.277-2.468.859-.5a2.323,2.323,0,0,0-1.161-2.011l-2.339-1.346-.008,0-1.023.591-5.26,3.038-1.027.591Z" transform="translate(-320.876 -302.452)" fill="#595994"/>
          <path id="Path_45702" data-name="Path 45702" d="M312.12,349.1v4.179l-.6-.344v-1.251a6.541,6.541,0,0,0-.047-1.208,2.234,2.234,0,0,0-.59-1.087.639.639,0,0,0-.055-.055,13.7,13.7,0,0,0-3.132-2.073q-1.578-.9-3.148-1.8-1.689-.968-3.378-1.932l-3.135-1.795c-.81-.466-1.623-.927-2.432-1.392-.086-.051-.176-.1-.262-.149v-1.888l15.4,8.985Z" transform="translate(-293.337 -320.202)" fill="#ced3de"/>
          <path id="Path_45703" data-name="Path 45703" d="M306.844,350.987l-1.6-.924-15.885-9.17v1.182l15.885,9.171,1.436.828a1.361,1.361,0,0,0,.658.187,1.38,1.38,0,0,0,1.405-1.38v-4.727a2.317,2.317,0,0,0-1.159-2.01l-2.339-1.35v.012l-15.885-9.17v1.182l15.885,9.17,1.436.828a1.515,1.515,0,0,0,.142.071l.189.109a1.743,1.743,0,0,1,.874,1.512v3.876A.7.7,0,0,1,306.844,350.987Z" transform="translate(-289.358 -317.095)" fill="#4d4d80"/>
          <path id="Path_45704" data-name="Path 45704" d="M289.358,300.818l15.885,9.17,28.663-16.552-15.885-9.159Z" transform="translate(-289.358 -284.278)" fill="#6b6cb3"/>
        </g>
        <path id="Path_45705" data-name="Path 45705" d="M310.224,357.21a1.249,1.249,0,0,0-.21.159,2.8,2.8,0,0,0-.487.681,2.736,2.736,0,0,0-.126.268c-.26.546-.453,1.126-.756,1.655a4.2,4.2,0,0,1-1.948,1.713l.141-1.179-2.083.033a4.182,4.182,0,0,0,1.94-1.713c.3-.521.5-1.1.747-1.646.042-.093.084-.185.134-.277a2.8,2.8,0,0,1,.487-.681,1.125,1.125,0,0,1,.193-.151Z" transform="translate(-299.595 -332.013)" fill="#fa8406"/>
      </g>
      <g id="Group_17938" data-name="Group 17938" transform="translate(10.289)">
        <g id="Group_17937" data-name="Group 17937">
          <path id="Path_45706" data-name="Path 45706" d="M313.1,291.684l18.863-10.942,2.591,14.477-2.735,7.228-2.086-.431Z" transform="translate(-313.102 -267.887)" fill="#ff5740"/>
          <path id="Path_45707" data-name="Path 45707" d="M319.088,296.416v5.276l16.776,9.693V307.2l-1.375-1.807Z" transform="translate(-317.082 -278.308)" fill="#eff0f2"/>
          <path id="Path_45708" data-name="Path 45708" d="M319.088,306.161l15.209,8.774-15.209-8.211Z" transform="translate(-317.082 -284.787)" fill="#ced3de"/>
          <path id="Path_45709" data-name="Path 45709" d="M368.3,302.29l28.81-16.606.082-.047a1.358,1.358,0,0,0,.66-1.174v-4.73l-.859.5-4.277,2.468-1.027.591-22.5,12.985-.471,4.975Z" transform="translate(-349.799 -267.216)" fill="#de2910"/>
          <g id="Group_17935" data-name="Group 17935" transform="translate(29.823 19.983)">
            <path id="Path_45710" data-name="Path 45710" d="M405.24,309.474l-1.341.774v-.437l.185-.107v-.156l-.185.107-.232.134v.593l-1.341.774v-.007l-.232.134v2.145l.232-.134v-.4l1.341-.774v1.543l.232-.134v-1.543l1.341-.774v.4l.232-.134v-2.144l-.232.134Zm-2.914,3.158v-1.209l1.341-.774v1.208Zm2.914-1.683-1.341.774v-1.209l1.341-.774Z" transform="translate(-402.094 -306.879)" fill="#f2f2f2"/>
            <path id="Path_45711" data-name="Path 45711" d="M417.624,305.022a3.054,3.054,0,0,1-1.942-.161,12.992,12.992,0,0,0,1.063-2.313l.468-.27v-.266l-1.515.875v-.437l.185-.107v-.156l-.185.107-.232.134v.592l-1.631.942v.266l.386-.223a2.807,2.807,0,0,0,1.063,1.086,11.929,11.929,0,0,1-1.942,2.4l.083.257a12.563,12.563,0,0,0,2.057-2.553,3.21,3.21,0,0,0,2.058.177Zm-3.088-1.2,1.9-1.095a12.448,12.448,0,0,1-.948,2.024A2.645,2.645,0,0,1,414.536,303.823Z" transform="translate(-409.573 -302.011)" fill="#f2f2f2"/>
          </g>
          <g id="Group_17936" data-name="Group 17936" transform="translate(21.705 26.141)">
            <path id="Path_45712" data-name="Path 45712" d="M381.577,324.951l-3.461,2c-.136.078-.246-.005-.246-.186v-3.88a.59.59,0,0,1,.246-.47l3.461-2c.136-.079.246,0,.246.186v3.88A.589.589,0,0,1,381.577,324.951Z" transform="translate(-377.87 -320.385)" fill="#e6e6e6"/>
            <path id="Path_45713" data-name="Path 45713" d="M381.751,325.369l-3.185,1.839c-.125.072-.227,0-.227-.171v-3.572a.543.543,0,0,1,.227-.433l3.185-1.839c.125-.072.227,0,.227.171v3.571A.541.541,0,0,1,381.751,325.369Z" transform="translate(-378.182 -320.905)" fill="#de2910"/>
            <path id="Path_45714" data-name="Path 45714" d="M379.715,327.968l-.359.424.068-.5-.29-.157.4-.3.18-.521.179.314.4-.165-.29.492.068.419Z" transform="translate(-378.71 -324.728)" fill="#ffde00"/>
            <path id="Path_45715" data-name="Path 45715" d="M383.2,325.064l-.1.122.02-.143-.083-.045.115-.086.052-.15.051.09.115-.047-.083.142.02.12Z" transform="translate(-381.306 -323.296)" fill="#ffde00"/>
            <path id="Path_45716" data-name="Path 45716" d="M383.2,329.571l-.1.122.02-.143-.083-.045.115-.086.052-.15.051.09.115-.047-.083.141.02.12Z" transform="translate(-381.306 -326.292)" fill="#ffde00"/>
            <path id="Path_45717" data-name="Path 45717" d="M384.514,327.409l-.1.122.02-.143-.083-.045.115-.086.052-.15.051.09.115-.047-.083.141.02.12Z" transform="translate(-382.177 -324.855)" fill="#ffde00"/>
            <path id="Path_45718" data-name="Path 45718" d="M384.514,325.657l-.1.122.02-.143-.083-.045.115-.086.052-.149.051.09.115-.047-.083.141.02.12Z" transform="translate(-382.177 -323.69)" fill="#ffde00"/>
          </g>
          <path id="Path_45719" data-name="Path 45719" d="M360.505,286.265l3.5,3.349,22.5-12.985,1.027-.591,4.277-2.468.859-.5a2.323,2.323,0,0,0-1.16-2.011l-2.339-1.346-.009,0-1.023.591-5.26,3.038-1.027.591Z" transform="translate(-344.619 -260.555)" fill="#ff4126"/>
          <path id="Path_45720" data-name="Path 45720" d="M335.862,307.2v4.18l-.6-.344v-1.251a6.575,6.575,0,0,0-.047-1.208,2.233,2.233,0,0,0-.591-1.087.6.6,0,0,0-.055-.055,13.683,13.683,0,0,0-3.132-2.072q-1.578-.9-3.147-1.8-1.689-.968-3.378-1.932l-3.136-1.795c-.809-.466-1.623-.927-2.432-1.392-.086-.051-.176-.1-.262-.148v-1.889l15.4,8.985Z" transform="translate(-317.08 -278.305)" fill="#ced3de"/>
          <path id="Path_45721" data-name="Path 45721" d="M330.587,309.089l-1.6-.924-15.885-9.17v1.182l15.885,9.17,1.435.828a1.362,1.362,0,0,0,.658.187,1.38,1.38,0,0,0,1.405-1.38v-4.727a2.317,2.317,0,0,0-1.16-2.01l-2.339-1.35v.012l-15.885-9.17v1.183l15.885,9.171,1.435.828a1.379,1.379,0,0,0,.142.071l.189.109a1.743,1.743,0,0,1,.874,1.511v3.877A.7.7,0,0,1,330.587,309.089Z" transform="translate(-313.102 -275.197)" fill="#ed341a"/>
          <path id="Path_45722" data-name="Path 45722" d="M313.1,258.921l15.885,9.171L357.65,251.54l-15.885-9.159Z" transform="translate(-313.102 -242.381)" fill="#ff5740"/>
        </g>
        <path id="Path_45723" data-name="Path 45723" d="M352.635,329.509a1.263,1.263,0,0,0-.21.159,2.812,2.812,0,0,0-.487.68,2.641,2.641,0,0,0-.126.269c-.26.546-.453,1.126-.756,1.655a4.2,4.2,0,0,1-1.948,1.713l.141-1.179-2.083.034a4.18,4.18,0,0,0,1.94-1.713c.3-.521.5-1.1.748-1.646.042-.093.084-.185.134-.277a2.8,2.8,0,0,1,.487-.68,1.069,1.069,0,0,1,.193-.151Z" transform="translate(-335.75 -299.555)" fill="#b3b3b3"/>
      </g>
    </g>
    <g id="Group_17952" data-name="Group 17952" transform="translate(102.819 60.866)">
      <path id="Path_45724" data-name="Path 45724" d="M349.008,278.811l-13.173-7.6c-.408-.236-.357-.647.115-.919l9.141-5.3a1.77,1.77,0,0,1,1.592-.066l13.173,7.6c.408.236.357.647-.114.92l-9.141,5.3A1.769,1.769,0,0,1,349.008,278.811Z" transform="translate(-335.56 -249.802)" fill="#ed341a"/>
      <g id="Group_17951" data-name="Group 17951" transform="translate(2.467)">
        <g id="Group_17950" data-name="Group 17950" style="isolation: isolate">
          <g id="Group_17940" data-name="Group 17940" transform="translate(0.001 16.649)">
            <path id="Path_45725" data-name="Path 45725" d="M342.926,273.667l6.654-3.867,1.381.8-6.654,3.867Z" transform="translate(-342.926 -269.8)" fill="#ffea00"/>
          </g>
          <g id="Group_17941" data-name="Group 17941" transform="translate(5.53 19.841)">
            <path id="Path_45726" data-name="Path 45726" d="M359.425,283.192l6.654-3.867,1,.579-6.654,3.867Z" transform="translate(-359.425 -279.325)" fill="#ffea00"/>
          </g>
          <g id="Group_17942" data-name="Group 17942" transform="translate(6.533 20.421)">
            <path id="Path_45727" data-name="Path 45727" d="M370.468,281.282l-6.654,3.867c-.324.188-.776.13-1.4-.228l6.654-3.867C369.692,281.412,370.145,281.47,370.468,281.282Z" transform="translate(-362.418 -281.054)" fill="#ffea00"/>
          </g>
          <g id="Group_17943" data-name="Group 17943" transform="translate(5.53 11.656)">
            <path id="Path_45728" data-name="Path 45728" d="M359.448,258.765,366.1,254.9l-.023,8.186-6.654,3.867Z" transform="translate(-359.425 -254.898)" fill="#ff8c00"/>
          </g>
          <g id="Group_17944" data-name="Group 17944" transform="translate(5.555 11.19)">
            <path id="Path_45729" data-name="Path 45729" d="M359.5,257.375l6.654-3.867.554.319-6.654,3.867Z" transform="translate(-359.498 -253.508)" fill="#ffea00"/>
          </g>
          <g id="Group_17945" data-name="Group 17945" transform="translate(6.108 11.509)">
            <path id="Path_45730" data-name="Path 45730" d="M369.18,254.712l-6.654,3.867c-.308.179-.752.109-1.376-.251l6.654-3.867C368.428,254.821,368.872,254.891,369.18,254.712Z" transform="translate(-361.15 -254.461)" fill="#ffea00"/>
          </g>
          <g id="Group_17946" data-name="Group 17946" transform="translate(8.788 13.081)">
            <path id="Path_45731" data-name="Path 45731" d="M379.071,268.4l-6.654,3.867c.624-.363.972-1.154.975-2.492.008-2.569-1.562-4.768-4.246-6.759l6.654-3.867c2.684,1.991,4.253,4.19,4.246,6.759C380.042,267.25,379.695,268.041,379.071,268.4Z" transform="translate(-369.146 -259.153)" fill="#ff8c00"/>
          </g>
          <g id="Group_17947" data-name="Group 17947" transform="translate(5.555 3.658)">
            <path id="Path_45732" data-name="Path 45732" d="M359.52,234.9l6.654-3.867-.022,7.531-6.654,3.867Z" transform="translate(-359.498 -231.034)" fill="#ff8c00"/>
          </g>
          <g id="Group_17948" data-name="Group 17948" transform="translate(0.048)">
            <path id="Path_45733" data-name="Path 45733" d="M343.066,223.985l6.654-3.867,6.362,3.673-6.654,3.867Z" transform="translate(-343.066 -220.118)" fill="#ffea00"/>
          </g>
          <g id="Group_17949" data-name="Group 17949" transform="translate(6.411 3.673)">
            <path id="Path_45734" data-name="Path 45734" d="M373.741,240.672l-6.655,3.867c.563-.327.864-1.033.867-2.169.008-3.029-2.158-5.264-5.9-7.425l6.654-3.867c3.743,2.161,5.91,4.4,5.9,7.425C374.6,239.639,374.3,240.345,373.741,240.672Z" transform="translate(-362.052 -231.079)" fill="#ffd60a"/>
          </g>
          <path id="Path_45735" data-name="Path 45735" d="M351.71,244.738c2.237.876,3.518.366,3.524-1.983.008-3.029-2.158-5.264-5.9-7.425l-6.362-3.673v.466l1.381.8L344.3,249.1l-1.381-.8v.466l6.253,3.61c4,2.31,6.77,2.906,6.781-.885C355.963,248.928,354.394,246.729,351.71,244.738Zm-3.212-9.423.685.4c1.485.858,1.844,1.973,1.837,4.322l0,1.146c-.006,2-.453,2.874-1.987,1.988l-.554-.32Zm3.072,14.312c-.006,2.248-.476,3.4-2.115,2.45l-1-.579.023-8.186.493.285a4.826,4.826,0,0,1,2.6,4.733Z" transform="translate(-342.922 -227.79)" fill="#ffc400"/>
        </g>
      </g>
    </g>
    <g id="Group_17965" data-name="Group 17965" transform="translate(47.569 110.942)">
      <path id="Path_45736" data-name="Path 45736" d="M204.662,382.916l-5.466-3.158,1.258-.726c.916-.529,1.015-1.328.222-1.786l-.224-.129a3.437,3.437,0,0,0-3.093.128l-1.257.726-6.274-3.625a2.243,2.243,0,0,0-2.018.083l-16.624,9.6c-.6.345-.662.867-.145,1.165l6.439,3.72-3.03,1.75c-.916.528-1.015,1.328-.222,1.786l.224.129a3.44,3.44,0,0,0,3.094-.128l3.029-1.749,5.3,3.063a2.243,2.243,0,0,0,2.018-.083l16.624-9.6C205.114,383.736,205.179,383.215,204.662,382.916Z" transform="translate(-170.691 -372.603)" fill="#e3ecff"/>
      <g id="Group_17964" data-name="Group 17964" transform="translate(1.72)">
        <g id="Group_17960" data-name="Group 17960">
          <g id="Group_17959" data-name="Group 17959" style="isolation: isolate">
            <path id="Path_45737" data-name="Path 45737" d="M251.862,377.238a2.765,2.765,0,0,1-.921.434c-.11.03-.177.046-.244.059l-.236.057a9.532,9.532,0,0,0-1.291.407c-.4.161-.616.418-.617.676l-.007,2.539c0-.259.212-.515.617-.676a9.58,9.58,0,0,1,1.29-.408l.236-.057c.068-.013.135-.029.244-.059a2.778,2.778,0,0,0,.921-.434,1.173,1.173,0,0,0,.536-.919l.007-2.539A1.173,1.173,0,0,1,251.862,377.238Z" transform="translate(-224.176 -374.05)" fill="#b4bccf"/>
            <path id="Path_45738" data-name="Path 45738" d="M204.322,381.365a3.187,3.187,0,0,0-.918-.343l-.091-.019-.117-.023a8.954,8.954,0,0,1-2.773-.991.225.225,0,0,1-.134-.186l-.007,2.539a.225.225,0,0,0,.134.186,8.967,8.967,0,0,0,2.773.991l.116.023.091.019a3.184,3.184,0,0,1,.918.344,1.314,1.314,0,0,1,.775,1.082l.007-2.539A1.313,1.313,0,0,0,204.322,381.365Z" transform="translate(-192.086 -376.366)" fill="#ed341a"/>
            <g id="Group_17953" data-name="Group 17953" transform="translate(17.127 9.902)">
              <path id="Path_45739" data-name="Path 45739" d="M231.161,399.411l0,2.539a4.169,4.169,0,0,0-3.446.116,1.544,1.544,0,0,0-.68.671.079.079,0,0,0-.018.04.9.9,0,0,0-.08.365v-.365l.009-2.179a.924.924,0,0,1,.089-.387,1.58,1.58,0,0,1,.685-.685A4.17,4.17,0,0,1,231.161,399.411Z" transform="translate(-226.933 -399.094)" fill="#ed341a"/>
            </g>
            <path id="Path_45740" data-name="Path 45740" d="M227.031,402.427v2.566h-.1l.009-2.179A.924.924,0,0,1,227.031,402.427Z" transform="translate(-209.805 -391.408)" fill="#b4bccf"/>
            <path id="Path_45741" data-name="Path 45741" d="M253.289,395.169l-.009,2.539a.9.9,0,0,1-.529.738l-.889.516-2.254,1.312-1.089.636-.623.36,0-2.539.618-.36,1.089-.632,2.254-1.312.9-.52A.9.9,0,0,0,253.289,395.169Z" transform="translate(-223.743 -386.583)" fill="#3a3a61"/>
            <path id="Path_45742" data-name="Path 45742" d="M261.158,395.169l-.009,2.539a.633.633,0,0,1-.094.325,1.092,1.092,0,0,1-.436.414l-.889.516v-2.534l.9-.52a1.16,1.16,0,0,0,.427-.4A.661.661,0,0,0,261.158,395.169Z" transform="translate(-231.612 -386.583)" fill="#b4bccf"/>
            <path id="Path_45743" data-name="Path 45743" d="M263.787,395.169l-.009,2.539a.634.634,0,0,1-.093.325v-2.521A.661.661,0,0,0,263.787,395.169Z" transform="translate(-234.241 -386.583)" fill="#ed341a"/>
            <path id="Path_45744" data-name="Path 45744" d="M248.519,404.723v2.539l-.622.36,0-2.539Z" transform="translate(-223.744 -392.935)" fill="#ed341a"/>
            <path id="Path_45745" data-name="Path 45745" d="M250.843,402.838v2.535l-1.089.635v-2.539Z" transform="translate(-224.979 -391.682)" fill="#b4bccf"/>
            <path id="Path_45746" data-name="Path 45746" d="M240.494,400.847l-.1-.137a1.009,1.009,0,0,0-.081-.116,1.929,1.929,0,0,0-.525-.435,2.6,2.6,0,0,0-.248-.126l-.007,2.539a2.677,2.677,0,0,1,.248.126,1.942,1.942,0,0,1,.525.435,1,1,0,0,1,.081.116l.1.137a4.63,4.63,0,0,0,1.2,1.12l.007-2.539A4.624,4.624,0,0,1,240.494,400.847Z" transform="translate(-218.182 -389.817)" fill="#ed341a"/>
            <g id="Group_17954" data-name="Group 17954" transform="translate(23.507 12.148)">
              <path id="Path_45747" data-name="Path 45747" d="M246.62,405.8l-.007,2.539a.71.71,0,0,1-.643,0l.007-2.539A.712.712,0,0,0,246.62,405.8Z" transform="translate(-245.97 -405.796)" fill="#ed341a"/>
            </g>
            <path id="Path_45748" data-name="Path 45748" d="M180.946,398.918l0,2.539a.714.714,0,0,0-.418-.583l-.507-.293-3.6-2.076a1,1,0,0,1-.6-.836l0-2.538a1.019,1.019,0,0,0,.6.836l3.588,2.072.516.3A.693.693,0,0,1,180.946,398.918Z" transform="translate(-175.824 -386.557)" fill="#3a3a61"/>
            <path id="Path_45749" data-name="Path 45749" d="M189.265,404.687l0,2.539a.714.714,0,0,0-.418-.583l-.507-.293v-2.543l.516.3A.693.693,0,0,1,189.265,404.687Z" transform="translate(-184.143 -392.326)" fill="#b4bccf"/>
            <path id="Path_45750" data-name="Path 45750" d="M196.99,411.875l-.009,2.539a2.054,2.054,0,0,0-1.014-.24,1.84,1.84,0,0,0-1.147.356,3.965,3.965,0,0,0-.64.681,2.874,2.874,0,0,0-.213.324.5.5,0,0,0-.036.067l-.036.053.009-2.539.031-.053a.482.482,0,0,0,.036-.067c.062-.107.133-.213.209-.32a4.2,4.2,0,0,1,.644-.685,1.827,1.827,0,0,1,1.143-.356A2.077,2.077,0,0,1,196.99,411.875Z" transform="translate(-187.839 -397.531)" fill="#ed341a"/>
            <g id="Group_17955" data-name="Group 17955" transform="translate(0.996 15.038)">
              <path id="Path_45751" data-name="Path 45751" d="M183.865,414.968l-.009,2.539a1.7,1.7,0,0,1-.591.529,3.545,3.545,0,0,1-1.543.436,3.905,3.905,0,0,1-2.161-.436,1.317,1.317,0,0,1-.765-1.085l.009-2.53a1.308,1.308,0,0,0,.765,1.076,3.91,3.91,0,0,0,2.152.431,3.484,3.484,0,0,0,1.552-.431A1.738,1.738,0,0,0,183.865,414.968Z" transform="translate(-178.796 -414.421)" fill="#ed341a"/>
            </g>
            <path id="Path_45752" data-name="Path 45752" d="M189.946,414.74v2.534a2.869,2.869,0,0,0-.213.324.5.5,0,0,0-.036.067l-.036.053a1.7,1.7,0,0,1-.591.529,3.544,3.544,0,0,1-1.543.436V416.14a3.483,3.483,0,0,0,1.552-.431,1.739,1.739,0,0,0,.591-.529l.031-.053a.477.477,0,0,0,.036-.067C189.8,414.953,189.87,414.847,189.946,414.74Z" transform="translate(-183.605 -399.595)" fill="#b4bccf"/>
            <path id="Path_45753" data-name="Path 45753" d="M229.237,410.507l-.009,2.539a.222.222,0,0,1-.129.178l-.573.333-2.624,1.525-.245.142-.938.542-.418.245-.129.075,0-2.539.125-.071.418-.244.938-.543.245-.142,2.624-1.525.582-.338A.221.221,0,0,0,229.237,410.507Z" transform="translate(-207.97 -396.781)" fill="#3a3a61"/>
            <path id="Path_45754" data-name="Path 45754" d="M226.988,416.6v2.534l-.245.142-.938.542v-2.534l.938-.543Z" transform="translate(-209.056 -400.83)" fill="#b4bccf"/>
            <path id="Path_45755" data-name="Path 45755" d="M225.914,417.021v2.535l-1.356.787v-2.534Z" transform="translate(-208.226 -401.112)" fill="#ed341a"/>
            <path id="Path_45756" data-name="Path 45756" d="M237.874,410.507l-.009,2.539a.222.222,0,0,1-.129.178l-.573.333v-2.534l.582-.338A.221.221,0,0,0,237.874,410.507Z" transform="translate(-216.607 -396.781)" fill="#b4bccf"/>
            <g id="Group_17956" data-name="Group 17956" transform="translate(9.142 14.345)">
              <path id="Path_45757" data-name="Path 45757" d="M207.323,414.784l-.022,2.53-3.8-2.192-.4-.231.009-2.539.391.227Z" transform="translate(-203.103 -412.352)" fill="#3a3a61"/>
            </g>
            <path id="Path_45758" data-name="Path 45758" d="M201.492,412.1v2.543l-.4-.231a2.054,2.054,0,0,0-1.014-.24v-2.539a2.077,2.077,0,0,1,1.023.24Z" transform="translate(-191.95 -397.531)" fill="#b4bccf"/>
            <g id="Group_17957" data-name="Group 17957" transform="translate(0.006)">
              <path id="Path_45759" data-name="Path 45759" d="M197.192,379.763a4.186,4.186,0,0,0-3.445.116,1.138,1.138,0,0,0,0,2.157,3.252,3.252,0,0,0,.918.344l.093.018.117.023a9.543,9.543,0,0,1,2.06.632c.219.123.223.292.043.4l-4.93,2.865a3.155,3.155,0,0,1-2.863,0l-4.2-2.423a2.124,2.124,0,0,0-2.163.115,3.83,3.83,0,0,0-.853,1c-.01.021-.025.044-.037.066l-.033.054a1.729,1.729,0,0,1-.59.53,4.084,4.084,0,0,1-3.706,0c-.929-.544-1.017-1.411-.23-2a2.786,2.786,0,0,1,.925-.435c.109-.03.175-.045.243-.06l.236-.057a9.063,9.063,0,0,0,1.641-.556c.668-.3.727-.876.124-1.224l-4.1-2.369a.876.876,0,0,1-.009-1.658l4.774-2.775a.715.715,0,0,1,.626-.01q.154.078.3.163A4.912,4.912,0,0,1,183.669,376l.1.137a1.161,1.161,0,0,0,.083.116,1.927,1.927,0,0,0,.525.435,2.656,2.656,0,0,0,.248.126,4.185,4.185,0,0,0,3.445-.116,1.137,1.137,0,0,0,0-2.156,3.189,3.189,0,0,0-.918-.344l-.091-.019-.117-.023a8.953,8.953,0,0,1-2.773-.991.2.2,0,0,1,0-.371l5.065-2.944a2.833,2.833,0,0,1,2.569,0l4.288,2.475a2.094,2.094,0,0,0,2.218-.161,3.717,3.717,0,0,0,.614-.789c.013-.021.027-.044.039-.066l.031-.055a1.719,1.719,0,0,1,.592-.53,4.086,4.086,0,0,1,3.706,0c.927.546,1.017,1.412.226,2.005a2.766,2.766,0,0,1-.921.434c-.11.03-.177.046-.244.059l-.236.057a9.528,9.528,0,0,0-1.291.407c-.731.291-.83.892-.2,1.256l4.215,2.434a.786.786,0,0,1,.008,1.488l-4.859,2.824a.712.712,0,0,1-.643,0,4.623,4.623,0,0,1-1.2-1.12l-.1-.137a1.016,1.016,0,0,0-.081-.116,1.93,1.93,0,0,0-.525-.435A2.592,2.592,0,0,0,197.192,379.763Z" transform="translate(-175.84 -369.547)" fill="#499fd2"/>
            </g>
            <g id="Group_17958" data-name="Group 17958" transform="translate(13.339 16.768)">
              <path id="Path_45760" data-name="Path 45760" d="M218.5,419.582l0,2.539a2.98,2.98,0,0,1-1.654.333,2.791,2.791,0,0,1-1.209-.333l.009-2.539a2.812,2.812,0,0,0,1.2.333A3,3,0,0,0,218.5,419.582Z" transform="translate(-215.628 -419.582)" fill="#3a3a61"/>
            </g>
            <path id="Path_45761" data-name="Path 45761" d="M221.02,419.37V421.9l-.129.075a2.98,2.98,0,0,1-1.654.333v-2.539a3,3,0,0,0,1.659-.333Z" transform="translate(-204.689 -402.674)" fill="#b4bccf"/>
          </g>
        </g>
        <g id="Group_17963" data-name="Group 17963" transform="translate(0.006)">
          <g id="Group_17962" data-name="Group 17962" clip-path="url(#clip-path)">
            <g id="Group_17961" data-name="Group 17961" transform="translate(-3.769 -2.114)">
              <path id="Path_45762" data-name="Path 45762" d="M185.039,383.317l-16.09-9.289c-.631-.364-.552-1,.177-1.423l15.621-9.019a2.739,2.739,0,0,1,2.464-.1l16.09,9.289c.631.365.552,1-.177,1.423L187.5,383.215A2.74,2.74,0,0,1,185.039,383.317Z" transform="translate(-167.206 -363.238)" fill="#4d4d80"/>
              <path id="Path_45763" data-name="Path 45763" d="M242.308,393.93l-1.818,1.05-13.167-.023L227.312,393l15.466.028h0C242.888,393.347,242.731,393.686,242.308,393.93Z" transform="translate(-206.294 -383.027)" fill="#f2f2f2"/>
              <path id="Path_45764" data-name="Path 45764" d="M218.6,372.889l-3.387-.006-.049-8.95.69-.4a2.718,2.718,0,0,1,2.458,0l.237.137Z" transform="translate(-198.217 -363.242)" fill="#f2f2f2"/>
              <path id="Path_45765" data-name="Path 45765" d="M222.564,408.5l-1.5.865a2.726,2.726,0,0,1-1.882.216l-.039-7.094,3.387.006Z" transform="translate(-200.864 -389.337)" fill="#f2f2f2"/>
              <path id="Path_45766" data-name="Path 45766" d="M233.459,394.456l-.276.159-14.318-.024-1.368,0-1.344,0h-1.369l-.776,0,0-.779v-.01l.776,0h1.368l1.344,0h.6l.767,0,15.1.026A.9.9,0,0,1,233.459,394.456Z" transform="translate(-197.446 -383.553)" fill="#ff5740"/>
              <path id="Path_45767" data-name="Path 45767" d="M217.592,375.559l-1.366,0-.007-1.266,0-.779v-.01l-.053-9.743.355-.205a2.35,2.35,0,0,1,1.009-.283l.051,9.453.006.78,0,.789Z" transform="translate(-198.881 -363.259)" fill="#ff5740"/>
              <path id="Path_45768" data-name="Path 45768" d="M225.828,402.2l-1.263.729c-.033.019-.066.036-.1.053l-.049-9.052-.006-1.126h1.368Z" transform="translate(-204.364 -382.897)" fill="#ff5740"/>
              <path id="Path_45769" data-name="Path 45769" d="M182.042,390.62l-13.405-.024c-.221-.354-.086-.762.4-1.044l1.573-.908,11.42.02Z" transform="translate(-167.214 -380.13)" fill="#f2f2f2"/>
              <path id="Path_45770" data-name="Path 45770" d="M187.859,392.209h-.6l-1.344,0h-1.368l-.776,0-15.231-.027a.8.8,0,0,1,.48-.789l15.523.028,1.366,0,1.95,0v.443l0,.337Z" transform="translate(-167.211 -381.953)" fill="#ff5740"/>
              <path id="Path_45771" data-name="Path 45771" d="M195.358,378.8l-5.313,3.068-6.376-3.681-13.729,7.994-5.346-3.087,13.728-7.994-6.655-3.842,5.313-3.067,6.655,3.842,11.123-6.348,5.346,3.087-11.123,6.347Z" transform="translate(-164.594 -364.863)" fill="#f2f2f2"/>
              <path id="Path_45772" data-name="Path 45772" d="M198.3,381.15l-3.11,1.795-7.484-4.321-13.9,8.083-3.129-1.806,13.9-8.083-7.764-4.482,3.109-1.8,7.764,4.482,11.7-6.759,3.129,1.806-11.7,6.759Z" transform="translate(-168.633 -366.58)" fill="#ff5740"/>
            </g>
          </g>
        </g>
      </g>
    </g>
    <g id="Group_17976" data-name="Group 17976" transform="translate(101.518 16.338)">
      <path id="Path_45774" data-name="Path 45774" d="M353.967,193.32l.817-.472c.374-.215.327-.592-.1-.841L335.8,181.1a1.619,1.619,0,0,0-1.457-.06l-.818.472c-.373.216-.326.592.1.841l18.883,10.9A1.62,1.62,0,0,0,353.967,193.32Z" transform="translate(-332.736 -149.513)" fill="#e3ecff"/>
      <g id="Group_17975" data-name="Group 17975">
        <g id="Group_17973" data-name="Group 17973">
          <g id="Group_17972" data-name="Group 17972" style="isolation: isolate">
            <g id="Group_17966" data-name="Group 17966" transform="translate(0.523)">
              <path id="Path_45775" data-name="Path 45775" d="M333.238,88.247l1.537-.891a1.175,1.175,0,0,1,1.186.117l-1.537.891A1.175,1.175,0,0,0,333.238,88.247Z" transform="translate(-333.238 -87.244)" fill="#eff0f2"/>
            </g>
            <g id="Group_17967" data-name="Group 17967" transform="translate(23.684 28.738)">
              <path id="Path_45776" data-name="Path 45776" d="M403.886,174.067l-1.537.891a1.165,1.165,0,0,0,.487-1.067l1.537-.891A1.165,1.165,0,0,1,403.886,174.067Z" transform="translate(-402.349 -173)" fill="#eff0f2"/>
            </g>
            <g id="Group_17968" data-name="Group 17968" transform="translate(24.17 15.136)">
              <path id="Path_45777" data-name="Path 45777" d="M403.839,133.3l1.537-.891-.039,13.6-1.537.891Z" transform="translate(-403.801 -132.41)" fill="#eff0f2"/>
            </g>
            <g id="Group_17969" data-name="Group 17969" transform="translate(1.709 0.229)">
              <path id="Path_45778" data-name="Path 45778" d="M336.776,88.819l1.537-.891,20.839,12.032-1.537.891Z" transform="translate(-336.776 -87.928)" fill="#eff0f2"/>
            </g>
            <g id="Group_17970" data-name="Group 17970" transform="translate(22.549 12.261)">
              <path id="Path_45779" data-name="Path 45779" d="M398.962,124.722l1.537-.891a3.659,3.659,0,0,1,1.66,2.875l-1.537.891A3.658,3.658,0,0,0,398.962,124.722Z" transform="translate(-398.962 -123.831)" fill="#eff0f2"/>
            </g>
            <g id="Group_17971" data-name="Group 17971" transform="translate(0 0.891)">
              <path id="Path_45780" data-name="Path 45780" d="M354.225,102.164a3.657,3.657,0,0,1,1.66,2.875l-.038,13.6c0,1.055-.753,1.482-1.671.952l-12.935-7.468-7.393,4.227.017-8.485-.528-.3a3.657,3.657,0,0,1-1.66-2.875l.038-13.6c0-1.059.75-1.484,1.671-.952Z" transform="translate(-331.676 -89.903)" fill="#ced3de"/>
            </g>
          </g>
        </g>
        <g id="Group_17974" data-name="Group 17974" transform="translate(6.596 15.518)">
          <path id="Path_45781" data-name="Path 45781" d="M353.363,135.417c0,.635-.449.89-1,.571a2.207,2.207,0,0,1-1-1.728c0-.635.448-.89,1-.571A2.208,2.208,0,0,1,353.363,135.417Z" transform="translate(-351.36 -133.552)" fill="#6b6cb3"/>
          <path id="Path_45782" data-name="Path 45782" d="M361.772,140.272c0,.635-.448.89-1,.571a2.207,2.207,0,0,1-1-1.728c0-.635.448-.89,1-.571A2.207,2.207,0,0,1,361.772,140.272Z" transform="translate(-356.951 -136.78)" fill="#6b6cb3"/>
          <path id="Path_45783" data-name="Path 45783" d="M370.181,145.127c0,.635-.448.89-1,.571a2.207,2.207,0,0,1-1-1.728c0-.635.448-.89,1-.571A2.207,2.207,0,0,1,370.181,145.127Z" transform="translate(-362.542 -140.008)" fill="#6b6cb3"/>
          <path id="Path_45784" data-name="Path 45784" d="M378.59,149.981c0,.635-.448.89-1,.571a2.207,2.207,0,0,1-1-1.728c0-.635.448-.89,1-.571A2.206,2.206,0,0,1,378.59,149.981Z" transform="translate(-368.133 -143.235)" fill="#6b6cb3"/>
        </g>
      </g>
    </g>
    <g id="Group_17986" data-name="Group 17986" transform="translate(83.484 -0.001)">
      <g id="Group_17985" data-name="Group 17985" transform="translate(0 0)">
        <g id="Group_17984" data-name="Group 17984" style="isolation: isolate">
          <g id="Group_17977" data-name="Group 17977" transform="translate(0.379)">
            <path id="Path_45785" data-name="Path 45785" d="M278.992,39.216l1.112-.645a.85.85,0,0,1,.858.085l-1.112.645A.851.851,0,0,0,278.992,39.216Z" transform="translate(-278.992 -38.49)" fill="#ffea00"/>
          </g>
          <g id="Group_17978" data-name="Group 17978" transform="translate(12.468 18.131)">
            <path id="Path_45786" data-name="Path 45786" d="M316.177,93.367l-1.112.645a.842.842,0,0,0,.352-.772l1.112-.645A.843.843,0,0,1,316.177,93.367Z" transform="translate(-315.065 -92.595)" fill="#ff8c00"/>
          </g>
          <g id="Group_17979" data-name="Group 17979" transform="translate(12.82 8.29)">
            <path id="Path_45787" data-name="Path 45787" d="M316.143,63.874l1.112-.645-.028,9.841-1.112.645Z" transform="translate(-316.115 -63.229)" fill="#ff8c00"/>
          </g>
          <g id="Group_17980" data-name="Group 17980" transform="translate(1.237 0.166)">
            <path id="Path_45788" data-name="Path 45788" d="M281.552,39.63l1.112-.645,10.41,6.045-1.112.645Z" transform="translate(-281.552 -38.985)" fill="#ffea00"/>
          </g>
          <g id="Group_17981" data-name="Group 17981" transform="translate(11.647 6.21)">
            <path id="Path_45789" data-name="Path 45789" d="M312.615,57.667l1.112-.645a2.648,2.648,0,0,1,1.2,2.08l-1.112.645A2.647,2.647,0,0,0,312.615,57.667Z" transform="translate(-312.615 -57.022)" fill="#ffea00"/>
          </g>
          <g id="Group_17982" data-name="Group 17982" transform="translate(0 0.645)">
            <path id="Path_45790" data-name="Path 45790" d="M289.508,46.624a2.647,2.647,0,0,1,1.2,2.08l-.028,9.841c0,.763-.544,1.072-1.208.689l-10.41-6.044a2.647,2.647,0,0,1-1.2-2.08l.028-9.841c0-.766.542-1.074,1.209-.689Z" transform="translate(-277.861 -40.414)" fill="#ffc400"/>
          </g>
          <g id="Group_17983" data-name="Group 17983" transform="translate(1.364 3.51)">
            <path id="Path_45791" data-name="Path 45791" d="M292.12,56.1l-9.879-5.7a.742.742,0,0,1-.31-.591v-.569c0-.228.139-.333.31-.234l9.879,5.7a.742.742,0,0,1,.31.592v.569C292.429,56.094,292.291,56.2,292.12,56.1Z" transform="translate(-281.931 -48.965)" fill="#fff"/>
            <path id="Path_45792" data-name="Path 45792" d="M292.12,62.551l-9.879-5.7a.743.743,0,0,1-.31-.592v-.569c0-.228.139-.333.31-.234l9.879,5.7a.741.741,0,0,1,.31.592v.568C292.429,62.545,292.291,62.65,292.12,62.551Z" transform="translate(-281.931 -53.254)" fill="#fff"/>
            <path id="Path_45793" data-name="Path 45793" d="M292.12,69l-9.879-5.7a.741.741,0,0,1-.31-.591v-.569c0-.228.139-.333.31-.234l9.879,5.7a.74.74,0,0,1,.31.591v.569C292.429,69,292.291,69.1,292.12,69Z" transform="translate(-281.931 -57.543)" fill="#fff"/>
            <path id="Path_45794" data-name="Path 45794" d="M292.12,75.452l-9.879-5.7a.742.742,0,0,1-.31-.592v-.568c0-.228.139-.333.31-.234l9.879,5.7a.741.741,0,0,1,.31.591v.569C292.429,75.446,292.291,75.551,292.12,75.452Z" transform="translate(-281.931 -61.832)" fill="#fff"/>
          </g>
        </g>
      </g>
    </g>
  </g>
</svg>
