<svg xmlns="http://www.w3.org/2000/svg" width="16.866" height="11.244" viewBox="0 0 16.866 11.244">
  <path id="Icon_awesome-eye" data-name="Icon awesome-eye" d="M16.764,9.694A9.391,9.391,0,0,0,8.433,4.5,9.393,9.393,0,0,0,.1,9.695a.947.947,0,0,0,0,.855,9.391,9.391,0,0,0,8.331,5.194,9.393,9.393,0,0,0,8.331-5.195A.947.947,0,0,0,16.764,9.694ZM8.433,14.338a4.216,4.216,0,1,1,4.216-4.216A4.216,4.216,0,0,1,8.433,14.338Zm0-7.027a2.791,2.791,0,0,0-.741.111A1.4,1.4,0,0,1,5.733,9.381a2.8,2.8,0,1,0,2.7-2.07Z" transform="translate(0 -4.5)" fill="#fff"/>
</svg>
