<svg xmlns="http://www.w3.org/2000/svg" width="23.018" height="23.018" viewBox="0 0 23.018 23.018">
  <path id="Icon_awesome-info-circle" data-name="Icon awesome-info-circle" d="M12.071.563A11.509,11.509,0,1,0,23.58,12.071,11.511,11.511,0,0,0,12.071.563Zm0,5.1a1.949,1.949,0,1,1-1.949,1.949A1.949,1.949,0,0,1,12.071,5.667Zm2.6,11.787a.557.557,0,0,1-.557.557H10.03a.557.557,0,0,1-.557-.557V16.341a.557.557,0,0,1,.557-.557h.557v-2.97H10.03a.557.557,0,0,1-.557-.557V11.143a.557.557,0,0,1,.557-.557H13a.557.557,0,0,1,.557.557v4.641h.557a.557.557,0,0,1,.557.557Z" transform="translate(-0.563 -0.563)" fill="#212958"/>
</svg>
