<svg xmlns="http://www.w3.org/2000/svg" width="14.056" height="12.494" viewBox="0 0 14.056 12.494">
  <path id="Icon_awesome-shopping-cart" data-name="Icon awesome-shopping-cart" d="M12.887,7.353l1.154-5.076a.586.586,0,0,0-.571-.715H3.885L3.661.468A.586.586,0,0,0,3.088,0H.586A.586.586,0,0,0,0,.586v.39a.586.586,0,0,0,.586.586H2.291L4.005,9.942a1.367,1.367,0,1,0,1.636.209h5.116A1.366,1.366,0,1,0,12.309,9.9l.135-.592a.586.586,0,0,0-.571-.715H5.323l-.16-.781h7.153A.586.586,0,0,0,12.887,7.353Z" fill="#fff"/>
</svg>
