<svg xmlns="http://www.w3.org/2000/svg" xmlns:xlink="http://www.w3.org/1999/xlink" width="96" height="96" viewBox="0 0 96 96">
  <defs>
    <linearGradient id="linear-gradient" x1="0.5" x2="0.5" y2="1" gradientUnits="objectBoundingBox">
      <stop offset="0" stop-color="#5ea2ef"/>
      <stop offset="1" stop-color="#d12d9c"/>
    </linearGradient>
  </defs>
  <g id="Group_21697" data-name="Group 21697" transform="translate(-375 -1645)">
    <g id="Path_48781" data-name="Path 48781" transform="translate(375 1645)" fill="none">
      <path d="M48,0A48,48,0,1,1,0,48,48,48,0,0,1,48,0Z" stroke="none"/>
      <path d="M 48 2 C 41.78915786743164 2 35.76515579223633 3.215957641601562 30.09534454345703 5.614082336425781 C 24.61792755126953 7.930831909179688 19.69828796386719 11.24788665771484 15.47308349609375 15.47308349609375 C 11.24788665771484 19.69828796386719 7.930831909179688 24.61792755126953 5.614082336425781 30.09534454345703 C 3.215957641601562 35.76515579223633 2 41.78915786743164 2 48 C 2 54.21084213256836 3.215957641601562 60.23484420776367 5.614082336425781 65.90465545654297 C 7.930831909179688 71.38207244873047 11.24788665771484 76.30171203613281 15.47308349609375 80.52691650390625 C 19.69828796386719 84.75211334228516 24.61792755126953 88.06916809082031 30.09534454345703 90.38591766357422 C 35.76515579223633 92.78404235839844 41.78915786743164 94 48 94 C 54.21084213256836 94 60.23484420776367 92.78404235839844 65.90465545654297 90.38591766357422 C 71.38207244873047 88.06916809082031 76.30171203613281 84.75211334228516 80.52691650390625 80.52691650390625 C 84.75211334228516 76.30171203613281 88.06916809082031 71.38207244873047 90.38591766357422 65.90465545654297 C 92.78404235839844 60.23484420776367 94 54.21084213256836 94 48 C 94 41.78915786743164 92.78404235839844 35.76515579223633 90.38591766357422 30.09534454345703 C 88.06916809082031 24.61792755126953 84.75211334228516 19.69828796386719 80.52691650390625 15.47308349609375 C 76.30171203613281 11.24788665771484 71.38207244873047 7.930831909179688 65.90465545654297 5.614082336425781 C 60.23484420776367 3.215957641601562 54.21084213256836 2 48 2 M 48 0 C 74.50967407226562 0 96 21.49032592773438 96 48 C 96 74.50967407226562 74.50967407226562 96 48 96 C 21.49032592773438 96 0 74.50967407226562 0 48 C 0 21.49032592773438 21.49032592773438 0 48 0 Z" stroke="none" fill="#6b94e5"/>
    </g>
    <path id="Icon_awesome-eye" data-name="Icon awesome-eye" d="M38.312,16.371A21.463,21.463,0,0,0,19.272,4.5,21.466,21.466,0,0,0,.233,16.372a2.165,2.165,0,0,0,0,1.953A21.463,21.463,0,0,0,19.272,30.2a21.466,21.466,0,0,0,19.04-11.872A2.165,2.165,0,0,0,38.312,16.371ZM19.272,26.985a9.636,9.636,0,1,1,9.636-9.636A9.636,9.636,0,0,1,19.272,26.985Zm0-16.06a6.378,6.378,0,0,0-1.694.254A3.2,3.2,0,0,1,13.1,15.655a6.409,6.409,0,1,0,6.171-4.73Z" transform="translate(404 1675.166)" fill="url(#linear-gradient)"/>
  </g>
</svg>
