<svg xmlns="http://www.w3.org/2000/svg" width="96" height="96" viewBox="0 0 96 96">
  <g id="Group_21700" data-name="Group 21700" transform="translate(-1446 -1645)">
    <g id="Layer_2" transform="translate(1474.407 1672.406)">
      <g id="Group_20891" data-name="Group 20891" transform="translate(2 2)">
        <line id="Line_17" data-name="Line 17" y2="3.075" transform="translate(18.25 9.224)" fill="none" stroke="#7e81d7" stroke-linecap="round" stroke-linejoin="round" stroke-miterlimit="10" stroke-width="3"/>
        <line id="Line_18" data-name="Line 18" y2="2.306" transform="translate(18.25 23.828)" fill="none" stroke="#7e81d7" stroke-linecap="round" stroke-linejoin="round" stroke-miterlimit="10" stroke-width="3"/>
        <path id="Path_48765" data-name="Path 48765" d="M14.283,22.265h3.85a2.566,2.566,0,0,0,0-5.133H15.566a2.566,2.566,0,0,1,0-5.133h3.85" transform="translate(1.115 0.832)" fill="none" stroke="#7e81d7" stroke-linecap="round" stroke-linejoin="round" stroke-miterlimit="10" stroke-width="3"/>
        <path id="Path_48766" data-name="Path 48766" d="M18.832,6A12.832,12.832,0,1,1,6,18.832v-3.85" transform="translate(-0.867 -0.867)" fill="none" stroke="#7e81d7" stroke-linecap="round" stroke-linejoin="round" stroke-miterlimit="10" stroke-width="3"/>
        <path id="Path_48767" data-name="Path 48767" d="M12.265,18.133,7.133,13,2,18.133" transform="translate(-2 1.115)" fill="none" stroke="#7e81d7" stroke-linecap="round" stroke-linejoin="round" stroke-miterlimit="10" stroke-width="3"/>
        <path id="Path_48768" data-name="Path 48768" d="M16,2a17.964,17.964,0,0,1,0,35.929" transform="translate(1.964 -2)" fill="none" stroke="#7e81d7" stroke-linecap="round" stroke-linejoin="round" stroke-miterlimit="10" stroke-width="3"/>
      </g>
    </g>
    <g id="Path_48784" data-name="Path 48784" transform="translate(1446 1645)" fill="none">
      <path d="M48,0A48,48,0,1,1,0,48,48,48,0,0,1,48,0Z" stroke="none"/>
      <path d="M 48 2 C 41.78915786743164 2 35.76515579223633 3.215957641601562 30.09534454345703 5.614082336425781 C 24.61792755126953 7.930831909179688 19.69828796386719 11.24788665771484 15.47308349609375 15.47308349609375 C 11.24788665771484 19.69828796386719 7.930831909179688 24.61792755126953 5.614082336425781 30.09534454345703 C 3.215957641601562 35.76515579223633 2 41.78915786743164 2 48 C 2 54.21084213256836 3.215957641601562 60.23484420776367 5.614082336425781 65.90465545654297 C 7.930831909179688 71.38207244873047 11.24788665771484 76.30171203613281 15.47308349609375 80.52691650390625 C 19.69828796386719 84.75211334228516 24.61792755126953 88.06916809082031 30.09534454345703 90.38591766357422 C 35.76515579223633 92.78404235839844 41.78915786743164 94 48 94 C 54.21084213256836 94 60.23484420776367 92.78404235839844 65.90465545654297 90.38591766357422 C 71.38207244873047 88.06916809082031 76.30171203613281 84.75211334228516 80.52691650390625 80.52691650390625 C 84.75211334228516 76.30171203613281 88.06916809082031 71.38207244873047 90.38591766357422 65.90465545654297 C 92.78404235839844 60.23484420776367 94 54.21084213256836 94 48 C 94 41.78915786743164 92.78404235839844 35.76515579223633 90.38591766357422 30.09534454345703 C 88.06916809082031 24.61792755126953 84.75211334228516 19.69828796386719 80.52691650390625 15.47308349609375 C 76.30171203613281 11.24788665771484 71.38207244873047 7.930831909179688 65.90465545654297 5.614082336425781 C 60.23484420776367 3.215957641601562 54.21084213256836 2 48 2 M 48 0 C 74.50967407226562 0 96 21.49032592773438 96 48 C 96 74.50967407226562 74.50967407226562 96 48 96 C 21.49032592773438 96 0 74.50967407226562 0 48 C 0 21.49032592773438 21.49032592773438 0 48 0 Z" stroke="none" fill="#6b94e5"/>
    </g>
  </g>
</svg>
