<svg xmlns="http://www.w3.org/2000/svg" xmlns:xlink="http://www.w3.org/1999/xlink" width="604.199" height="454.379" viewBox="0 0 604.199 454.379">
  <defs>
    <linearGradient id="linear-gradient" y1="0.5" x2="1" y2="0.5" gradientUnits="objectBoundingBox">
      <stop offset="0" stop-color="#f0f2fe"/>
      <stop offset="1" stop-color="#c8cdf0"/>
    </linearGradient>
    <linearGradient id="linear-gradient-2" y1="0.5" x2="1" y2="0.5" gradientUnits="objectBoundingBox">
      <stop offset="0.3" stop-color="#f0f2fe"/>
      <stop offset="0.7" stop-color="#c8cdf0"/>
    </linearGradient>
    <linearGradient id="linear-gradient-3" x1="0.25" y1="0.067" x2="0.75" y2="0.933" xlink:href="#linear-gradient-2"/>
    <linearGradient id="linear-gradient-7" x1="0.323" y1="1.03" x2="0.677" y2="-0.03" gradientUnits="objectBoundingBox">
      <stop offset="0.25" stop-color="#fff"/>
      <stop offset="0.7" stop-color="#dee4f7"/>
    </linearGradient>
    <linearGradient id="linear-gradient-10" x1="-8.218" y1="18.117" x2="-7.746" y2="18.117" xlink:href="#linear-gradient-2"/>
    <linearGradient id="linear-gradient-11" x1="-5.968" y1="13.433" x2="-5.496" y2="13.433" xlink:href="#linear-gradient-2"/>
    <linearGradient id="linear-gradient-12" x1="-15.305" y1="19.874" x2="-13.934" y2="19.874" xlink:href="#linear-gradient-2"/>
    <linearGradient id="linear-gradient-13" x1="-20.526" y1="47.802" x2="-20.154" y2="47.802" xlink:href="#linear-gradient-2"/>
    <linearGradient id="linear-gradient-14" x1="-100.866" y1="-78.016" x2="-100.123" y2="-78.016" gradientUnits="objectBoundingBox">
      <stop offset="0" stop-color="#c8cdf0"/>
      <stop offset="0.4" stop-color="#f0f2fe"/>
      <stop offset="0.6" stop-color="#eceefd"/>
      <stop offset="1" stop-color="#c8cdf0"/>
    </linearGradient>
    <linearGradient id="linear-gradient-15" x1="-10.631" y1="-14.858" x2="-9.961" y2="-14.858" gradientUnits="objectBoundingBox">
      <stop offset="0" stop-color="#1a50b2"/>
      <stop offset="0.604" stop-color="#4bbfed"/>
      <stop offset="0.858" stop-color="#4bbfed"/>
      <stop offset="1" stop-color="#1a50b2"/>
    </linearGradient>
    <linearGradient id="linear-gradient-16" x1="-4.953" y1="-8.238" x2="-4.6" y2="-8.238" gradientUnits="objectBoundingBox">
      <stop offset="0" stop-color="#c8cdf0"/>
      <stop offset="0.54" stop-color="#f0f2fe"/>
      <stop offset="0.885" stop-color="#eceefd"/>
      <stop offset="1" stop-color="#c8cdf0"/>
    </linearGradient>
    <linearGradient id="linear-gradient-17" x1="-18.216" y1="-24.671" x2="-17.716" y2="-23.649" gradientUnits="objectBoundingBox">
      <stop offset="0" stop-color="#4bd6ed"/>
      <stop offset="1" stop-color="#1a50b2"/>
    </linearGradient>
    <linearGradient id="linear-gradient-18" x1="-10.79" y1="-16.602" x2="-10.12" y2="-16.602" xlink:href="#linear-gradient-15"/>
    <linearGradient id="linear-gradient-19" x1="0" y1="0.5" x2="1" y2="0.5" xlink:href="#linear-gradient-17"/>
    <linearGradient id="linear-gradient-20" x1="-52.075" y1="47.798" x2="-51.835" y2="47.798" gradientUnits="objectBoundingBox">
      <stop offset="0" stop-color="#3665fc"/>
      <stop offset="0.5" stop-color="#82e3fc"/>
      <stop offset="1" stop-color="#3665fc"/>
    </linearGradient>
    <linearGradient id="linear-gradient-21" x1="-70.238" y1="35.427" x2="-69.042" y2="35.427" xlink:href="#linear-gradient-14"/>
    <linearGradient id="linear-gradient-22" x1="0" y1="0.5" x2="1" y2="0.5" xlink:href="#linear-gradient-7"/>
    <linearGradient id="linear-gradient-23" x1="-59.46" y1="41.002" x2="-58.8" y2="41.002" xlink:href="#linear-gradient-14"/>
    <linearGradient id="linear-gradient-25" y1="0.5" x2="1" y2="0.5" gradientUnits="objectBoundingBox">
      <stop offset="0.301" stop-color="#f0f2fe"/>
      <stop offset="0.339" stop-color="#c8cdf0"/>
    </linearGradient>
    <linearGradient id="linear-gradient-26" x1="0.752" y1="-0.13" x2="0.248" y2="1.13" xlink:href="#linear-gradient-7"/>
    <linearGradient id="linear-gradient-27" x1="-0.435" y1="-1.022" x2="-0.286" y2="-1.022" xlink:href="#linear-gradient"/>
    <linearGradient id="linear-gradient-34" x1="-70.365" y1="1" x2="-70.365" gradientUnits="objectBoundingBox">
      <stop offset="0" stop-color="#242748"/>
      <stop offset="1" stop-color="#203a5f"/>
    </linearGradient>
    <linearGradient id="linear-gradient-35" x1="-20.758" y1="1" x2="-20.758" y2="0" xlink:href="#linear-gradient-34"/>
    <linearGradient id="linear-gradient-36" x1="-24.944" y1="1" x2="-24.944" y2="0" xlink:href="#linear-gradient-34"/>
    <linearGradient id="linear-gradient-37" x1="-19.965" y1="1" x2="-19.965" y2="0" xlink:href="#linear-gradient-34"/>
    <linearGradient id="linear-gradient-38" x1="-25.855" y1="1" x2="-25.855" y2="0" xlink:href="#linear-gradient-34"/>
    <linearGradient id="linear-gradient-39" x1="-30.857" y1="0.5" x2="-29.857" y2="0.5" xlink:href="#linear-gradient"/>
  </defs>
  <g id="Group_20936" data-name="Group 20936" transform="translate(-1299.381 -544.598)">
    <g id="Group_20911" data-name="Group 20911" transform="translate(1299.381 648.548)">
      <g id="Group_20905" data-name="Group 20905" transform="translate(17.784 130.382)">
        <path id="Path_48796" data-name="Path 48796" d="M1379.612,1105.452c-20.8,0-37.667,9.735-37.667,21.754v5.552c0,12.01,16.868,21.749,37.667,21.749s37.675-9.739,37.675-21.749v-5.552C1417.287,1115.187,1400.42,1105.452,1379.612,1105.452Z" transform="translate(-1341.945 -1105.452)" fill="#60bfff"/>
        <path id="Path_48797" data-name="Path 48797" d="M1425.843,1134.892a1.286,1.286,0,0,0,0,2.437,4.667,4.667,0,0,0,4.22,0l27.243-15.887a33.656,33.656,0,0,0-4.119-2.495Z" transform="translate(-1390.281 -1113.309)" opacity="0.2" style="mix-blend-mode: overlay;isolation: isolate"/>
        <path id="Path_48798" data-name="Path 48798" d="M1379.612,1179.267c-20.8,0-37.667-9.74-37.667-21.748v5.552c0,12.01,16.868,21.749,37.667,21.749s37.675-9.739,37.675-21.749v-5.552C1417.287,1169.527,1400.42,1179.267,1379.612,1179.267Z" transform="translate(-1341.945 -1135.765)" opacity="0.4" style="mix-blend-mode: overlay;isolation: isolate"/>
      </g>
      <g id="Group_20906" data-name="Group 20906" transform="translate(53.911 112.337)">
        <path id="Path_48799" data-name="Path 48799" d="M1435.514,1070.781a72.988,72.988,0,0,1-7.1,4.7v8.481l4.011,2.316c9.936-5.736,19.254-14.123,27.315-24.014A54.582,54.582,0,0,1,1435.514,1070.781Z" transform="translate(-1428.412 -1062.262)" fill="url(#linear-gradient)"/>
        <path id="Path_48800" data-name="Path 48800" d="M1450.046,1069.11a77.17,77.17,0,0,1-12.033,8.68v8.485c9.936-5.736,19.254-14.123,27.315-24.014A54.7,54.7,0,0,1,1450.046,1069.11Z" transform="translate(-1434.002 -1062.262)" fill="#c8cdf0"/>
      </g>
      <path id="Path_48801" data-name="Path 48801" d="M1430.934,1071.823a1.461,1.461,0,0,0-.871-1.232,4.678,4.678,0,0,0-4.223,0,1.464,1.464,0,0,0-.868,1.235v35.824a1.465,1.465,0,0,0,.872,1.235,4.668,4.668,0,0,0,4.221,0,1.455,1.455,0,0,0,.869-1.235Z" transform="translate(-1372.499 -954.479)" fill="url(#linear-gradient-2)"/>
      <g id="Group_20908" data-name="Group 20908" transform="translate(0 10.792)">
        <path id="Path_48802" data-name="Path 48802" d="M1410.273,874.531v-.009h0a55.274,55.274,0,0,0-17.211-39.951c-.048-.056-.086-.107-.135-.165-.019-.021-.051-.017-.071-.034a55.791,55.791,0,0,0-10.285-7.681c-.012-.01-.012-.027-.027-.031-.054-.033-.116-.049-.175-.086a55.251,55.251,0,0,0-55.108.017c-.047.027-.1.04-.148.069-.009,0-.009.021-.019.027a55.828,55.828,0,0,0-10.285,7.677c-.024.021-.053.017-.075.038-.051.057-.089.112-.139.168a55.282,55.282,0,0,0-17.21,39.951h0v.056l0,0v.087a55.467,55.467,0,0,0,27.585,47.906c.05.03.092.069.144.1.019.013.038.011.058.021a55.25,55.25,0,0,0,55.316,0,.53.53,0,0,0,.065-.021c.061-.032.111-.078.172-.112a55.48,55.48,0,0,0,27.534-47.092c.012-.3.035-.59.035-.886C1410.289,874.562,1410.275,874.555,1410.273,874.531Z" transform="translate(-1299.381 -819.222)" fill="url(#linear-gradient-3)"/>
        <path id="Path_48803" data-name="Path 48803" d="M1409.988,842.77c1.779.343,4.6-5.24,9.052-6.236,4.015-.9,7.245-4.516,6.6-5.09-1.284-1.148.888,2.018-2-2.428s0-3.665,0-3.665-2.222-2.388-4.056-2.022.781,3.134-3.551.655-2.134-3.406-4.336-2.492-1.594,1.209-3.641,1.8a15.375,15.375,0,0,1-5.344.04,6.3,6.3,0,0,0-3.117.182c-1.285.549-.14-.548-1.285.549a11.709,11.709,0,0,1-2.23,1.96c-1.988,1.523-3.194-1.321-2.72,1.711s1.991.061,1.268,3.973-1.088,2.444-.719,3.914-.44,3.083,2.9,3.1l3.339.015s-2.016-.852,1.286,1.86,1.073,1.808,3.3,2.725S1409.038,842.584,1409.988,842.77Z" transform="translate(-1354.038 -820.342)" opacity="0.7" fill="url(#linear-gradient)"/>
        <path id="Path_48804" data-name="Path 48804" d="M1366.428,904.87c-3.62.687-2.931,2.023-6.233,2.749s-.552.737-2.571,2.94-4.4,2.565-2.748,6.052,2.387,2.751.916,5.5,2.753,6.234,2.753,6.234,4.951-3.3,7.884.916,1.652,6.051,1.652,6.051a12.857,12.857,0,0,0-1.652,5.317c-.182,2.934,1.837,3.94.917,7.2a19.713,19.713,0,0,0-.731,6.007s-.554,3.117,4.767,4.405.735-4.956,4.219-7.708,0-4.213,4.4-6.416.73-3.117,4.766-5.686,5.5-6.419,3.67-8.435-.274-2.384.778-4.772,2.981-4.765,0-5.317-2.98,1.286-5.732-1.463-2.2-4.4-2.2-4.4v-4.4s-1.1-5.138.184-3.49,4.217,2.568,3.849,5.318-1.833,2.757-.184,4.222,2.545,2.2,5.673,1.1,3.5-.365,5.7-1.652,6.784.366,4.4-2.384.182-1.836-2.383-2.753-2.937-1.28-2.751-3.114,1.1-3.2,2.2-2.061,5.5.96,4.953,3.34-.548,3.67,1.283,5.5a26.044,26.044,0,0,0,4.769,3.486s1.283-1.283,2.384,2.2a14.236,14.236,0,0,1,.914,5.134s.366-.183-1.649,2.934-2.568,1.916-1.285,3.984a3.346,3.346,0,0,0,2.961,1.887s.892-3.115,1.626-4.953a6.027,6.027,0,0,1,3.118-2.748l5.5-2.572,6.239,1.467,2.016,4.954s1.282,1.1,0,3.851-1.834,6.419-.367,3.667,5.683-1.935,5.318-5.554-.917-3.984-.733-5.452,1.285-.548,3.118-2.016,0-.576,1.1-5.318,1.1-2.018-1.286-6.786-2.581-3.351-2.386-6.42,4.169-.935,1.1-3.853-4.95-6.6-7.155-10.27-9.167-6.05-11.185-5.315-2.2,1.464-4.036,1.464-2.385-1.1-3.668,0l-1.285,1.1s-4.582-.737-5.321.548a9.458,9.458,0,0,1-2.2,2.386l-3.487-2.386s1.656,1.283-2.2-1.837-1.834-3.85-3.849-3.115-.184,1.285-4.035.916l-3.852-.365s-1.466,2.016-2.932,2.016.366-1.1-1.468,0-3.672,2.02-3.672,2.02a10.709,10.709,0,0,1-4.031.914c-1.468-.183-6.052-.548-6.052-.548s-.917,1.1-2.937,3.665-9.168,4.4-1.284,4.036,8.437-3.482,10.457-2.564,1.1-1.472,2.018.915.364,2.014,2.75,2.565,4.035,1.465,2.2,2.936,2.2,3.3-1.1,3.667-3.849.365-6.051-1.467S1369.143,904.356,1366.428,904.87Z" transform="translate(-1331.367 -856.869)" fill="#60bfff"/>
        <path id="Path_48805" data-name="Path 48805" d="M1410.255,875.469c.012-.3.035-.59.035-.886,0-.021-.015-.028-.017-.052v-.009h0a55.274,55.274,0,0,0-17.211-39.951c-.048-.056-.086-.107-.135-.165-.019-.021-.051-.017-.071-.034a55.791,55.791,0,0,0-10.285-7.681c-.012-.01-.012-.027-.027-.031-.054-.033-.116-.049-.175-.086a55.251,55.251,0,0,0-55.108.017c-.047.027-.1.04-.148.069-.009,0-.009.021-.019.027a55.828,55.828,0,0,0-10.285,7.677c-.024.021-.053.017-.075.038-.051.057-.089.112-.139.168a55.282,55.282,0,0,0-17.21,39.951h0v.056l0,0v.087a55.467,55.467,0,0,0,27.585,47.906c.05.03.092.069.144.1.019.013.038.011.058.021a55.25,55.25,0,0,0,55.316,0,.53.53,0,0,0,.065-.021c.061-.032.111-.078.172-.112A55.48,55.48,0,0,0,1410.255,875.469Zm-16.106,20.589c-.19-10.256-3.23-21.6-8.728-32.548,6.611-3.914,11.029-9.082,12.1-14.827a47,47,0,0,1,11.65,25.934c0,.02,0,.035,0,.053,0,.258-.017.511-.019.765C1408.778,883.416,1403.139,890.66,1394.148,896.058Zm-11.993,25.555A54.024,54.024,0,0,1,1355.378,929V906.821c14.592-.083,27.843-3.457,37.677-8.906C1392.867,909.159,1389.027,917.553,1382.155,921.613Zm-54.622.015c-6.891-4.057-10.741-12.462-10.927-23.724,9.831,5.451,23.082,8.83,37.671,8.917V929A53.941,53.941,0,0,1,1327.533,921.629Zm-27.05-47.012a46.978,46.978,0,0,1,11.649-25.934c1.073,5.745,5.5,10.915,12.1,14.827-5.494,10.944-8.534,22.287-8.725,32.538C1306.223,890.467,1300.5,882.918,1300.484,874.617Zm12.488-28.651a16.052,16.052,0,0,1,4.435-10.651,54.511,54.511,0,0,1,10.386-7.759c6.581-3.732,15.172-3.144,24.4,1.546a57.8,57.8,0,0,0-39.212,17.045C1312.986,846.083,1312.972,846.026,1312.972,845.966Zm79.277-10.651a16.04,16.04,0,0,1,4.436,10.651c0,.06-.014.117-.016.181a57.785,57.785,0,0,0-39.209-17.045c9.225-4.687,17.8-5.277,24.377-1.564A54.594,54.594,0,0,1,1392.249,835.315Zm-37.971,34.57c-11.1-.086-21.168-2.647-28.585-6.767.693-1.347,1.4-2.689,2.172-4.018,7.084-12.277,16.443-22.242,26.413-28.243Zm1.1-39.032c9.973,6,19.333,15.97,26.423,28.247.762,1.329,1.476,2.671,2.168,4.012-7.422,4.126-17.487,6.687-28.591,6.773Zm27.372,27.7c-7.087-12.277-16.434-22.28-26.418-28.4,16.088.394,30.469,7.025,40.2,17.469-.695,5.783-4.979,11-11.618,14.936C1384.225,861.219,1383.517,859.879,1382.75,858.552Zm-29.42-28.4c-9.987,6.121-19.334,16.124-26.42,28.4-.766,1.327-1.474,2.667-2.169,4.012-6.639-3.938-10.925-9.158-11.622-14.946C1322.857,837.18,1337.237,830.55,1353.33,830.152Zm-28.13,33.9c7.592,4.225,17.81,6.853,29.077,6.934v34.739c-14.681-.087-27.985-3.52-37.692-9.035C1316.659,886.451,1319.683,875.048,1325.2,864.047Zm30.177,41.673V870.982c11.27-.081,21.489-2.709,29.082-6.934,5.521,11.005,8.541,22.408,8.617,32.645C1383.367,902.2,1370.06,905.641,1355.378,905.721Zm53.081-39.811a48.942,48.942,0,0,0-10.782-18.677c.038-.42.107-.837.107-1.266a15.281,15.281,0,0,0-1.335-6.2A54.2,54.2,0,0,1,1408.459,865.91Zm-53.081-36.961v-8.614a54.094,54.094,0,0,1,19.649,3.895C1369.128,823.485,1362.405,825.061,1355.378,828.948Zm-1.1-8.614v8.614c-7.025-3.89-13.748-5.468-19.646-4.719A54.069,54.069,0,0,1,1354.277,820.335Zm-41.068,19.436a15.3,15.3,0,0,0-1.336,6.2c0,.429.071.842.108,1.266A48.868,48.868,0,0,0,1301.2,865.91,54.186,54.186,0,0,1,1313.209,839.771Zm-12.166,42.646c2.456,5.7,7.531,10.808,14.435,14.857.033,8.329,2.042,15.156,5.713,20.032A54.343,54.343,0,0,1,1301.043,882.416Zm87.436,34.879c3.667-4.873,5.67-11.7,5.7-20.011,6.884-4.038,11.951-9.121,14.422-14.805A54.351,54.351,0,0,1,1388.479,917.295Z" transform="translate(-1299.381 -819.222)" fill="#fff" opacity="0.6"/>
        <g id="Group_20907" data-name="Group 20907" transform="translate(1.572 1.579)" opacity="0.2" style="mix-blend-mode: multiply;isolation: isolate">
          <path id="Path_48806" data-name="Path 48806" d="M1412.463,876.732v-.009h0a55.274,55.274,0,0,0-17.211-39.951c-.048-.056-.086-.107-.135-.165-.019-.021-.051-.017-.071-.034a55.79,55.79,0,0,0-10.285-7.681c-.012-.01-.012-.027-.027-.031-.054-.033-.116-.049-.175-.086a55.351,55.351,0,0,0-14.51-5.773,51.62,51.62,0,0,1,5.886,2.9c.051.027.11.046.16.077.012.006.012.02.024.026a51.547,51.547,0,0,1,9.5,7.1c.021.013.048.008.069.032.043.047.076.1.122.149a51.087,51.087,0,0,1,15.9,36.917h0v.006c0,.018.021.026.021.047,0,.276-.023.546-.037.815a51.244,51.244,0,0,1-25.436,43.51c-.058.03-.106.076-.161.107-.019.015-.04.009-.061.017a51.036,51.036,0,0,1-51.108,0c-.017-.008-.034,0-.053-.017-.046-.025-.088-.062-.133-.091a51.562,51.562,0,0,1-21.6-24.735,55.647,55.647,0,0,0,26.013,34.913c.05.03.092.069.144.1.019.013.038.011.058.021a55.25,55.25,0,0,0,55.316,0,.526.526,0,0,0,.065-.021c.062-.032.111-.079.172-.112a55.48,55.48,0,0,0,27.534-47.092c.012-.3.035-.59.035-.886C1412.48,876.763,1412.466,876.756,1412.463,876.732Z" transform="translate(-1303.144 -823.002)" fill="#1a50b2"/>
        </g>
      </g>
      <g id="Group_20909" data-name="Group 20909" transform="translate(53.911 0)">
        <path id="Path_48807" data-name="Path 48807" d="M1464.4,807.316c5.857,4.218,9.83,11.416,11.277,21.03a55,55,0,0,1,9.506,26.7,88.987,88.987,0,0,0,2.6-20.466c0-17.3-6.094-29.447-15.952-35.168l.007-.008-4.891-2.824-.018.033c-9.962-5.275-23.538-4.238-38.509,4.405l0,8.474,4.011,2.317C1444.714,804.713,1455.918,803.529,1464.4,807.316Z" transform="translate(-1428.412 -793.393)" fill="url(#linear-gradient)"/>
        <path id="Path_48808" data-name="Path 48808" d="M1485.865,839.646a54.835,54.835,0,0,1,4.905,18.608,88.987,88.987,0,0,0,2.6-20.466c-.005-34.906-24.782-48.892-55.351-31.243l0,8.474C1463.757,800.157,1484.727,811.227,1485.865,839.646Z" transform="translate(-1434.002 -796.604)" fill="#c8cdf0"/>
      </g>
      <g id="Group_20910" data-name="Group 20910" transform="translate(52.469 1.162)">
        <path id="Path_48809" data-name="Path 48809" d="M1430.934,797.919a1.466,1.466,0,0,0-.871-1.238,4.653,4.653,0,0,0-4.223,0,1.459,1.459,0,0,0-.868,1.235v18.171a1.463,1.463,0,0,0,.872,1.238,4.633,4.633,0,0,0,4.221,0,1.454,1.454,0,0,0,.869-1.233Z" transform="translate(-1424.968 -796.174)" fill="url(#linear-gradient-2)"/>
        <path id="Path_48810" data-name="Path 48810" d="M1425.839,799.118a1.286,1.286,0,0,1,0-2.437,4.653,4.653,0,0,1,4.223,0,1.286,1.286,0,0,1,0,2.437A4.66,4.66,0,0,1,1425.839,799.118Z" transform="translate(-1424.962 -796.174)" fill="url(#linear-gradient-7)"/>
      </g>
    </g>
    <g id="Group_20913" data-name="Group 20913" transform="translate(1448.544 602.775)">
      <g id="Group_20912" data-name="Group 20912" transform="translate(6.945 4.221)" opacity="0.15" style="mix-blend-mode: multiply;isolation: isolate">
        <path id="Path_48811" data-name="Path 48811" d="M1838.425,739.139l11.843-10.125-89.883-35.071-36.658,31.346-50.714,29.28,76.712,44.29,14.877-8.592,9.634,3.758,33.561-28.694,37.994-21.938Z" transform="translate(-1673.014 -693.942)" fill="#1a50b2"/>
      </g>
      <path id="Path_48812" data-name="Path 48812" d="M1829.169,744.323l-76.712-44.291L1656.391,755.5v6.6l76.71,44.291,96.069-55.466Z" transform="translate(-1656.391 -693.267)" fill="url(#linear-gradient)"/>
      <path id="Path_48813" data-name="Path 48813" d="M2008.12,799.122l-8.6-4.964-35.752,30.573Z" transform="translate(-1835.341 -748.066)" opacity="0.3" style="mix-blend-mode: overlay;isolation: isolate"/>
      <path id="Path_48814" data-name="Path 48814" d="M1656.391,832.791v6.6l76.71,44.291v-6.6Z" transform="translate(-1656.391 -770.557)" fill="#fff" opacity="0.5"/>
      <path id="Path_48815" data-name="Path 48815" d="M1839.989,861.506v6.6l96.069-55.466v-6.6Z" transform="translate(-1763.28 -754.983)" opacity="0.6" style="mix-blend-mode: overlay;isolation: isolate"/>
      <path id="Path_48816" data-name="Path 48816" d="M1830.52,718.911l-89.885-35.071-76.03,65.016v6.6l89.882,35.074,76.033-65.015Z" transform="translate(-1661.173 -683.84)" fill="url(#linear-gradient)"/>
      <path id="Path_48817" data-name="Path 48817" d="M1664.605,839.451v6.6l89.882,35.074v-6.6Z" transform="translate(-1661.173 -774.435)" fill="#fff" opacity="0.5"/>
      <path id="Path_48818" data-name="Path 48818" d="M1879.73,832.795v6.6l76.033-65.015v-6.6Z" transform="translate(-1786.416 -732.709)" opacity="0.6" style="mix-blend-mode: overlay;isolation: isolate"/>
      <path id="Path_48819" data-name="Path 48819" d="M1833.5,730.716l-78.271-30.54,1.208-1.033,78.27,30.54Zm-4.227,3.613L1751,703.785l-1.208,1.034,78.267,30.542Zm-5.429,4.644L1785.3,723.935l-1.207,1.031L1822.633,740Zm-5.429,4.643-38.537-15.038-1.205,1.032,38.534,15.04Zm-5.431,4.641-38.534-15.037-1.21,1.035,38.534,15.037Zm-5.431,4.647-38.533-15.036-1.21,1.03,38.535,15.038Zm-5.432,4.643-38.536-15.035-1.2,1.029,38.535,15.037Zm-5.429,4.642-38.535-15.033-1.206,1.028,38.536,15.04Zm-5.431,4.643-78.272-30.539-1.2,1.032,78.269,30.54Zm-5.431,4.647-78.271-30.543-1.207,1.033,78.268,30.541Zm-5.432,4.646-78.268-30.547-1.208,1.034,78.271,30.54Zm-5.432,4.64-78.266-30.538-1.207,1.032,78.267,30.538Zm-5.428,4.643-78.269-30.54-1.208,1.033,78.27,30.542Zm9.511-63.914-33.475-13.061-28.358,24.249,33.471,13.06Z" transform="translate(-1675.99 -692.749)" opacity="0.6" style="mix-blend-mode: overlay;isolation: isolate"/>
    </g>
    <g id="Group_20915" data-name="Group 20915" transform="translate(1618.179 902.021)">
      <g id="Group_20914" data-name="Group 20914" transform="translate(9.461 4.796)" opacity="0.15" style="mix-blend-mode: multiply;isolation: isolate">
        <path id="Path_48820" data-name="Path 48820" d="M2155.9,1460.845l-.01.009-20.045,11.574c-11.841,6.838-34.614,16.136-42.412,15.614l-5.159,2.983a2.974,2.974,0,0,1-2.683,0,.816.816,0,0,1,.006-1.545l5.162-2.983c-.9-4.5,15.2-17.645,27.051-24.484l14.2-8.2h.005l37.3-21.54s.007,0,.012-.006l28.712-16.58a6.814,6.814,0,0,1,2.777-.763l1.875-1.081a7.67,7.67,0,0,1,4.035-.731l1.653-.955c2.207-1.271,7.087-.519,10.9,1.682s5.122,5.021,2.915,6.3l-1.652.953a2.263,2.263,0,0,1-1.268,2.33l-1.873,1.082a2.648,2.648,0,0,1-1.326,1.605l-29.5,17.027-.01,0Z" transform="translate(-2085.042 -1411.54)" fill="#1a50b2"/>
      </g>
      <path id="Path_48821" data-name="Path 48821" d="M2307.372,1422.7c-2.206-3.82-2.206-7.946,0-9.222l22.589-13.046c2.208-1.271,5.783.792,7.985,4.611s2.206,7.949,0,9.225l-22.591,13.04C2313.15,1428.587,2309.576,1426.521,2307.372,1422.7Z" transform="translate(-2204.056 -1400.06)" fill="url(#linear-gradient-10)"/>
      <path id="Path_48822" data-name="Path 48822" d="M2283.844,1429.7c-2.646-4.583-2.648-9.543,0-11.072l27.122-15.658c2.648-1.531,6.939.947,9.59,5.533s2.646,9.542,0,11.075l-27.125,15.658C2290.783,1436.758,2286.49,1434.277,2283.844,1429.7Z" transform="translate(-2190.166 -1401.488)" fill="#fe4a49"/>
      <path id="Path_48823" data-name="Path 48823" d="M2267.523,1435.66c-2.875-4.984-2.875-10.378,0-12.038l29.5-17.032c2.877-1.661,7.546,1.034,10.427,6.024s2.878,10.376,0,12.037l-29.5,17.029C2275.074,1443.342,2270.4,1440.646,2267.523,1435.66Z" transform="translate(-2180.565 -1403.576)" fill="url(#linear-gradient-11)"/>
      <path id="Path_48824" data-name="Path 48824" d="M2180.082,1479.859c-2.881-4.988-2.881-10.377,0-12.038l37.305-21.539c2.88-1.666,7.548,1.033,10.43,6.019s2.876,10.378,0,12.039l-37.307,21.539C2187.629,1487.541,2182.962,1484.846,2180.082,1479.859Z" transform="translate(-2129.655 -1426.683)" fill="#fe4a49"/>
      <path id="Path_48825" data-name="Path 48825" d="M2076.789,1530.726c-2.881-4.993,17.016-21.868,30.051-29.388l20.042-11.574c2.877-1.665,7.547,1.031,10.427,6.016s2.878,10.381,0,12.045l-20.046,11.569C2104.234,1526.918,2079.669,1535.715,2076.789,1530.726Z" transform="translate(-2070.613 -1451.998)" fill="#fe4a49"/>
      <path id="Path_48826" data-name="Path 48826" d="M2201.213,1497.3c-2.88-4.99-7.549-7.686-10.428-6.021l2.629-1.517c2.877-1.665,7.546,1.031,10.427,6.016s2.877,10.381,0,12.045l-2.633,1.514C2204.091,1507.676,2204.091,1502.287,2201.213,1497.3Z" transform="translate(-2137.144 -1451.998)" fill="url(#linear-gradient-12)"/>
      <path id="Path_48827" data-name="Path 48827" d="M2064.716,1589.876a1.54,1.54,0,0,1-2.111-.563h0a1.548,1.548,0,0,1,.564-2.111l5.208-3.008a1.545,1.545,0,0,1,2.112.567h0a1.544,1.544,0,0,1-.564,2.112Z" transform="translate(-2062.398 -1507.14)" fill="url(#linear-gradient-13)"/>
      <path id="Path_48828" data-name="Path 48828" d="M2270.767,1451.378l42.288-24.416c1.675-.967,3.1-.57,3.658.81a3.185,3.185,0,0,1-1.394,1.85l-1.651.953a4.125,4.125,0,0,1-1.85,2.921l-1.876,1.078a3.964,3.964,0,0,1-1.629,1.911l-29.5,17.029s-.006,0-.01.005l-11.412,6.592a3.323,3.323,0,0,1-.545-1.954A8.652,8.652,0,0,1,2270.767,1451.378Z" transform="translate(-2181.428 -1415.412)" opacity="0.3" style="mix-blend-mode: overlay;isolation: isolate"/>
      <path id="Path_48829" data-name="Path 48829" d="M2362.336,1441c1-1.732,1-3.6,0-4.179l-4.754-2.87c-1-.576-2.62.359-3.618,2.092s-1,3.6,0,4.176l4.755,2.87C2359.717,1443.665,2361.336,1442.729,2362.336,1441Z" transform="translate(-2231.706 -1419.692)" fill="url(#linear-gradient-14)"/>
      <path id="Path_48830" data-name="Path 48830" d="M2322.5,1430.542a2.768,2.768,0,0,1,1.111,2.507,8.647,8.647,0,0,1-3.915,6.782l-42.292,24.418a2.759,2.759,0,0,1-2.775.269h0l-.986-.566.007,0a2.708,2.708,0,0,1-1.176-2.547,8.639,8.639,0,0,1,3.916-6.779l42.291-24.417a2.729,2.729,0,0,1,2.806-.245l.006-.007,1.011.584Z" transform="translate(-2184.701 -1417.302)" fill="#f75e5e"/>
      <path id="Path_48831" data-name="Path 48831" d="M2272.473,1461.4a8.639,8.639,0,0,1,3.916-6.779l42.291-24.417a2.729,2.729,0,0,1,2.806-.245l.006-.007,1.011.584,0,.005s0,.008.009.008a2.722,2.722,0,0,0-2.817.239l-42.289,24.418a8.652,8.652,0,0,0-3.916,6.782,2.737,2.737,0,0,0,1.141,2.529h0l-.986-.566.007,0A2.708,2.708,0,0,1,2272.473,1461.4Z" transform="translate(-2184.701 -1417.302)" opacity="0.3" style="mix-blend-mode: overlay;isolation: isolate"/>
    </g>
    <g id="Group_20920" data-name="Group 20920" transform="translate(1321.416 909.33)">
      <g id="Group_20916" data-name="Group 20916" transform="translate(15.208 3.326)" opacity="0.15" style="mix-blend-mode: multiply;isolation: isolate">
        <path id="Path_48832" data-name="Path 48832" d="M1391.566,1445.24l98.806,56.84a16.3,16.3,0,0,0,14.753-.013l16.359-9.443c2.032-1.17,3.047-2.7,3.055-4.24l0,.014c.011-1.55-1-3.1-3.05-4.288l-98.8-56.833a16.291,16.291,0,0,0-14.753.01l-16.361,9.443c-2.027,1.172-3.042,2.708-3.05,4.238h-.005l0,2.17,0-2.14C1388.524,1442.539,1389.537,1444.072,1391.566,1445.24Z" transform="translate(-1388.519 -1425.515)" fill="#1a50b2"/>
      </g>
      <path id="Path_48833" data-name="Path 48833" d="M1373.762,1452.312a3.687,3.687,0,0,0,3.73-.359l17.245-9.953a11.61,11.61,0,0,0,5.255-9.093,3.727,3.727,0,0,0-1.489-3.355l.005-.01-20.233-11.681,0,.008a3.741,3.741,0,0,0-3.651.393l-17.245,9.959a11.607,11.607,0,0,0-5.255,9.094,3.692,3.692,0,0,0,1.538,3.391h0l20.1,11.606Z" transform="translate(-1352.121 -1417.554)" fill="url(#linear-gradient-15)"/>
      <g id="Group_20919" data-name="Group 20919" transform="translate(10.428 5.433)">
        <path id="Path_48834" data-name="Path 48834" d="M1452.116,1499.634c1.105.641,2.63.557,4.316-.414l19.945-11.514a13.429,13.429,0,0,0,6.075-10.517,4.284,4.284,0,0,0-1.722-3.881l.009-.013-73.413-42.383-.006.012c-1.094-.591-2.578-.489-4.222.457l-19.943,11.515a13.421,13.421,0,0,0-6.075,10.516c0,1.934.681,3.289,1.778,3.927h0l73.258,42.3Z" transform="translate(-1377.08 -1430.557)" fill="url(#linear-gradient-16)"/>
        <g id="Group_20917" data-name="Group 20917" transform="translate(56.545 30.254)" opacity="0.15" style="mix-blend-mode: multiply;isolation: isolate">
          <path id="Path_48835" data-name="Path 48835" d="M1514.294,1515.151l36.577,21.118a10.057,10.057,0,0,0,9.11-.009l10.1-5.834a3.188,3.188,0,0,0,1.889-2.614l0,.007a3.2,3.2,0,0,0-1.883-2.65l-36.574-21.113a10.05,10.05,0,0,0-9.109.006l-10.108,5.83a3.211,3.211,0,0,0-1.883,2.619h0v.02A3.2,3.2,0,0,0,1514.294,1515.151Z" transform="translate(-1512.415 -1502.967)" fill="#1a50b2"/>
        </g>
        <path id="Path_48836" data-name="Path 48836" d="M1584.56,1536.128c0-3.873-2.721-5.44-6.076-3.5l-19.943,11.518a13.42,13.42,0,0,0-6.074,10.52h0c0,3.867,2.72,5.433,6.074,3.5l19.945-11.514a13.43,13.43,0,0,0,6.075-10.517Z" transform="translate(-1479.188 -1489.496)" fill="url(#linear-gradient-17)"/>
        <g id="Group_20918" data-name="Group 20918" transform="translate(75.509 43.595)">
          <path id="Path_48837" data-name="Path 48837" d="M1582.834,1575.1c1.1.647,2.628.564,4.312-.409l19.946-11.515a13.428,13.428,0,0,0,6.078-10.514,4.293,4.293,0,0,0-1.725-3.883l.01-.009-23.4-13.513,0,.013c-1.091-.595-2.576-.5-4.222.453l-19.94,11.517a13.422,13.422,0,0,0-6.078,10.516c0,1.932.682,3.292,1.778,3.923h0l23.25,13.421Z" transform="translate(-1557.805 -1534.899)" fill="url(#linear-gradient-18)"/>
          <path id="Path_48838" data-name="Path 48838" d="M1645.6,1571.368c0-3.873-2.724-5.442-6.078-3.505l-19.946,11.517a13.4,13.4,0,0,0-6.07,10.514h0c0,3.871,2.718,5.438,6.07,3.5l19.946-11.515a13.428,13.428,0,0,0,6.078-10.514Z" transform="translate(-1590.23 -1553.607)" fill="url(#linear-gradient-19)"/>
          <path id="Path_48839" data-name="Path 48839" d="M1645.6,1571.368c0-3.873-2.724-5.442-6.078-3.505l-19.946,11.517a13.4,13.4,0,0,0-6.07,10.514h0c0,3.871,2.718,5.438,6.07,3.5l19.946-11.515a13.428,13.428,0,0,0,6.078-10.514Z" transform="translate(-1590.23 -1553.607)" opacity="0.2" style="mix-blend-mode: overlay;isolation: isolate"/>
        </g>
      </g>
      <path id="Path_48840" data-name="Path 48840" d="M1595.028,1556.495l10.1-5.834a3.189,3.189,0,0,0,1.889-2.614l0,.007a3.2,3.2,0,0,0-1.883-2.65l-13.309-7.68-19.218,11.1,13.3,7.684A10.057,10.057,0,0,0,1595.028,1556.495Z" transform="translate(-1480.489 -1487.516)" opacity="0.4" style="mix-blend-mode: overlay;isolation: isolate"/>
      <path id="Path_48841" data-name="Path 48841" d="M1571.977,1516.975h0a3.2,3.2,0,0,0-1.883-2.65l-36.574-21.116a10.072,10.072,0,0,0-9.109,0l-10.108,5.834a3.209,3.209,0,0,0-1.883,2.617h0V1503h0a3.173,3.173,0,0,0,1.877,2.664l36.575,21.115a10.075,10.075,0,0,0,9.11,0l10.1-5.833a3.208,3.208,0,0,0,1.892-2.635Z" transform="translate(-1445.442 -1460.966)" fill="#60bfff"/>
      <path id="Path_48842" data-name="Path 48842" d="M1571.976,1530.294a.01.01,0,0,0,0-.008,3.2,3.2,0,0,1-1.889,2.617l-10.1,5.832a10.066,10.066,0,0,1-9.11.007l-36.577-21.12a3.2,3.2,0,0,1-1.879-2.624v1.324h0a3.173,3.173,0,0,0,1.877,2.664l36.575,21.114a10.075,10.075,0,0,0,9.11,0l10.1-5.833a3.208,3.208,0,0,0,1.892-2.636v-1.335Z" transform="translate(-1445.442 -1474.285)" opacity="0.4" style="mix-blend-mode: overlay;isolation: isolate"/>
    </g>
    <g id="Group_20922" data-name="Group 20922" transform="translate(1746.146 682.975)">
      <g id="Group_20921" data-name="Group 20921" transform="translate(6.486 7.73)" opacity="0.15" style="mix-blend-mode: multiply;isolation: isolate">
        <path id="Path_48843" data-name="Path 48843" d="M2422.113,907.425l-6.934-3.837a14.71,14.71,0,0,0-10.962-.93c-10.783-5.74-19.829-8.658-20.01-8.342-.169.295,6.016,5.913,15.326,11.944-.635,1.719.2,3.583,2.506,4.916l.011,0,6.918,3.838a14.516,14.516,0,0,0,13.135-.007C2425.728,912.916,2425.733,909.521,2422.113,907.425Z" transform="translate(-2384.202 -894.293)" fill="#1a50b2"/>
      </g>
      <path id="Path_48844" data-name="Path 48844" d="M2368.681,875.814c.2-.349,11.474,3.331,23.871,10.489l-2.855,4.947C2377.3,884.093,2368.476,876.167,2368.681,875.814Z" transform="translate(-2368.678 -875.792)" fill="url(#linear-gradient-20)"/>
      <path id="Path_48845" data-name="Path 48845" d="M2407.646,903.29l-2.656-1.532,0,0c-1.4-.772-2.273-2.469-2.273-4.9,0-4.833,3.429-10.729,7.659-13.174,2.1-1.215,4-1.347,5.388-.58v0l2.7,1.558,0,0c1.4.775,2.274,2.471,2.272,4.905,0,4.827-3.429,10.729-7.663,13.17-2.1,1.216-4,1.345-5.382.582v0l-.02-.012C2407.659,903.3,2407.65,903.3,2407.646,903.29Z" transform="translate(-2388.496 -879.768)" fill="url(#linear-gradient-21)"/>
      <path id="Path_48846" data-name="Path 48846" d="M2422.217,886.827l0,0v0c-1.388-.766-3.289-.634-5.388.579-4.233,2.444-7.66,8.339-7.662,13.17,0,2.412.855,4.1,2.235,4.886l.02.012.02.012v0c1.383.763,3.284.634,5.383-.582,4.233-2.441,7.663-8.343,7.663-13.17C2424.491,889.3,2423.621,887.6,2422.217,886.827Z" transform="translate(-2392.251 -881.939)" fill="url(#linear-gradient-22)"/>
      <path id="Path_48847" data-name="Path 48847" d="M2418.938,908.1l0-.01a3.363,3.363,0,0,1-1.576-3.246,10.977,10.977,0,0,1,4.994-8.584,3.491,3.491,0,0,1,3.6-.327l0-.006,11.73,8.952v.006a2.562,2.562,0,0,1,1,2.286,8.028,8.028,0,0,1-3.654,6.279,2.652,2.652,0,0,1-2.473.321l-.008.01Z" transform="translate(-2397.024 -887.305)" fill="url(#linear-gradient-23)"/>
      <path id="Path_48848" data-name="Path 48848" d="M2457.22,917.468a2.545,2.545,0,0,0-2.657.219,8.044,8.044,0,0,0-3.654,6.283,2.442,2.442,0,0,0,1.186,2.387,2.661,2.661,0,0,0,2.469-.323,8.028,8.028,0,0,0,3.654-6.279A2.562,2.562,0,0,0,2457.22,917.468Z" transform="translate(-2416.552 -899.892)" fill="url(#linear-gradient-22)"/>
    </g>
    <g id="Group_20926" data-name="Group 20926" transform="translate(1407.797 717.69)">
      <g id="Group_20923" data-name="Group 20923" transform="translate(21.53)" opacity="0.15" style="mix-blend-mode: multiply;isolation: isolate">
        <path id="Path_48849" data-name="Path 48849" d="M1998.087,1042.748c10.508-6.073,10.505-15.919-.015-21.995l-99.265-57.311c-10.531-6.077-27.585-6.084-38.1-.012L1618.27,1103.4c-10.5,6.068-10.5,15.915.027,21.994l99.263,57.3c10.523,6.081,27.58,6.085,38.094.018Z" transform="translate(-1610.397 -958.88)" fill="#1a50b2"/>
      </g>
      <path id="Path_48850" data-name="Path 48850" d="M1558.867,1121.2c0-6.334,2.363-11.742,5.7-13.973a21.264,21.264,0,0,1,3.52-2.509l242.435-139.969c10.515-6.076,27.569-6.068,38.1.008l99.263,57.309a21.5,21.5,0,0,1,3.688,2.672c3.147,2.375,5.336,7.612,5.336,13.711a22.268,22.268,0,0,1-1.6,8.513c-.964,2.968-3.43,5.806-7.4,8.1l-242.435,139.967c-10.518,6.067-27.572,6.062-38.095-.013l-99.267-57.306a21.6,21.6,0,0,1-3.561-2.552C1561.221,1132.928,1558.862,1127.527,1558.867,1121.2Z" transform="translate(-1558.867 -959.648)" fill="url(#linear-gradient-25)"/>
      <path id="Path_48851" data-name="Path 48851" d="M1955.31,1152.254c-.964,2.97-3.43,5.806-7.4,8.1l-242.435,139.969c-10.518,6.07-27.572,6.067-38.095-.012l-99.267-57.306a21.5,21.5,0,0,1-3.561-2.554c-3.135-2.1-5.377-7.02-5.634-12.862-.015.37-.049.73-.049,1.1,0,6.324,2.354,11.725,5.683,13.964a21.606,21.606,0,0,0,3.561,2.552l99.267,57.305c10.523,6.075,27.577,6.08,38.095.013l242.435-139.967c3.972-2.3,6.438-5.136,7.4-8.1a22.268,22.268,0,0,0,1.6-8.513c0-.38-.034-.743-.051-1.114A22,22,0,0,1,1955.31,1152.254Z" transform="translate(-1558.867 -1067.137)" opacity="0.3" style="mix-blend-mode: overlay;isolation: isolate"/>
      <path id="Path_48852" data-name="Path 48852" d="M1949.781,1044.068c10.508-6.075,10.5-15.922-.019-22L1850.5,964.76c-10.529-6.076-27.583-6.084-38.1-.008l-242.435,139.969c-10.506,6.068-10.505,15.915.022,21.991l99.267,57.305c10.523,6.077,27.577,6.083,38.095.016Z" transform="translate(-1560.743 -959.648)" fill="#60bfff"/>
      <path id="Path_48853" data-name="Path 48853" d="M1836.683,1110.826l69.027,39.854,119.909-68.76-69.025-39.854-13.943-8.052-28.484-16.441-119.505,68.991,28.076,16.21Z" transform="translate(-1696.143 -993.051)" opacity="0.3" style="mix-blend-mode: overlay;isolation: isolate"/>
      <path id="Path_48854" data-name="Path 48854" d="M1950.3,1109.08c6.927,5.474,6.145,13.2-2.4,18.135l-242.433,139.973c-9.445,5.452-24.822,5.452-34.291-.015L1571.9,1209.86c-8.569-4.943-9.35-12.7-2.374-18.175-10.029,6.087-9.892,15.722.474,21.7l99.267,57.305c10.523,6.077,27.577,6.083,38.095.016L1949.8,1130.745C1960.121,1124.776,1960.272,1115.172,1950.3,1109.08Z" transform="translate(-1560.759 -1046.325)" opacity="0.4" style="mix-blend-mode: overlay;isolation: isolate"/>
      <g id="Group_20924" data-name="Group 20924" transform="translate(308.942 31.38)">
        <path id="Path_48855" data-name="Path 48855" d="M2317.038,1044.807a2.55,2.55,0,0,1-2.308,0l-15.964-9.215a.706.706,0,0,1,0-1.332h0a2.544,2.544,0,0,1,2.307.005l15.956,9.21c.635.37.641.966.009,1.332Zm6.111,2.2a2.514,2.514,0,0,0-2.307,0,.7.7,0,0,0,0,1.324,2.529,2.529,0,0,0,2.3,0A.7.7,0,0,0,2323.148,1047.011Zm4.219,2.429a2.555,2.555,0,0,0-2.311,0,.7.7,0,0,0,0,1.333,2.529,2.529,0,0,0,2.3,0A.7.7,0,0,0,2327.368,1049.44Z" transform="translate(-2298.294 -1033.986)" fill="#c8cdf0"/>
      </g>
      <path id="Path_48856" data-name="Path 48856" d="M2405.718,1198.9l1.871,1.076a1.826,1.826,0,0,1,.754,1.665,5.668,5.668,0,0,1-2.566,4.433l-24.609,14.207a1.782,1.782,0,0,1-1.81.179l-1.869-1.083h0l-.041-.026,0,0a1.812,1.812,0,0,1-.711-1.635,5.689,5.689,0,0,1,2.556-4.431l24.607-14.2a1.8,1.8,0,0,1,1.768-.2l.006-.007.031.02C2405.715,1198.9,2405.715,1198.9,2405.718,1198.9Z" transform="translate(-2035.022 -1098.517)" fill="url(#linear-gradient-26)"/>
      <path id="Path_48857" data-name="Path 48857" d="M2408.389,1201.662c1.413-.822,2.562-.155,2.566,1.481h0a5.669,5.669,0,0,1-2.566,4.433l-24.609,14.207c-1.406.822-2.552.153-2.552-1.479h0a5.64,5.64,0,0,1,2.561-4.431Z" transform="translate(-2037.635 -1100.02)" fill="#c8cdf0"/>
      <path id="Path_48858" data-name="Path 48858" d="M1695.219,1437.424a6.457,6.457,0,0,0-2.921-5.058l-18.634-10.757c-1.613-.93-2.919-.176-2.919,1.685h0a6.43,6.43,0,0,0,2.919,5.051l18.636,10.765c1.614.925,2.919.174,2.919-1.686Z" transform="translate(-1624.001 -1228.043)" fill="#c8cdf0"/>
      <path id="Path_48859" data-name="Path 48859" d="M1672.749,1421.3a2.919,2.919,0,0,0-.217,1.132,6.446,6.446,0,0,0,2.924,5.055l18.631,10.76a3.257,3.257,0,0,0,.917.344c-.43.983-1.476,1.252-2.7.551l-18.636-10.765a6.43,6.43,0,0,1-2.919-5.051C1670.743,1421.832,1671.591,1421.075,1672.749,1421.3Z" transform="translate(-1624.001 -1228.071)" opacity="0.5" style="mix-blend-mode: overlay;isolation: isolate"/>
      <g id="Group_20925" data-name="Group 20925" transform="translate(17.289 177.225)">
        <path id="Path_48860" data-name="Path 48860" d="M1658.854,1417.91c0-.914.643-1.279,1.433-.823a3.161,3.161,0,0,1,1.428,2.471c0,.911-.64,1.28-1.428.823A3.172,3.172,0,0,1,1658.854,1417.91Zm5.815,5c.789.458,1.429.091,1.429-.819a3.157,3.157,0,0,0-1.429-2.476c-.788-.457-1.429-.085-1.432.823A3.154,3.154,0,0,0,1664.669,1422.911Zm4.381,2.532c.793.457,1.433.088,1.433-.821a3.156,3.156,0,0,0-1.433-2.476c-.786-.454-1.427-.086-1.427.829A3.155,3.155,0,0,0,1669.049,1425.443Zm4.385,2.533c.79.454,1.432.084,1.427-.825a3.148,3.148,0,0,0-1.427-2.474c-.787-.456-1.425-.083-1.432.823A3.165,3.165,0,0,0,1673.435,1427.976Zm4.387,2.531c.79.456,1.427.084,1.427-.826a3.16,3.16,0,0,0-1.427-2.471c-.792-.456-1.431-.089-1.431.822A3.16,3.16,0,0,0,1677.822,1430.507Zm4.38,2.528c.79.455,1.428.09,1.428-.821a3.159,3.159,0,0,0-1.425-2.473c-.791-.454-1.432-.089-1.432.823A3.158,3.158,0,0,0,1682.2,1433.034Zm-81.955-48.962c0-.911.641-1.278,1.432-.821a3.148,3.148,0,0,1,1.428,2.473c0,.908-.638,1.276-1.428.818A3.155,3.155,0,0,1,1600.247,1384.072Zm5.817,5c.786.455,1.424.089,1.424-.821a3.163,3.163,0,0,0-1.427-2.478c-.788-.455-1.429-.086-1.429.824A3.157,3.157,0,0,0,1606.064,1389.077Zm4.382,2.528c.789.456,1.428.089,1.428-.821a3.157,3.157,0,0,0-1.428-2.474c-.79-.456-1.43-.085-1.43.827A3.15,3.15,0,0,0,1610.447,1391.605Zm4.383,2.533c.79.456,1.431.088,1.427-.823a3.146,3.146,0,0,0-1.427-2.474c-.791-.456-1.429-.084-1.431.817A3.159,3.159,0,0,0,1614.829,1394.138Zm4.383,2.532c.792.458,1.43.088,1.43-.823a3.155,3.155,0,0,0-1.424-2.475c-.8-.453-1.434-.088-1.434.823A3.157,3.157,0,0,0,1619.213,1396.671Zm4.383,2.529c.79.453,1.429.089,1.429-.822a3.153,3.153,0,0,0-1.429-2.473c-.787-.455-1.428-.088-1.428.823A3.161,3.161,0,0,0,1623.6,1399.2Z" transform="translate(-1600.247 -1383.055)" fill="#c8cdf0"/>
      </g>
    </g>
    <g id="Group_20927" data-name="Group 20927" transform="translate(1422.726 690.136)">
      <path id="Path_48861" data-name="Path 48861" d="M1849.158,1017.078,1780.132,985.2l-13.944-8.049-69.027-47.826L1594.6,988.535v3.184l69.025,47.829,13.945,8.053,69.028,31.877,102.563-59.212Z" transform="translate(-1594.597 -914.117)" fill="#4983e7"/>
      <path id="Path_48862" data-name="Path 48862" d="M1849.158,1017.078,1780.132,985.2l-13.944-8.049-69.027-47.826L1594.6,988.535v3.184l69.025,47.829,13.945,8.053,69.028,31.877,102.563-59.212Z" transform="translate(-1594.597 -914.117)" opacity="0.5" style="mix-blend-mode: overlay;isolation: isolate"/>
      <path id="Path_48863" data-name="Path 48863" d="M1780.132,985.2l-13.944-8.049-69.027-47.826L1594.6,988.535l69.025,47.821,13.945,8.053,69.028,31.88,102.563-59.21Z" transform="translate(-1594.597 -914.117)" fill="#4983e7"/>
      <path id="Path_48864" data-name="Path 48864" d="M1708.8,940.815l-94.292,54.439,64.843,45.41,13.95,8.053,64.838,29.461,94.295-54.439-64.845-29.463-13.938-8.047Z" transform="translate(-1606.188 -920.809)" opacity="0.5" style="mix-blend-mode: overlay;isolation: isolate"/>
      <path id="Path_48865" data-name="Path 48865" d="M1862.369,1043.787,1759.8,1103l13.945,8.053,102.565-59.213Z" transform="translate(-1690.777 -980.758)" fill="#4983e7"/>
      <path id="Path_48866" data-name="Path 48866" d="M1783.65,1111.984l-13.943-8.047L1864,1049.5l13.939,8.052Z" transform="translate(-1696.544 -984.082)" fill="url(#linear-gradient-27)"/>
      <path id="Path_48867" data-name="Path 48867" d="M1746.328,938.78c-13.689-9.279-26.431-14.788-36.429-16.406l-94.293,54.439v7.972c10,1.616,22.739,7.124,36.429,16.407a165.481,165.481,0,0,1,35.157,32.112l94.292-54.436V970.9A165.5,165.5,0,0,0,1746.328,938.78Z" transform="translate(-1606.828 -910.073)" fill="url(#linear-gradient)"/>
      <path id="Path_48868" data-name="Path 48868" d="M1615.606,976.813c10,1.618,22.739,7.126,36.429,16.408a165.428,165.428,0,0,1,35.157,32.116l94.292-54.441a165.5,165.5,0,0,0-35.156-32.116c-13.689-9.279-26.431-14.788-36.429-16.406Z" transform="translate(-1606.828 -910.073)" opacity="0.5" style="mix-blend-mode: overlay;isolation: isolate"/>
      <path id="Path_48869" data-name="Path 48869" d="M1916.393,1046.813c-13.685-6.527-25.952-9.252-35.161-8.482l-94.292,54.441v7.967h5.9c8.291.511,18.306,3.259,29.259,8.484a135.885,135.885,0,0,1,36.425,25.653l94.294-54.439v-7.971A135.849,135.849,0,0,0,1916.393,1046.813Z" transform="translate(-1706.577 -977.508)" fill="url(#linear-gradient)"/>
      <path id="Path_48870" data-name="Path 48870" d="M2052.568,1120.209l-94.295,54.441v7.969l94.295-54.439Z" transform="translate(-1806.325 -1025.25)" style="mix-blend-mode: overlay;isolation: isolate"/>
      <path id="Path_48871" data-name="Path 48871" d="M1786.941,1092.772c9.206-.768,21.473,1.952,35.16,8.478a135.879,135.879,0,0,1,36.425,25.658l94.294-54.441a135.849,135.849,0,0,0-36.427-25.654c-13.685-6.527-25.952-9.252-35.161-8.482Z" transform="translate(-1706.577 -977.508)" opacity="0.5" style="mix-blend-mode: overlay;isolation: isolate"/>
      <path id="Path_48872" data-name="Path 48872" d="M1620.49,947.372c10.46,3.839,23.3,11.847,36.6,23.476a189,189,0,0,1,32.949,37.348l94.292-54.441a189.117,189.117,0,0,0-32.948-37.346c-13.3-11.628-26.136-19.638-36.6-23.477Z" transform="translate(-1609.672 -892.932)" fill="url(#linear-gradient-22)"/>
      <path id="Path_48873" data-name="Path 48873" d="M1729.949,912.7l1.708-.984c9.75,4.253,21.093,11.805,32.161,21.489a191.789,191.789,0,0,1,29.691,32.729l-1.387.8a190.332,190.332,0,0,0-29.354-32.329C1751.413,924.476,1739.78,916.789,1729.949,912.7Zm21.148,27.426c-10.865-9.5-22.048-17-31.713-21.326l-1.694.977c9.746,4.171,21.219,11.806,32.36,21.547a191.553,191.553,0,0,1,29.593,32.613l1.387-.8A192.907,192.907,0,0,0,1751.1,940.131Zm6.359-3.46c-10.969-9.6-22.233-17.122-31.937-21.407l-1.7.98c9.785,4.125,21.34,11.78,32.59,21.623a190.957,190.957,0,0,1,29.474,32.473l1.385-.8A192,192,0,0,0,1757.456,936.671Zm-25.439,13.84c-10.714-9.372-21.4-16.615-31.034-21.079l-1.685.971c9.627,4.295,20.851,11.84,31.67,21.3a192.853,192.853,0,0,1,29.952,33.047l1.389-.806A194.749,194.749,0,0,0,1732.016,950.511Zm6.361-3.461c-10.658-9.324-21.686-16.763-31.266-21.157l-1.685.97c9.669,4.255,20.978,11.829,31.9,21.386a192.426,192.426,0,0,1,29.832,32.9l1.388-.8A194.018,194.018,0,0,0,1738.377,947.05Zm6.361-3.458c-10.765-9.416-21.871-16.886-31.488-21.245l-1.691.976c9.706,4.212,21.092,11.817,32.128,21.466a191.848,191.848,0,0,1,29.713,32.76l1.389-.8A193.34,193.34,0,0,0,1744.738,943.591Zm-19.083,10.378c-10.607-9.277-21.218-16.492-30.808-21l-1.676.967c9.712,4.4,20.574,11.724,31.437,21.228a193.591,193.591,0,0,1,30.073,33.186l1.386-.8A194.9,194.9,0,0,0,1725.655,953.969Zm-38.161,20.761a147.259,147.259,0,0,0-29.463-20.5l-1.64.95c9.46,4.658,19.838,11.819,30.056,20.749a196.842,196.842,0,0,1,30.793,34.047l1.39-.8A198.355,198.355,0,0,0,1687.495,974.73Zm19.08-10.38c-10.289-9-20.672-16.132-30.137-20.749l-1.658.958c9.589,4.531,20.21,11.773,30.747,20.989a195.46,195.46,0,0,1,30.437,33.616l1.384-.8A196.519,196.519,0,0,0,1706.574,964.349Zm6.362-3.46c-10.4-9.1-20.858-16.252-30.362-20.83l-1.665.961c9.631,4.487,20.331,11.755,30.977,21.067a194.554,194.554,0,0,1,30.314,33.472l1.386-.8A196.243,196.243,0,0,0,1712.936,960.889Zm-12.72,6.919c-10.191-8.911-20.495-16.014-29.917-20.666l-1.648.956c9.544,4.573,20.084,11.788,30.516,20.91a195.885,195.885,0,0,1,30.555,33.76l1.39-.8A197.5,197.5,0,0,0,1700.216,967.808Zm-6.36,3.46c-10.083-8.819-20.31-15.892-29.69-20.586l-1.647.953c9.507,4.62,19.966,11.808,30.285,20.833a196.3,196.3,0,0,1,30.677,33.9l1.387-.8A197.858,197.858,0,0,0,1693.856,971.268Zm25.438-13.839c-10.5-9.183-21.033-16.37-30.588-20.911l-1.667.958c9.672,4.445,20.452,11.748,31.206,21.151a193.994,193.994,0,0,1,30.195,33.33l1.387-.8A195.756,195.756,0,0,0,1719.294,957.429Z" transform="translate(-1630.573 -903.871)" fill="url(#linear-gradient)"/>
      <path id="Path_48874" data-name="Path 48874" d="M1786.941,1089.91c8.2-3.012,19.657-3.023,32.952.7a107.2,107.2,0,0,1,36.594,18.779l94.292-54.437a107.132,107.132,0,0,0-36.594-18.778c-13.3-3.725-24.76-3.717-32.953-.7Z" transform="translate(-1706.577 -974.646)" fill="url(#linear-gradient-22)"/>
      <path id="Path_48875" data-name="Path 48875" d="M1912.675,1063.972a107.4,107.4,0,0,1,32.318,15.631l-1.527.881a105.532,105.532,0,0,0-31.221-14.975c-8.62-2.419-16.784-3.14-23.346-2.111l3.385-1.955A62.866,62.866,0,0,1,1912.675,1063.972Zm-14.427-5.965-3.484,2.007c6.717-1.162,15.143-.462,24.094,2.044a105.2,105.2,0,0,1,30.911,14.788l1.526-.881a106.881,106.881,0,0,0-32.007-15.44A62.653,62.653,0,0,0,1898.248,1058.007Zm-11.912,6.876-3.29,1.9c6.4-.888,14.3-.142,22.587,2.178a106.128,106.128,0,0,1,31.534,15.167l1.522-.882a107.8,107.8,0,0,0-32.625-15.818A63.066,63.066,0,0,0,1886.335,1064.883Zm-5.927,3.42-3.208,1.852c6.278-.763,13.755-.007,21.821,2.253a106.622,106.622,0,0,1,31.849,15.349l1.52-.876a108.312,108.312,0,0,0-32.942-16.01A62.8,62.8,0,0,0,1880.408,1068.3Zm29.763-17.185-3.659,2.115c7.026-1.42,15.962-.767,25.569,1.925a104.3,104.3,0,0,1,30.286,14.412l1.532-.881a106.1,106.1,0,0,0-31.387-15.066A63.036,63.036,0,0,0,1910.172,1051.118Zm-5.964,3.446-3.572,2.056c6.868-1.288,15.553-.614,24.835,1.985a104.881,104.881,0,0,1,30.6,14.6l1.527-.881a106.552,106.552,0,0,0-31.7-15.256A62.812,62.812,0,0,0,1904.208,1054.564Zm8.177-4.722c7.18-1.553,16.371-.919,26.306,1.866a103.792,103.792,0,0,1,29.981,14.225l1.53-.884a104.147,104.147,0,0,0-31.079-14.875,64.31,64.31,0,0,0-22-2.579c-.563.153-1.143.291-1.673.476Zm-61.678,35.609-2.65,1.533a66.082,66.082,0,0,1,17.9,2.673,109.146,109.146,0,0,1,33.4,16.291l1.517-.875a110.731,110.731,0,0,0-34.488-16.949A70.888,70.888,0,0,0,1850.707,1085.451Zm23.752-13.713-3.1,1.789a58.1,58.1,0,0,1,21.051,2.329,107.107,107.107,0,0,1,32.16,15.539l1.52-.876a108.756,108.756,0,0,0-33.249-16.2A63.685,63.685,0,0,0,1874.459,1071.739Zm-17.823,10.287-2.766,1.6a63.852,63.852,0,0,1,18.7,2.582,108.5,108.5,0,0,1,33.093,16.1l1.517-.875A110.192,110.192,0,0,0,1873,1084.673,68.752,68.752,0,0,0,1856.636,1082.026Zm-11.85,6.844-2.544,1.472a70.594,70.594,0,0,1,17.1,2.765,109.447,109.447,0,0,1,33.712,16.481l1.517-.878a111.349,111.349,0,0,0-34.8-17.139A75.55,75.55,0,0,0,1844.786,1088.87Zm17.791-10.27-2.883,1.663a61.366,61.366,0,0,1,19.492,2.5,108.126,108.126,0,0,1,32.778,15.913l1.521-.874a109.88,109.88,0,0,0-33.869-16.575A66.455,66.455,0,0,0,1862.576,1078.6Zm5.943-3.43-3,1.725a59.527,59.527,0,0,1,20.274,2.411,107.616,107.616,0,0,1,32.468,15.729l1.521-.878a109.39,109.39,0,0,0-33.561-16.386A64.753,64.753,0,0,0,1868.52,1075.169Z" transform="translate(-1738.773 -982.892)" fill="url(#linear-gradient)"/>
    </g>
    <g id="Group_20928" data-name="Group 20928" transform="translate(1458.639 845.639)">
      <path id="Path_48876" data-name="Path 48876" d="M1779.767,1328.525l-90.1-52.016,19.737-11.4,90.1,52.021Z" transform="translate(-1685.857 -1265.114)" opacity="0.5" style="mix-blend-mode: overlay;isolation: isolate"/>
      <path id="Path_48877" data-name="Path 48877" d="M1790.4,1317.135l-90.105-52.021-19.738,11.4v2.2l90.105,52.019,19.738-11.395Z" transform="translate(-1680.553 -1265.114)" fill="#4983e7"/>
      <path id="Path_48878" data-name="Path 48878" d="M1770.658,1344.4l-90.105-52.016v2.2l90.105,52.019,19.738-11.395v-2.2Z" transform="translate(-1680.553 -1280.993)" opacity="0.5" style="mix-blend-mode: overlay;isolation: isolate"/>
      <path id="Path_48879" data-name="Path 48879" d="M1765.182,1294.43c.032-.019.082-.011.122-.026l1.343.772c-.026.02-.04.048-.071.059l-9.067,5.235a1.533,1.533,0,0,1-1.393,0c-.392-.224-.387-.576,0-.807Zm-17.335-2.891a.424.424,0,0,0,0,.8,1.518,1.518,0,0,0,1.4,0l6.159-3.552c.03-.02.045-.043.073-.062l-1.343-.773c-.039.012-.09.01-.127.024Zm13.964,8.061a.425.425,0,0,0,0,.805,1.548,1.548,0,0,0,1.4,0l6.154-3.553a.618.618,0,0,0,.073-.067l-1.345-.774c-.036.019-.087.008-.123.031Zm-8.378-4.835c-.383.217-.383.578,0,.8a1.543,1.543,0,0,0,1.393,0l6.158-3.557c.035-.016.048-.043.073-.063l-1.344-.775c-.036.017-.089.013-.124.033Zm-2.795-1.614a.425.425,0,0,0,0,.8,1.543,1.543,0,0,0,1.4,0l6.157-3.561c.031-.02.046-.042.073-.061l-1.339-.771c-.04.013-.092.007-.127.03Zm5.589,3.224c-.386.222-.386.582,0,.806a1.526,1.526,0,0,0,1.394,0l6.161-3.555c.029-.018.041-.039.068-.058l-1.342-.78c-.039.019-.09.015-.125.035Zm19.552,11.29a.424.424,0,0,0,0,.8,1.562,1.562,0,0,0,1.4,0l6.16-3.557c.031-.019.045-.043.073-.063l-1.341-.774c-.04.016-.094.009-.13.032Zm-8.38-4.837c-.389.22-.382.577,0,.805a1.534,1.534,0,0,0,1.391,0l6.164-3.559c.032-.019.044-.042.068-.058l-1.334-.781c-.042.024-.095.015-.129.035Zm16.761,10.481a1.567,1.567,0,0,0,1.392,0l6.162-3.561c.031-.021.047-.044.072-.062l-1.341-.771c-.04.017-.094.006-.128.027l-6.161,3.552A.429.429,0,0,0,1784.16,1313.308Zm-55.975-28.959a1.558,1.558,0,0,0,1.4,0l9.062-5.236a.225.225,0,0,0,.073-.062l-1.343-.772c-.037.013-.09.007-.126.03l-9.062,5.235C1727.8,1283.762,1727.8,1284.121,1728.185,1284.349Zm42,20.091a.423.423,0,0,0,.005.8,1.544,1.544,0,0,0,1.394,0l6.16-3.556c.03-.016.044-.045.071-.064l-1.345-.778c-.035.022-.086.016-.122.038Zm-.112,3.289a.43.43,0,0,0,0,.811,1.571,1.571,0,0,0,1.394,0l9.068-5.241c.031-.017.043-.039.072-.057l-1.347-.781c-.035.021-.087.013-.122.035Zm-5.472-6.513c-.386.217-.384.576,0,.8a1.538,1.538,0,0,0,1.393,0l6.163-3.559c.03-.014.043-.039.069-.066l-1.342-.771c-.038.018-.091.012-.125.032Zm32.766,11.7-1.344-.777c-.038.016-.092.008-.127.032l-6.155,3.556c-.386.221-.386.582,0,.807a1.542,1.542,0,0,0,1.389,0l6.159-3.554C1797.334,1312.956,1797.343,1312.933,1797.372,1312.916Zm-2.793-1.615-1.344-.771c-.035.016-.09.008-.125.03l-9.067,5.236c-.385.22-.385.574,0,.8a1.558,1.558,0,0,0,1.393,0l9.067-5.239C1794.538,1311.348,1794.552,1311.32,1794.579,1311.3Zm5.583,3.225-1.342-.771c-.038.02-.087,0-.125.028l-6.161,3.552a.429.429,0,0,0,0,.81,1.566,1.566,0,0,0,1.394,0l6.163-3.559C1800.124,1314.569,1800.139,1314.544,1800.162,1314.526Zm7.041,4.066c-.039.015-.089.013-.127.029l-9.067,5.231a.426.426,0,0,0,.007.806,1.546,1.546,0,0,0,1.394.006l9.063-5.239a.634.634,0,0,0,.069-.062Zm-4.242-2.452-1.345-.773c-.039.015-.094.006-.125.028l-6.162,3.561a.423.423,0,0,0,0,.8,1.533,1.533,0,0,0,1.394,0l6.159-3.553C1802.916,1316.18,1802.931,1316.16,1802.961,1316.139Zm-60.813-24.54a.427.427,0,0,0,0,.809,1.533,1.533,0,0,0,1.393,0l9.065-5.234c.034-.02.046-.046.073-.063l-1.341-.774c-.041.017-.092.013-.129.028Zm46.84,16.475-1.339-.774c-.035.017-.092.01-.126.032l-6.159,3.554a.425.425,0,0,0,0,.8,1.544,1.544,0,0,0,1.4,0l6.158-3.556A.212.212,0,0,0,1788.988,1308.074Zm-49.517-21.374c-.389.222-.386.581,0,.808a1.573,1.573,0,0,0,1.392,0l6.163-3.558a.641.641,0,0,0,.07-.063l-1.344-.771c-.035.015-.091.009-.123.029Zm2.789,1.607c-.384.231-.386.587,0,.81a1.551,1.551,0,0,0,1.392,0l6.162-3.557c.03-.024.046-.046.073-.067l-1.344-.769c-.041.018-.094.006-.126.027Zm55.865,33.062a1.566,1.566,0,0,0,1.4,0l6.158-3.561c.033-.018.047-.045.073-.061l-1.345-.774c-.035.014-.088.011-.12.028l-6.166,3.559C1797.738,1320.788,1797.74,1321.144,1798.125,1321.369Zm-61.448-36.282c-.385.218-.383.578,0,.806a1.538,1.538,0,0,0,1.39,0l6.166-3.556a.415.415,0,0,0,.068-.066l-1.342-.766a.687.687,0,0,0-.125.023Zm49.523,21.376-1.343-.775c-.038.017-.088.012-.124.031l-6.161,3.558a.423.423,0,0,0,0,.8,1.545,1.545,0,0,0,1.391,0l6.159-3.558C1786.161,1306.5,1786.172,1306.481,1786.2,1306.463Zm-52.316-22.991a.426.426,0,0,0,0,.808,1.53,1.53,0,0,0,1.391,0l6.16-3.555c.033-.021.047-.048.072-.061l-1.34-.773c-.039.015-.092.008-.128.028Z" transform="translate(-1708.115 -1272.777)" fill="#fff" opacity="0.7"/>
    </g>
    <g id="Group_20930" data-name="Group 20930" transform="translate(1668.584 544.598)">
      <path id="Path_48880" data-name="Path 48880" d="M2329.769,547.045c-.972-1.489-2.835-1.815-5-.566l-134.108,77.428a12.639,12.639,0,0,0-5.717,9.9v37.37c0,1.818.64,3.1,1.677,3.692h0l-1.933-1.114v0a4.032,4.032,0,0,1-1.65-3.68l0-37.366a12.621,12.621,0,0,1,5.716-9.894l134.108-77.429c1.582-.912,3.015-1,4.052-.393v0l1.9,1.1A2.929,2.929,0,0,1,2329.769,547.045Z" transform="translate(-2183.038 -544.598)" fill="#fe4a49"/>
      <path id="Path_48881" data-name="Path 48881" d="M2329.769,547.045c-.972-1.489-2.835-1.815-5-.566l-134.108,77.428a12.639,12.639,0,0,0-5.717,9.9v37.37c0,1.818.64,3.1,1.677,3.692h0l-1.933-1.114v0a4.032,4.032,0,0,1-1.65-3.68l0-37.366a12.621,12.621,0,0,1,5.716-9.894l134.108-77.429c1.582-.912,3.015-1,4.052-.393v0l1.9,1.1A2.929,2.929,0,0,1,2329.769,547.045Z" transform="translate(-2183.038 -544.598)" opacity="0.4" style="mix-blend-mode: overlay;isolation: isolate"/>
      <path id="Path_48882" data-name="Path 48882" d="M2193.317,625.439l134.109-77.428c3.157-1.82,5.716-.35,5.721,3.3v37.359a12.652,12.652,0,0,1-5.721,9.9L2193.319,676c-3.154,1.821-5.719.348-5.719-3.29v-37.37A12.64,12.64,0,0,1,2193.317,625.439Z" transform="translate(-2185.694 -546.131)" fill="#fe4a49"/>
      <g id="Group_20929" data-name="Group 20929" transform="translate(13.047 22.953)">
        <path id="Path_48883" data-name="Path 48883" d="M2320.62,611.424a.724.724,0,0,1,.239.137.707.707,0,0,1,.235.138.652.652,0,0,1,.238.136.641.641,0,0,1,.238.137.676.676,0,0,1,.238.139.783.783,0,0,1,.244.139.648.648,0,0,1,.236.138h0a1.024,1.024,0,0,0-.834.122,3.051,3.051,0,0,0-1.37,2.374v8.386a1.019,1.019,0,0,0,.305.776,36.1,36.1,0,0,0-.475-.276,12.123,12.123,0,0,1-.473-.273.552.552,0,0,1-.238-.14.524.524,0,0,1-.238-.133.625.625,0,0,1-.24-.138.873.873,0,0,1-.546-.919V613.79a3.054,3.054,0,0,1,1.364-2.379A.874.874,0,0,1,2320.62,611.424Zm11.811-3.049a1.021,1.021,0,0,1,.829-.125h0a.735.735,0,0,0-.232-.141.864.864,0,0,0-.242-.134.7.7,0,0,0-.239-.136.628.628,0,0,0-.239-.137.592.592,0,0,0-.238-.137.613.613,0,0,0-.237-.139,1.292,1.292,0,0,0-1.309-.152,3.023,3.023,0,0,0-1.371,2.371l0,3.994a.86.86,0,0,0,.542.915.678.678,0,0,0,.237.137.767.767,0,0,0,.238.139.615.615,0,0,0,.24.135.605.605,0,0,0,.239.138,15.858,15.858,0,0,0,.477.275.593.593,0,0,0,.238.138.991.991,0,0,1-.307-.778l0-3.993A3.006,3.006,0,0,1,2332.431,608.375Zm-109.294,71.8c0,.32.142.526.381.547a.664.664,0,0,0,.381-.111,1.36,1.36,0,0,0,.379-.328l7.7-9.573a1.616,1.616,0,0,0,.384-.984c0-.31-.144-.519-.384-.54l-7.695-.68,6.088.538a1.707,1.707,0,0,1-.3.564l-6.935,8.625v1.943Zm47.031-38.049a3,3,0,0,0-1.368,2.365l0,3.994a.866.866,0,0,0,.545.916.727.727,0,0,0,.241.136.624.624,0,0,0,.239.135.679.679,0,0,0,.233.14.607.607,0,0,0,.239.137.692.692,0,0,0,.238.136.653.653,0,0,0,.238.14.572.572,0,0,0,.24.132.98.98,0,0,1-.306-.774v-3.993a3.017,3.017,0,0,1,1.368-2.364,1.029,1.029,0,0,1,.832-.132h0a.738.738,0,0,0-.24-.136.56.56,0,0,0-.237-.134.609.609,0,0,0-.237-.139,84.43,84.43,0,0,0-.477-.275.655.655,0,0,0-.238-.139.675.675,0,0,0-.239-.137A.863.863,0,0,0,2270.168,642.126Zm-15.923,19.159V652.9a3.028,3.028,0,0,1,1.368-2.371.987.987,0,0,1,.832-.126h0a.555.555,0,0,0-.237-.137.662.662,0,0,0-.242-.141.585.585,0,0,0-.238-.135.559.559,0,0,0-.235-.135.586.586,0,0,0-.242-.142.627.627,0,0,0-.241-.136.512.512,0,0,0-.234-.137.861.861,0,0,0-1.067-.014,3.039,3.039,0,0,0-1.37,2.373v8.38a.859.859,0,0,0,.545.92.617.617,0,0,0,.233.139.73.73,0,0,0,.242.137,22.329,22.329,0,0,1,.478.275,18.024,18.024,0,0,0,.475.275.629.629,0,0,0,.239.136h0A.991.991,0,0,1,2254.245,661.285Zm20.587-10.655a.646.646,0,0,0,.234.136.712.712,0,0,0,.239.137.649.649,0,0,0,.241.139.6.6,0,0,0,.236.134,36.759,36.759,0,0,0,.478.276.59.59,0,0,0,.236.139,1,1,0,0,1-.3-.783v-12.78a3.039,3.039,0,0,1,1.373-2.372,1.01,1.01,0,0,1,.826-.125.654.654,0,0,0-.238-.137.57.57,0,0,0-.237-.137.6.6,0,0,0-.236-.137.787.787,0,0,0-.238-.141.767.767,0,0,0-.239-.14.663.663,0,0,0-.242-.134.632.632,0,0,0-.237-.135.858.858,0,0,0-1.068-.013,3.039,3.039,0,0,0-1.37,2.373v12.781A.869.869,0,0,0,2274.832,650.63ZM2285.8,639.9a.716.716,0,0,0,.241.137.732.732,0,0,0,.24.139.649.649,0,0,0,.236.135.68.68,0,0,0,.236.139.784.784,0,0,0,.238.135.7.7,0,0,0,.241.143.705.705,0,0,0,.235.133h0a1.022,1.022,0,0,1-.307-.776l0-3.995a3.023,3.023,0,0,1,1.366-2.365,1.008,1.008,0,0,1,.833-.129.736.736,0,0,0-.236-.135.636.636,0,0,0-.24-.136.614.614,0,0,0-.24-.141.631.631,0,0,0-.237-.137.62.62,0,0,0-.236-.137.646.646,0,0,0-.24-.139.629.629,0,0,0-.24-.135.863.863,0,0,0-1.072-.011,3.021,3.021,0,0,0-1.364,2.365v3.992A.86.86,0,0,0,2285.8,639.9Zm-21.945,21.46a.583.583,0,0,0,.239.141,45.838,45.838,0,0,0,.478.276.67.67,0,0,0,.235.134.641.641,0,0,0,.24.138.516.516,0,0,0,.241.135.585.585,0,0,0,.234.145h0a1.035,1.035,0,0,1-.305-.781V639.967a3.031,3.031,0,0,1,1.372-2.372,1.011,1.011,0,0,1,.83-.126h0a.609.609,0,0,0-.239-.138.642.642,0,0,0-.24-.135.564.564,0,0,0-.239-.138.591.591,0,0,0-.237-.138.631.631,0,0,0-.238-.137.656.656,0,0,0-.238-.137.552.552,0,0,0-.239-.137.856.856,0,0,0-1.066-.014,3.044,3.044,0,0,0-1.374,2.372l.006,21.573A.856.856,0,0,0,2263.855,661.356Zm15.919-23.2,0,3.993a.855.855,0,0,0,.546.914.623.623,0,0,0,.237.14.7.7,0,0,0,.24.137,45.406,45.406,0,0,1,.473.275.65.65,0,0,0,.24.136.657.657,0,0,0,.238.14.691.691,0,0,0,.237.137,1.016,1.016,0,0,1-.306-.78l0-3.992a3,3,0,0,1,1.364-2.362,1,1,0,0,1,.834-.132h0a.648.648,0,0,0-.242-.137.6.6,0,0,0-.237-.136.613.613,0,0,0-.235-.141.708.708,0,0,0-.242-.136.559.559,0,0,0-.231-.135.637.637,0,0,0-.243-.141.662.662,0,0,0-.235-.137.865.865,0,0,0-1.071-.008A3.015,3.015,0,0,0,2279.774,638.154Zm-21.406,21.978a.62.62,0,0,0,.238.138.558.558,0,0,0,.241.136.631.631,0,0,0,.237.14.687.687,0,0,0,.239.137,42.681,42.681,0,0,1,.478.274.674.674,0,0,0,.236.137,1.021,1.021,0,0,1-.308-.781V647.531a3.03,3.03,0,0,1,1.372-2.369,1.011,1.011,0,0,1,.829-.126.673.673,0,0,0-.238-.138.657.657,0,0,0-.237-.136.742.742,0,0,0-.237-.138.717.717,0,0,0-.241-.137.61.61,0,0,0-.239-.138.716.716,0,0,0-.241-.141.709.709,0,0,0-.236-.134.863.863,0,0,0-1.066-.013,3.033,3.033,0,0,0-1.37,2.37v12.782A.869.869,0,0,0,2258.367,660.132Zm-42.2,18.942c0-6.834,4.8-15.141,10.727-18.559,2.9-1.674,5.527-1.855,7.46-.815-.079-.048-.156-.091-.24-.138s-.155-.092-.236-.14-.16-.09-.242-.136-.157-.089-.234-.131-.156-.1-.24-.141-.158-.094-.239-.137l-.236-.142c-1.952-1.191-4.679-1.064-7.7.681-5.924,3.415-10.725,11.724-10.72,18.56,0,3.479,1.251,5.9,3.264,6.993.08.04.156.091.241.134a1.872,1.872,0,0,0,.238.134c.076.051.153.1.237.145s.155.09.237.137.158.09.24.132a2.52,2.52,0,0,0,.237.136c.073.05.158.1.235.141C2217.326,684.779,2216.167,682.417,2216.167,679.073Zm31.225-8.21a.689.689,0,0,0,.243.139.769.769,0,0,0,.235.136.684.684,0,0,0,.238.14.82.82,0,0,0,.235.137.845.845,0,0,0,.241.136.724.724,0,0,0,.239.139.691.691,0,0,0,.237.132,1,1,0,0,1-.305-.778l0-21.579a3,3,0,0,1,1.365-2.361,1.017,1.017,0,0,1,.83-.131.6.6,0,0,0-.233-.135.805.805,0,0,0-.24-.139.706.706,0,0,0-.238-.138.691.691,0,0,0-.242-.138.667.667,0,0,0-.238-.137.582.582,0,0,0-.238-.139.626.626,0,0,0-.237-.134.869.869,0,0,0-1.069-.016,3.055,3.055,0,0,0-1.371,2.376v21.571A.871.871,0,0,0,2247.393,670.864Zm65.844-38.014a.68.68,0,0,0,.237.14.744.744,0,0,0,.239.136.753.753,0,0,0,.239.138.691.691,0,0,0,.244.135.551.551,0,0,0,.236.135.656.656,0,0,0,.235.141.668.668,0,0,0,.235.139h0a1,1,0,0,1-.305-.781l0-21.575a3.028,3.028,0,0,1,1.374-2.371,1.02,1.02,0,0,1,.829-.127.744.744,0,0,0-.239-.137.7.7,0,0,0-.24-.137.625.625,0,0,0-.239-.137.6.6,0,0,0-.238-.137.553.553,0,0,0-.239-.138.7.7,0,0,0-.235-.138.619.619,0,0,0-.238-.138.866.866,0,0,0-1.066-.012,3.036,3.036,0,0,0-1.377,2.372v21.574A.865.865,0,0,0,2313.237,632.849Zm21.948-17.067a.612.612,0,0,0,.236.136,79,79,0,0,1,.48.276.6.6,0,0,0,.237.134.593.593,0,0,0,.237.141.621.621,0,0,0,.236.138.65.65,0,0,0,.24.138,1.008,1.008,0,0,1-.308-.78l.007-12.78a3.028,3.028,0,0,1,1.367-2.379.991.991,0,0,1,.827-.118.5.5,0,0,0-.237-.137.659.659,0,0,0-.236-.141.676.676,0,0,0-.24-.136.581.581,0,0,0-.241-.138.5.5,0,0,0-.238-.136.494.494,0,0,0-.238-.138.56.56,0,0,0-.239-.138.856.856,0,0,0-1.064-.017,3.026,3.026,0,0,0-1.367,2.376l-.006,12.78A.869.869,0,0,0,2335.185,615.782Zm-10.975,8.532a.689.689,0,0,0,.237.136.712.712,0,0,0,.24.138.738.738,0,0,0,.237.14.654.654,0,0,0,.239.136.608.608,0,0,0,.238.138,111.273,111.273,0,0,0,.476.274h0a1,1,0,0,1-.308-.778V607.32a3.029,3.029,0,0,1,1.371-2.371,1.046,1.046,0,0,1,.829-.124.591.591,0,0,0-.237-.136.632.632,0,0,0-.236-.14.642.642,0,0,0-.237-.135.667.667,0,0,0-.239-.14.552.552,0,0,0-.237-.135,31.623,31.623,0,0,1-.477-.278.88.88,0,0,0-1.073-.012,3.033,3.033,0,0,0-1.369,2.371l0,17.181A.857.857,0,0,0,2324.21,624.314Zm-32.924,14.609a.7.7,0,0,0,.241.14.748.748,0,0,0,.238.137.673.673,0,0,0,.237.136.625.625,0,0,0,.239.136.638.638,0,0,0,.236.139.677.677,0,0,0,.237.137.564.564,0,0,0,.241.136h0a1,1,0,0,1-.306-.774v-8.383a3.043,3.043,0,0,1,1.372-2.381.991.991,0,0,1,.826-.122.661.661,0,0,0-.236-.139.681.681,0,0,0-.24-.137.59.59,0,0,0-.238-.135.621.621,0,0,0-.236-.143.577.577,0,0,0-.242-.135.6.6,0,0,0-.238-.135.633.633,0,0,0-.233-.14.873.873,0,0,0-1.07-.012,3.032,3.032,0,0,0-1.369,2.372v8.385A.864.864,0,0,0,2291.287,638.924Zm5.491,1.228a37.472,37.472,0,0,0,.474.278.666.666,0,0,0,.239.138.674.674,0,0,0,.24.136.563.563,0,0,0,.235.134.551.551,0,0,0,.24.133.507.507,0,0,0,.237.14.983.983,0,0,1-.309-.774l0-17.177a3.02,3.02,0,0,1,1.368-2.37,1.011,1.011,0,0,1,.832-.123.646.646,0,0,0-.236-.137.678.678,0,0,0-.238-.141.668.668,0,0,0-.242-.135.615.615,0,0,0-.239-.139.681.681,0,0,0-.235-.138.621.621,0,0,0-.239-.138.658.658,0,0,0-.238-.136.873.873,0,0,0-1.069-.014,3.015,3.015,0,0,0-1.368,2.369l-.006,17.18A.861.861,0,0,0,2296.777,640.151Zm5.489-5.364a.592.592,0,0,0,.237.141.628.628,0,0,0,.239.136.552.552,0,0,0,.237.136,98.738,98.738,0,0,0,.477.275,82.878,82.878,0,0,1,.476.277,1,1,0,0,1-.307-.779V622.191a3.025,3.025,0,0,1,1.375-2.372.967.967,0,0,1,.823-.125h0a.578.578,0,0,0-.238-.138.53.53,0,0,0-.238-.137.548.548,0,0,0-.234-.137.7.7,0,0,0-.241-.144.669.669,0,0,0-.237-.136.549.549,0,0,0-.24-.134.521.521,0,0,0-.242-.136.845.845,0,0,0-1.061-.016,3.032,3.032,0,0,0-1.374,2.375v12.783A.861.861,0,0,0,2302.266,634.787Zm4.941-12.469v3.993a.853.853,0,0,0,.543.909.724.724,0,0,0,.237.144.637.637,0,0,0,.239.134.609.609,0,0,0,.241.139.651.651,0,0,0,.237.139.521.521,0,0,0,.237.132.572.572,0,0,0,.237.138.6.6,0,0,0,.241.138h0a.984.984,0,0,1-.307-.774l.007-3.992a3.015,3.015,0,0,1,1.366-2.371,1.034,1.034,0,0,1,.831-.125h0a.579.579,0,0,0-.237-.136.586.586,0,0,0-.243-.138.634.634,0,0,0-.234-.139.69.69,0,0,0-.242-.135.611.611,0,0,0-.237-.14.562.562,0,0,0-.236-.136.6.6,0,0,0-.238-.137.869.869,0,0,0-1.071-.013A3.031,3.031,0,0,0,2307.207,622.318Z" transform="translate(-2214.266 -599.533)" fill="#fe4a49"/>
      </g>
      <path id="Path_48884" data-name="Path 48884" d="M2320.62,611.424a.724.724,0,0,1,.239.137.707.707,0,0,1,.235.138.652.652,0,0,1,.238.136.641.641,0,0,1,.238.137.676.676,0,0,1,.238.139.783.783,0,0,1,.244.139.648.648,0,0,1,.236.138h0a1.024,1.024,0,0,0-.834.122,3.051,3.051,0,0,0-1.37,2.374v8.386a1.019,1.019,0,0,0,.305.776,36.1,36.1,0,0,0-.475-.276,12.123,12.123,0,0,1-.473-.273.552.552,0,0,1-.238-.14.524.524,0,0,1-.238-.133.625.625,0,0,1-.24-.138.873.873,0,0,1-.546-.919V613.79a3.054,3.054,0,0,1,1.364-2.379A.874.874,0,0,1,2320.62,611.424Zm11.811-3.049a1.021,1.021,0,0,1,.829-.125h0a.735.735,0,0,0-.232-.141.864.864,0,0,0-.242-.134.7.7,0,0,0-.239-.136.628.628,0,0,0-.239-.137.592.592,0,0,0-.238-.137.613.613,0,0,0-.237-.139,1.292,1.292,0,0,0-1.309-.152,3.023,3.023,0,0,0-1.371,2.371l0,3.994a.86.86,0,0,0,.542.915.678.678,0,0,0,.237.137.767.767,0,0,0,.238.139.615.615,0,0,0,.24.135.605.605,0,0,0,.239.138,15.858,15.858,0,0,0,.477.275.593.593,0,0,0,.238.138.991.991,0,0,1-.307-.778l0-3.993A3.006,3.006,0,0,1,2332.431,608.375Zm-109.294,71.8c0,.32.142.526.381.547a.664.664,0,0,0,.381-.111,1.36,1.36,0,0,0,.379-.328l7.7-9.573a1.616,1.616,0,0,0,.384-.984c0-.31-.144-.519-.384-.54l-7.695-.68,6.088.538a1.707,1.707,0,0,1-.3.564l-6.935,8.625v1.943Zm47.031-38.049a3,3,0,0,0-1.368,2.365l0,3.994a.866.866,0,0,0,.545.916.727.727,0,0,0,.241.136.624.624,0,0,0,.239.135.679.679,0,0,0,.233.14.607.607,0,0,0,.239.137.692.692,0,0,0,.238.136.653.653,0,0,0,.238.14.572.572,0,0,0,.24.132.98.98,0,0,1-.306-.774v-3.993a3.017,3.017,0,0,1,1.368-2.364,1.029,1.029,0,0,1,.832-.132h0a.738.738,0,0,0-.24-.136.56.56,0,0,0-.237-.134.609.609,0,0,0-.237-.139,84.43,84.43,0,0,0-.477-.275.655.655,0,0,0-.238-.139.675.675,0,0,0-.239-.137A.863.863,0,0,0,2270.168,642.126Zm-15.923,19.159V652.9a3.028,3.028,0,0,1,1.368-2.371.987.987,0,0,1,.832-.126h0a.555.555,0,0,0-.237-.137.662.662,0,0,0-.242-.141.585.585,0,0,0-.238-.135.559.559,0,0,0-.235-.135.586.586,0,0,0-.242-.142.627.627,0,0,0-.241-.136.512.512,0,0,0-.234-.137.861.861,0,0,0-1.067-.014,3.039,3.039,0,0,0-1.37,2.373v8.38a.859.859,0,0,0,.545.92.617.617,0,0,0,.233.139.73.73,0,0,0,.242.137,22.329,22.329,0,0,1,.478.275,18.024,18.024,0,0,0,.475.275.629.629,0,0,0,.239.136h0A.991.991,0,0,1,2254.245,661.285Zm20.587-10.655a.646.646,0,0,0,.234.136.712.712,0,0,0,.239.137.649.649,0,0,0,.241.139.6.6,0,0,0,.236.134,36.759,36.759,0,0,0,.478.276.59.59,0,0,0,.236.139,1,1,0,0,1-.3-.783v-12.78a3.039,3.039,0,0,1,1.373-2.372,1.01,1.01,0,0,1,.826-.125.654.654,0,0,0-.238-.137.57.57,0,0,0-.237-.137.6.6,0,0,0-.236-.137.787.787,0,0,0-.238-.141.767.767,0,0,0-.239-.14.663.663,0,0,0-.242-.134.632.632,0,0,0-.237-.135.858.858,0,0,0-1.068-.013,3.039,3.039,0,0,0-1.37,2.373v12.781A.869.869,0,0,0,2274.832,650.63ZM2285.8,639.9a.716.716,0,0,0,.241.137.732.732,0,0,0,.24.139.649.649,0,0,0,.236.135.68.68,0,0,0,.236.139.784.784,0,0,0,.238.135.7.7,0,0,0,.241.143.705.705,0,0,0,.235.133h0a1.022,1.022,0,0,1-.307-.776l0-3.995a3.023,3.023,0,0,1,1.366-2.365,1.008,1.008,0,0,1,.833-.129.736.736,0,0,0-.236-.135.636.636,0,0,0-.24-.136.614.614,0,0,0-.24-.141.631.631,0,0,0-.237-.137.62.62,0,0,0-.236-.137.646.646,0,0,0-.24-.139.629.629,0,0,0-.24-.135.863.863,0,0,0-1.072-.011,3.021,3.021,0,0,0-1.364,2.365v3.992A.86.86,0,0,0,2285.8,639.9Zm-21.945,21.46a.583.583,0,0,0,.239.141,45.838,45.838,0,0,0,.478.276.67.67,0,0,0,.235.134.641.641,0,0,0,.24.138.516.516,0,0,0,.241.135.585.585,0,0,0,.234.145h0a1.035,1.035,0,0,1-.305-.781V639.967a3.031,3.031,0,0,1,1.372-2.372,1.011,1.011,0,0,1,.83-.126h0a.609.609,0,0,0-.239-.138.642.642,0,0,0-.24-.135.564.564,0,0,0-.239-.138.591.591,0,0,0-.237-.138.631.631,0,0,0-.238-.137.656.656,0,0,0-.238-.137.552.552,0,0,0-.239-.137.856.856,0,0,0-1.066-.014,3.044,3.044,0,0,0-1.374,2.372l.006,21.573A.856.856,0,0,0,2263.855,661.356Zm15.919-23.2,0,3.993a.855.855,0,0,0,.546.914.623.623,0,0,0,.237.14.7.7,0,0,0,.24.137,45.406,45.406,0,0,1,.473.275.65.65,0,0,0,.24.136.657.657,0,0,0,.238.14.691.691,0,0,0,.237.137,1.016,1.016,0,0,1-.306-.78l0-3.992a3,3,0,0,1,1.364-2.362,1,1,0,0,1,.834-.132h0a.648.648,0,0,0-.242-.137.6.6,0,0,0-.237-.136.613.613,0,0,0-.235-.141.708.708,0,0,0-.242-.136.559.559,0,0,0-.231-.135.637.637,0,0,0-.243-.141.662.662,0,0,0-.235-.137.865.865,0,0,0-1.071-.008A3.015,3.015,0,0,0,2279.774,638.154Zm-21.406,21.978a.62.62,0,0,0,.238.138.558.558,0,0,0,.241.136.631.631,0,0,0,.237.14.687.687,0,0,0,.239.137,42.681,42.681,0,0,1,.478.274.674.674,0,0,0,.236.137,1.021,1.021,0,0,1-.308-.781V647.531a3.03,3.03,0,0,1,1.372-2.369,1.011,1.011,0,0,1,.829-.126.673.673,0,0,0-.238-.138.657.657,0,0,0-.237-.136.742.742,0,0,0-.237-.138.717.717,0,0,0-.241-.137.61.61,0,0,0-.239-.138.716.716,0,0,0-.241-.141.709.709,0,0,0-.236-.134.863.863,0,0,0-1.066-.013,3.033,3.033,0,0,0-1.37,2.37v12.782A.869.869,0,0,0,2258.367,660.132Zm-42.2,18.942c0-6.834,4.8-15.141,10.727-18.559,2.9-1.674,5.527-1.855,7.46-.815-.079-.048-.156-.091-.24-.138s-.155-.092-.236-.14-.16-.09-.242-.136-.157-.089-.234-.131-.156-.1-.24-.141-.158-.094-.239-.137l-.236-.142c-1.952-1.191-4.679-1.064-7.7.681-5.924,3.415-10.725,11.724-10.72,18.56,0,3.479,1.251,5.9,3.264,6.993.08.04.156.091.241.134a1.872,1.872,0,0,0,.238.134c.076.051.153.1.237.145s.155.09.237.137.158.09.24.132a2.52,2.52,0,0,0,.237.136c.073.05.158.1.235.141C2217.326,684.779,2216.167,682.417,2216.167,679.073Zm31.225-8.21a.689.689,0,0,0,.243.139.769.769,0,0,0,.235.136.684.684,0,0,0,.238.14.82.82,0,0,0,.235.137.845.845,0,0,0,.241.136.724.724,0,0,0,.239.139.691.691,0,0,0,.237.132,1,1,0,0,1-.305-.778l0-21.579a3,3,0,0,1,1.365-2.361,1.017,1.017,0,0,1,.83-.131.6.6,0,0,0-.233-.135.805.805,0,0,0-.24-.139.706.706,0,0,0-.238-.138.691.691,0,0,0-.242-.138.667.667,0,0,0-.238-.137.582.582,0,0,0-.238-.139.626.626,0,0,0-.237-.134.869.869,0,0,0-1.069-.016,3.055,3.055,0,0,0-1.371,2.376v21.571A.871.871,0,0,0,2247.393,670.864Zm65.844-38.014a.68.68,0,0,0,.237.14.744.744,0,0,0,.239.136.753.753,0,0,0,.239.138.691.691,0,0,0,.244.135.551.551,0,0,0,.236.135.656.656,0,0,0,.235.141.668.668,0,0,0,.235.139h0a1,1,0,0,1-.305-.781l0-21.575a3.028,3.028,0,0,1,1.374-2.371,1.02,1.02,0,0,1,.829-.127.744.744,0,0,0-.239-.137.7.7,0,0,0-.24-.137.625.625,0,0,0-.239-.137.6.6,0,0,0-.238-.137.553.553,0,0,0-.239-.138.7.7,0,0,0-.235-.138.619.619,0,0,0-.238-.138.866.866,0,0,0-1.066-.012,3.036,3.036,0,0,0-1.377,2.372v21.574A.865.865,0,0,0,2313.237,632.849Zm21.948-17.067a.612.612,0,0,0,.236.136,79,79,0,0,1,.48.276.6.6,0,0,0,.237.134.593.593,0,0,0,.237.141.621.621,0,0,0,.236.138.65.65,0,0,0,.24.138,1.008,1.008,0,0,1-.308-.78l.007-12.78a3.028,3.028,0,0,1,1.367-2.379.991.991,0,0,1,.827-.118.5.5,0,0,0-.237-.137.659.659,0,0,0-.236-.141.676.676,0,0,0-.24-.136.581.581,0,0,0-.241-.138.5.5,0,0,0-.238-.136.494.494,0,0,0-.238-.138.56.56,0,0,0-.239-.138.856.856,0,0,0-1.064-.017,3.026,3.026,0,0,0-1.367,2.376l-.006,12.78A.869.869,0,0,0,2335.185,615.782Zm-10.975,8.532a.689.689,0,0,0,.237.136.712.712,0,0,0,.24.138.738.738,0,0,0,.237.14.654.654,0,0,0,.239.136.608.608,0,0,0,.238.138,111.273,111.273,0,0,0,.476.274h0a1,1,0,0,1-.308-.778V607.32a3.029,3.029,0,0,1,1.371-2.371,1.046,1.046,0,0,1,.829-.124.591.591,0,0,0-.237-.136.632.632,0,0,0-.236-.14.642.642,0,0,0-.237-.135.667.667,0,0,0-.239-.14.552.552,0,0,0-.237-.135,31.623,31.623,0,0,1-.477-.278.88.88,0,0,0-1.073-.012,3.033,3.033,0,0,0-1.369,2.371l0,17.181A.857.857,0,0,0,2324.21,624.314Zm-32.924,14.609a.7.7,0,0,0,.241.14.748.748,0,0,0,.238.137.673.673,0,0,0,.237.136.625.625,0,0,0,.239.136.638.638,0,0,0,.236.139.677.677,0,0,0,.237.137.564.564,0,0,0,.241.136h0a1,1,0,0,1-.306-.774v-8.383a3.043,3.043,0,0,1,1.372-2.381.991.991,0,0,1,.826-.122.661.661,0,0,0-.236-.139.681.681,0,0,0-.24-.137.59.59,0,0,0-.238-.135.621.621,0,0,0-.236-.143.577.577,0,0,0-.242-.135.6.6,0,0,0-.238-.135.633.633,0,0,0-.233-.14.873.873,0,0,0-1.07-.012,3.032,3.032,0,0,0-1.369,2.372v8.385A.864.864,0,0,0,2291.287,638.924Zm5.491,1.228a37.472,37.472,0,0,0,.474.278.666.666,0,0,0,.239.138.674.674,0,0,0,.24.136.563.563,0,0,0,.235.134.551.551,0,0,0,.24.133.507.507,0,0,0,.237.14.983.983,0,0,1-.309-.774l0-17.177a3.02,3.02,0,0,1,1.368-2.37,1.011,1.011,0,0,1,.832-.123.646.646,0,0,0-.236-.137.678.678,0,0,0-.238-.141.668.668,0,0,0-.242-.135.615.615,0,0,0-.239-.139.681.681,0,0,0-.235-.138.621.621,0,0,0-.239-.138.658.658,0,0,0-.238-.136.873.873,0,0,0-1.069-.014,3.015,3.015,0,0,0-1.368,2.369l-.006,17.18A.861.861,0,0,0,2296.777,640.151Zm5.489-5.364a.592.592,0,0,0,.237.141.628.628,0,0,0,.239.136.552.552,0,0,0,.237.136,98.738,98.738,0,0,0,.477.275,82.878,82.878,0,0,1,.476.277,1,1,0,0,1-.307-.779V622.191a3.025,3.025,0,0,1,1.375-2.372.967.967,0,0,1,.823-.125h0a.578.578,0,0,0-.238-.138.53.53,0,0,0-.238-.137.548.548,0,0,0-.234-.137.7.7,0,0,0-.241-.144.669.669,0,0,0-.237-.136.549.549,0,0,0-.24-.134.521.521,0,0,0-.242-.136.845.845,0,0,0-1.061-.016,3.032,3.032,0,0,0-1.374,2.375v12.783A.861.861,0,0,0,2302.266,634.787Zm4.941-12.469v3.993a.853.853,0,0,0,.543.909.724.724,0,0,0,.237.144.637.637,0,0,0,.239.134.609.609,0,0,0,.241.139.651.651,0,0,0,.237.139.521.521,0,0,0,.237.132.572.572,0,0,0,.237.138.6.6,0,0,0,.241.138h0a.984.984,0,0,1-.307-.774l.007-3.992a3.015,3.015,0,0,1,1.366-2.371,1.034,1.034,0,0,1,.831-.125h0a.579.579,0,0,0-.237-.136.586.586,0,0,0-.243-.138.634.634,0,0,0-.234-.139.69.69,0,0,0-.242-.135.611.611,0,0,0-.237-.14.562.562,0,0,0-.236-.136.6.6,0,0,0-.238-.137.869.869,0,0,0-1.071-.013A3.031,3.031,0,0,0,2307.207,622.318Z" transform="translate(-2201.219 -576.581)" opacity="0.4" style="mix-blend-mode: overlay;isolation: isolate"/>
      <path id="Path_48885" data-name="Path 48885" d="M2252.773,648.621a3,3,0,0,0-1.365,2.361l0,21.579c0,.874.613,1.23,1.368.8h0a3.029,3.029,0,0,0,1.377-2.381l0-21.572c0-.868-.614-1.223-1.375-.783Zm10.976-1.943a3.031,3.031,0,0,0-1.372,2.369v12.781c0,.878.616,1.233,1.372.8h0a3.036,3.036,0,0,0,1.372-2.384l0-12.781c0-.867-.615-1.225-1.373-.785Zm-5.487,5.366a3.028,3.028,0,0,0-1.368,2.371V662.8c0,.872.613,1.227,1.368.8h0a3.05,3.05,0,0,0,1.374-2.382V652.83c0-.871-.614-1.229-1.374-.786Zm10.974-12.932a3.03,3.03,0,0,0-1.372,2.371l0,21.576c0,.875.616,1.228,1.371.793h0a3.034,3.034,0,0,0,1.376-2.378l0-21.574c0-.87-.613-1.227-1.374-.789Zm10.976-1.939a3.038,3.038,0,0,0-1.372,2.372v12.78c0,.878.614,1.234,1.371.793h0a3.026,3.026,0,0,0,1.371-2.374l0-12.786c0-.868-.612-1.225-1.373-.785Zm-5.49,7.57a3.016,3.016,0,0,0-1.368,2.363V651.1c0,.874.616,1.226,1.368.792h0a3.033,3.033,0,0,0,1.375-2.376v-3.991c0-.87-.614-1.223-1.375-.78Zm10.971-6.333a3,3,0,0,0-1.364,2.361l0,3.992c0,.873.616,1.227,1.375.791h0a3.022,3.022,0,0,0,1.369-2.377l0-3.99c0-.872-.612-1.223-1.374-.778Zm10.979-8.546a3.043,3.043,0,0,0-1.372,2.381v8.383c0,.872.611,1.225,1.369.788h0a3.031,3.031,0,0,0,1.375-2.378v-8.381c0-.873-.615-1.23-1.372-.793Zm-5.492,5.373a3.023,3.023,0,0,0-1.366,2.365l0,3.995c0,.875.621,1.225,1.375.791h0a3.032,3.032,0,0,0,1.373-2.372l0-3.995c0-.873-.613-1.219-1.375-.784Zm10.976-12.932a3.021,3.021,0,0,0-1.368,2.37l0,17.178c0,.877.615,1.225,1.372.793h0a3.035,3.035,0,0,0,1.376-2.376l0-17.179c0-.871-.615-1.225-1.374-.785Zm10.976.257a3.016,3.016,0,0,0-1.366,2.371l-.007,3.992c0,.878.617,1.225,1.375.789h0a3.038,3.038,0,0,0,1.373-2.378v-3.993c0-.868-.614-1.22-1.373-.782Zm-5.483-1.228a3.026,3.026,0,0,0-1.375,2.372V636.49c0,.868.616,1.23,1.369.791h0a3.031,3.031,0,0,0,1.373-2.377V622.125c0-.872-.613-1.229-1.367-.79Zm16.454-7.308a3.051,3.051,0,0,0-1.37,2.375v8.386c0,.874.619,1.227,1.37.786h0a3,3,0,0,0,1.375-2.372v-8.383c0-.874-.612-1.23-1.375-.791Zm-5.482-3.424a3.028,3.028,0,0,0-1.374,2.371l0,21.575c0,.876.612,1.226,1.372.794h0a3.029,3.029,0,0,0,1.367-2.382l0-21.573c0-.867-.612-1.225-1.372-.785Zm10.969-4.138a3.03,3.03,0,0,0-1.371,2.372v17.178c0,.872.618,1.227,1.374.793h0a3.05,3.05,0,0,0,1.374-2.377l0-17.181c0-.87-.611-1.223-1.373-.785Zm10.976-4.143a3.029,3.029,0,0,0-1.367,2.379l-.007,12.78c0,.88.617,1.232,1.373.8h0a3.068,3.068,0,0,0,1.376-2.382l0-12.783c0-.869-.613-1.226-1.372-.793Zm-5.486,7.57a3.006,3.006,0,0,0-1.368,2.369l0,3.993c0,.876.612,1.228,1.371.791h0a3.035,3.035,0,0,0,1.371-2.378v-3.987c0-.874-.612-1.228-1.371-.788ZM2229.543,662.03c-5.923,3.419-10.728,11.725-10.727,18.559s4.806,9.6,10.724,6.177,10.729-11.73,10.728-18.559S2235.466,658.61,2229.543,662.03Zm5.081,10.2-7.7,9.573a1.362,1.362,0,0,1-.379.328.663.663,0,0,1-.381.111c-.239-.022-.376-.227-.381-.547V671.441a1.651,1.651,0,0,1,.381-.982.97.97,0,0,1,.762-.438l7.695.68c.24.022.384.231.384.54A1.616,1.616,0,0,1,2234.624,672.226Z" transform="translate(-2203.868 -578.096)" fill="#fff"/>
    </g>
    <g id="Group_20935" data-name="Group 20935" transform="translate(1762.816 559.136)">
      <g id="Group_20934" data-name="Group 20934" transform="translate(0 0)">
        <path id="Path_48886" data-name="Path 48886" d="M2678.851,1300.556h0a7.14,7.14,0,0,1-7.118-7.122v-23.011a7.12,7.12,0,0,1,14.24,0v23.011A7.142,7.142,0,0,1,2678.851,1300.556Z" transform="translate(-2561.782 -977.557)" fill="url(#linear-gradient-34)"/>
        <path id="Path_48887" data-name="Path 48887" d="M2671.733,1283.8v21.568a7.138,7.138,0,0,0,5.607,6.951v-21.573A7.136,7.136,0,0,0,2671.733,1283.8Z" transform="translate(-2561.782 -989.489)" opacity="0.3" style="mix-blend-mode: overlay;isolation: isolate"/>
        <path id="Path_48888" data-name="Path 48888" d="M2678.948,1341.282a8.043,8.043,0,0,1-7.05-4.245,7.079,7.079,0,0,0,14.1,0A8.055,8.055,0,0,1,2678.948,1341.282Z" transform="translate(-2561.878 -1020.484)" opacity="0.3" style="mix-blend-mode: overlay;isolation: isolate"/>
        <path id="Path_48889" data-name="Path 48889" d="M2678.851,1263.3a7.141,7.141,0,0,0-7.118,7.119v15.137a8.4,8.4,0,0,0,6.568,3.312,9.511,9.511,0,0,0,7.672-3.724v-14.724A7.143,7.143,0,0,0,2678.851,1263.3Z" transform="translate(-2561.782 -977.557)" opacity="0.3" style="mix-blend-mode: overlay;isolation: isolate"/>
        <g id="Group_20931" data-name="Group 20931" transform="translate(39.54 305.533)">
          <path id="Path_48890" data-name="Path 48890" d="M2542.54,1316.012s5.984,15.029.549,17.939-10.229-.237-16.289-2.672-15.9-7.083-17.787-7.951-6.378-3.267-5.743-8.339c.627-5.044,8.578-5.273,19.047-2.754S2542.54,1316.012,2542.54,1316.012Z" transform="translate(-2503.21 -1310.663)" fill="url(#linear-gradient-35)"/>
          <path id="Path_48891" data-name="Path 48891" d="M2561.5,1317.271l-.117,3.421a8.4,8.4,0,0,0,6.888,8.742,9.572,9.572,0,0,0,9.819-4.342,53.285,53.285,0,0,0-1.689-5.233S2569.726,1318.993,2561.5,1317.271Z" transform="translate(-2537.069 -1314.51)" opacity="0.3" style="mix-blend-mode: overlay;isolation: isolate"/>
          <path id="Path_48892" data-name="Path 48892" d="M2533.144,1317.281s-1.063-1.364-2.828-3.314c-2.508-.492-5.226-1.066-8-1.732-10.47-2.519-18.42-2.29-19.047,2.754-.635,5.073,3.855,7.476,5.743,8.339s11.724,5.512,17.787,7.951c2.822,1.136,5.372,2.42,7.839,3.177C2538.327,1330.322,2533.144,1317.281,2533.144,1317.281Z" transform="translate(-2503.21 -1310.663)" opacity="0.3" style="mix-blend-mode: overlay;isolation: isolate"/>
          <path id="Path_48893" data-name="Path 48893" d="M2543.132,1338.922c-5.427,2.908-10.228-.237-16.289-2.676s-15.9-7.081-17.787-7.951c-1.649-.751-5.261-2.677-5.747-6.515-.4,4.841,3.9,7.172,5.747,8.02,1.889.868,11.724,5.512,17.787,7.952s10.861,5.584,16.289,2.672c1.883-1,2.377-3.474,2.245-6.26C2545.269,1336.3,2544.67,1338.1,2543.132,1338.922Z" transform="translate(-2503.253 -1317.135)" opacity="0.3" style="mix-blend-mode: overlay;isolation: isolate"/>
        </g>
        <path id="Path_48894" data-name="Path 48894" d="M2660.5,931.324l-1.724,152.589a9.573,9.573,0,0,1-9.711,9.484,8.4,8.4,0,0,1-8.237-7.481l-19.312-147.9Z" transform="translate(-2532.548 -784.283)" fill="url(#linear-gradient-36)"/>
        <path id="Path_48895" data-name="Path 48895" d="M2615.133,977.9a26.766,26.766,0,0,0,2.012-10.238,25.949,25.949,0,0,0-3.987-14.034l-1.008-12.4-14.848,2.556.155,1.2c-9.775.685-17.534,10.56-17.534,22.68,0,12.557,8.331,22.742,18.6,22.742a15.415,15.415,0,0,0,4.758-.778l13.328,102.056a8.4,8.4,0,0,0,8.237,7.481c.049,0,.094-.015.142-.015Z" transform="translate(-2508.331 -790.051)" opacity="0.2" style="mix-blend-mode: overlay;isolation: isolate"/>
        <path id="Path_48896" data-name="Path 48896" d="M2607.742,954.063A26.438,26.438,0,0,0,2604.889,942l1.453-8.707-9.583.039a15.474,15.474,0,0,0-15.364.065l-14.614.063-5.4,160.335a8.4,8.4,0,0,0,6.888,8.739,9.567,9.567,0,0,0,11.141-7.746l20.36-122.08C2604.583,968.6,2607.742,961.785,2607.742,954.063Z" transform="translate(-2497.529 -784.283)" fill="url(#linear-gradient-37)"/>
        <path id="Path_48897" data-name="Path 48897" d="M2568.5,1103.515l12.284-159.956,24.149.938,1.41-8.456-39.561.167-5.4,160.335a8.4,8.4,0,0,0,6.888,8.739,2.593,2.593,0,0,0,.26.022A8.749,8.749,0,0,1,2568.5,1103.515Z" transform="translate(-2497.529 -787.029)" opacity="0.2" style="mix-blend-mode: overlay;isolation: isolate"/>
        <path id="Path_48898" data-name="Path 48898" d="M2607.723,934.485c-5.577-11.211-18.014.135-32.469.135a47.83,47.83,0,0,0-5.263.287l-.2,2.426c1.251,5.486,6.282,9.407,12.564,10.794,11.776,2.607,40-1.173,47.974-12.342l.059-5.5Z" transform="translate(-2502.432 -783.243)" opacity="0.3" style="mix-blend-mode: overlay;isolation: isolate"/>
        <path id="Path_48899" data-name="Path 48899" d="M2689.218,712.2c-4.186,6.691-1.548,16.648-2.017,29.9s.4,25.7,2.862,30.456c5.024,9.713,10.274,7.454,14.313.12,7.529-13.67,12.162-51.34-3.545-61.544C2697,708.645,2692.668,708.487,2689.218,712.2Z" transform="translate(-2570.558 -655.041)" fill="#4983e7"/>
        <path id="Path_48900" data-name="Path 48900" d="M2689.218,712.2c-4.186,6.691-1.548,16.648-2.017,29.9s.4,25.7,2.862,30.456c5.024,9.713,10.274,7.454,14.313.12,7.529-13.67,12.162-51.34-3.545-61.544C2697,708.645,2692.668,708.487,2689.218,712.2Z" transform="translate(-2570.558 -655.041)" opacity="0.3" style="mix-blend-mode: overlay;isolation: isolate"/>
        <g id="Group_20932" data-name="Group 20932" transform="translate(81.45)">
          <path id="Path_48901" data-name="Path 48901" d="M2616.671,653.29c.991,6.1-.178,18.957-6.168,21.435s7.029,6.037,12.414,5.633,24.5-4.311,21.81-8.218-.018-5.16-2.287-4.981-6.868-4.981-7.135-21.811S2615.6,646.706,2616.671,653.29Z" transform="translate(-2606.689 -613.745)" fill="#f7b6b2"/>
          <path id="Path_48902" data-name="Path 48902" d="M2617.253,590.55c-6.334,0-6.69-.849-10.274,4.375-1.294,1.889-2.847,6.725-2.077,9.291,1.537,5.113-1.656,7.933-1.363,12.592.41,6.447,2.256,22.638,23.091,10.5,10.276-5.985-4.577-9.082-8.549-16.791C2614.246,603.079,2621.322,590.55,2617.253,590.55Z" transform="translate(-2603.52 -585.859)" fill="#f7b6b2"/>
          <path id="Path_48903" data-name="Path 48903" d="M2604.054,621.167c-.008-.048-.02-.1-.025-.147a39.7,39.7,0,0,1-.469-4.213c-.014-.221.014-.425.015-.638l0,0c.012-3.065,1.434-5.387,1.706-8.25.007-.089.027-.173.033-.262a10.073,10.073,0,0,0-.018-1.2c-.008-.156.006-.3-.012-.452a10.129,10.129,0,0,0-.363-1.783c-.77-2.566.782-7.4,2.077-9.291,3.584-5.224,3.94-4.375,10.274-4.375,4.069,0-3.007,12.529.827,19.965a10.159,10.159,0,0,0,.936,1.438c.156.214.31.421.479.625a.132.132,0,0,0,.021.029c.37.441.75.882,1.166,1.288v.005h0c.026-.025.054-.046.079-.066.6-.487,1.2-.945,1.814-1.348.021-.014.035-.027.054-.039a15.369,15.369,0,0,1,1.924-1.084l0,0c-.381,3.791-.659,7.149-.754,9.962-.3,9-1.53,20.929,6.117,29.353-.5.123-1,.232-1.5.348a.7.7,0,0,0-.075.013c-.434.1-.862.192-1.292.281a1.242,1.242,0,0,1-.163.032h0c-.424.092-.841.169-1.256.25-.121.027-.24.049-.359.071-.381.068-.759.142-1.127.2-.026,0-.065.014-.1.019-.387.068-.761.126-1.124.183-.1.015-.2.033-.295.043-.3.046-.6.092-.882.129-.046.01-.1.018-.149.023-.3.043-.566.072-.826.1-.039.007-.078.013-.119.017l-.156.012c-.272.03-.528.057-.753.073-5.385.4-18.4-3.158-12.414-5.633a5.585,5.585,0,0,0,.848-.444c.053-.035.109-.078.163-.117a5.665,5.665,0,0,0,.633-.482c.044-.038.088-.084.131-.121a7.137,7.137,0,0,0,.613-.628.849.849,0,0,0,.072-.079,8.812,8.812,0,0,0,.621-.811l0,0c.027-.035.048-.071.069-.1.072-.107.146-.206.214-.313a.086.086,0,0,1,.015-.028.159.159,0,0,1,.025-.041c.207-.342.4-.7.583-1.07.05-.1.1-.2.15-.3.15-.328.295-.664.43-1.013.031-.083.07-.165.1-.251.158-.427.312-.87.448-1.321.025-.091.05-.18.077-.27.106-.368.207-.749.3-1.13.032-.135.061-.266.1-.4q.138-.615.256-1.243c.011-.066.028-.125.037-.189.089-.489.164-.983.233-1.479.015-.1.023-.2.036-.3.053-.411.1-.832.136-1.242.01-.095.022-.192.029-.289.042-.5.078-.993.1-1.48h0v-.015a.932.932,0,0,0-.106,0C2607.161,631.509,2604.9,625.948,2604.054,621.167Z" transform="translate(-2603.54 -585.859)" opacity="0.15" style="mix-blend-mode: overlay;isolation: isolate"/>
          <path id="Path_48904" data-name="Path 48904" d="M2604.054,621.172c-.008-.048-.02-.1-.025-.147a39.7,39.7,0,0,1-.469-4.213c-.014-.221.014-.425.015-.638l0,0a18.5,18.5,0,0,1,1.059-5.246,11.478,11.478,0,0,0,.516-5.572c0-.01,0-.012,0-.024a7.083,7.083,0,0,0-.229-1.107c-.77-2.566.782-7.4,2.077-9.291.309-.447.584-.837.854-1.2.058-.076.114-.149.164-.225.27-.359.525-.681.762-.961,0-.006,0-.006.007-.008a8.4,8.4,0,0,1,.688-.722c.031-.026.057-.056.089-.082a5.033,5.033,0,0,1,.671-.518.063.063,0,0,1,.033-.017,3.366,3.366,0,0,1,.671-.335c.02-.01.04-.018.057-.026a4.672,4.672,0,0,1,.748-.2.047.047,0,0,1,.019,0c.024,0,.047,0,.068-.01a7.553,7.553,0,0,1,.829-.091.223.223,0,0,0,.043,0h.007c.323-.013.672-.018,1.059-.018a11.893,11.893,0,0,0-2.354,2.773c-2.542,4.642-4.936,7.542-4.128,12.387s-3.358,8.614-.157,16.152,10,2.157,9.747,7.45c-.149,3.039-.3,14.04-1.93,22.881a.222.222,0,0,1-.048-.009c-.206-.032-.407-.073-.615-.107-.154-.027-.309-.055-.46-.086-.034-.009-.069-.013-.1-.024-.247-.046-.49-.1-.731-.148-.178-.038-.354-.076-.532-.12-.4-.092-.806-.2-1.2-.306-.2-.056-.393-.109-.584-.165s-.361-.115-.544-.175-.383-.124-.565-.186-.341-.12-.5-.183c-.208-.076-.4-.155-.591-.239a3.737,3.737,0,0,1-.376-.158c-.258-.113-.493-.232-.714-.351-.033-.017-.074-.033-.106-.05-.059-.035-.1-.066-.153-.1-.036-.015-.056-.041-.093-.058-.152-.1-.3-.194-.429-.3a2,2,0,0,1-.179-.144,2.323,2.323,0,0,1-.32-.332c-.034-.044-.07-.082-.1-.124-.043-.072-.051-.145-.085-.213a1.089,1.089,0,0,1-.094-.255c0-.011,0-.019,0-.027a.755.755,0,0,1,.083-.31c.016-.041.008-.079.031-.117a1.333,1.333,0,0,1,.084-.124,1.83,1.83,0,0,1,.258-.255c.032-.026.05-.052.083-.083.054-.041.107-.084.168-.129a4.849,4.849,0,0,1,.826-.432,5.585,5.585,0,0,0,.848-.444c.053-.035.109-.078.163-.117a5.673,5.673,0,0,0,.633-.482c.044-.038.088-.084.131-.121a7.128,7.128,0,0,0,.613-.628.841.841,0,0,0,.072-.079,8.812,8.812,0,0,0,.621-.811l0,0c.027-.035.048-.071.069-.1.072-.107.146-.206.214-.313a.086.086,0,0,1,.015-.028.159.159,0,0,1,.025-.041c.207-.342.4-.7.583-1.07.05-.1.1-.2.15-.3.15-.328.295-.663.43-1.013.031-.083.07-.165.1-.251.158-.427.312-.87.448-1.321.025-.091.05-.18.077-.27.106-.368.207-.749.3-1.13.032-.135.061-.266.1-.4q.138-.616.256-1.243c.011-.066.028-.125.037-.189.089-.489.164-.983.233-1.479.015-.1.023-.2.036-.3.053-.411.1-.832.136-1.242.01-.095.022-.192.029-.289.042-.5.078-.993.1-1.48h0v-.015a.932.932,0,0,0-.106,0C2607.161,631.514,2604.9,625.953,2604.054,621.172Z" transform="translate(-2603.54 -585.864)" opacity="0.15" style="mix-blend-mode: overlay;isolation: isolate"/>
          <path id="Path_48905" data-name="Path 48905" d="M2625.132,579.394c11.725,0,21.954,4.041,21.954,19.657s-7.936,15.311-8.752,19.681c-1.43,7.672-12.563,4.822-13.64.508s-.806-10.712-3.724-12.114c-5.145-2.465-2.727,3.827-4.883,3.555s1.178-4.988-1.572-7.63c-4.032-3.867-1.3-8.924-1.659-11.035a5.316,5.316,0,0,0-2.082-2.658C2607.581,586.882,2613.143,579.394,2625.132,579.394Z" transform="translate(-2607.226 -579.394)" fill="url(#linear-gradient-38)"/>
          <path id="Path_48906" data-name="Path 48906" d="M2610.773,589.36a5.316,5.316,0,0,1,2.082,2.658c.36,2.11-2.373,7.168,1.659,11.035,2.75,2.642-.583,7.365,1.572,7.63s-.261-6.019,4.883-3.555c2.919,1.4,2.649,7.809,3.724,12.114s12.21,7.164,13.64-.508c.593-3.166,4.918-3.907,7.257-10.009-3.99,7.736-15.449,9.919-17.108,2.1-3.1-14.629,1.817-13.383-9.122-24.327-3.105-3.1,4.67-6.066,11.66-6.692a41.151,41.151,0,0,0-5.89-.409C2613.143,579.394,2607.581,586.882,2610.773,589.36Z" transform="translate(-2607.226 -579.394)" opacity="0.2" style="mix-blend-mode: overlay;isolation: isolate"/>
        </g>
        <path id="Path_48907" data-name="Path 48907" d="M2639.445,727.929c0-8.6-2.067-14.174-5.735-17.284-9.394-7.959-32.275-.959-42.939,2.6-9.314,3.1-18.234,7.3-21.607,12.427l-.052,50.2-.045,26.98c-.015,6.9,5.591,11.9,12.866,13.506,13.782,3.048,50.119-2.638,50.119-18.7-1.489-10.055-5.244-24.285.57-41.377C2636.841,743.9,2639.445,734.617,2639.445,727.929Z" transform="translate(-2502.011 -653.68)" fill="#4983e7"/>
        <g id="Group_20933" data-name="Group 20933" transform="translate(0 23.047)">
          <path id="Path_48908" data-name="Path 48908" d="M2430.658,671.445a79.844,79.844,0,0,1-7.1-6.542c-1.17-1.162-.318-3.524-.318-5.73s-1.194-3.65-1.194-5.348,2.488-3.744,1.762-4.468c-1.409-1.405-3.271.943-3.271.943a44.493,44.493,0,0,1-.822-7.115c0-3.02-.129-5.226-.757-5.854s-1.7,0-1.7,0,.252-2.774-1.446-2.774-1.637,2.585-1.637,2.585a1.937,1.937,0,0,0-2.142,1.817,28.332,28.332,0,0,0-.437,3.4,3.126,3.126,0,0,0-2.021,2.713c-.184,2.136-.184,7.677-.686,9.315a14.931,14.931,0,0,0,.686,8.313c1.2,3.46,1.642,6.042,3.595,6.924s5.544,6.138,7.043,8.77,5.918,1.024,7.989-.568S2432.628,672.895,2430.658,671.445Z" transform="translate(-2408.575 -634.556)" fill="#f7b6b2"/>
          <path id="Path_48909" data-name="Path 48909" d="M2420.218,689.55c-1.5-2.631-5.1-7.887-7.043-8.769s-2.395-3.464-3.595-6.924a14.931,14.931,0,0,1-.686-8.313c.5-1.637.5-7.178.686-9.315a3.08,3.08,0,0,1,1.609-2.516c-.282,5.845-1.426,20.038,2.029,23.335,3.472,3.326,9.619,4.829,14.555,12.226C2425.583,690.749,2421.63,692.016,2420.218,689.55Z" transform="translate(-2408.575 -645.709)" opacity="0.3" style="mix-blend-mode: overlay;isolation: isolate"/>
        </g>
        <path id="Path_48910" data-name="Path 48910" d="M2429.26,706.748a5.294,5.294,0,0,1,6.918.955l15.771,18.063a3.727,3.727,0,0,0,3.472,1.23l21.369-3.454c7.346-1.3,13.439-4.341,18.942-6.608a9.965,9.965,0,0,1,1.3-.441,90.93,90.93,0,0,1,9.887-3.9c10.664-3.564,33.545-10.563,42.939-2.6,3.668,3.11,5.735,8.679,5.735,17.284,0,6.688-2.6,15.966-6.823,28.361-5.814,17.092-2.059,31.323-.57,41.377,0,16.059-36.336,21.744-50.119,18.7-6.369-1.406-11.455-5.4-12.62-11.009-1.125-3.35-.506-10.765-.506-16.565,0-6.73-.613-14.145-1.286-21.517-.941-10.453-4.06-20.687-13.965-19.5-.138.017-.268.013-.4.021l-9.22,1.563a17.3,17.3,0,0,1-17.375-6.979l-15.933-21.687A9.4,9.4,0,0,1,2429.26,706.748Z" transform="translate(-2418.159 -653.029)" fill="#4983e7"/>
        <path id="Path_48911" data-name="Path 48911" d="M2426.712,709.933c5.292,4.266,6.847,7.03,12,13.515,5.648,7.105,13.968,4.65,18.3,3.939l19.8-3.2c7.339-1.3,13.424-4.334,18.927-6.6a9.965,9.965,0,0,1,1.3-.441,90.942,90.942,0,0,1,9.887-3.9c10.664-3.564,33.545-10.563,42.939-2.6a13.317,13.317,0,0,1,3.011,3.818c-9.641-7.412-31.985-.6-42.494,2.911a88.685,88.685,0,0,0-11.235,4.531,3.77,3.77,0,0,0-2.038,1.944c0,.005,0,.007.007.007-.983,2.256.345,5.652,2.006,9.151.126.209.232.443.356.661.225.4.457.793.668,1.226.012.029.026.064.038.094q.457.955.857,2v0c4.439,11.786,3.418,31.445.556,39.853-5.546,16.313-2.384,30.015-.79,39.97h-.005c-.974-.117-1.883-.264-2.716-.451-6.369-1.406-11.455-5.4-12.62-11.009-1.124-3.35-.506-10.765-.506-16.565,0-6.73-.614-14.145-1.286-21.517-.941-10.453-4.06-20.687-13.965-19.5-.138.017-.268.013-.4.021l-9.22,1.563a17.3,17.3,0,0,1-17.375-6.979l-15.933-21.687A9.383,9.383,0,0,1,2426.712,709.933Z" transform="translate(-2418.167 -653.68)" opacity="0.3" style="mix-blend-mode: overlay;isolation: isolate"/>
        <path id="Path_48912" data-name="Path 48912" d="M2640.552,692.045c1.206,2.31,3.288,5.483,5.289,6.252-.342,7.763-20.582,11.161-31.709,7.145a18.568,18.568,0,0,0,5.038-9.476C2630.2,699.321,2640.287,694.371,2640.552,692.045Z" transform="translate(-2528.247 -644.978)" fill="url(#linear-gradient-39)"/>
      </g>
    </g>
  </g>
</svg>
