<svg xmlns="http://www.w3.org/2000/svg" xmlns:xlink="http://www.w3.org/1999/xlink" width="96" height="96" viewBox="0 0 96 96">
  <defs>
    <linearGradient id="linear-gradient" x1="0.5" x2="0.5" y2="1" gradientUnits="objectBoundingBox">
      <stop offset="0" stop-color="#5ea2ef"/>
      <stop offset="1" stop-color="#d12d9c"/>
    </linearGradient>
  </defs>
  <g id="Group_21699" data-name="Group 21699" transform="translate(-1090 -1645)">
    <g id="_4047399_business_for_goal_reach_reason_icon" data-name="4047399_business_for_goal_reach_reason_icon" transform="translate(930.539 1520.383)">
      <path id="Path_48775" data-name="Path 48775" d="M187.13,661.7a1.968,1.968,0,0,0,1.968,1.968h14.293a1.653,1.653,0,0,1,.056-.425c.04-.15.075-.3.1-.455a3.5,3.5,0,0,1,3.433-2.842h1.338a3.5,3.5,0,0,1,3.433,2.842c.029.152.064.305.1.455a1.652,1.652,0,0,1,.056.425H226.21a1.968,1.968,0,0,0,1.968-1.968v-3.029H187.13Z" transform="translate(0 -476.6)" fill="url(#linear-gradient)"/>
      <path id="Path_48776" data-name="Path 48776" d="M463.311,703.115h-1.339a1.857,1.857,0,0,0-1.822,1.511q-.055.289-.131.571h5.245q-.076-.282-.131-.571A1.857,1.857,0,0,0,463.311,703.115Z" transform="translate(-254.988 -518.125)" fill="url(#linear-gradient)"/>
      <path id="Path_48777" data-name="Path 48777" d="M373.092,763.525a8.031,8.031,0,0,1-3.975-3.672h-6.526a8.032,8.032,0,0,1-3.975,3.672h0a5.057,5.057,0,0,0-2.1,1.662.421.421,0,0,0,.339.67h17.992a.421.421,0,0,0,.339-.67A5.057,5.057,0,0,0,373.092,763.525Z" transform="translate(-158.201 -571.141)" fill="url(#linear-gradient)"/>
      <path id="Path_48778" data-name="Path 48778" d="M402.575,206.285l-.9,3.718a.015.015,0,0,1,0,.005l-.9,3.717a.819.819,0,0,0,.529.968l5.687,1.967a.82.82,0,0,0,.268.045h.008a.82.82,0,0,0,.268-.045l5.687-1.967a.819.819,0,0,0,.529-.968l-1.811-7.444v-.005l-1.291-5.307a.859.859,0,0,0,.134-.02.82.82,0,0,0,.6-.991l-.983-4.04a.819.819,0,0,0-.8-.626h-1.519v-2.154a1.6,1.6,0,1,0-1.648.005v2.148H404.91a.819.819,0,0,0-.8.626l-.983,4.04a.821.821,0,0,0,.6.991.877.877,0,0,0,.134.02l-1.29,5.3Zm5.5-9.352h.874l.584,2.4h-1.458Zm0,4.04h.874l.3,1.237-1.175.407Zm0,3.378,1.565-.541.517,2.126-2.081.72Zm0,4.04,2.47-.854.518,2.125-2.988,1.033Zm0,4.04,3.377-1.168.517,2.125-3.894,1.347Zm-1.648-9.814-1.175-.406.3-1.237h.874Zm-.874-5.683h.874v2.4H404.97Zm-.69,6.877,1.565.541v2.3l-2.081-.72Zm-.906,3.726,2.47.854v2.3l-2.988-1.033Zm2.47,4.894v2.3l-3.894-1.347.517-2.125Z" transform="translate(-199.599 -38.833)" fill="url(#linear-gradient)"/>
      <path id="Path_48779" data-name="Path 48779" d="M226.21,342.275H213.44a2.442,2.442,0,0,1-.359,1.279,2.516,2.516,0,0,1-.178.256l2.833,11.65a2.449,2.449,0,0,1-1.586,2.906l-5.687,1.967a2.442,2.442,0,0,1-.8.135h-.008a2.449,2.449,0,0,1-.8-.135l-5.687-1.967a2.449,2.449,0,0,1-1.586-2.906l2.834-11.652a2.464,2.464,0,0,1-.538-1.534H189.1a2.13,2.13,0,0,0-1.968,2.262V361.39h41.048V344.537A2.13,2.13,0,0,0,226.21,342.275Zm-36.166,6.95h1.881a.82.82,0,0,1,0,1.64h-1.881a.82.82,0,0,1,0-1.64Zm1.881,7.7h-1.881a.82.82,0,1,1,0-1.64h1.881a.82.82,0,1,1,0,1.64Zm5.9-3.029h-7.785a.82.82,0,1,1,0-1.64h7.785a.82.82,0,1,1,0,1.64Zm27.437,3.029h-1.881a.82.82,0,1,1,0-1.64h1.881a.82.82,0,1,1,0,1.64Zm0-3.029H217.48a.82.82,0,1,1,0-1.64h7.785a.82.82,0,1,1,0,1.64Zm0-3.028h-1.881a.82.82,0,0,1,0-1.64h1.881a.82.82,0,0,1,0,1.64Z" transform="translate(0 -180.955)" fill="url(#linear-gradient)"/>
      <path id="Path_48780" data-name="Path 48780" d="M420.581,154.695a.82.82,0,0,0,.82-.82,3.619,3.619,0,0,1,7.238,0,.82.82,0,1,0,1.64,0,5.259,5.259,0,1,0-10.518,0A.82.82,0,0,0,420.581,154.695Z" transform="translate(-217.371 0)" fill="url(#linear-gradient)"/>
    </g>
    <g id="Path_48783" data-name="Path 48783" transform="translate(1090 1645)" fill="none">
      <path d="M48,0A48,48,0,1,1,0,48,48,48,0,0,1,48,0Z" stroke="none"/>
      <path d="M 48 2 C 41.78915786743164 2 35.76515579223633 3.215957641601562 30.09534454345703 5.614082336425781 C 24.61792755126953 7.930831909179688 19.69828796386719 11.24788665771484 15.47308349609375 15.47308349609375 C 11.24788665771484 19.69828796386719 7.930831909179688 24.61792755126953 5.614082336425781 30.09534454345703 C 3.215957641601562 35.76515579223633 2 41.78915786743164 2 48 C 2 54.21084213256836 3.215957641601562 60.23484420776367 5.614082336425781 65.90465545654297 C 7.930831909179688 71.38207244873047 11.24788665771484 76.30171203613281 15.47308349609375 80.52691650390625 C 19.69828796386719 84.75211334228516 24.61792755126953 88.06916809082031 30.09534454345703 90.38591766357422 C 35.76515579223633 92.78404235839844 41.78915786743164 94 48 94 C 54.21084213256836 94 60.23484420776367 92.78404235839844 65.90465545654297 90.38591766357422 C 71.38207244873047 88.06916809082031 76.30171203613281 84.75211334228516 80.52691650390625 80.52691650390625 C 84.75211334228516 76.30171203613281 88.06916809082031 71.38207244873047 90.38591766357422 65.90465545654297 C 92.78404235839844 60.23484420776367 94 54.21084213256836 94 48 C 94 41.78915786743164 92.78404235839844 35.76515579223633 90.38591766357422 30.09534454345703 C 88.06916809082031 24.61792755126953 84.75211334228516 19.69828796386719 80.52691650390625 15.47308349609375 C 76.30171203613281 11.24788665771484 71.38207244873047 7.930831909179688 65.90465545654297 5.614082336425781 C 60.23484420776367 3.215957641601562 54.21084213256836 2 48 2 M 48 0 C 74.50967407226562 0 96 21.49032592773438 96 48 C 96 74.50967407226562 74.50967407226562 96 48 96 C 21.49032592773438 96 0 74.50967407226562 0 48 C 0 21.49032592773438 21.49032592773438 0 48 0 Z" stroke="none" fill="#6b94e5"/>
    </g>
  </g>
</svg>
