<svg xmlns="http://www.w3.org/2000/svg" xmlns:xlink="http://www.w3.org/1999/xlink" width="96" height="96" viewBox="0 0 96 96">
  <defs>
    <linearGradient id="linear-gradient" x1="0.5" x2="0.5" y2="1" gradientUnits="objectBoundingBox">
      <stop offset="0" stop-color="#5ea2ef"/>
      <stop offset="1" stop-color="#d12d9c"/>
    </linearGradient>
  </defs>
  <g id="Group_21698" data-name="Group 21698" transform="translate(-733 -1645)">
    <g id="Icon_ionic-ios-create" data-name="Icon ionic-ios-create" transform="translate(759.75 1671.41)">
      <g id="Group_20892" data-name="Group 20892" transform="translate(16.603 3.375)">
        <path id="Path_48772" data-name="Path 48772" d="M31.517,6.082,14.259,23.34a.672.672,0,0,0-.2.478v2.264a.676.676,0,0,0,.675.675h2.247a.692.692,0,0,0,.487-.2L34.738,9.3a.676.676,0,0,0,0-.957L32.474,6.082A.676.676,0,0,0,31.517,6.082Z" transform="translate(-14.063 -2.835)" fill="url(#linear-gradient)"/>
        <path id="Path_48773" data-name="Path 48773" d="M34.2,5l-1.23-1.23-.017-.017a1.51,1.51,0,0,0-.983-.376,1.48,1.48,0,0,0-.991.384l-.965.974a.346.346,0,0,0,0,.478L30.9,6.1l1.854,1.854a.34.34,0,0,0,.487,0l.965-.965A1.457,1.457,0,0,0,34.583,6,1.546,1.546,0,0,0,34.2,5Z" transform="translate(-10.652 -3.375)" fill="url(#linear-gradient)"/>
      </g>
      <path id="Path_48774" data-name="Path 48774" d="M20.875,27.364a1.372,1.372,0,0,1-.965.4H16.373A1.371,1.371,0,0,1,15.006,26.4V22.852a1.372,1.372,0,0,1,.4-.965l.068-.068,12.61-12.61a.341.341,0,0,0-.239-.581H7.265A5.017,5.017,0,0,0,2.25,13.642V32.78A5.017,5.017,0,0,0,7.265,37.8H29.137a5.017,5.017,0,0,0,5.015-5.015V14.924a.339.339,0,0,0-.581-.239L20.943,27.3Z" transform="translate(0 1.13)" fill="url(#linear-gradient)"/>
    </g>
    <g id="Path_48782" data-name="Path 48782" transform="translate(733 1645)" fill="none">
      <path d="M48,0A48,48,0,1,1,0,48,48,48,0,0,1,48,0Z" stroke="none"/>
      <path d="M 48 2 C 41.78915786743164 2 35.76515579223633 3.215957641601562 30.09534454345703 5.614082336425781 C 24.61792755126953 7.930831909179688 19.69828796386719 11.24788665771484 15.47308349609375 15.47308349609375 C 11.24788665771484 19.69828796386719 7.930831909179688 24.61792755126953 5.614082336425781 30.09534454345703 C 3.215957641601562 35.76515579223633 2 41.78915786743164 2 48 C 2 54.21084213256836 3.215957641601562 60.23484420776367 5.614082336425781 65.90465545654297 C 7.930831909179688 71.38207244873047 11.24788665771484 76.30171203613281 15.47308349609375 80.52691650390625 C 19.69828796386719 84.75211334228516 24.61792755126953 88.06916809082031 30.09534454345703 90.38591766357422 C 35.76515579223633 92.78404235839844 41.78915786743164 94 48 94 C 54.21084213256836 94 60.23484420776367 92.78404235839844 65.90465545654297 90.38591766357422 C 71.38207244873047 88.06916809082031 76.30171203613281 84.75211334228516 80.52691650390625 80.52691650390625 C 84.75211334228516 76.30171203613281 88.06916809082031 71.38207244873047 90.38591766357422 65.90465545654297 C 92.78404235839844 60.23484420776367 94 54.21084213256836 94 48 C 94 41.78915786743164 92.78404235839844 35.76515579223633 90.38591766357422 30.09534454345703 C 88.06916809082031 24.61792755126953 84.75211334228516 19.69828796386719 80.52691650390625 15.47308349609375 C 76.30171203613281 11.24788665771484 71.38207244873047 7.930831909179688 65.90465545654297 5.614082336425781 C 60.23484420776367 3.215957641601562 54.21084213256836 2 48 2 M 48 0 C 74.50967407226562 0 96 21.49032592773438 96 48 C 96 74.50967407226562 74.50967407226562 96 48 96 C 21.49032592773438 96 0 74.50967407226562 0 48 C 0 21.49032592773438 21.49032592773438 0 48 0 Z" stroke="none" fill="#6b94e5"/>
    </g>
  </g>
</svg>
