<svg xmlns="http://www.w3.org/2000/svg" width="79.393" height="79.393" viewBox="0 0 79.393 79.393">
  <g id="Group_21705" data-name="Group 21705" transform="translate(-138.917 -69.459)">
    <g id="Path_48793" data-name="Path 48793" transform="translate(138.917 69.459)" fill="none">
      <path d="M39.7,0A39.7,39.7,0,1,1,0,39.7,39.7,39.7,0,0,1,39.7,0Z" stroke="none"/>
      <path d="M 39.69643783569336 3 C 34.74112701416016 3 29.93563842773438 3.969841003417969 25.4134521484375 5.882553100585938 C 21.04402542114258 7.730659484863281 17.11923599243164 10.37703704833984 13.74813842773438 13.74813842773438 C 10.37703704833984 17.11923599243164 7.730659484863281 21.04402542114258 5.882553100585938 25.4134521484375 C 3.969841003417969 29.93563842773438 3 34.74112701416016 3 39.69643783569336 C 3 44.65174865722656 3.969841003417969 49.45723724365234 5.882553100585938 53.97942352294922 C 7.730659484863281 58.34885025024414 10.37703704833984 62.27363586425781 13.74813842773438 65.64473724365234 C 17.11923599243164 69.01583862304688 21.04402542114258 71.66221618652344 25.4134521484375 73.51032257080078 C 29.93563842773438 75.42303466796875 34.74112701416016 76.39287567138672 39.69643783569336 76.39287567138672 C 44.65174865722656 76.39287567138672 49.45723724365234 75.42303466796875 53.97942352294922 73.51032257080078 C 58.34885025024414 71.66221618652344 62.27363586425781 69.01583862304688 65.64473724365234 65.64473724365234 C 69.01583862304688 62.27363586425781 71.66221618652344 58.34885025024414 73.51032257080078 53.97942352294922 C 75.42303466796875 49.45723724365234 76.39287567138672 44.65174865722656 76.39287567138672 39.69643783569336 C 76.39287567138672 34.74112701416016 75.42303466796875 29.93563842773438 73.51032257080078 25.4134521484375 C 71.66221618652344 21.04402542114258 69.01583862304688 17.11923599243164 65.64473724365234 13.74813842773438 C 62.27363586425781 10.37703704833984 58.34885025024414 7.730659484863281 53.97942352294922 5.882553100585938 C 49.45723724365234 3.969841003417969 44.65174865722656 3 39.69643783569336 3 M 39.69643783569336 0 C 61.62017440795898 0 79.39287567138672 17.77270126342773 79.39287567138672 39.69643783569336 C 79.39287567138672 61.62017440795898 61.62017440795898 79.39287567138672 39.69643783569336 79.39287567138672 C 17.77270126342773 79.39287567138672 0 61.62017440795898 0 39.69643783569336 C 0 17.77270126342773 17.77270126342773 0 39.69643783569336 0 Z" stroke="none" fill="#212957"/>
    </g>
    <text id="_3" data-name="3" transform="translate(177.974 115.762)" fill="#212957" font-size="25" font-family="Poppins-Regular, Poppins"><tspan x="-7.363" y="0">3</tspan></text>
  </g>
</svg>
