<svg xmlns="http://www.w3.org/2000/svg" xmlns:xlink="http://www.w3.org/1999/xlink" width="2241.502" height="814.773" viewBox="0 0 2241.502 814.773">
  <defs>
    <linearGradient id="linear-gradient" x1="0.5" x2="0.5" y2="1" gradientUnits="objectBoundingBox">
      <stop offset="0" stop-color="#5ea2ef"/>
      <stop offset="1" stop-color="#d12d9c"/>
    </linearGradient>
  </defs>
  <path id="Subtraction_4" data-name="Subtraction 4" d="M3099.98,20153.951v0H2830v-441.842l17.667,24.469a.071.071,0,0,0,.005-.031c.534-1.9,2.594-8.936,6.708-19.439,2.719-6.955,5.8-14.037,9.145-21.051,4.2-8.791,8.808-17.426,13.685-25.664a293.929,293.929,0,0,1,43.016-56.412,251.443,251.443,0,0,1,30.336-26.357,232.7,232.7,0,0,1,36.907-22.2c22.225-10.682,38.625-18.822,48.743-24.2,8.33-4.424,12.477-7.016,12.324-7.7-.031-.123-.192-.182-.492-.182-2.978,0-18.527,6.014-20.291,6.7l-.042.018.01-.01c.024-.031,2.563-3.217,7.749-8.623a327.044,327.044,0,0,1,24.43-22.754,478.181,478.181,0,0,1,40.08-30.312v675.6Zm1971.521,0h0v0l-1921.43,0v-706.07c5.087-2.775,10.35-5.557,15.645-8.266,56.991-29.152,122.036-52.383,193.328-69.049,20.646-4.824,42.056-9.148,63.638-12.848,22.749-3.906,46.364-7.238,70.187-9.906,24.971-2.795,50.865-4.941,76.962-6.377,27.281-1.5,55.525-2.256,83.949-2.256,29.4,0,59.6.83,89.743,2.465,28.647,1.555,58.2,3.893,87.849,6.951,27.948,2.873,56.916,6.49,86.1,10.75,27.069,3.939,55.488,8.609,84.467,13.877,111.637,20.311,219.742,47.287,324.287,73.377l.019.006,1,.25c46.4,11.574,94.377,23.541,141.24,34.523,25.471,5.967,48.429,11.141,70.186,15.814,24.508,5.273,47.3,9.883,69.691,14.092,49.782,9.344,95.03,16.191,138.329,20.936,23.423,2.563,46.583,4.523,68.836,5.828,23.285,1.363,46.416,2.053,68.751,2.053,3.272,0,6.69-.014,10.451-.045,20.39-.2,39.764-1.189,57.584-2.941a448.6,448.6,0,0,0,48.073-7.217,308.862,308.862,0,0,0,39.436-10.9A220,220,0,0,0,5071.5,19505Z" transform="translate(-2830 -19339.178)" fill="url(#linear-gradient)"/>
</svg>
