<svg xmlns="http://www.w3.org/2000/svg" width="46.415" height="45.793" viewBox="0 0 46.415 45.793">
  <g id="Layer_2" transform="translate(2.121 1.5)">
    <g id="Group_20891" data-name="Group 20891" transform="translate(0 0)">
      <line id="Line_17" data-name="Line 17" y2="3.662" transform="translate(21.737 10.986)" fill="none" stroke="#cb3c76" stroke-linecap="round" stroke-linejoin="round" stroke-miterlimit="10" stroke-width="3"/>
      <line id="Line_18" data-name="Line 18" y2="2.746" transform="translate(21.737 28.38)" fill="none" stroke="#cb3c76" stroke-linecap="round" stroke-linejoin="round" stroke-miterlimit="10" stroke-width="3"/>
      <path id="Path_48765" data-name="Path 48765" d="M14.528,24.227h4.585a3.057,3.057,0,0,0,0-6.113H16.057a3.057,3.057,0,0,1,0-6.113h4.585" transform="translate(3.812 3.283)" fill="none" stroke="#cb3c76" stroke-linecap="round" stroke-linejoin="round" stroke-miterlimit="10" stroke-width="3"/>
      <path id="Path_48766" data-name="Path 48766" d="M21.283,6A15.283,15.283,0,1,1,6,21.283V16.7" transform="translate(0.113 0.113)" fill="none" stroke="#cb3c76" stroke-linecap="round" stroke-linejoin="round" stroke-miterlimit="10" stroke-width="3"/>
      <path id="Path_48767" data-name="Path 48767" d="M14.227,19.113,8.113,13,2,19.113" transform="translate(-2 3.812)" fill="none" stroke="#cb3c76" stroke-linecap="round" stroke-linejoin="round" stroke-miterlimit="10" stroke-width="3"/>
      <path id="Path_48768" data-name="Path 48768" d="M16,2a21.4,21.4,0,0,1,0,42.793" transform="translate(5.397 -2)" fill="none" stroke="#cb3c76" stroke-linecap="round" stroke-linejoin="round" stroke-miterlimit="10" stroke-width="3"/>
    </g>
  </g>
</svg>
