<svg id="world_www_web_website" data-name="world www web website" xmlns="http://www.w3.org/2000/svg" xmlns:xlink="http://www.w3.org/1999/xlink" width="44.182" height="44.182" viewBox="0 0 44.182 44.182">
  <defs>
    <linearGradient id="linear-gradient" x1="0.5" x2="0.5" y2="1" gradientUnits="objectBoundingBox">
      <stop offset="0" stop-color="#e75d7a"/>
      <stop offset="1" stop-color="#c12280"/>
    </linearGradient>
  </defs>
  <path id="Path_48771" data-name="Path 48771" d="M25.091,3A22.091,22.091,0,1,0,47.182,25.091,22.091,22.091,0,0,0,25.091,3ZM36.459,31.735a41.446,41.446,0,0,0,.527-6.644,40.307,40.307,0,0,0-.544-6.644c4.571,1.682,7.341,4.231,7.341,6.644S40.911,30.189,36.459,31.735ZM6.4,25.091c0-2.5,2.872-5.013,7.324-6.644a41.446,41.446,0,0,0-.527,6.644,40.308,40.308,0,0,0,.544,6.644C9.168,30.053,6.4,27.5,6.4,25.091ZM17.444,8.1a24.13,24.13,0,0,0-2.855,6.491A24.113,24.113,0,0,0,8.1,17.427,18.692,18.692,0,0,1,17.444,8.1ZM8.1,32.738A24.861,24.861,0,0,0,15.439,35.8h.153a39.764,39.764,0,0,0,9.5,1.19,28.819,28.819,0,0,0,2.991-.1,1.7,1.7,0,1,0-.238-3.4q-1.342.1-2.753.1a35.549,35.549,0,0,1-7.681-.8,36.246,36.246,0,0,1-.816-7.7c0-11.011,4.486-18.692,8.5-18.692,1.7,0,3.4,1.291,4.911,3.637a1.7,1.7,0,1,0,2.872-1.8,1.462,1.462,0,0,0-.119-.17,18.692,18.692,0,0,1,9.329,9.38,25.387,25.387,0,0,0-7.613-3.127h0a39.441,39.441,0,0,0-9.38-1.122,28.817,28.817,0,0,0-2.991.1,1.7,1.7,0,1,0,.238,3.4q1.359-.1,2.753-.1a35.549,35.549,0,0,1,7.681.8,36.246,36.246,0,0,1,.816,7.7c0,11.011-4.486,18.692-8.5,18.692-1.7,0-3.4-1.291-4.911-3.636a1.7,1.7,0,1,0-2.872,1.8,1.462,1.462,0,0,0,.119.17A18.692,18.692,0,0,1,8.1,32.738Zm24.64,9.346a24.13,24.13,0,0,0,2.855-6.542,24.113,24.113,0,0,0,6.491-2.787A18.692,18.692,0,0,1,32.738,42.084Z" transform="translate(-3 -3)" fill="url(#linear-gradient)"/>
</svg>
