<svg xmlns="http://www.w3.org/2000/svg" xmlns:xlink="http://www.w3.org/1999/xlink" width="54.979" height="43.983" viewBox="0 0 54.979 43.983">
  <defs>
    <linearGradient id="linear-gradient" x1="0.5" x2="0.5" y2="1" gradientUnits="objectBoundingBox">
      <stop offset="0" stop-color="#e75d7a"/>
      <stop offset="1" stop-color="#c12280"/>
    </linearGradient>
  </defs>
  <path id="Icon_awesome-chalkboard-teacher" data-name="Icon awesome-chalkboard-teacher" d="M17.868,30.239a1.965,1.965,0,0,0-.606.094,11.332,11.332,0,0,1-3.517.594,11.342,11.342,0,0,1-3.518-.594,1.96,1.96,0,0,0-.606-.094A9.622,9.622,0,0,0,0,39.913a4.113,4.113,0,0,0,4.123,4.07H23.366a4.113,4.113,0,0,0,4.123-4.07A9.622,9.622,0,0,0,17.868,30.239ZM13.745,27.49A8.247,8.247,0,1,0,5.5,19.243,8.247,8.247,0,0,0,13.745,27.49ZM50.856,0H17.868a4.2,4.2,0,0,0-4.123,4.26V8.247a10.871,10.871,0,0,1,5.5,1.529V5.5H49.481V30.239h-5.5v-5.5h-11v5.5H26.438a10.949,10.949,0,0,1,3.41,5.5H50.856a4.2,4.2,0,0,0,4.123-4.26V4.26A4.2,4.2,0,0,0,50.856,0Z" transform="translate(0)" fill="url(#linear-gradient)"/>
</svg>
