<svg id="Group_20884" data-name="Group 20884" xmlns="http://www.w3.org/2000/svg" xmlns:xlink="http://www.w3.org/1999/xlink" width="75.913" height="43.984" viewBox="0 0 75.913 43.984">
  <defs>
    <linearGradient id="linear-gradient" x1="0.5" x2="0.5" y2="1" gradientUnits="objectBoundingBox">
      <stop offset="0" stop-color="#e75d7a"/>
      <stop offset="1" stop-color="#c12280"/>
    </linearGradient>
  </defs>
  <path id="Path_48763" data-name="Path 48763" d="M430.821,412.492c-.855-.662-1.7-.066-2.473-.193-1.154-.188-1.161.907-1.644,1.553l-8.009-2.864c.293-.145.47-.251.659-.324q18.348-7.061,36.7-14.1a1.7,1.7,0,0,1,1.117-.023q18.466,7.063,36.916,14.169c.134.052.261.122.516.243-.3.125-.51.215-.721.3-12.047,4.594-24.393,8.275-36.718,12.019a1.554,1.554,0,0,1-.852.049q-11.64-3.577-23.269-7.19c-.255-.079-.5-.194-.9-.349,1.174-.39,2.2-.764,3.249-1.067a1.134,1.134,0,0,0,.985-1.1c-1.194.262-2.385.516-3.573.785-1.629.37-1.6.376-1.7,2.018q-.434,7.707-.911,15.411a.794.794,0,0,1-.325.575,7.046,7.046,0,0,1-6.616-.034.9.9,0,0,1-.307-.655,17.007,17.007,0,0,1,.972-6.781c1.085-3.249,2.336-6.443,3.518-9.66a2.817,2.817,0,0,0,.18-.4,2.441,2.441,0,0,1,2.592-2.157A2.563,2.563,0,0,0,430.821,412.492Z" transform="translate(-418.696 -396.456)" fill-rule="evenodd" fill="url(#linear-gradient)"/>
  <path id="Path_48764" data-name="Path 48764" d="M545.724,583.973c3.381,1.039,6.633,2.037,9.885,3.038,4.079,1.257,8.154,2.525,12.24,3.76a2.195,2.195,0,0,0,1.2-.009q10.655-3.249,21.3-6.541c.232-.072.468-.131.794-.222v.847c0,3.267-.087,6.537.027,9.8a6.611,6.611,0,0,1-3.081,5.887,24.145,24.145,0,0,1-9.687,3.889,48.4,48.4,0,0,1-22.26-.573,19.588,19.588,0,0,1-8.293-4.1,6.017,6.017,0,0,1-2.14-4.767c.042-3.365.012-6.732.012-10.1Z" transform="translate(-530.464 -561.462)" fill-rule="evenodd" fill="url(#linear-gradient)"/>
</svg>
